<?xml version="1.0" encoding="utf-8" standalone="no"?>
<!DOCTYPE svg PUBLIC "-//W3C//DTD SVG 1.1//EN"
  "http://www.w3.org/Graphics/SVG/1.1/DTD/svg11.dtd">
<!-- Created with matplotlib (http://matplotlib.org/) -->
<svg height="144pt" version="1.1" viewBox="0 0 342 144" width="342pt" xmlns="http://www.w3.org/2000/svg" xmlns:xlink="http://www.w3.org/1999/xlink">
 <defs>
  <style type="text/css">
*{stroke-linecap:butt;stroke-linejoin:round;}
  </style>
 </defs>
 <g id="figure_1">
  <g id="patch_1">
   <path d="M 0 144 
L 342 144 
L 342 0 
L 0 0 
z
" style="fill:#ffffff;"/>
  </g>
  <g id="axes_1">
   <g id="patch_2">
    <path d="M 32.06 115.72 
L 301.93 115.72 
L 301.93 9 
L 32.06 9 
z
" style="fill:#ffffff;"/>
   </g>
   <g id="matplotlib.axis_1">
    <g id="xtick_1">
     <g id="line2d_1">
      <defs>
       <path d="M 0 0 
L 0 3.5 
" id="m70ccc4bda4" style="stroke:#000000;stroke-width:0.8;"/>
      </defs>
      <g>
       <use style="stroke:#000000;stroke-width:0.8;" x="39.161842" xlink:href="#m70ccc4bda4" y="115.72"/>
      </g>
     </g>
     <g id="text_1">
      <!-- ≤ 10 -->
      <defs>
       <path d="M 73.1875 49.609375 
L 26.3125 36.078125 
L 73.1875 22.703125 
L 73.1875 14.015625 
L 10.59375 31.984375 
L 10.59375 40.28125 
L 73.1875 58.203125 
z
M 10.59375 8.296875 
L 73.1875 8.296875 
L 73.1875 0 
L 10.59375 0 
z
" id="DejaVuSans-2264"/>
       <path id="DejaVuSans-20"/>
       <path d="M 12.40625 8.296875 
L 28.515625 8.296875 
L 28.515625 63.921875 
L 10.984375 60.40625 
L 10.984375 69.390625 
L 28.421875 72.90625 
L 38.28125 72.90625 
L 38.28125 8.296875 
L 54.390625 8.296875 
L 54.390625 0 
L 12.40625 0 
z
" id="DejaVuSans-31"/>
       <path d="M 31.78125 66.40625 
Q 24.171875 66.40625 20.328125 58.90625 
Q 16.5 51.421875 16.5 36.375 
Q 16.5 21.390625 20.328125 13.890625 
Q 24.171875 6.390625 31.78125 6.390625 
Q 39.453125 6.390625 43.28125 13.890625 
Q 47.125 21.390625 47.125 36.375 
Q 47.125 51.421875 43.28125 58.90625 
Q 39.453125 66.40625 31.78125 66.40625 
z
M 31.78125 74.21875 
Q 44.046875 74.21875 50.515625 64.515625 
Q 56.984375 54.828125 56.984375 36.375 
Q 56.984375 17.96875 50.515625 8.265625 
Q 44.046875 -1.421875 31.78125 -1.421875 
Q 19.53125 -1.421875 13.0625 8.265625 
Q 6.59375 17.96875 6.59375 36.375 
Q 6.59375 54.828125 13.0625 64.515625 
Q 19.53125 74.21875 31.78125 74.21875 
z
" id="DejaVuSans-30"/>
      </defs>
      <g transform="translate(33.091139 126.519219)scale(0.05 -0.05)">
       <use xlink:href="#DejaVuSans-2264"/>
       <use x="83.789062" xlink:href="#DejaVuSans-20"/>
       <use x="115.576172" xlink:href="#DejaVuSans-31"/>
       <use x="179.199219" xlink:href="#DejaVuSans-30"/>
      </g>
     </g>
    </g>
    <g id="xtick_2">
     <g id="line2d_2">
      <g>
       <use style="stroke:#000000;stroke-width:0.8;" x="53.365526" xlink:href="#m70ccc4bda4" y="115.72"/>
      </g>
     </g>
     <g id="text_2">
      <!-- 15 -->
      <defs>
       <path d="M 10.796875 72.90625 
L 49.515625 72.90625 
L 49.515625 64.59375 
L 19.828125 64.59375 
L 19.828125 46.734375 
Q 21.96875 47.46875 24.109375 47.828125 
Q 26.265625 48.1875 28.421875 48.1875 
Q 40.625 48.1875 47.75 41.5 
Q 54.890625 34.8125 54.890625 23.390625 
Q 54.890625 11.625 47.5625 5.09375 
Q 40.234375 -1.421875 26.90625 -1.421875 
Q 22.3125 -1.421875 17.546875 -0.640625 
Q 12.796875 0.140625 7.71875 1.703125 
L 7.71875 11.625 
Q 12.109375 9.234375 16.796875 8.0625 
Q 21.484375 6.890625 26.703125 6.890625 
Q 35.15625 6.890625 40.078125 11.328125 
Q 45.015625 15.765625 45.015625 23.390625 
Q 45.015625 31 40.078125 35.4375 
Q 35.15625 39.890625 26.703125 39.890625 
Q 22.75 39.890625 18.8125 39.015625 
Q 14.890625 38.140625 10.796875 36.28125 
z
" id="DejaVuSans-35"/>
      </defs>
      <g transform="translate(50.184276 126.519219)scale(0.05 -0.05)">
       <use xlink:href="#DejaVuSans-31"/>
       <use x="63.623047" xlink:href="#DejaVuSans-35"/>
      </g>
     </g>
    </g>
    <g id="xtick_3">
     <g id="line2d_3">
      <g>
       <use style="stroke:#000000;stroke-width:0.8;" x="67.569211" xlink:href="#m70ccc4bda4" y="115.72"/>
      </g>
     </g>
     <g id="text_3">
      <!-- 20 -->
      <defs>
       <path d="M 19.1875 8.296875 
L 53.609375 8.296875 
L 53.609375 0 
L 7.328125 0 
L 7.328125 8.296875 
Q 12.9375 14.109375 22.625 23.890625 
Q 32.328125 33.6875 34.8125 36.53125 
Q 39.546875 41.84375 41.421875 45.53125 
Q 43.3125 49.21875 43.3125 52.78125 
Q 43.3125 58.59375 39.234375 62.25 
Q 35.15625 65.921875 28.609375 65.921875 
Q 23.96875 65.921875 18.8125 64.3125 
Q 13.671875 62.703125 7.8125 59.421875 
L 7.8125 69.390625 
Q 13.765625 71.78125 18.9375 73 
Q 24.125 74.21875 28.421875 74.21875 
Q 39.75 74.21875 46.484375 68.546875 
Q 53.21875 62.890625 53.21875 53.421875 
Q 53.21875 48.921875 51.53125 44.890625 
Q 49.859375 40.875 45.40625 35.40625 
Q 44.1875 33.984375 37.640625 27.21875 
Q 31.109375 20.453125 19.1875 8.296875 
z
" id="DejaVuSans-32"/>
      </defs>
      <g transform="translate(64.387961 126.519219)scale(0.05 -0.05)">
       <use xlink:href="#DejaVuSans-32"/>
       <use x="63.623047" xlink:href="#DejaVuSans-30"/>
      </g>
     </g>
    </g>
    <g id="xtick_4">
     <g id="line2d_4">
      <g>
       <use style="stroke:#000000;stroke-width:0.8;" x="81.772895" xlink:href="#m70ccc4bda4" y="115.72"/>
      </g>
     </g>
     <g id="text_4">
      <!-- 25 -->
      <g transform="translate(78.591645 126.519219)scale(0.05 -0.05)">
       <use xlink:href="#DejaVuSans-32"/>
       <use x="63.623047" xlink:href="#DejaVuSans-35"/>
      </g>
     </g>
    </g>
    <g id="xtick_5">
     <g id="line2d_5">
      <g>
       <use style="stroke:#000000;stroke-width:0.8;" x="95.976579" xlink:href="#m70ccc4bda4" y="115.72"/>
      </g>
     </g>
     <g id="text_5">
      <!-- 30 -->
      <defs>
       <path d="M 40.578125 39.3125 
Q 47.65625 37.796875 51.625 33 
Q 55.609375 28.21875 55.609375 21.1875 
Q 55.609375 10.40625 48.1875 4.484375 
Q 40.765625 -1.421875 27.09375 -1.421875 
Q 22.515625 -1.421875 17.65625 -0.515625 
Q 12.796875 0.390625 7.625 2.203125 
L 7.625 11.71875 
Q 11.71875 9.328125 16.59375 8.109375 
Q 21.484375 6.890625 26.8125 6.890625 
Q 36.078125 6.890625 40.9375 10.546875 
Q 45.796875 14.203125 45.796875 21.1875 
Q 45.796875 27.640625 41.28125 31.265625 
Q 36.765625 34.90625 28.71875 34.90625 
L 20.21875 34.90625 
L 20.21875 43.015625 
L 29.109375 43.015625 
Q 36.375 43.015625 40.234375 45.921875 
Q 44.09375 48.828125 44.09375 54.296875 
Q 44.09375 59.90625 40.109375 62.90625 
Q 36.140625 65.921875 28.71875 65.921875 
Q 24.65625 65.921875 20.015625 65.03125 
Q 15.375 64.15625 9.8125 62.3125 
L 9.8125 71.09375 
Q 15.4375 72.65625 20.34375 73.4375 
Q 25.25 74.21875 29.59375 74.21875 
Q 40.828125 74.21875 47.359375 69.109375 
Q 53.90625 64.015625 53.90625 55.328125 
Q 53.90625 49.265625 50.4375 45.09375 
Q 46.96875 40.921875 40.578125 39.3125 
z
" id="DejaVuSans-33"/>
      </defs>
      <g transform="translate(92.795329 126.519219)scale(0.05 -0.05)">
       <use xlink:href="#DejaVuSans-33"/>
       <use x="63.623047" xlink:href="#DejaVuSans-30"/>
      </g>
     </g>
    </g>
    <g id="xtick_6">
     <g id="line2d_6">
      <g>
       <use style="stroke:#000000;stroke-width:0.8;" x="110.180263" xlink:href="#m70ccc4bda4" y="115.72"/>
      </g>
     </g>
     <g id="text_6">
      <!-- 35 -->
      <g transform="translate(106.999013 126.519219)scale(0.05 -0.05)">
       <use xlink:href="#DejaVuSans-33"/>
       <use x="63.623047" xlink:href="#DejaVuSans-35"/>
      </g>
     </g>
    </g>
    <g id="xtick_7">
     <g id="line2d_7">
      <g>
       <use style="stroke:#000000;stroke-width:0.8;" x="124.383947" xlink:href="#m70ccc4bda4" y="115.72"/>
      </g>
     </g>
     <g id="text_7">
      <!-- 40 -->
      <defs>
       <path d="M 37.796875 64.3125 
L 12.890625 25.390625 
L 37.796875 25.390625 
z
M 35.203125 72.90625 
L 47.609375 72.90625 
L 47.609375 25.390625 
L 58.015625 25.390625 
L 58.015625 17.1875 
L 47.609375 17.1875 
L 47.609375 0 
L 37.796875 0 
L 37.796875 17.1875 
L 4.890625 17.1875 
L 4.890625 26.703125 
z
" id="DejaVuSans-34"/>
      </defs>
      <g transform="translate(121.202697 126.519219)scale(0.05 -0.05)">
       <use xlink:href="#DejaVuSans-34"/>
       <use x="63.623047" xlink:href="#DejaVuSans-30"/>
      </g>
     </g>
    </g>
    <g id="xtick_8">
     <g id="line2d_8">
      <g>
       <use style="stroke:#000000;stroke-width:0.8;" x="138.587632" xlink:href="#m70ccc4bda4" y="115.72"/>
      </g>
     </g>
     <g id="text_8">
      <!-- 45 -->
      <g transform="translate(135.406382 126.519219)scale(0.05 -0.05)">
       <use xlink:href="#DejaVuSans-34"/>
       <use x="63.623047" xlink:href="#DejaVuSans-35"/>
      </g>
     </g>
    </g>
    <g id="xtick_9">
     <g id="line2d_9">
      <g>
       <use style="stroke:#000000;stroke-width:0.8;" x="152.791316" xlink:href="#m70ccc4bda4" y="115.72"/>
      </g>
     </g>
     <g id="text_9">
      <!-- 50 -->
      <g transform="translate(149.610066 126.519219)scale(0.05 -0.05)">
       <use xlink:href="#DejaVuSans-35"/>
       <use x="63.623047" xlink:href="#DejaVuSans-30"/>
      </g>
     </g>
    </g>
    <g id="xtick_10">
     <g id="line2d_10">
      <g>
       <use style="stroke:#000000;stroke-width:0.8;" x="166.995" xlink:href="#m70ccc4bda4" y="115.72"/>
      </g>
     </g>
     <g id="text_10">
      <!-- 55 -->
      <g transform="translate(163.81375 126.519219)scale(0.05 -0.05)">
       <use xlink:href="#DejaVuSans-35"/>
       <use x="63.623047" xlink:href="#DejaVuSans-35"/>
      </g>
     </g>
    </g>
    <g id="xtick_11">
     <g id="line2d_11">
      <g>
       <use style="stroke:#000000;stroke-width:0.8;" x="181.198684" xlink:href="#m70ccc4bda4" y="115.72"/>
      </g>
     </g>
     <g id="text_11">
      <!-- 60 -->
      <defs>
       <path d="M 33.015625 40.375 
Q 26.375 40.375 22.484375 35.828125 
Q 18.609375 31.296875 18.609375 23.390625 
Q 18.609375 15.53125 22.484375 10.953125 
Q 26.375 6.390625 33.015625 6.390625 
Q 39.65625 6.390625 43.53125 10.953125 
Q 47.40625 15.53125 47.40625 23.390625 
Q 47.40625 31.296875 43.53125 35.828125 
Q 39.65625 40.375 33.015625 40.375 
z
M 52.59375 71.296875 
L 52.59375 62.3125 
Q 48.875 64.0625 45.09375 64.984375 
Q 41.3125 65.921875 37.59375 65.921875 
Q 27.828125 65.921875 22.671875 59.328125 
Q 17.53125 52.734375 16.796875 39.40625 
Q 19.671875 43.65625 24.015625 45.921875 
Q 28.375 48.1875 33.59375 48.1875 
Q 44.578125 48.1875 50.953125 41.515625 
Q 57.328125 34.859375 57.328125 23.390625 
Q 57.328125 12.15625 50.6875 5.359375 
Q 44.046875 -1.421875 33.015625 -1.421875 
Q 20.359375 -1.421875 13.671875 8.265625 
Q 6.984375 17.96875 6.984375 36.375 
Q 6.984375 53.65625 15.1875 63.9375 
Q 23.390625 74.21875 37.203125 74.21875 
Q 40.921875 74.21875 44.703125 73.484375 
Q 48.484375 72.75 52.59375 71.296875 
z
" id="DejaVuSans-36"/>
      </defs>
      <g transform="translate(178.017434 126.519219)scale(0.05 -0.05)">
       <use xlink:href="#DejaVuSans-36"/>
       <use x="63.623047" xlink:href="#DejaVuSans-30"/>
      </g>
     </g>
    </g>
    <g id="xtick_12">
     <g id="line2d_12">
      <g>
       <use style="stroke:#000000;stroke-width:0.8;" x="195.402368" xlink:href="#m70ccc4bda4" y="115.72"/>
      </g>
     </g>
     <g id="text_12">
      <!-- 65 -->
      <g transform="translate(192.221118 126.519219)scale(0.05 -0.05)">
       <use xlink:href="#DejaVuSans-36"/>
       <use x="63.623047" xlink:href="#DejaVuSans-35"/>
      </g>
     </g>
    </g>
    <g id="xtick_13">
     <g id="line2d_13">
      <g>
       <use style="stroke:#000000;stroke-width:0.8;" x="209.606053" xlink:href="#m70ccc4bda4" y="115.72"/>
      </g>
     </g>
     <g id="text_13">
      <!-- 70 -->
      <defs>
       <path d="M 8.203125 72.90625 
L 55.078125 72.90625 
L 55.078125 68.703125 
L 28.609375 0 
L 18.3125 0 
L 43.21875 64.59375 
L 8.203125 64.59375 
z
" id="DejaVuSans-37"/>
      </defs>
      <g transform="translate(206.424803 126.519219)scale(0.05 -0.05)">
       <use xlink:href="#DejaVuSans-37"/>
       <use x="63.623047" xlink:href="#DejaVuSans-30"/>
      </g>
     </g>
    </g>
    <g id="xtick_14">
     <g id="line2d_14">
      <g>
       <use style="stroke:#000000;stroke-width:0.8;" x="223.809737" xlink:href="#m70ccc4bda4" y="115.72"/>
      </g>
     </g>
     <g id="text_14">
      <!-- 75 -->
      <g transform="translate(220.628487 126.519219)scale(0.05 -0.05)">
       <use xlink:href="#DejaVuSans-37"/>
       <use x="63.623047" xlink:href="#DejaVuSans-35"/>
      </g>
     </g>
    </g>
    <g id="xtick_15">
     <g id="line2d_15">
      <g>
       <use style="stroke:#000000;stroke-width:0.8;" x="238.013421" xlink:href="#m70ccc4bda4" y="115.72"/>
      </g>
     </g>
     <g id="text_15">
      <!-- 80 -->
      <defs>
       <path d="M 31.78125 34.625 
Q 24.75 34.625 20.71875 30.859375 
Q 16.703125 27.09375 16.703125 20.515625 
Q 16.703125 13.921875 20.71875 10.15625 
Q 24.75 6.390625 31.78125 6.390625 
Q 38.8125 6.390625 42.859375 10.171875 
Q 46.921875 13.96875 46.921875 20.515625 
Q 46.921875 27.09375 42.890625 30.859375 
Q 38.875 34.625 31.78125 34.625 
z
M 21.921875 38.8125 
Q 15.578125 40.375 12.03125 44.71875 
Q 8.5 49.078125 8.5 55.328125 
Q 8.5 64.0625 14.71875 69.140625 
Q 20.953125 74.21875 31.78125 74.21875 
Q 42.671875 74.21875 48.875 69.140625 
Q 55.078125 64.0625 55.078125 55.328125 
Q 55.078125 49.078125 51.53125 44.71875 
Q 48 40.375 41.703125 38.8125 
Q 48.828125 37.15625 52.796875 32.3125 
Q 56.78125 27.484375 56.78125 20.515625 
Q 56.78125 9.90625 50.3125 4.234375 
Q 43.84375 -1.421875 31.78125 -1.421875 
Q 19.734375 -1.421875 13.25 4.234375 
Q 6.78125 9.90625 6.78125 20.515625 
Q 6.78125 27.484375 10.78125 32.3125 
Q 14.796875 37.15625 21.921875 38.8125 
z
M 18.3125 54.390625 
Q 18.3125 48.734375 21.84375 45.5625 
Q 25.390625 42.390625 31.78125 42.390625 
Q 38.140625 42.390625 41.71875 45.5625 
Q 45.3125 48.734375 45.3125 54.390625 
Q 45.3125 60.0625 41.71875 63.234375 
Q 38.140625 66.40625 31.78125 66.40625 
Q 25.390625 66.40625 21.84375 63.234375 
Q 18.3125 60.0625 18.3125 54.390625 
z
" id="DejaVuSans-38"/>
      </defs>
      <g transform="translate(234.832171 126.519219)scale(0.05 -0.05)">
       <use xlink:href="#DejaVuSans-38"/>
       <use x="63.623047" xlink:href="#DejaVuSans-30"/>
      </g>
     </g>
    </g>
    <g id="xtick_16">
     <g id="line2d_16">
      <g>
       <use style="stroke:#000000;stroke-width:0.8;" x="252.217105" xlink:href="#m70ccc4bda4" y="115.72"/>
      </g>
     </g>
     <g id="text_16">
      <!-- 85 -->
      <g transform="translate(249.035855 126.519219)scale(0.05 -0.05)">
       <use xlink:href="#DejaVuSans-38"/>
       <use x="63.623047" xlink:href="#DejaVuSans-35"/>
      </g>
     </g>
    </g>
    <g id="xtick_17">
     <g id="line2d_17">
      <g>
       <use style="stroke:#000000;stroke-width:0.8;" x="266.420789" xlink:href="#m70ccc4bda4" y="115.72"/>
      </g>
     </g>
     <g id="text_17">
      <!-- 90 -->
      <defs>
       <path d="M 10.984375 1.515625 
L 10.984375 10.5 
Q 14.703125 8.734375 18.5 7.8125 
Q 22.3125 6.890625 25.984375 6.890625 
Q 35.75 6.890625 40.890625 13.453125 
Q 46.046875 20.015625 46.78125 33.40625 
Q 43.953125 29.203125 39.59375 26.953125 
Q 35.25 24.703125 29.984375 24.703125 
Q 19.046875 24.703125 12.671875 31.3125 
Q 6.296875 37.9375 6.296875 49.421875 
Q 6.296875 60.640625 12.9375 67.421875 
Q 19.578125 74.21875 30.609375 74.21875 
Q 43.265625 74.21875 49.921875 64.515625 
Q 56.59375 54.828125 56.59375 36.375 
Q 56.59375 19.140625 48.40625 8.859375 
Q 40.234375 -1.421875 26.421875 -1.421875 
Q 22.703125 -1.421875 18.890625 -0.6875 
Q 15.09375 0.046875 10.984375 1.515625 
z
M 30.609375 32.421875 
Q 37.25 32.421875 41.125 36.953125 
Q 45.015625 41.5 45.015625 49.421875 
Q 45.015625 57.28125 41.125 61.84375 
Q 37.25 66.40625 30.609375 66.40625 
Q 23.96875 66.40625 20.09375 61.84375 
Q 16.21875 57.28125 16.21875 49.421875 
Q 16.21875 41.5 20.09375 36.953125 
Q 23.96875 32.421875 30.609375 32.421875 
z
" id="DejaVuSans-39"/>
      </defs>
      <g transform="translate(263.239539 126.519219)scale(0.05 -0.05)">
       <use xlink:href="#DejaVuSans-39"/>
       <use x="63.623047" xlink:href="#DejaVuSans-30"/>
      </g>
     </g>
    </g>
    <g id="xtick_18">
     <g id="line2d_18">
      <g>
       <use style="stroke:#000000;stroke-width:0.8;" x="280.624474" xlink:href="#m70ccc4bda4" y="115.72"/>
      </g>
     </g>
     <g id="text_18">
      <!-- 95 -->
      <g transform="translate(277.443224 126.519219)scale(0.05 -0.05)">
       <use xlink:href="#DejaVuSans-39"/>
       <use x="63.623047" xlink:href="#DejaVuSans-35"/>
      </g>
     </g>
    </g>
    <g id="xtick_19">
     <g id="line2d_19">
      <g>
       <use style="stroke:#000000;stroke-width:0.8;" x="294.828158" xlink:href="#m70ccc4bda4" y="115.72"/>
      </g>
     </g>
     <g id="text_19">
      <!-- 100 -->
      <g transform="translate(290.056283 126.519219)scale(0.05 -0.05)">
       <use xlink:href="#DejaVuSans-31"/>
       <use x="63.623047" xlink:href="#DejaVuSans-30"/>
       <use x="127.246094" xlink:href="#DejaVuSans-30"/>
      </g>
     </g>
    </g>
    <g id="text_20">
     <!-- Prediction probability (certainty) [%] -->
     <defs>
      <path d="M 19.671875 64.796875 
L 19.671875 37.40625 
L 32.078125 37.40625 
Q 38.96875 37.40625 42.71875 40.96875 
Q 46.484375 44.53125 46.484375 51.125 
Q 46.484375 57.671875 42.71875 61.234375 
Q 38.96875 64.796875 32.078125 64.796875 
z
M 9.8125 72.90625 
L 32.078125 72.90625 
Q 44.34375 72.90625 50.609375 67.359375 
Q 56.890625 61.8125 56.890625 51.125 
Q 56.890625 40.328125 50.609375 34.8125 
Q 44.34375 29.296875 32.078125 29.296875 
L 19.671875 29.296875 
L 19.671875 0 
L 9.8125 0 
z
" id="DejaVuSans-50"/>
      <path d="M 41.109375 46.296875 
Q 39.59375 47.171875 37.8125 47.578125 
Q 36.03125 48 33.890625 48 
Q 26.265625 48 22.1875 43.046875 
Q 18.109375 38.09375 18.109375 28.8125 
L 18.109375 0 
L 9.078125 0 
L 9.078125 54.6875 
L 18.109375 54.6875 
L 18.109375 46.1875 
Q 20.953125 51.171875 25.484375 53.578125 
Q 30.03125 56 36.53125 56 
Q 37.453125 56 38.578125 55.875 
Q 39.703125 55.765625 41.0625 55.515625 
z
" id="DejaVuSans-72"/>
      <path d="M 56.203125 29.59375 
L 56.203125 25.203125 
L 14.890625 25.203125 
Q 15.484375 15.921875 20.484375 11.0625 
Q 25.484375 6.203125 34.421875 6.203125 
Q 39.59375 6.203125 44.453125 7.46875 
Q 49.3125 8.734375 54.109375 11.28125 
L 54.109375 2.78125 
Q 49.265625 0.734375 44.1875 -0.34375 
Q 39.109375 -1.421875 33.890625 -1.421875 
Q 20.796875 -1.421875 13.15625 6.1875 
Q 5.515625 13.8125 5.515625 26.8125 
Q 5.515625 40.234375 12.765625 48.109375 
Q 20.015625 56 32.328125 56 
Q 43.359375 56 49.78125 48.890625 
Q 56.203125 41.796875 56.203125 29.59375 
z
M 47.21875 32.234375 
Q 47.125 39.59375 43.09375 43.984375 
Q 39.0625 48.390625 32.421875 48.390625 
Q 24.90625 48.390625 20.390625 44.140625 
Q 15.875 39.890625 15.1875 32.171875 
z
" id="DejaVuSans-65"/>
      <path d="M 45.40625 46.390625 
L 45.40625 75.984375 
L 54.390625 75.984375 
L 54.390625 0 
L 45.40625 0 
L 45.40625 8.203125 
Q 42.578125 3.328125 38.25 0.953125 
Q 33.9375 -1.421875 27.875 -1.421875 
Q 17.96875 -1.421875 11.734375 6.484375 
Q 5.515625 14.40625 5.515625 27.296875 
Q 5.515625 40.1875 11.734375 48.09375 
Q 17.96875 56 27.875 56 
Q 33.9375 56 38.25 53.625 
Q 42.578125 51.265625 45.40625 46.390625 
z
M 14.796875 27.296875 
Q 14.796875 17.390625 18.875 11.75 
Q 22.953125 6.109375 30.078125 6.109375 
Q 37.203125 6.109375 41.296875 11.75 
Q 45.40625 17.390625 45.40625 27.296875 
Q 45.40625 37.203125 41.296875 42.84375 
Q 37.203125 48.484375 30.078125 48.484375 
Q 22.953125 48.484375 18.875 42.84375 
Q 14.796875 37.203125 14.796875 27.296875 
z
" id="DejaVuSans-64"/>
      <path d="M 9.421875 54.6875 
L 18.40625 54.6875 
L 18.40625 0 
L 9.421875 0 
z
M 9.421875 75.984375 
L 18.40625 75.984375 
L 18.40625 64.59375 
L 9.421875 64.59375 
z
" id="DejaVuSans-69"/>
      <path d="M 48.78125 52.59375 
L 48.78125 44.1875 
Q 44.96875 46.296875 41.140625 47.34375 
Q 37.3125 48.390625 33.40625 48.390625 
Q 24.65625 48.390625 19.8125 42.84375 
Q 14.984375 37.3125 14.984375 27.296875 
Q 14.984375 17.28125 19.8125 11.734375 
Q 24.65625 6.203125 33.40625 6.203125 
Q 37.3125 6.203125 41.140625 7.25 
Q 44.96875 8.296875 48.78125 10.40625 
L 48.78125 2.09375 
Q 45.015625 0.34375 40.984375 -0.53125 
Q 36.96875 -1.421875 32.421875 -1.421875 
Q 20.0625 -1.421875 12.78125 6.34375 
Q 5.515625 14.109375 5.515625 27.296875 
Q 5.515625 40.671875 12.859375 48.328125 
Q 20.21875 56 33.015625 56 
Q 37.15625 56 41.109375 55.140625 
Q 45.0625 54.296875 48.78125 52.59375 
z
" id="DejaVuSans-63"/>
      <path d="M 18.3125 70.21875 
L 18.3125 54.6875 
L 36.8125 54.6875 
L 36.8125 47.703125 
L 18.3125 47.703125 
L 18.3125 18.015625 
Q 18.3125 11.328125 20.140625 9.421875 
Q 21.96875 7.515625 27.59375 7.515625 
L 36.8125 7.515625 
L 36.8125 0 
L 27.59375 0 
Q 17.1875 0 13.234375 3.875 
Q 9.28125 7.765625 9.28125 18.015625 
L 9.28125 47.703125 
L 2.6875 47.703125 
L 2.6875 54.6875 
L 9.28125 54.6875 
L 9.28125 70.21875 
z
" id="DejaVuSans-74"/>
      <path d="M 30.609375 48.390625 
Q 23.390625 48.390625 19.1875 42.75 
Q 14.984375 37.109375 14.984375 27.296875 
Q 14.984375 17.484375 19.15625 11.84375 
Q 23.34375 6.203125 30.609375 6.203125 
Q 37.796875 6.203125 41.984375 11.859375 
Q 46.1875 17.53125 46.1875 27.296875 
Q 46.1875 37.015625 41.984375 42.703125 
Q 37.796875 48.390625 30.609375 48.390625 
z
M 30.609375 56 
Q 42.328125 56 49.015625 48.375 
Q 55.71875 40.765625 55.71875 27.296875 
Q 55.71875 13.875 49.015625 6.21875 
Q 42.328125 -1.421875 30.609375 -1.421875 
Q 18.84375 -1.421875 12.171875 6.21875 
Q 5.515625 13.875 5.515625 27.296875 
Q 5.515625 40.765625 12.171875 48.375 
Q 18.84375 56 30.609375 56 
z
" id="DejaVuSans-6f"/>
      <path d="M 54.890625 33.015625 
L 54.890625 0 
L 45.90625 0 
L 45.90625 32.71875 
Q 45.90625 40.484375 42.875 44.328125 
Q 39.84375 48.1875 33.796875 48.1875 
Q 26.515625 48.1875 22.3125 43.546875 
Q 18.109375 38.921875 18.109375 30.90625 
L 18.109375 0 
L 9.078125 0 
L 9.078125 54.6875 
L 18.109375 54.6875 
L 18.109375 46.1875 
Q 21.34375 51.125 25.703125 53.5625 
Q 30.078125 56 35.796875 56 
Q 45.21875 56 50.046875 50.171875 
Q 54.890625 44.34375 54.890625 33.015625 
z
" id="DejaVuSans-6e"/>
      <path d="M 18.109375 8.203125 
L 18.109375 -20.796875 
L 9.078125 -20.796875 
L 9.078125 54.6875 
L 18.109375 54.6875 
L 18.109375 46.390625 
Q 20.953125 51.265625 25.265625 53.625 
Q 29.59375 56 35.59375 56 
Q 45.5625 56 51.78125 48.09375 
Q 58.015625 40.1875 58.015625 27.296875 
Q 58.015625 14.40625 51.78125 6.484375 
Q 45.5625 -1.421875 35.59375 -1.421875 
Q 29.59375 -1.421875 25.265625 0.953125 
Q 20.953125 3.328125 18.109375 8.203125 
z
M 48.6875 27.296875 
Q 48.6875 37.203125 44.609375 42.84375 
Q 40.53125 48.484375 33.40625 48.484375 
Q 26.265625 48.484375 22.1875 42.84375 
Q 18.109375 37.203125 18.109375 27.296875 
Q 18.109375 17.390625 22.1875 11.75 
Q 26.265625 6.109375 33.40625 6.109375 
Q 40.53125 6.109375 44.609375 11.75 
Q 48.6875 17.390625 48.6875 27.296875 
z
" id="DejaVuSans-70"/>
      <path d="M 48.6875 27.296875 
Q 48.6875 37.203125 44.609375 42.84375 
Q 40.53125 48.484375 33.40625 48.484375 
Q 26.265625 48.484375 22.1875 42.84375 
Q 18.109375 37.203125 18.109375 27.296875 
Q 18.109375 17.390625 22.1875 11.75 
Q 26.265625 6.109375 33.40625 6.109375 
Q 40.53125 6.109375 44.609375 11.75 
Q 48.6875 17.390625 48.6875 27.296875 
z
M 18.109375 46.390625 
Q 20.953125 51.265625 25.265625 53.625 
Q 29.59375 56 35.59375 56 
Q 45.5625 56 51.78125 48.09375 
Q 58.015625 40.1875 58.015625 27.296875 
Q 58.015625 14.40625 51.78125 6.484375 
Q 45.5625 -1.421875 35.59375 -1.421875 
Q 29.59375 -1.421875 25.265625 0.953125 
Q 20.953125 3.328125 18.109375 8.203125 
L 18.109375 0 
L 9.078125 0 
L 9.078125 75.984375 
L 18.109375 75.984375 
z
" id="DejaVuSans-62"/>
      <path d="M 34.28125 27.484375 
Q 23.390625 27.484375 19.1875 25 
Q 14.984375 22.515625 14.984375 16.5 
Q 14.984375 11.71875 18.140625 8.90625 
Q 21.296875 6.109375 26.703125 6.109375 
Q 34.1875 6.109375 38.703125 11.40625 
Q 43.21875 16.703125 43.21875 25.484375 
L 43.21875 27.484375 
z
M 52.203125 31.203125 
L 52.203125 0 
L 43.21875 0 
L 43.21875 8.296875 
Q 40.140625 3.328125 35.546875 0.953125 
Q 30.953125 -1.421875 24.3125 -1.421875 
Q 15.921875 -1.421875 10.953125 3.296875 
Q 6 8.015625 6 15.921875 
Q 6 25.140625 12.171875 29.828125 
Q 18.359375 34.515625 30.609375 34.515625 
L 43.21875 34.515625 
L 43.21875 35.40625 
Q 43.21875 41.609375 39.140625 45 
Q 35.0625 48.390625 27.6875 48.390625 
Q 23 48.390625 18.546875 47.265625 
Q 14.109375 46.140625 10.015625 43.890625 
L 10.015625 52.203125 
Q 14.9375 54.109375 19.578125 55.046875 
Q 24.21875 56 28.609375 56 
Q 40.484375 56 46.34375 49.84375 
Q 52.203125 43.703125 52.203125 31.203125 
z
" id="DejaVuSans-61"/>
      <path d="M 9.421875 75.984375 
L 18.40625 75.984375 
L 18.40625 0 
L 9.421875 0 
z
" id="DejaVuSans-6c"/>
      <path d="M 32.171875 -5.078125 
Q 28.375 -14.84375 24.75 -17.8125 
Q 21.140625 -20.796875 15.09375 -20.796875 
L 7.90625 -20.796875 
L 7.90625 -13.28125 
L 13.1875 -13.28125 
Q 16.890625 -13.28125 18.9375 -11.515625 
Q 21 -9.765625 23.484375 -3.21875 
L 25.09375 0.875 
L 2.984375 54.6875 
L 12.5 54.6875 
L 29.59375 11.921875 
L 46.6875 54.6875 
L 56.203125 54.6875 
z
" id="DejaVuSans-79"/>
      <path d="M 31 75.875 
Q 24.46875 64.65625 21.28125 53.65625 
Q 18.109375 42.671875 18.109375 31.390625 
Q 18.109375 20.125 21.3125 9.0625 
Q 24.515625 -2 31 -13.1875 
L 23.1875 -13.1875 
Q 15.875 -1.703125 12.234375 9.375 
Q 8.59375 20.453125 8.59375 31.390625 
Q 8.59375 42.28125 12.203125 53.3125 
Q 15.828125 64.359375 23.1875 75.875 
z
" id="DejaVuSans-28"/>
      <path d="M 8.015625 75.875 
L 15.828125 75.875 
Q 23.140625 64.359375 26.78125 53.3125 
Q 30.421875 42.28125 30.421875 31.390625 
Q 30.421875 20.453125 26.78125 9.375 
Q 23.140625 -1.703125 15.828125 -13.1875 
L 8.015625 -13.1875 
Q 14.5 -2 17.703125 9.0625 
Q 20.90625 20.125 20.90625 31.390625 
Q 20.90625 42.671875 17.703125 53.65625 
Q 14.5 64.65625 8.015625 75.875 
z
" id="DejaVuSans-29"/>
      <path d="M 8.59375 75.984375 
L 29.296875 75.984375 
L 29.296875 69 
L 17.578125 69 
L 17.578125 -6.203125 
L 29.296875 -6.203125 
L 29.296875 -13.1875 
L 8.59375 -13.1875 
z
" id="DejaVuSans-5b"/>
      <path d="M 72.703125 32.078125 
Q 68.453125 32.078125 66.03125 28.46875 
Q 63.625 24.859375 63.625 18.40625 
Q 63.625 12.0625 66.03125 8.421875 
Q 68.453125 4.78125 72.703125 4.78125 
Q 76.859375 4.78125 79.265625 8.421875 
Q 81.6875 12.0625 81.6875 18.40625 
Q 81.6875 24.8125 79.265625 28.4375 
Q 76.859375 32.078125 72.703125 32.078125 
z
M 72.703125 38.28125 
Q 80.421875 38.28125 84.953125 32.90625 
Q 89.5 27.546875 89.5 18.40625 
Q 89.5 9.28125 84.9375 3.921875 
Q 80.375 -1.421875 72.703125 -1.421875 
Q 64.890625 -1.421875 60.34375 3.921875 
Q 55.8125 9.28125 55.8125 18.40625 
Q 55.8125 27.59375 60.375 32.9375 
Q 64.9375 38.28125 72.703125 38.28125 
z
M 22.3125 68.015625 
Q 18.109375 68.015625 15.6875 64.375 
Q 13.28125 60.75 13.28125 54.390625 
Q 13.28125 47.953125 15.671875 44.328125 
Q 18.0625 40.71875 22.3125 40.71875 
Q 26.5625 40.71875 28.96875 44.328125 
Q 31.390625 47.953125 31.390625 54.390625 
Q 31.390625 60.6875 28.953125 64.34375 
Q 26.515625 68.015625 22.3125 68.015625 
z
M 66.40625 74.21875 
L 74.21875 74.21875 
L 28.609375 -1.421875 
L 20.796875 -1.421875 
z
M 22.3125 74.21875 
Q 30.03125 74.21875 34.609375 68.875 
Q 39.203125 63.53125 39.203125 54.390625 
Q 39.203125 45.171875 34.640625 39.84375 
Q 30.078125 34.515625 22.3125 34.515625 
Q 14.546875 34.515625 10.03125 39.859375 
Q 5.515625 45.21875 5.515625 54.390625 
Q 5.515625 63.484375 10.046875 68.84375 
Q 14.59375 74.21875 22.3125 74.21875 
z
" id="DejaVuSans-25"/>
      <path d="M 30.421875 75.984375 
L 30.421875 -13.1875 
L 9.71875 -13.1875 
L 9.71875 -6.203125 
L 21.390625 -6.203125 
L 21.390625 69 
L 9.71875 69 
L 9.71875 75.984375 
z
" id="DejaVuSans-5d"/>
     </defs>
     <g transform="translate(112.08 136.118125)scale(0.06 -0.06)">
      <use xlink:href="#DejaVuSans-50"/>
      <use x="60.287109" xlink:href="#DejaVuSans-72"/>
      <use x="101.369141" xlink:href="#DejaVuSans-65"/>
      <use x="162.892578" xlink:href="#DejaVuSans-64"/>
      <use x="226.369141" xlink:href="#DejaVuSans-69"/>
      <use x="254.152344" xlink:href="#DejaVuSans-63"/>
      <use x="309.132812" xlink:href="#DejaVuSans-74"/>
      <use x="348.341797" xlink:href="#DejaVuSans-69"/>
      <use x="376.125" xlink:href="#DejaVuSans-6f"/>
      <use x="437.306641" xlink:href="#DejaVuSans-6e"/>
      <use x="500.685547" xlink:href="#DejaVuSans-20"/>
      <use x="532.472656" xlink:href="#DejaVuSans-70"/>
      <use x="595.949219" xlink:href="#DejaVuSans-72"/>
      <use x="637.03125" xlink:href="#DejaVuSans-6f"/>
      <use x="698.212891" xlink:href="#DejaVuSans-62"/>
      <use x="761.689453" xlink:href="#DejaVuSans-61"/>
      <use x="822.96875" xlink:href="#DejaVuSans-62"/>
      <use x="886.445312" xlink:href="#DejaVuSans-69"/>
      <use x="914.228516" xlink:href="#DejaVuSans-6c"/>
      <use x="942.011719" xlink:href="#DejaVuSans-69"/>
      <use x="969.794922" xlink:href="#DejaVuSans-74"/>
      <use x="1009.003906" xlink:href="#DejaVuSans-79"/>
      <use x="1068.183594" xlink:href="#DejaVuSans-20"/>
      <use x="1099.970703" xlink:href="#DejaVuSans-28"/>
      <use x="1138.984375" xlink:href="#DejaVuSans-63"/>
      <use x="1193.964844" xlink:href="#DejaVuSans-65"/>
      <use x="1255.488281" xlink:href="#DejaVuSans-72"/>
      <use x="1296.601562" xlink:href="#DejaVuSans-74"/>
      <use x="1335.810547" xlink:href="#DejaVuSans-61"/>
      <use x="1397.089844" xlink:href="#DejaVuSans-69"/>
      <use x="1424.873047" xlink:href="#DejaVuSans-6e"/>
      <use x="1488.251953" xlink:href="#DejaVuSans-74"/>
      <use x="1527.460938" xlink:href="#DejaVuSans-79"/>
      <use x="1586.640625" xlink:href="#DejaVuSans-29"/>
      <use x="1625.654297" xlink:href="#DejaVuSans-20"/>
      <use x="1657.441406" xlink:href="#DejaVuSans-5b"/>
      <use x="1696.455078" xlink:href="#DejaVuSans-25"/>
      <use x="1791.474609" xlink:href="#DejaVuSans-5d"/>
     </g>
    </g>
   </g>
   <g id="matplotlib.axis_2">
    <g id="ytick_1">
     <g id="line2d_20">
      <defs>
       <path d="M 0 0 
L -3.5 0 
" id="m3189840e33" style="stroke:#000000;stroke-width:0.8;"/>
      </defs>
      <g>
       <use style="stroke:#000000;stroke-width:0.8;" x="32.06" xlink:href="#m3189840e33" y="115.72"/>
      </g>
     </g>
     <g id="text_21">
      <!-- 0.0 -->
      <defs>
       <path d="M 10.6875 12.40625 
L 21 12.40625 
L 21 0 
L 10.6875 0 
z
" id="DejaVuSans-2e"/>
      </defs>
      <g transform="translate(17.108438 117.619609)scale(0.05 -0.05)">
       <use xlink:href="#DejaVuSans-30"/>
       <use x="63.623047" xlink:href="#DejaVuSans-2e"/>
       <use x="95.410156" xlink:href="#DejaVuSans-30"/>
      </g>
     </g>
    </g>
    <g id="ytick_2">
     <g id="line2d_21">
      <g>
       <use style="stroke:#000000;stroke-width:0.8;" x="32.06" xlink:href="#m3189840e33" y="94.376"/>
      </g>
     </g>
     <g id="text_22">
      <!-- 0.2 -->
      <g transform="translate(17.108438 96.275609)scale(0.05 -0.05)">
       <use xlink:href="#DejaVuSans-30"/>
       <use x="63.623047" xlink:href="#DejaVuSans-2e"/>
       <use x="95.410156" xlink:href="#DejaVuSans-32"/>
      </g>
     </g>
    </g>
    <g id="ytick_3">
     <g id="line2d_22">
      <g>
       <use style="stroke:#000000;stroke-width:0.8;" x="32.06" xlink:href="#m3189840e33" y="73.032"/>
      </g>
     </g>
     <g id="text_23">
      <!-- 0.4 -->
      <g transform="translate(17.108438 74.931609)scale(0.05 -0.05)">
       <use xlink:href="#DejaVuSans-30"/>
       <use x="63.623047" xlink:href="#DejaVuSans-2e"/>
       <use x="95.410156" xlink:href="#DejaVuSans-34"/>
      </g>
     </g>
    </g>
    <g id="ytick_4">
     <g id="line2d_23">
      <g>
       <use style="stroke:#000000;stroke-width:0.8;" x="32.06" xlink:href="#m3189840e33" y="51.688"/>
      </g>
     </g>
     <g id="text_24">
      <!-- 0.6 -->
      <g transform="translate(17.108438 53.587609)scale(0.05 -0.05)">
       <use xlink:href="#DejaVuSans-30"/>
       <use x="63.623047" xlink:href="#DejaVuSans-2e"/>
       <use x="95.410156" xlink:href="#DejaVuSans-36"/>
      </g>
     </g>
    </g>
    <g id="ytick_5">
     <g id="line2d_24">
      <g>
       <use style="stroke:#000000;stroke-width:0.8;" x="32.06" xlink:href="#m3189840e33" y="30.344"/>
      </g>
     </g>
     <g id="text_25">
      <!-- 0.8 -->
      <g transform="translate(17.108438 32.243609)scale(0.05 -0.05)">
       <use xlink:href="#DejaVuSans-30"/>
       <use x="63.623047" xlink:href="#DejaVuSans-2e"/>
       <use x="95.410156" xlink:href="#DejaVuSans-38"/>
      </g>
     </g>
    </g>
    <g id="ytick_6">
     <g id="line2d_25">
      <g>
       <use style="stroke:#000000;stroke-width:0.8;" x="32.06" xlink:href="#m3189840e33" y="9"/>
      </g>
     </g>
     <g id="text_26">
      <!-- 1.0 -->
      <g transform="translate(17.108438 10.899609)scale(0.05 -0.05)">
       <use xlink:href="#DejaVuSans-31"/>
       <use x="63.623047" xlink:href="#DejaVuSans-2e"/>
       <use x="95.410156" xlink:href="#DejaVuSans-30"/>
      </g>
     </g>
    </g>
    <g id="text_27">
     <!-- Accuracy -->
     <defs>
      <path d="M 34.1875 63.1875 
L 20.796875 26.90625 
L 47.609375 26.90625 
z
M 28.609375 72.90625 
L 39.796875 72.90625 
L 67.578125 0 
L 57.328125 0 
L 50.6875 18.703125 
L 17.828125 18.703125 
L 11.1875 0 
L 0.78125 0 
z
" id="DejaVuSans-41"/>
      <path d="M 8.5 21.578125 
L 8.5 54.6875 
L 17.484375 54.6875 
L 17.484375 21.921875 
Q 17.484375 14.15625 20.5 10.265625 
Q 23.53125 6.390625 29.59375 6.390625 
Q 36.859375 6.390625 41.078125 11.03125 
Q 45.3125 15.671875 45.3125 23.6875 
L 45.3125 54.6875 
L 54.296875 54.6875 
L 54.296875 0 
L 45.3125 0 
L 45.3125 8.40625 
Q 42.046875 3.421875 37.71875 1 
Q 33.40625 -1.421875 27.6875 -1.421875 
Q 18.265625 -1.421875 13.375 4.4375 
Q 8.5 10.296875 8.5 21.578125 
z
M 31.109375 56 
z
" id="DejaVuSans-75"/>
     </defs>
     <g transform="translate(11.860625 76.108906)rotate(-90)scale(0.06 -0.06)">
      <use xlink:href="#DejaVuSans-41"/>
      <use x="68.392578" xlink:href="#DejaVuSans-63"/>
      <use x="123.373047" xlink:href="#DejaVuSans-63"/>
      <use x="178.353516" xlink:href="#DejaVuSans-75"/>
      <use x="241.732422" xlink:href="#DejaVuSans-72"/>
      <use x="282.845703" xlink:href="#DejaVuSans-61"/>
      <use x="344.125" xlink:href="#DejaVuSans-63"/>
      <use x="399.105469" xlink:href="#DejaVuSans-79"/>
     </g>
    </g>
   </g>
   <g id="line2d_26">
    <path clip-path="url(#p0469f686b7)" d="M 39.161842 102.709654 
L 53.365526 101.131184 
L 67.569211 97.048673 
L 81.772895 92.831601 
L 95.976579 88.827272 
L 110.180263 84.550901 
L 124.383947 79.890423 
L 138.587632 75.417733 
L 152.791316 70.158443 
L 166.995 65.509305 
L 181.198684 60.333553 
L 195.402368 56.919678 
L 209.606053 51.475185 
L 223.809737 46.451575 
L 238.013421 40.54251 
L 252.217105 34.25381 
L 266.420789 28.974782 
L 280.624474 20.508755 
L 294.828158 12.17115 
" style="fill:none;stroke:#1f77b4;stroke-linecap:square;stroke-width:0.75;"/>
    <defs>
     <path d="M 0 1 
C 0.265203 1 0.51958 0.894634 0.707107 0.707107 
C 0.894634 0.51958 1 0.265203 1 0 
C 1 -0.265203 0.894634 -0.51958 0.707107 -0.707107 
C 0.51958 -0.894634 0.265203 -1 0 -1 
C -0.265203 -1 -0.51958 -0.894634 -0.707107 -0.707107 
C -0.894634 -0.51958 -1 -0.265203 -1 0 
C -1 0.265203 -0.894634 0.51958 -0.707107 0.707107 
C -0.51958 0.894634 -0.265203 1 0 1 
z
" id="m7fca3a1b97" style="stroke:#1f77b4;"/>
    </defs>
    <g clip-path="url(#p0469f686b7)">
     <use style="fill:#1f77b4;stroke:#1f77b4;" x="39.161842" xlink:href="#m7fca3a1b97" y="102.709654"/>
     <use style="fill:#1f77b4;stroke:#1f77b4;" x="53.365526" xlink:href="#m7fca3a1b97" y="101.131184"/>
     <use style="fill:#1f77b4;stroke:#1f77b4;" x="67.569211" xlink:href="#m7fca3a1b97" y="97.048673"/>
     <use style="fill:#1f77b4;stroke:#1f77b4;" x="81.772895" xlink:href="#m7fca3a1b97" y="92.831601"/>
     <use style="fill:#1f77b4;stroke:#1f77b4;" x="95.976579" xlink:href="#m7fca3a1b97" y="88.827272"/>
     <use style="fill:#1f77b4;stroke:#1f77b4;" x="110.180263" xlink:href="#m7fca3a1b97" y="84.550901"/>
     <use style="fill:#1f77b4;stroke:#1f77b4;" x="124.383947" xlink:href="#m7fca3a1b97" y="79.890423"/>
     <use style="fill:#1f77b4;stroke:#1f77b4;" x="138.587632" xlink:href="#m7fca3a1b97" y="75.417733"/>
     <use style="fill:#1f77b4;stroke:#1f77b4;" x="152.791316" xlink:href="#m7fca3a1b97" y="70.158443"/>
     <use style="fill:#1f77b4;stroke:#1f77b4;" x="166.995" xlink:href="#m7fca3a1b97" y="65.509305"/>
     <use style="fill:#1f77b4;stroke:#1f77b4;" x="181.198684" xlink:href="#m7fca3a1b97" y="60.333553"/>
     <use style="fill:#1f77b4;stroke:#1f77b4;" x="195.402368" xlink:href="#m7fca3a1b97" y="56.919678"/>
     <use style="fill:#1f77b4;stroke:#1f77b4;" x="209.606053" xlink:href="#m7fca3a1b97" y="51.475185"/>
     <use style="fill:#1f77b4;stroke:#1f77b4;" x="223.809737" xlink:href="#m7fca3a1b97" y="46.451575"/>
     <use style="fill:#1f77b4;stroke:#1f77b4;" x="238.013421" xlink:href="#m7fca3a1b97" y="40.54251"/>
     <use style="fill:#1f77b4;stroke:#1f77b4;" x="252.217105" xlink:href="#m7fca3a1b97" y="34.25381"/>
     <use style="fill:#1f77b4;stroke:#1f77b4;" x="266.420789" xlink:href="#m7fca3a1b97" y="28.974782"/>
     <use style="fill:#1f77b4;stroke:#1f77b4;" x="280.624474" xlink:href="#m7fca3a1b97" y="20.508755"/>
     <use style="fill:#1f77b4;stroke:#1f77b4;" x="294.828158" xlink:href="#m7fca3a1b97" y="12.17115"/>
    </g>
   </g>
   <g id="line2d_27">
    <path clip-path="url(#p0469f686b7)" d="M 39.161842 105.100228 
L 53.365526 102.109909 
L 67.569211 97.530638 
L 81.772895 94.76233 
L 95.976579 90.13515 
L 110.180263 87.20804 
L 124.383947 82.760781 
L 138.587632 77.398256 
L 152.791316 72.922473 
L 166.995 68.578262 
L 181.198684 64.051829 
L 195.402368 58.938146 
L 209.606053 54.552107 
L 223.809737 48.252531 
L 238.013421 43.103052 
L 252.217105 36.930581 
L 266.420789 29.997647 
L 280.624474 20.242498 
L 294.828158 12.138644 
" style="fill:none;stroke:#ff7f0e;stroke-linecap:square;stroke-width:0.75;"/>
    <defs>
     <path d="M -1 1 
L 1 1 
L 1 -1 
L -1 -1 
z
" id="mf5067f6f77" style="stroke:#ff7f0e;stroke-linejoin:miter;"/>
    </defs>
    <g clip-path="url(#p0469f686b7)">
     <use style="fill:#ff7f0e;stroke:#ff7f0e;stroke-linejoin:miter;" x="39.161842" xlink:href="#mf5067f6f77" y="105.100228"/>
     <use style="fill:#ff7f0e;stroke:#ff7f0e;stroke-linejoin:miter;" x="53.365526" xlink:href="#mf5067f6f77" y="102.109909"/>
     <use style="fill:#ff7f0e;stroke:#ff7f0e;stroke-linejoin:miter;" x="67.569211" xlink:href="#mf5067f6f77" y="97.530638"/>
     <use style="fill:#ff7f0e;stroke:#ff7f0e;stroke-linejoin:miter;" x="81.772895" xlink:href="#mf5067f6f77" y="94.76233"/>
     <use style="fill:#ff7f0e;stroke:#ff7f0e;stroke-linejoin:miter;" x="95.976579" xlink:href="#mf5067f6f77" y="90.13515"/>
     <use style="fill:#ff7f0e;stroke:#ff7f0e;stroke-linejoin:miter;" x="110.180263" xlink:href="#mf5067f6f77" y="87.20804"/>
     <use style="fill:#ff7f0e;stroke:#ff7f0e;stroke-linejoin:miter;" x="124.383947" xlink:href="#mf5067f6f77" y="82.760781"/>
     <use style="fill:#ff7f0e;stroke:#ff7f0e;stroke-linejoin:miter;" x="138.587632" xlink:href="#mf5067f6f77" y="77.398256"/>
     <use style="fill:#ff7f0e;stroke:#ff7f0e;stroke-linejoin:miter;" x="152.791316" xlink:href="#mf5067f6f77" y="72.922473"/>
     <use style="fill:#ff7f0e;stroke:#ff7f0e;stroke-linejoin:miter;" x="166.995" xlink:href="#mf5067f6f77" y="68.578262"/>
     <use style="fill:#ff7f0e;stroke:#ff7f0e;stroke-linejoin:miter;" x="181.198684" xlink:href="#mf5067f6f77" y="64.051829"/>
     <use style="fill:#ff7f0e;stroke:#ff7f0e;stroke-linejoin:miter;" x="195.402368" xlink:href="#mf5067f6f77" y="58.938146"/>
     <use style="fill:#ff7f0e;stroke:#ff7f0e;stroke-linejoin:miter;" x="209.606053" xlink:href="#mf5067f6f77" y="54.552107"/>
     <use style="fill:#ff7f0e;stroke:#ff7f0e;stroke-linejoin:miter;" x="223.809737" xlink:href="#mf5067f6f77" y="48.252531"/>
     <use style="fill:#ff7f0e;stroke:#ff7f0e;stroke-linejoin:miter;" x="238.013421" xlink:href="#mf5067f6f77" y="43.103052"/>
     <use style="fill:#ff7f0e;stroke:#ff7f0e;stroke-linejoin:miter;" x="252.217105" xlink:href="#mf5067f6f77" y="36.930581"/>
     <use style="fill:#ff7f0e;stroke:#ff7f0e;stroke-linejoin:miter;" x="266.420789" xlink:href="#mf5067f6f77" y="29.997647"/>
     <use style="fill:#ff7f0e;stroke:#ff7f0e;stroke-linejoin:miter;" x="280.624474" xlink:href="#mf5067f6f77" y="20.242498"/>
     <use style="fill:#ff7f0e;stroke:#ff7f0e;stroke-linejoin:miter;" x="294.828158" xlink:href="#mf5067f6f77" y="12.138644"/>
    </g>
   </g>
   <g id="line2d_28">
    <path clip-path="url(#p0469f686b7)" d="M 39.161842 104.432308 
L 53.365526 100.749259 
L 67.569211 97.005612 
L 81.772895 91.660639 
L 95.976579 86.25659 
L 110.180263 81.597159 
L 124.383947 76.767715 
L 138.587632 71.741413 
L 152.791316 67.225623 
L 166.995 63.81136 
L 181.198684 59.781339 
L 195.402368 54.370474 
L 209.606053 48.947944 
L 223.809737 43.900133 
L 238.013421 38.232546 
L 252.217105 31.489196 
L 266.420789 24.761596 
L 280.624474 16.033387 
L 294.828158 10.19675 
" style="fill:none;stroke:#2ca02c;stroke-linecap:square;stroke-width:0.75;"/>
    <defs>
     <path d="M 0 -1 
L -1 1 
L 1 1 
z
" id="m6e49a928de" style="stroke:#2ca02c;stroke-linejoin:miter;"/>
    </defs>
    <g clip-path="url(#p0469f686b7)">
     <use style="fill:#2ca02c;stroke:#2ca02c;stroke-linejoin:miter;" x="39.161842" xlink:href="#m6e49a928de" y="104.432308"/>
     <use style="fill:#2ca02c;stroke:#2ca02c;stroke-linejoin:miter;" x="53.365526" xlink:href="#m6e49a928de" y="100.749259"/>
     <use style="fill:#2ca02c;stroke:#2ca02c;stroke-linejoin:miter;" x="67.569211" xlink:href="#m6e49a928de" y="97.005612"/>
     <use style="fill:#2ca02c;stroke:#2ca02c;stroke-linejoin:miter;" x="81.772895" xlink:href="#m6e49a928de" y="91.660639"/>
     <use style="fill:#2ca02c;stroke:#2ca02c;stroke-linejoin:miter;" x="95.976579" xlink:href="#m6e49a928de" y="86.25659"/>
     <use style="fill:#2ca02c;stroke:#2ca02c;stroke-linejoin:miter;" x="110.180263" xlink:href="#m6e49a928de" y="81.597159"/>
     <use style="fill:#2ca02c;stroke:#2ca02c;stroke-linejoin:miter;" x="124.383947" xlink:href="#m6e49a928de" y="76.767715"/>
     <use style="fill:#2ca02c;stroke:#2ca02c;stroke-linejoin:miter;" x="138.587632" xlink:href="#m6e49a928de" y="71.741413"/>
     <use style="fill:#2ca02c;stroke:#2ca02c;stroke-linejoin:miter;" x="152.791316" xlink:href="#m6e49a928de" y="67.225623"/>
     <use style="fill:#2ca02c;stroke:#2ca02c;stroke-linejoin:miter;" x="166.995" xlink:href="#m6e49a928de" y="63.81136"/>
     <use style="fill:#2ca02c;stroke:#2ca02c;stroke-linejoin:miter;" x="181.198684" xlink:href="#m6e49a928de" y="59.781339"/>
     <use style="fill:#2ca02c;stroke:#2ca02c;stroke-linejoin:miter;" x="195.402368" xlink:href="#m6e49a928de" y="54.370474"/>
     <use style="fill:#2ca02c;stroke:#2ca02c;stroke-linejoin:miter;" x="209.606053" xlink:href="#m6e49a928de" y="48.947944"/>
     <use style="fill:#2ca02c;stroke:#2ca02c;stroke-linejoin:miter;" x="223.809737" xlink:href="#m6e49a928de" y="43.900133"/>
     <use style="fill:#2ca02c;stroke:#2ca02c;stroke-linejoin:miter;" x="238.013421" xlink:href="#m6e49a928de" y="38.232546"/>
     <use style="fill:#2ca02c;stroke:#2ca02c;stroke-linejoin:miter;" x="252.217105" xlink:href="#m6e49a928de" y="31.489196"/>
     <use style="fill:#2ca02c;stroke:#2ca02c;stroke-linejoin:miter;" x="266.420789" xlink:href="#m6e49a928de" y="24.761596"/>
     <use style="fill:#2ca02c;stroke:#2ca02c;stroke-linejoin:miter;" x="280.624474" xlink:href="#m6e49a928de" y="16.033387"/>
     <use style="fill:#2ca02c;stroke:#2ca02c;stroke-linejoin:miter;" x="294.828158" xlink:href="#m6e49a928de" y="10.19675"/>
    </g>
   </g>
   <g id="patch_3">
    <path d="M 32.06 115.72 
L 32.06 9 
" style="fill:none;stroke:#000000;stroke-linecap:square;stroke-linejoin:miter;stroke-width:0.8;"/>
   </g>
   <g id="patch_4">
    <path d="M 301.93 115.72 
L 301.93 9 
" style="fill:none;stroke:#000000;stroke-linecap:square;stroke-linejoin:miter;stroke-width:0.8;"/>
   </g>
   <g id="patch_5">
    <path d="M 32.06 115.72 
L 301.93 115.72 
" style="fill:none;stroke:#000000;stroke-linecap:square;stroke-linejoin:miter;stroke-width:0.8;"/>
   </g>
   <g id="patch_6">
    <path d="M 32.06 9 
L 301.93 9 
" style="fill:none;stroke:#000000;stroke-linecap:square;stroke-linejoin:miter;stroke-width:0.8;"/>
   </g>
  </g>
  <g id="axes_2">
   <g id="patch_7">
    <path clip-path="url(#p0469f686b7)" d="M 33.125276 115.72 
L 36.676197 115.72 
L 36.676197 110.881988 
L 33.125276 110.881988 
z
" style="fill:#1f77b4;fill-opacity:0.4;"/>
   </g>
   <g id="patch_8">
    <path clip-path="url(#p0469f686b7)" d="M 47.328961 115.72 
L 50.879882 115.72 
L 50.879882 102.863801 
L 47.328961 102.863801 
z
" style="fill:#1f77b4;fill-opacity:0.4;"/>
   </g>
   <g id="patch_9">
    <path clip-path="url(#p0469f686b7)" d="M 61.532645 115.72 
L 65.083566 115.72 
L 65.083566 92.964608 
L 61.532645 92.964608 
z
" style="fill:#1f77b4;fill-opacity:0.4;"/>
   </g>
   <g id="patch_10">
    <path clip-path="url(#p0469f686b7)" d="M 75.736329 115.72 
L 79.28725 115.72 
L 79.28725 82.013326 
L 75.736329 82.013326 
z
" style="fill:#1f77b4;fill-opacity:0.4;"/>
   </g>
   <g id="patch_11">
    <path clip-path="url(#p0469f686b7)" d="M 89.940013 115.72 
L 93.490934 115.72 
L 93.490934 72.735821 
L 89.940013 72.735821 
z
" style="fill:#1f77b4;fill-opacity:0.4;"/>
   </g>
   <g id="patch_12">
    <path clip-path="url(#p0469f686b7)" d="M 104.143697 115.72 
L 107.694618 115.72 
L 107.694618 66.857677 
L 104.143697 66.857677 
z
" style="fill:#1f77b4;fill-opacity:0.4;"/>
   </g>
   <g id="patch_13">
    <path clip-path="url(#p0469f686b7)" d="M 118.347382 115.72 
L 121.898303 115.72 
L 121.898303 64.821249 
L 118.347382 64.821249 
z
" style="fill:#1f77b4;fill-opacity:0.4;"/>
   </g>
   <g id="patch_14">
    <path clip-path="url(#p0469f686b7)" d="M 132.551066 115.72 
L 136.101987 115.72 
L 136.101987 65.056374 
L 132.551066 65.056374 
z
" style="fill:#1f77b4;fill-opacity:0.4;"/>
   </g>
   <g id="patch_15">
    <path clip-path="url(#p0469f686b7)" d="M 146.75475 115.72 
L 150.305671 115.72 
L 150.305671 65.546552 
L 146.75475 65.546552 
z
" style="fill:#1f77b4;fill-opacity:0.4;"/>
   </g>
   <g id="patch_16">
    <path clip-path="url(#p0469f686b7)" d="M 160.958434 115.72 
L 164.509355 115.72 
L 164.509355 67.981498 
L 160.958434 67.981498 
z
" style="fill:#1f77b4;fill-opacity:0.4;"/>
   </g>
   <g id="patch_17">
    <path clip-path="url(#p0469f686b7)" d="M 175.162118 115.72 
L 178.713039 115.72 
L 178.713039 70.177334 
L 175.162118 70.177334 
z
" style="fill:#1f77b4;fill-opacity:0.4;"/>
   </g>
   <g id="patch_18">
    <path clip-path="url(#p0469f686b7)" d="M 189.365803 115.72 
L 192.916724 115.72 
L 192.916724 72.098192 
L 189.365803 72.098192 
z
" style="fill:#1f77b4;fill-opacity:0.4;"/>
   </g>
   <g id="patch_19">
    <path clip-path="url(#p0469f686b7)" d="M 203.569487 115.72 
L 207.120408 115.72 
L 207.120408 72.153985 
L 203.569487 72.153985 
z
" style="fill:#1f77b4;fill-opacity:0.4;"/>
   </g>
   <g id="patch_20">
    <path clip-path="url(#p0469f686b7)" d="M 217.773171 115.72 
L 221.324092 115.72 
L 221.324092 70.659541 
L 217.773171 70.659541 
z
" style="fill:#1f77b4;fill-opacity:0.4;"/>
   </g>
   <g id="patch_21">
    <path clip-path="url(#p0469f686b7)" d="M 231.976855 115.72 
L 235.527776 115.72 
L 235.527776 67.395677 
L 231.976855 67.395677 
z
" style="fill:#1f77b4;fill-opacity:0.4;"/>
   </g>
   <g id="patch_22">
    <path clip-path="url(#p0469f686b7)" d="M 246.180539 115.72 
L 249.731461 115.72 
L 249.731461 61.744688 
L 246.180539 61.744688 
z
" style="fill:#1f77b4;fill-opacity:0.4;"/>
   </g>
   <g id="patch_23">
    <path clip-path="url(#p0469f686b7)" d="M 260.384224 115.72 
L 263.935145 115.72 
L 263.935145 50.056147 
L 260.384224 50.056147 
z
" style="fill:#1f77b4;fill-opacity:0.4;"/>
   </g>
   <g id="patch_24">
    <path clip-path="url(#p0469f686b7)" d="M 274.587908 115.72 
L 278.138829 115.72 
L 278.138829 21.079885 
L 274.587908 21.079885 
z
" style="fill:#1f77b4;fill-opacity:0.4;"/>
   </g>
   <g id="patch_25">
    <path clip-path="url(#p0469f686b7)" d="M 288.791592 115.72 
L 292.342513 115.72 
L 292.342513 44.907292 
L 288.791592 44.907292 
z
" style="fill:#1f77b4;fill-opacity:0.4;"/>
   </g>
   <g id="patch_26">
    <path clip-path="url(#p0469f686b7)" d="M 37.386382 115.72 
L 40.937303 115.72 
L 40.937303 108.391249 
L 37.386382 108.391249 
z
" style="fill:#ff7f0e;fill-opacity:0.4;"/>
   </g>
   <g id="patch_27">
    <path clip-path="url(#p0469f686b7)" d="M 51.590066 115.72 
L 55.140987 115.72 
L 55.140987 98.595671 
L 51.590066 98.595671 
z
" style="fill:#ff7f0e;fill-opacity:0.4;"/>
   </g>
   <g id="patch_28">
    <path clip-path="url(#p0469f686b7)" d="M 65.79375 115.72 
L 69.344671 115.72 
L 69.344671 90.724935 
L 65.79375 90.724935 
z
" style="fill:#ff7f0e;fill-opacity:0.4;"/>
   </g>
   <g id="patch_29">
    <path clip-path="url(#p0469f686b7)" d="M 79.997434 115.72 
L 83.548355 115.72 
L 83.548355 86.436879 
L 79.997434 86.436879 
z
" style="fill:#ff7f0e;fill-opacity:0.4;"/>
   </g>
   <g id="patch_30">
    <path clip-path="url(#p0469f686b7)" d="M 94.201118 115.72 
L 97.752039 115.72 
L 97.752039 84.06968 
L 94.201118 84.06968 
z
" style="fill:#ff7f0e;fill-opacity:0.4;"/>
   </g>
   <g id="patch_31">
    <path clip-path="url(#p0469f686b7)" d="M 108.404803 115.72 
L 111.955724 115.72 
L 111.955724 83.798688 
L 108.404803 83.798688 
z
" style="fill:#ff7f0e;fill-opacity:0.4;"/>
   </g>
   <g id="patch_32">
    <path clip-path="url(#p0469f686b7)" d="M 122.608487 115.72 
L 126.159408 115.72 
L 126.159408 83.886362 
L 122.608487 83.886362 
z
" style="fill:#ff7f0e;fill-opacity:0.4;"/>
   </g>
   <g id="patch_33">
    <path clip-path="url(#p0469f686b7)" d="M 136.812171 115.72 
L 140.363092 115.72 
L 140.363092 84.82288 
L 136.812171 84.82288 
z
" style="fill:#ff7f0e;fill-opacity:0.4;"/>
   </g>
   <g id="patch_34">
    <path clip-path="url(#p0469f686b7)" d="M 151.015855 115.72 
L 154.566776 115.72 
L 154.566776 84.655502 
L 151.015855 84.655502 
z
" style="fill:#ff7f0e;fill-opacity:0.4;"/>
   </g>
   <g id="patch_35">
    <path clip-path="url(#p0469f686b7)" d="M 165.219539 115.72 
L 168.770461 115.72 
L 168.770461 86.652079 
L 165.219539 86.652079 
z
" style="fill:#ff7f0e;fill-opacity:0.4;"/>
   </g>
   <g id="patch_36">
    <path clip-path="url(#p0469f686b7)" d="M 179.423224 115.72 
L 182.974145 115.72 
L 182.974145 87.313619 
L 179.423224 87.313619 
z
" style="fill:#ff7f0e;fill-opacity:0.4;"/>
   </g>
   <g id="patch_37">
    <path clip-path="url(#p0469f686b7)" d="M 193.626908 115.72 
L 197.177829 115.72 
L 197.177829 87.257826 
L 193.626908 87.257826 
z
" style="fill:#ff7f0e;fill-opacity:0.4;"/>
   </g>
   <g id="patch_38">
    <path clip-path="url(#p0469f686b7)" d="M 207.830592 115.72 
L 211.381513 115.72 
L 211.381513 86.496657 
L 207.830592 86.496657 
z
" style="fill:#ff7f0e;fill-opacity:0.4;"/>
   </g>
   <g id="patch_39">
    <path clip-path="url(#p0469f686b7)" d="M 222.034276 115.72 
L 225.585197 115.72 
L 225.585197 85.241324 
L 222.034276 85.241324 
z
" style="fill:#ff7f0e;fill-opacity:0.4;"/>
   </g>
   <g id="patch_40">
    <path clip-path="url(#p0469f686b7)" d="M 236.237961 115.72 
L 239.788882 115.72 
L 239.788882 81.586912 
L 236.237961 81.586912 
z
" style="fill:#ff7f0e;fill-opacity:0.4;"/>
   </g>
   <g id="patch_41">
    <path clip-path="url(#p0469f686b7)" d="M 250.441645 115.72 
L 253.992566 115.72 
L 253.992566 77.545937 
L 250.441645 77.545937 
z
" style="fill:#ff7f0e;fill-opacity:0.4;"/>
   </g>
   <g id="patch_42">
    <path clip-path="url(#p0469f686b7)" d="M 264.645329 115.72 
L 268.19625 115.72 
L 268.19625 68.56732 
L 264.645329 68.56732 
z
" style="fill:#ff7f0e;fill-opacity:0.4;"/>
   </g>
   <g id="patch_43">
    <path clip-path="url(#p0469f686b7)" d="M 278.849013 115.72 
L 282.399934 115.72 
L 282.399934 42.065856 
L 278.849013 42.065856 
z
" style="fill:#ff7f0e;fill-opacity:0.4;"/>
   </g>
   <g id="patch_44">
    <path clip-path="url(#p0469f686b7)" d="M 293.052697 115.72 
L 296.603618 115.72 
L 296.603618 45.935469 
L 293.052697 45.935469 
z
" style="fill:#ff7f0e;fill-opacity:0.4;"/>
   </g>
   <g id="patch_45">
    <path clip-path="url(#p0469f686b7)" d="M 41.647487 115.72 
L 45.198408 115.72 
L 45.198408 115.305541 
L 41.647487 115.305541 
z
" style="fill:#2ca02c;fill-opacity:0.4;"/>
   </g>
   <g id="patch_46">
    <path clip-path="url(#p0469f686b7)" d="M 55.851171 115.72 
L 59.402092 115.72 
L 59.402092 113.731394 
L 55.851171 113.731394 
z
" style="fill:#2ca02c;fill-opacity:0.4;"/>
   </g>
   <g id="patch_47">
    <path clip-path="url(#p0469f686b7)" d="M 70.054855 115.72 
L 73.605776 115.72 
L 73.605776 111.288477 
L 70.054855 111.288477 
z
" style="fill:#2ca02c;fill-opacity:0.4;"/>
   </g>
   <g id="patch_48">
    <path clip-path="url(#p0469f686b7)" d="M 84.258539 115.72 
L 87.809461 115.72 
L 87.809461 108.985042 
L 84.258539 108.985042 
z
" style="fill:#2ca02c;fill-opacity:0.4;"/>
   </g>
   <g id="patch_49">
    <path clip-path="url(#p0469f686b7)" d="M 98.462224 115.72 
L 102.013145 115.72 
L 102.013145 106.32294 
L 98.462224 106.32294 
z
" style="fill:#2ca02c;fill-opacity:0.4;"/>
   </g>
   <g id="patch_50">
    <path clip-path="url(#p0469f686b7)" d="M 112.665908 115.72 
L 116.216829 115.72 
L 116.216829 103.991608 
L 112.665908 103.991608 
z
" style="fill:#2ca02c;fill-opacity:0.4;"/>
   </g>
   <g id="patch_51">
    <path clip-path="url(#p0469f686b7)" d="M 126.869592 115.72 
L 130.420513 115.72 
L 130.420513 99.189463 
L 126.869592 99.189463 
z
" style="fill:#2ca02c;fill-opacity:0.4;"/>
   </g>
   <g id="patch_52">
    <path clip-path="url(#p0469f686b7)" d="M 141.073276 115.72 
L 144.624197 115.72 
L 144.624197 95.024947 
L 141.073276 95.024947 
z
" style="fill:#2ca02c;fill-opacity:0.4;"/>
   </g>
   <g id="patch_53">
    <path clip-path="url(#p0469f686b7)" d="M 155.276961 115.72 
L 158.827882 115.72 
L 158.827882 94.698162 
L 155.276961 94.698162 
z
" style="fill:#2ca02c;fill-opacity:0.4;"/>
   </g>
   <g id="patch_54">
    <path clip-path="url(#p0469f686b7)" d="M 169.480645 115.72 
L 173.031566 115.72 
L 173.031566 94.474992 
L 169.480645 94.474992 
z
" style="fill:#2ca02c;fill-opacity:0.4;"/>
   </g>
   <g id="patch_55">
    <path clip-path="url(#p0469f686b7)" d="M 183.684329 115.72 
L 187.23525 115.72 
L 187.23525 94.773881 
L 183.684329 94.773881 
z
" style="fill:#2ca02c;fill-opacity:0.4;"/>
   </g>
   <g id="patch_56">
    <path clip-path="url(#p0469f686b7)" d="M 197.888013 115.72 
L 201.438934 115.72 
L 201.438934 93.681941 
L 197.888013 93.681941 
z
" style="fill:#2ca02c;fill-opacity:0.4;"/>
   </g>
   <g id="patch_57">
    <path clip-path="url(#p0469f686b7)" d="M 212.091697 115.72 
L 215.642618 115.72 
L 215.642618 93.586296 
L 212.091697 93.586296 
z
" style="fill:#2ca02c;fill-opacity:0.4;"/>
   </g>
   <g id="patch_58">
    <path clip-path="url(#p0469f686b7)" d="M 226.295382 115.72 
L 229.846303 115.72 
L 229.846303 91.71326 
L 226.295382 91.71326 
z
" style="fill:#2ca02c;fill-opacity:0.4;"/>
   </g>
   <g id="patch_59">
    <path clip-path="url(#p0469f686b7)" d="M 240.499066 115.72 
L 244.049987 115.72 
L 244.049987 88.64467 
L 240.499066 88.64467 
z
" style="fill:#2ca02c;fill-opacity:0.4;"/>
   </g>
   <g id="patch_60">
    <path clip-path="url(#p0469f686b7)" d="M 254.70275 115.72 
L 258.253671 115.72 
L 258.253671 83.930199 
L 254.70275 83.930199 
z
" style="fill:#2ca02c;fill-opacity:0.4;"/>
   </g>
   <g id="patch_61">
    <path clip-path="url(#p0469f686b7)" d="M 268.906434 115.72 
L 272.457355 115.72 
L 272.457355 74.381702 
L 268.906434 74.381702 
z
" style="fill:#2ca02c;fill-opacity:0.4;"/>
   </g>
   <g id="patch_62">
    <path clip-path="url(#p0469f686b7)" d="M 283.110118 115.72 
L 286.661039 115.72 
L 286.661039 37.23183 
L 283.110118 37.23183 
z
" style="fill:#2ca02c;fill-opacity:0.4;"/>
   </g>
   <g id="patch_63">
    <path clip-path="url(#p0469f686b7)" d="M 297.313803 115.72 
L 300.864724 115.72 
L 300.864724 14.081905 
L 297.313803 14.081905 
z
" style="fill:#2ca02c;fill-opacity:0.4;"/>
   </g>
   <g id="matplotlib.axis_3">
    <g id="ytick_7">
     <g id="line2d_29">
      <defs>
       <path d="M 0 0 
L 3.5 0 
" id="m15a3c2ab39" style="stroke:#000000;stroke-width:0.8;"/>
      </defs>
      <g>
       <use style="stroke:#000000;stroke-width:0.8;" x="301.93" xlink:href="#m15a3c2ab39" y="115.72"/>
      </g>
     </g>
     <g id="text_28">
      <!-- 0 -->
      <g transform="translate(308.93 117.619609)scale(0.05 -0.05)">
       <use xlink:href="#DejaVuSans-30"/>
      </g>
     </g>
    </g>
    <g id="ytick_8">
     <g id="line2d_30">
      <g>
       <use style="stroke:#000000;stroke-width:0.8;" x="301.93" xlink:href="#m15a3c2ab39" y="95.794087"/>
      </g>
     </g>
     <g id="text_29">
      <!-- 5000 -->
      <g transform="translate(308.93 97.693697)scale(0.05 -0.05)">
       <use xlink:href="#DejaVuSans-35"/>
       <use x="63.623047" xlink:href="#DejaVuSans-30"/>
       <use x="127.246094" xlink:href="#DejaVuSans-30"/>
       <use x="190.869141" xlink:href="#DejaVuSans-30"/>
      </g>
     </g>
    </g>
    <g id="ytick_9">
     <g id="line2d_31">
      <g>
       <use style="stroke:#000000;stroke-width:0.8;" x="301.93" xlink:href="#m15a3c2ab39" y="75.868175"/>
      </g>
     </g>
     <g id="text_30">
      <!-- 10000 -->
      <g transform="translate(308.93 77.767784)scale(0.05 -0.05)">
       <use xlink:href="#DejaVuSans-31"/>
       <use x="63.623047" xlink:href="#DejaVuSans-30"/>
       <use x="127.246094" xlink:href="#DejaVuSans-30"/>
       <use x="190.869141" xlink:href="#DejaVuSans-30"/>
       <use x="254.492188" xlink:href="#DejaVuSans-30"/>
      </g>
     </g>
    </g>
    <g id="ytick_10">
     <g id="line2d_32">
      <g>
       <use style="stroke:#000000;stroke-width:0.8;" x="301.93" xlink:href="#m15a3c2ab39" y="55.942262"/>
      </g>
     </g>
     <g id="text_31">
      <!-- 15000 -->
      <g transform="translate(308.93 57.841871)scale(0.05 -0.05)">
       <use xlink:href="#DejaVuSans-31"/>
       <use x="63.623047" xlink:href="#DejaVuSans-35"/>
       <use x="127.246094" xlink:href="#DejaVuSans-30"/>
       <use x="190.869141" xlink:href="#DejaVuSans-30"/>
       <use x="254.492188" xlink:href="#DejaVuSans-30"/>
      </g>
     </g>
    </g>
    <g id="ytick_11">
     <g id="line2d_33">
      <g>
       <use style="stroke:#000000;stroke-width:0.8;" x="301.93" xlink:href="#m15a3c2ab39" y="36.016349"/>
      </g>
     </g>
     <g id="text_32">
      <!-- 20000 -->
      <g transform="translate(308.93 37.915959)scale(0.05 -0.05)">
       <use xlink:href="#DejaVuSans-32"/>
       <use x="63.623047" xlink:href="#DejaVuSans-30"/>
       <use x="127.246094" xlink:href="#DejaVuSans-30"/>
       <use x="190.869141" xlink:href="#DejaVuSans-30"/>
       <use x="254.492188" xlink:href="#DejaVuSans-30"/>
      </g>
     </g>
    </g>
    <g id="ytick_12">
     <g id="line2d_34">
      <g>
       <use style="stroke:#000000;stroke-width:0.8;" x="301.93" xlink:href="#m15a3c2ab39" y="16.090437"/>
      </g>
     </g>
     <g id="text_33">
      <!-- 25000 -->
      <g transform="translate(308.93 17.990046)scale(0.05 -0.05)">
       <use xlink:href="#DejaVuSans-32"/>
       <use x="63.623047" xlink:href="#DejaVuSans-35"/>
       <use x="127.246094" xlink:href="#DejaVuSans-30"/>
       <use x="190.869141" xlink:href="#DejaVuSans-30"/>
       <use x="254.492188" xlink:href="#DejaVuSans-30"/>
      </g>
     </g>
    </g>
    <g id="text_34">
     <!-- Number of examples -->
     <defs>
      <path d="M 9.8125 72.90625 
L 23.09375 72.90625 
L 55.421875 11.921875 
L 55.421875 72.90625 
L 64.984375 72.90625 
L 64.984375 0 
L 51.703125 0 
L 19.390625 60.984375 
L 19.390625 0 
L 9.8125 0 
z
" id="DejaVuSans-4e"/>
      <path d="M 52 44.1875 
Q 55.375 50.25 60.0625 53.125 
Q 64.75 56 71.09375 56 
Q 79.640625 56 84.28125 50.015625 
Q 88.921875 44.046875 88.921875 33.015625 
L 88.921875 0 
L 79.890625 0 
L 79.890625 32.71875 
Q 79.890625 40.578125 77.09375 44.375 
Q 74.3125 48.1875 68.609375 48.1875 
Q 61.625 48.1875 57.5625 43.546875 
Q 53.515625 38.921875 53.515625 30.90625 
L 53.515625 0 
L 44.484375 0 
L 44.484375 32.71875 
Q 44.484375 40.625 41.703125 44.40625 
Q 38.921875 48.1875 33.109375 48.1875 
Q 26.21875 48.1875 22.15625 43.53125 
Q 18.109375 38.875 18.109375 30.90625 
L 18.109375 0 
L 9.078125 0 
L 9.078125 54.6875 
L 18.109375 54.6875 
L 18.109375 46.1875 
Q 21.1875 51.21875 25.484375 53.609375 
Q 29.78125 56 35.6875 56 
Q 41.65625 56 45.828125 52.96875 
Q 50 49.953125 52 44.1875 
z
" id="DejaVuSans-6d"/>
      <path d="M 37.109375 75.984375 
L 37.109375 68.5 
L 28.515625 68.5 
Q 23.6875 68.5 21.796875 66.546875 
Q 19.921875 64.59375 19.921875 59.515625 
L 19.921875 54.6875 
L 34.71875 54.6875 
L 34.71875 47.703125 
L 19.921875 47.703125 
L 19.921875 0 
L 10.890625 0 
L 10.890625 47.703125 
L 2.296875 47.703125 
L 2.296875 54.6875 
L 10.890625 54.6875 
L 10.890625 58.5 
Q 10.890625 67.625 15.140625 71.796875 
Q 19.390625 75.984375 28.609375 75.984375 
z
" id="DejaVuSans-66"/>
      <path d="M 54.890625 54.6875 
L 35.109375 28.078125 
L 55.90625 0 
L 45.3125 0 
L 29.390625 21.484375 
L 13.484375 0 
L 2.875 0 
L 24.125 28.609375 
L 4.6875 54.6875 
L 15.28125 54.6875 
L 29.78125 35.203125 
L 44.28125 54.6875 
z
" id="DejaVuSans-78"/>
      <path d="M 44.28125 53.078125 
L 44.28125 44.578125 
Q 40.484375 46.53125 36.375 47.5 
Q 32.28125 48.484375 27.875 48.484375 
Q 21.1875 48.484375 17.84375 46.4375 
Q 14.5 44.390625 14.5 40.28125 
Q 14.5 37.15625 16.890625 35.375 
Q 19.28125 33.59375 26.515625 31.984375 
L 29.59375 31.296875 
Q 39.15625 29.25 43.1875 25.515625 
Q 47.21875 21.78125 47.21875 15.09375 
Q 47.21875 7.46875 41.1875 3.015625 
Q 35.15625 -1.421875 24.609375 -1.421875 
Q 20.21875 -1.421875 15.453125 -0.5625 
Q 10.6875 0.296875 5.421875 2 
L 5.421875 11.28125 
Q 10.40625 8.6875 15.234375 7.390625 
Q 20.0625 6.109375 24.8125 6.109375 
Q 31.15625 6.109375 34.5625 8.28125 
Q 37.984375 10.453125 37.984375 14.40625 
Q 37.984375 18.0625 35.515625 20.015625 
Q 33.0625 21.96875 24.703125 23.78125 
L 21.578125 24.515625 
Q 13.234375 26.265625 9.515625 29.90625 
Q 5.8125 33.546875 5.8125 39.890625 
Q 5.8125 47.609375 11.28125 51.796875 
Q 16.75 56 26.8125 56 
Q 31.78125 56 36.171875 55.265625 
Q 40.578125 54.546875 44.28125 53.078125 
z
" id="DejaVuSans-73"/>
     </defs>
     <g transform="translate(333.395313 93.738594)rotate(-90)scale(0.06 -0.06)">
      <use xlink:href="#DejaVuSans-4e"/>
      <use x="74.804688" xlink:href="#DejaVuSans-75"/>
      <use x="138.183594" xlink:href="#DejaVuSans-6d"/>
      <use x="235.595703" xlink:href="#DejaVuSans-62"/>
      <use x="299.072266" xlink:href="#DejaVuSans-65"/>
      <use x="360.595703" xlink:href="#DejaVuSans-72"/>
      <use x="401.708984" xlink:href="#DejaVuSans-20"/>
      <use x="433.496094" xlink:href="#DejaVuSans-6f"/>
      <use x="494.677734" xlink:href="#DejaVuSans-66"/>
      <use x="529.882812" xlink:href="#DejaVuSans-20"/>
      <use x="561.669922" xlink:href="#DejaVuSans-65"/>
      <use x="623.177734" xlink:href="#DejaVuSans-78"/>
      <use x="682.357422" xlink:href="#DejaVuSans-61"/>
      <use x="743.636719" xlink:href="#DejaVuSans-6d"/>
      <use x="841.048828" xlink:href="#DejaVuSans-70"/>
      <use x="904.525391" xlink:href="#DejaVuSans-6c"/>
      <use x="932.308594" xlink:href="#DejaVuSans-65"/>
      <use x="993.832031" xlink:href="#DejaVuSans-73"/>
     </g>
    </g>
   </g>
   <g id="patch_64">
    <path d="M 32.06 115.72 
L 32.06 9 
" style="fill:none;stroke:#000000;stroke-linecap:square;stroke-linejoin:miter;stroke-width:0.8;"/>
   </g>
   <g id="patch_65">
    <path d="M 301.93 115.72 
L 301.93 9 
" style="fill:none;stroke:#000000;stroke-linecap:square;stroke-linejoin:miter;stroke-width:0.8;"/>
   </g>
   <g id="patch_66">
    <path d="M 32.06 115.72 
L 301.93 115.72 
" style="fill:none;stroke:#000000;stroke-linecap:square;stroke-linejoin:miter;stroke-width:0.8;"/>
   </g>
   <g id="patch_67">
    <path d="M 32.06 9 
L 301.93 9 
" style="fill:none;stroke:#000000;stroke-linecap:square;stroke-linejoin:miter;stroke-width:0.8;"/>
   </g>
   <g id="legend_1">
    <g id="patch_68">
     <path d="M 36.26 40.26 
L 134.42 40.26 
Q 135.62 40.26 135.62 39.06 
L 135.62 13.2 
Q 135.62 12 134.42 12 
L 36.26 12 
Q 35.06 12 35.06 13.2 
L 35.06 39.06 
Q 35.06 40.26 36.26 40.26 
z
" style="fill:#ffffff;opacity:0.8;stroke:#cccccc;stroke-linejoin:miter;"/>
    </g>
    <g id="line2d_35">
     <path d="M 37.46 16.86 
L 49.46 16.86 
" style="fill:none;stroke:#1f77b4;stroke-linecap:square;stroke-width:0.75;"/>
    </g>
    <g id="line2d_36">
     <g>
      <use style="fill:#1f77b4;stroke:#1f77b4;" x="43.46" xlink:href="#m7fca3a1b97" y="16.86"/>
     </g>
    </g>
    <g id="text_35">
     <!-- Stacking on $\it{CMB}$ dataset -->
     <defs>
      <path d="M 53.515625 70.515625 
L 53.515625 60.890625 
Q 47.90625 63.578125 42.921875 64.890625 
Q 37.9375 66.21875 33.296875 66.21875 
Q 25.25 66.21875 20.875 63.09375 
Q 16.5 59.96875 16.5 54.203125 
Q 16.5 49.359375 19.40625 46.890625 
Q 22.3125 44.4375 30.421875 42.921875 
L 36.375 41.703125 
Q 47.40625 39.59375 52.65625 34.296875 
Q 57.90625 29 57.90625 20.125 
Q 57.90625 9.515625 50.796875 4.046875 
Q 43.703125 -1.421875 29.984375 -1.421875 
Q 24.8125 -1.421875 18.96875 -0.25 
Q 13.140625 0.921875 6.890625 3.21875 
L 6.890625 13.375 
Q 12.890625 10.015625 18.65625 8.296875 
Q 24.421875 6.59375 29.984375 6.59375 
Q 38.421875 6.59375 43.015625 9.90625 
Q 47.609375 13.234375 47.609375 19.390625 
Q 47.609375 24.75 44.3125 27.78125 
Q 41.015625 30.8125 33.5 32.328125 
L 27.484375 33.5 
Q 16.453125 35.6875 11.515625 40.375 
Q 6.59375 45.0625 6.59375 53.421875 
Q 6.59375 63.09375 13.40625 68.65625 
Q 20.21875 74.21875 32.171875 74.21875 
Q 37.3125 74.21875 42.625 73.28125 
Q 47.953125 72.359375 53.515625 70.515625 
z
" id="DejaVuSans-53"/>
      <path d="M 9.078125 75.984375 
L 18.109375 75.984375 
L 18.109375 31.109375 
L 44.921875 54.6875 
L 56.390625 54.6875 
L 27.390625 29.109375 
L 57.625 0 
L 45.90625 0 
L 18.109375 26.703125 
L 18.109375 0 
L 9.078125 0 
z
" id="DejaVuSans-6b"/>
      <path d="M 45.40625 27.984375 
Q 45.40625 37.75 41.375 43.109375 
Q 37.359375 48.484375 30.078125 48.484375 
Q 22.859375 48.484375 18.828125 43.109375 
Q 14.796875 37.75 14.796875 27.984375 
Q 14.796875 18.265625 18.828125 12.890625 
Q 22.859375 7.515625 30.078125 7.515625 
Q 37.359375 7.515625 41.375 12.890625 
Q 45.40625 18.265625 45.40625 27.984375 
z
M 54.390625 6.78125 
Q 54.390625 -7.171875 48.1875 -13.984375 
Q 42 -20.796875 29.203125 -20.796875 
Q 24.46875 -20.796875 20.265625 -20.09375 
Q 16.0625 -19.390625 12.109375 -17.921875 
L 12.109375 -9.1875 
Q 16.0625 -11.328125 19.921875 -12.34375 
Q 23.78125 -13.375 27.78125 -13.375 
Q 36.625 -13.375 41.015625 -8.765625 
Q 45.40625 -4.15625 45.40625 5.171875 
L 45.40625 9.625 
Q 42.625 4.78125 38.28125 2.390625 
Q 33.9375 0 27.875 0 
Q 17.828125 0 11.671875 7.65625 
Q 5.515625 15.328125 5.515625 27.984375 
Q 5.515625 40.671875 11.671875 48.328125 
Q 17.828125 56 27.875 56 
Q 33.9375 56 38.28125 53.609375 
Q 42.625 51.21875 45.40625 46.390625 
L 45.40625 54.6875 
L 54.390625 54.6875 
z
" id="DejaVuSans-67"/>
      <path d="M 69.484375 67.28125 
L 67.484375 56.890625 
Q 62.796875 61.625 57.546875 63.921875 
Q 52.296875 66.21875 46.1875 66.21875 
Q 37.84375 66.21875 31.515625 62.203125 
Q 25.203125 58.203125 20.609375 50 
Q 17.671875 44.734375 16.125 38.84375 
Q 14.59375 32.953125 14.59375 27 
Q 14.59375 17.046875 19.75 11.8125 
Q 24.90625 6.59375 34.71875 6.59375 
Q 41.5 6.59375 47.75 8.765625 
Q 54 10.9375 59.90625 15.28125 
L 57.625 3.609375 
Q 51.8125 1.125 45.875 -0.140625 
Q 39.9375 -1.421875 33.984375 -1.421875 
Q 19.96875 -1.421875 12.078125 6.1875 
Q 4.203125 13.8125 4.203125 27.390625 
Q 4.203125 36.078125 7.203125 44.46875 
Q 10.203125 52.875 15.828125 59.8125 
Q 21.78125 67.1875 29.421875 70.703125 
Q 37.0625 74.21875 47.21875 74.21875 
Q 53.46875 74.21875 59.0625 72.484375 
Q 64.65625 70.75 69.484375 67.28125 
z
" id="DejaVuSans-Oblique-43"/>
      <path d="M 16.890625 72.90625 
L 31.6875 72.90625 
L 40.1875 23.78125 
L 68.40625 72.90625 
L 83.59375 72.90625 
L 69.390625 0 
L 59.8125 0 
L 72.21875 63.921875 
L 43.609375 14.015625 
L 33.984375 14.015625 
L 24.703125 64.109375 
L 12.3125 0 
L 2.6875 0 
z
" id="DejaVuSans-Oblique-4d"/>
      <path d="M 16.890625 72.90625 
L 42.09375 72.90625 
Q 52.34375 72.90625 57.421875 69.09375 
Q 62.5 65.28125 62.5 57.625 
Q 62.5 50.59375 58.125 45.484375 
Q 53.765625 40.375 46.6875 39.3125 
Q 52.734375 37.9375 55.765625 34.078125 
Q 58.796875 30.21875 58.796875 23.78125 
Q 58.796875 12.796875 50.65625 6.390625 
Q 42.53125 0 28.421875 0 
L 2.6875 0 
z
M 19.28125 34.8125 
L 14.109375 8.109375 
L 29.984375 8.109375 
Q 38.921875 8.109375 43.75 12.203125 
Q 48.578125 16.3125 48.578125 23.78125 
Q 48.578125 29.546875 45.375 32.171875 
Q 42.1875 34.8125 35.109375 34.8125 
z
M 25.09375 64.796875 
L 20.796875 42.828125 
L 35.5 42.828125 
Q 43.359375 42.828125 47.78125 46.234375 
Q 52.203125 49.65625 52.203125 55.71875 
Q 52.203125 60.453125 49.21875 62.625 
Q 46.234375 64.796875 39.703125 64.796875 
z
" id="DejaVuSans-Oblique-42"/>
     </defs>
     <g transform="translate(54.26 18.96)scale(0.06 -0.06)">
      <use transform="translate(0 0.015625)" xlink:href="#DejaVuSans-53"/>
      <use transform="translate(63.476562 0.015625)" xlink:href="#DejaVuSans-74"/>
      <use transform="translate(102.685547 0.015625)" xlink:href="#DejaVuSans-61"/>
      <use transform="translate(163.964844 0.015625)" xlink:href="#DejaVuSans-63"/>
      <use transform="translate(218.945312 0.015625)" xlink:href="#DejaVuSans-6b"/>
      <use transform="translate(276.855469 0.015625)" xlink:href="#DejaVuSans-69"/>
      <use transform="translate(304.638672 0.015625)" xlink:href="#DejaVuSans-6e"/>
      <use transform="translate(368.017578 0.015625)" xlink:href="#DejaVuSans-67"/>
      <use transform="translate(431.494141 0.015625)" xlink:href="#DejaVuSans-20"/>
      <use transform="translate(463.28125 0.015625)" xlink:href="#DejaVuSans-6f"/>
      <use transform="translate(524.462891 0.015625)" xlink:href="#DejaVuSans-6e"/>
      <use transform="translate(587.841797 0.015625)" xlink:href="#DejaVuSans-20"/>
      <use transform="translate(619.628906 0.015625)" xlink:href="#DejaVuSans-Oblique-43"/>
      <use transform="translate(689.453125 0.015625)" xlink:href="#DejaVuSans-Oblique-4d"/>
      <use transform="translate(775.732422 0.015625)" xlink:href="#DejaVuSans-Oblique-42"/>
      <use transform="translate(844.335938 0.015625)" xlink:href="#DejaVuSans-20"/>
      <use transform="translate(876.123047 0.015625)" xlink:href="#DejaVuSans-64"/>
      <use transform="translate(939.599609 0.015625)" xlink:href="#DejaVuSans-61"/>
      <use transform="translate(1000.878906 0.015625)" xlink:href="#DejaVuSans-74"/>
      <use transform="translate(1040.087891 0.015625)" xlink:href="#DejaVuSans-61"/>
      <use transform="translate(1101.367188 0.015625)" xlink:href="#DejaVuSans-73"/>
      <use transform="translate(1153.466797 0.015625)" xlink:href="#DejaVuSans-65"/>
      <use transform="translate(1214.990234 0.015625)" xlink:href="#DejaVuSans-74"/>
     </g>
    </g>
    <g id="line2d_37">
     <path d="M 37.46 25.68 
L 49.46 25.68 
" style="fill:none;stroke:#ff7f0e;stroke-linecap:square;stroke-width:0.75;"/>
    </g>
    <g id="line2d_38">
     <g>
      <use style="fill:#ff7f0e;stroke:#ff7f0e;stroke-linejoin:miter;" x="43.46" xlink:href="#mf5067f6f77" y="25.68"/>
     </g>
    </g>
    <g id="text_36">
     <!-- Stacking on $\it{TAMC}$ dataset -->
     <defs>
      <path d="M 5.90625 72.90625 
L 67.578125 72.90625 
L 66.015625 64.59375 
L 39.984375 64.59375 
L 27.484375 0 
L 17.578125 0 
L 30.078125 64.59375 
L 4.296875 64.59375 
z
" id="DejaVuSans-Oblique-54"/>
      <path d="M 36.8125 72.90625 
L 48 72.90625 
L 61.53125 0 
L 51.21875 0 
L 48.1875 18.703125 
L 15.375 18.703125 
L 5.078125 0 
L -5.328125 0 
z
M 40.375 63.1875 
L 19.921875 26.90625 
L 46.6875 26.90625 
z
" id="DejaVuSans-Oblique-41"/>
     </defs>
     <g transform="translate(54.26 27.78)scale(0.06 -0.06)">
      <use transform="translate(0 0.015625)" xlink:href="#DejaVuSans-53"/>
      <use transform="translate(63.476562 0.015625)" xlink:href="#DejaVuSans-74"/>
      <use transform="translate(102.685547 0.015625)" xlink:href="#DejaVuSans-61"/>
      <use transform="translate(163.964844 0.015625)" xlink:href="#DejaVuSans-63"/>
      <use transform="translate(218.945312 0.015625)" xlink:href="#DejaVuSans-6b"/>
      <use transform="translate(276.855469 0.015625)" xlink:href="#DejaVuSans-69"/>
      <use transform="translate(304.638672 0.015625)" xlink:href="#DejaVuSans-6e"/>
      <use transform="translate(368.017578 0.015625)" xlink:href="#DejaVuSans-67"/>
      <use transform="translate(431.494141 0.015625)" xlink:href="#DejaVuSans-20"/>
      <use transform="translate(463.28125 0.015625)" xlink:href="#DejaVuSans-6f"/>
      <use transform="translate(524.462891 0.015625)" xlink:href="#DejaVuSans-6e"/>
      <use transform="translate(587.841797 0.015625)" xlink:href="#DejaVuSans-20"/>
      <use transform="translate(619.628906 0.015625)" xlink:href="#DejaVuSans-Oblique-54"/>
      <use transform="translate(680.712891 0.015625)" xlink:href="#DejaVuSans-Oblique-41"/>
      <use transform="translate(749.121094 0.015625)" xlink:href="#DejaVuSans-Oblique-4d"/>
      <use transform="translate(835.400391 0.015625)" xlink:href="#DejaVuSans-Oblique-43"/>
      <use transform="translate(905.224609 0.015625)" xlink:href="#DejaVuSans-20"/>
      <use transform="translate(937.011719 0.015625)" xlink:href="#DejaVuSans-64"/>
      <use transform="translate(1000.488281 0.015625)" xlink:href="#DejaVuSans-61"/>
      <use transform="translate(1061.767578 0.015625)" xlink:href="#DejaVuSans-74"/>
      <use transform="translate(1100.976562 0.015625)" xlink:href="#DejaVuSans-61"/>
      <use transform="translate(1162.255859 0.015625)" xlink:href="#DejaVuSans-73"/>
      <use transform="translate(1214.355469 0.015625)" xlink:href="#DejaVuSans-65"/>
      <use transform="translate(1275.878906 0.015625)" xlink:href="#DejaVuSans-74"/>
     </g>
    </g>
    <g id="line2d_39">
     <path d="M 37.46 34.5 
L 49.46 34.5 
" style="fill:none;stroke:#2ca02c;stroke-linecap:square;stroke-width:0.75;"/>
    </g>
    <g id="line2d_40">
     <g>
      <use style="fill:#2ca02c;stroke:#2ca02c;stroke-linejoin:miter;" x="43.46" xlink:href="#m6e49a928de" y="34.5"/>
     </g>
    </g>
    <g id="text_37">
     <!-- Stacking on $\it{CL}$ dataset -->
     <defs>
      <path d="M 16.796875 72.90625 
L 26.703125 72.90625 
L 14.203125 8.203125 
L 49.703125 8.203125 
L 48.09375 0 
L 2.6875 0 
z
" id="DejaVuSans-Oblique-4c"/>
     </defs>
     <g transform="translate(54.26 36.6)scale(0.06 -0.06)">
      <use transform="translate(0 0.015625)" xlink:href="#DejaVuSans-53"/>
      <use transform="translate(63.476562 0.015625)" xlink:href="#DejaVuSans-74"/>
      <use transform="translate(102.685547 0.015625)" xlink:href="#DejaVuSans-61"/>
      <use transform="translate(163.964844 0.015625)" xlink:href="#DejaVuSans-63"/>
      <use transform="translate(218.945312 0.015625)" xlink:href="#DejaVuSans-6b"/>
      <use transform="translate(276.855469 0.015625)" xlink:href="#DejaVuSans-69"/>
      <use transform="translate(304.638672 0.015625)" xlink:href="#DejaVuSans-6e"/>
      <use transform="translate(368.017578 0.015625)" xlink:href="#DejaVuSans-67"/>
      <use transform="translate(431.494141 0.015625)" xlink:href="#DejaVuSans-20"/>
      <use transform="translate(463.28125 0.015625)" xlink:href="#DejaVuSans-6f"/>
      <use transform="translate(524.462891 0.015625)" xlink:href="#DejaVuSans-6e"/>
      <use transform="translate(587.841797 0.015625)" xlink:href="#DejaVuSans-20"/>
      <use transform="translate(619.628906 0.015625)" xlink:href="#DejaVuSans-Oblique-43"/>
      <use transform="translate(689.453125 0.015625)" xlink:href="#DejaVuSans-Oblique-4c"/>
      <use transform="translate(745.166016 0.015625)" xlink:href="#DejaVuSans-20"/>
      <use transform="translate(776.953125 0.015625)" xlink:href="#DejaVuSans-64"/>
      <use transform="translate(840.429688 0.015625)" xlink:href="#DejaVuSans-61"/>
      <use transform="translate(901.708984 0.015625)" xlink:href="#DejaVuSans-74"/>
      <use transform="translate(940.917969 0.015625)" xlink:href="#DejaVuSans-61"/>
      <use transform="translate(1002.197266 0.015625)" xlink:href="#DejaVuSans-73"/>
      <use transform="translate(1054.296875 0.015625)" xlink:href="#DejaVuSans-65"/>
      <use transform="translate(1115.820312 0.015625)" xlink:href="#DejaVuSans-74"/>
     </g>
    </g>
   </g>
  </g>
 </g>
 <defs>
  <clipPath id="p0469f686b7">
   <rect height="106.72" width="269.87" x="32.06" y="9"/>
  </clipPath>
 </defs>
</svg>
