<?xml version="1.0" encoding="utf-8" standalone="no"?>
<!DOCTYPE svg PUBLIC "-//W3C//DTD SVG 1.1//EN"
  "http://www.w3.org/Graphics/SVG/1.1/DTD/svg11.dtd">
<!-- Created with matplotlib (http://matplotlib.org/) -->
<svg height="144pt" version="1.1" viewBox="0 0 342 144" width="342pt" xmlns="http://www.w3.org/2000/svg" xmlns:xlink="http://www.w3.org/1999/xlink">
 <defs>
  <style type="text/css">
*{stroke-linecap:butt;stroke-linejoin:round;}
  </style>
 </defs>
 <g id="figure_1">
  <g id="patch_1">
   <path d="M 0 144 
L 342 144 
L 342 0 
L 0 0 
z
" style="fill:#ffffff;"/>
  </g>
  <g id="axes_1">
   <g id="patch_2">
    <path d="M 32.06 118.78 
L 298.6 118.78 
L 298.6 9 
L 32.06 9 
z
" style="fill:#ffffff;"/>
   </g>
   <g id="matplotlib.axis_1">
    <g id="xtick_1">
     <g id="line2d_1">
      <defs>
       <path d="M 0 0 
L 0 3.5 
" id="m69254dc1d1" style="stroke:#000000;stroke-width:0.8;"/>
      </defs>
      <g>
       <use style="stroke:#000000;stroke-width:0.8;" x="32.06" xlink:href="#m69254dc1d1" y="118.78"/>
      </g>
     </g>
    </g>
    <g id="xtick_2">
     <g id="line2d_2">
      <g>
       <use style="stroke:#000000;stroke-width:0.8;" x="54.271667" xlink:href="#m69254dc1d1" y="118.78"/>
      </g>
     </g>
    </g>
    <g id="xtick_3">
     <g id="line2d_3">
      <g>
       <use style="stroke:#000000;stroke-width:0.8;" x="76.483333" xlink:href="#m69254dc1d1" y="118.78"/>
      </g>
     </g>
    </g>
    <g id="xtick_4">
     <g id="line2d_4">
      <g>
       <use style="stroke:#000000;stroke-width:0.8;" x="98.695" xlink:href="#m69254dc1d1" y="118.78"/>
      </g>
     </g>
    </g>
    <g id="xtick_5">
     <g id="line2d_5">
      <g>
       <use style="stroke:#000000;stroke-width:0.8;" x="120.906667" xlink:href="#m69254dc1d1" y="118.78"/>
      </g>
     </g>
    </g>
    <g id="xtick_6">
     <g id="line2d_6">
      <g>
       <use style="stroke:#000000;stroke-width:0.8;" x="143.118333" xlink:href="#m69254dc1d1" y="118.78"/>
      </g>
     </g>
    </g>
    <g id="xtick_7">
     <g id="line2d_7">
      <g>
       <use style="stroke:#000000;stroke-width:0.8;" x="165.33" xlink:href="#m69254dc1d1" y="118.78"/>
      </g>
     </g>
    </g>
    <g id="xtick_8">
     <g id="line2d_8">
      <g>
       <use style="stroke:#000000;stroke-width:0.8;" x="187.541667" xlink:href="#m69254dc1d1" y="118.78"/>
      </g>
     </g>
    </g>
    <g id="xtick_9">
     <g id="line2d_9">
      <g>
       <use style="stroke:#000000;stroke-width:0.8;" x="209.753333" xlink:href="#m69254dc1d1" y="118.78"/>
      </g>
     </g>
    </g>
    <g id="xtick_10">
     <g id="line2d_10">
      <g>
       <use style="stroke:#000000;stroke-width:0.8;" x="231.965" xlink:href="#m69254dc1d1" y="118.78"/>
      </g>
     </g>
    </g>
    <g id="xtick_11">
     <g id="line2d_11">
      <g>
       <use style="stroke:#000000;stroke-width:0.8;" x="254.176667" xlink:href="#m69254dc1d1" y="118.78"/>
      </g>
     </g>
    </g>
    <g id="xtick_12">
     <g id="line2d_12">
      <g>
       <use style="stroke:#000000;stroke-width:0.8;" x="276.388333" xlink:href="#m69254dc1d1" y="118.78"/>
      </g>
     </g>
    </g>
    <g id="xtick_13">
     <g id="line2d_13"/>
     <g id="text_1">
      <!-- ≤ 5 -->
      <defs>
       <path d="M 73.1875 49.609375 
L 26.3125 36.078125 
L 73.1875 22.703125 
L 73.1875 14.015625 
L 10.59375 31.984375 
L 10.59375 40.28125 
L 73.1875 58.203125 
z
M 10.59375 8.296875 
L 73.1875 8.296875 
L 73.1875 0 
L 10.59375 0 
z
" id="DejaVuSans-2264"/>
       <path id="DejaVuSans-20"/>
       <path d="M 10.796875 72.90625 
L 49.515625 72.90625 
L 49.515625 64.59375 
L 19.828125 64.59375 
L 19.828125 46.734375 
Q 21.96875 47.46875 24.109375 47.828125 
Q 26.265625 48.1875 28.421875 48.1875 
Q 40.625 48.1875 47.75 41.5 
Q 54.890625 34.8125 54.890625 23.390625 
Q 54.890625 11.625 47.5625 5.09375 
Q 40.234375 -1.421875 26.90625 -1.421875 
Q 22.3125 -1.421875 17.546875 -0.640625 
Q 12.796875 0.140625 7.71875 1.703125 
L 7.71875 11.625 
Q 12.109375 9.234375 16.796875 8.0625 
Q 21.484375 6.890625 26.703125 6.890625 
Q 35.15625 6.890625 40.078125 11.328125 
Q 45.015625 15.765625 45.015625 23.390625 
Q 45.015625 31 40.078125 35.4375 
Q 35.15625 39.890625 26.703125 39.890625 
Q 22.75 39.890625 18.8125 39.015625 
Q 14.890625 38.140625 10.796875 36.28125 
z
" id="DejaVuSans-35"/>
      </defs>
      <g transform="translate(38.685755 125.979219)scale(0.05 -0.05)">
       <use xlink:href="#DejaVuSans-2264"/>
       <use x="83.789062" xlink:href="#DejaVuSans-20"/>
       <use x="115.576172" xlink:href="#DejaVuSans-35"/>
      </g>
     </g>
    </g>
    <g id="xtick_14">
     <g id="line2d_14"/>
     <g id="text_2">
      <!-- (5–10] -->
      <defs>
       <path d="M 31 75.875 
Q 24.46875 64.65625 21.28125 53.65625 
Q 18.109375 42.671875 18.109375 31.390625 
Q 18.109375 20.125 21.3125 9.0625 
Q 24.515625 -2 31 -13.1875 
L 23.1875 -13.1875 
Q 15.875 -1.703125 12.234375 9.375 
Q 8.59375 20.453125 8.59375 31.390625 
Q 8.59375 42.28125 12.203125 53.3125 
Q 15.828125 64.359375 23.1875 75.875 
z
" id="DejaVuSans-28"/>
       <path d="M 4.890625 30.90625 
L 45.125 30.90625 
L 45.125 23.875 
L 4.890625 23.875 
z
" id="DejaVuSans-2013"/>
       <path d="M 12.40625 8.296875 
L 28.515625 8.296875 
L 28.515625 63.921875 
L 10.984375 60.40625 
L 10.984375 69.390625 
L 28.421875 72.90625 
L 38.28125 72.90625 
L 38.28125 8.296875 
L 54.390625 8.296875 
L 54.390625 0 
L 12.40625 0 
z
" id="DejaVuSans-31"/>
       <path d="M 31.78125 66.40625 
Q 24.171875 66.40625 20.328125 58.90625 
Q 16.5 51.421875 16.5 36.375 
Q 16.5 21.390625 20.328125 13.890625 
Q 24.171875 6.390625 31.78125 6.390625 
Q 39.453125 6.390625 43.28125 13.890625 
Q 47.125 21.390625 47.125 36.375 
Q 47.125 51.421875 43.28125 58.90625 
Q 39.453125 66.40625 31.78125 66.40625 
z
M 31.78125 74.21875 
Q 44.046875 74.21875 50.515625 64.515625 
Q 56.984375 54.828125 56.984375 36.375 
Q 56.984375 17.96875 50.515625 8.265625 
Q 44.046875 -1.421875 31.78125 -1.421875 
Q 19.53125 -1.421875 13.0625 8.265625 
Q 6.59375 17.96875 6.59375 36.375 
Q 6.59375 54.828125 13.0625 64.515625 
Q 19.53125 74.21875 31.78125 74.21875 
z
" id="DejaVuSans-30"/>
       <path d="M 30.421875 75.984375 
L 30.421875 -13.1875 
L 9.71875 -13.1875 
L 9.71875 -6.203125 
L 21.390625 -6.203125 
L 21.390625 69 
L 9.71875 69 
L 9.71875 75.984375 
z
" id="DejaVuSans-5d"/>
      </defs>
      <g transform="translate(57.404844 125.979219)scale(0.05 -0.05)">
       <use xlink:href="#DejaVuSans-28"/>
       <use x="39.013672" xlink:href="#DejaVuSans-35"/>
       <use x="102.636719" xlink:href="#DejaVuSans-2013"/>
       <use x="152.636719" xlink:href="#DejaVuSans-31"/>
       <use x="216.259766" xlink:href="#DejaVuSans-30"/>
       <use x="279.882812" xlink:href="#DejaVuSans-5d"/>
      </g>
     </g>
    </g>
    <g id="xtick_15">
     <g id="line2d_15"/>
     <g id="text_3">
      <!-- (10–15] -->
      <g transform="translate(78.025885 125.979219)scale(0.05 -0.05)">
       <use xlink:href="#DejaVuSans-28"/>
       <use x="39.013672" xlink:href="#DejaVuSans-31"/>
       <use x="102.636719" xlink:href="#DejaVuSans-30"/>
       <use x="166.259766" xlink:href="#DejaVuSans-2013"/>
       <use x="216.259766" xlink:href="#DejaVuSans-31"/>
       <use x="279.882812" xlink:href="#DejaVuSans-35"/>
       <use x="343.505859" xlink:href="#DejaVuSans-5d"/>
      </g>
     </g>
    </g>
    <g id="xtick_16">
     <g id="line2d_16"/>
     <g id="text_4">
      <!-- (15–20] -->
      <defs>
       <path d="M 19.1875 8.296875 
L 53.609375 8.296875 
L 53.609375 0 
L 7.328125 0 
L 7.328125 8.296875 
Q 12.9375 14.109375 22.625 23.890625 
Q 32.328125 33.6875 34.8125 36.53125 
Q 39.546875 41.84375 41.421875 45.53125 
Q 43.3125 49.21875 43.3125 52.78125 
Q 43.3125 58.59375 39.234375 62.25 
Q 35.15625 65.921875 28.609375 65.921875 
Q 23.96875 65.921875 18.8125 64.3125 
Q 13.671875 62.703125 7.8125 59.421875 
L 7.8125 69.390625 
Q 13.765625 71.78125 18.9375 73 
Q 24.125 74.21875 28.421875 74.21875 
Q 39.75 74.21875 46.484375 68.546875 
Q 53.21875 62.890625 53.21875 53.421875 
Q 53.21875 48.921875 51.53125 44.890625 
Q 49.859375 40.875 45.40625 35.40625 
Q 44.1875 33.984375 37.640625 27.21875 
Q 31.109375 20.453125 19.1875 8.296875 
z
" id="DejaVuSans-32"/>
      </defs>
      <g transform="translate(100.237552 125.979219)scale(0.05 -0.05)">
       <use xlink:href="#DejaVuSans-28"/>
       <use x="39.013672" xlink:href="#DejaVuSans-31"/>
       <use x="102.636719" xlink:href="#DejaVuSans-35"/>
       <use x="166.259766" xlink:href="#DejaVuSans-2013"/>
       <use x="216.259766" xlink:href="#DejaVuSans-32"/>
       <use x="279.882812" xlink:href="#DejaVuSans-30"/>
       <use x="343.505859" xlink:href="#DejaVuSans-5d"/>
      </g>
     </g>
    </g>
    <g id="xtick_17">
     <g id="line2d_17"/>
     <g id="text_5">
      <!-- (20–25] -->
      <g transform="translate(122.449219 125.979219)scale(0.05 -0.05)">
       <use xlink:href="#DejaVuSans-28"/>
       <use x="39.013672" xlink:href="#DejaVuSans-32"/>
       <use x="102.636719" xlink:href="#DejaVuSans-30"/>
       <use x="166.259766" xlink:href="#DejaVuSans-2013"/>
       <use x="216.259766" xlink:href="#DejaVuSans-32"/>
       <use x="279.882812" xlink:href="#DejaVuSans-35"/>
       <use x="343.505859" xlink:href="#DejaVuSans-5d"/>
      </g>
     </g>
    </g>
    <g id="xtick_18">
     <g id="line2d_18"/>
     <g id="text_6">
      <!-- (25–30] -->
      <defs>
       <path d="M 40.578125 39.3125 
Q 47.65625 37.796875 51.625 33 
Q 55.609375 28.21875 55.609375 21.1875 
Q 55.609375 10.40625 48.1875 4.484375 
Q 40.765625 -1.421875 27.09375 -1.421875 
Q 22.515625 -1.421875 17.65625 -0.515625 
Q 12.796875 0.390625 7.625 2.203125 
L 7.625 11.71875 
Q 11.71875 9.328125 16.59375 8.109375 
Q 21.484375 6.890625 26.8125 6.890625 
Q 36.078125 6.890625 40.9375 10.546875 
Q 45.796875 14.203125 45.796875 21.1875 
Q 45.796875 27.640625 41.28125 31.265625 
Q 36.765625 34.90625 28.71875 34.90625 
L 20.21875 34.90625 
L 20.21875 43.015625 
L 29.109375 43.015625 
Q 36.375 43.015625 40.234375 45.921875 
Q 44.09375 48.828125 44.09375 54.296875 
Q 44.09375 59.90625 40.109375 62.90625 
Q 36.140625 65.921875 28.71875 65.921875 
Q 24.65625 65.921875 20.015625 65.03125 
Q 15.375 64.15625 9.8125 62.3125 
L 9.8125 71.09375 
Q 15.4375 72.65625 20.34375 73.4375 
Q 25.25 74.21875 29.59375 74.21875 
Q 40.828125 74.21875 47.359375 69.109375 
Q 53.90625 64.015625 53.90625 55.328125 
Q 53.90625 49.265625 50.4375 45.09375 
Q 46.96875 40.921875 40.578125 39.3125 
z
" id="DejaVuSans-33"/>
      </defs>
      <g transform="translate(144.660885 125.979219)scale(0.05 -0.05)">
       <use xlink:href="#DejaVuSans-28"/>
       <use x="39.013672" xlink:href="#DejaVuSans-32"/>
       <use x="102.636719" xlink:href="#DejaVuSans-35"/>
       <use x="166.259766" xlink:href="#DejaVuSans-2013"/>
       <use x="216.259766" xlink:href="#DejaVuSans-33"/>
       <use x="279.882812" xlink:href="#DejaVuSans-30"/>
       <use x="343.505859" xlink:href="#DejaVuSans-5d"/>
      </g>
     </g>
    </g>
    <g id="xtick_19">
     <g id="line2d_19"/>
     <g id="text_7">
      <!-- (30–35] -->
      <g transform="translate(166.872552 125.979219)scale(0.05 -0.05)">
       <use xlink:href="#DejaVuSans-28"/>
       <use x="39.013672" xlink:href="#DejaVuSans-33"/>
       <use x="102.636719" xlink:href="#DejaVuSans-30"/>
       <use x="166.259766" xlink:href="#DejaVuSans-2013"/>
       <use x="216.259766" xlink:href="#DejaVuSans-33"/>
       <use x="279.882812" xlink:href="#DejaVuSans-35"/>
       <use x="343.505859" xlink:href="#DejaVuSans-5d"/>
      </g>
     </g>
    </g>
    <g id="xtick_20">
     <g id="line2d_20"/>
     <g id="text_8">
      <!-- (35–40] -->
      <defs>
       <path d="M 37.796875 64.3125 
L 12.890625 25.390625 
L 37.796875 25.390625 
z
M 35.203125 72.90625 
L 47.609375 72.90625 
L 47.609375 25.390625 
L 58.015625 25.390625 
L 58.015625 17.1875 
L 47.609375 17.1875 
L 47.609375 0 
L 37.796875 0 
L 37.796875 17.1875 
L 4.890625 17.1875 
L 4.890625 26.703125 
z
" id="DejaVuSans-34"/>
      </defs>
      <g transform="translate(189.084219 125.979219)scale(0.05 -0.05)">
       <use xlink:href="#DejaVuSans-28"/>
       <use x="39.013672" xlink:href="#DejaVuSans-33"/>
       <use x="102.636719" xlink:href="#DejaVuSans-35"/>
       <use x="166.259766" xlink:href="#DejaVuSans-2013"/>
       <use x="216.259766" xlink:href="#DejaVuSans-34"/>
       <use x="279.882812" xlink:href="#DejaVuSans-30"/>
       <use x="343.505859" xlink:href="#DejaVuSans-5d"/>
      </g>
     </g>
    </g>
    <g id="xtick_21">
     <g id="line2d_21"/>
     <g id="text_9">
      <!-- (40–45] -->
      <g transform="translate(211.295885 125.979219)scale(0.05 -0.05)">
       <use xlink:href="#DejaVuSans-28"/>
       <use x="39.013672" xlink:href="#DejaVuSans-34"/>
       <use x="102.636719" xlink:href="#DejaVuSans-30"/>
       <use x="166.259766" xlink:href="#DejaVuSans-2013"/>
       <use x="216.259766" xlink:href="#DejaVuSans-34"/>
       <use x="279.882812" xlink:href="#DejaVuSans-35"/>
       <use x="343.505859" xlink:href="#DejaVuSans-5d"/>
      </g>
     </g>
    </g>
    <g id="xtick_22">
     <g id="line2d_22"/>
     <g id="text_10">
      <!-- (45–50] -->
      <g transform="translate(233.507552 125.979219)scale(0.05 -0.05)">
       <use xlink:href="#DejaVuSans-28"/>
       <use x="39.013672" xlink:href="#DejaVuSans-34"/>
       <use x="102.636719" xlink:href="#DejaVuSans-35"/>
       <use x="166.259766" xlink:href="#DejaVuSans-2013"/>
       <use x="216.259766" xlink:href="#DejaVuSans-35"/>
       <use x="279.882812" xlink:href="#DejaVuSans-30"/>
       <use x="343.505859" xlink:href="#DejaVuSans-5d"/>
      </g>
     </g>
    </g>
    <g id="xtick_23">
     <g id="line2d_23"/>
     <g id="text_11">
      <!-- (50–55] -->
      <g transform="translate(255.719219 125.979219)scale(0.05 -0.05)">
       <use xlink:href="#DejaVuSans-28"/>
       <use x="39.013672" xlink:href="#DejaVuSans-35"/>
       <use x="102.636719" xlink:href="#DejaVuSans-30"/>
       <use x="166.259766" xlink:href="#DejaVuSans-2013"/>
       <use x="216.259766" xlink:href="#DejaVuSans-35"/>
       <use x="279.882812" xlink:href="#DejaVuSans-35"/>
       <use x="343.505859" xlink:href="#DejaVuSans-5d"/>
      </g>
     </g>
    </g>
    <g id="xtick_24">
     <g id="line2d_24"/>
     <g id="text_12">
      <!-- &gt; 55 -->
      <defs>
       <path d="M 10.59375 49.21875 
L 10.59375 58.109375 
L 73.1875 35.40625 
L 73.1875 27.296875 
L 10.59375 4.59375 
L 10.59375 13.484375 
L 60.890625 31.296875 
z
" id="DejaVuSans-3e"/>
      </defs>
      <g transform="translate(281.423464 125.979219)scale(0.05 -0.05)">
       <use xlink:href="#DejaVuSans-3e"/>
       <use x="83.789062" xlink:href="#DejaVuSans-20"/>
       <use x="115.576172" xlink:href="#DejaVuSans-35"/>
       <use x="179.199219" xlink:href="#DejaVuSans-35"/>
      </g>
     </g>
    </g>
    <g id="text_13">
     <!-- Non H atoms -->
     <defs>
      <path d="M 9.8125 72.90625 
L 23.09375 72.90625 
L 55.421875 11.921875 
L 55.421875 72.90625 
L 64.984375 72.90625 
L 64.984375 0 
L 51.703125 0 
L 19.390625 60.984375 
L 19.390625 0 
L 9.8125 0 
z
" id="DejaVuSans-4e"/>
      <path d="M 30.609375 48.390625 
Q 23.390625 48.390625 19.1875 42.75 
Q 14.984375 37.109375 14.984375 27.296875 
Q 14.984375 17.484375 19.15625 11.84375 
Q 23.34375 6.203125 30.609375 6.203125 
Q 37.796875 6.203125 41.984375 11.859375 
Q 46.1875 17.53125 46.1875 27.296875 
Q 46.1875 37.015625 41.984375 42.703125 
Q 37.796875 48.390625 30.609375 48.390625 
z
M 30.609375 56 
Q 42.328125 56 49.015625 48.375 
Q 55.71875 40.765625 55.71875 27.296875 
Q 55.71875 13.875 49.015625 6.21875 
Q 42.328125 -1.421875 30.609375 -1.421875 
Q 18.84375 -1.421875 12.171875 6.21875 
Q 5.515625 13.875 5.515625 27.296875 
Q 5.515625 40.765625 12.171875 48.375 
Q 18.84375 56 30.609375 56 
z
" id="DejaVuSans-6f"/>
      <path d="M 54.890625 33.015625 
L 54.890625 0 
L 45.90625 0 
L 45.90625 32.71875 
Q 45.90625 40.484375 42.875 44.328125 
Q 39.84375 48.1875 33.796875 48.1875 
Q 26.515625 48.1875 22.3125 43.546875 
Q 18.109375 38.921875 18.109375 30.90625 
L 18.109375 0 
L 9.078125 0 
L 9.078125 54.6875 
L 18.109375 54.6875 
L 18.109375 46.1875 
Q 21.34375 51.125 25.703125 53.5625 
Q 30.078125 56 35.796875 56 
Q 45.21875 56 50.046875 50.171875 
Q 54.890625 44.34375 54.890625 33.015625 
z
" id="DejaVuSans-6e"/>
      <path d="M 9.8125 72.90625 
L 19.671875 72.90625 
L 19.671875 43.015625 
L 55.515625 43.015625 
L 55.515625 72.90625 
L 65.375 72.90625 
L 65.375 0 
L 55.515625 0 
L 55.515625 34.71875 
L 19.671875 34.71875 
L 19.671875 0 
L 9.8125 0 
z
" id="DejaVuSans-48"/>
      <path d="M 34.28125 27.484375 
Q 23.390625 27.484375 19.1875 25 
Q 14.984375 22.515625 14.984375 16.5 
Q 14.984375 11.71875 18.140625 8.90625 
Q 21.296875 6.109375 26.703125 6.109375 
Q 34.1875 6.109375 38.703125 11.40625 
Q 43.21875 16.703125 43.21875 25.484375 
L 43.21875 27.484375 
z
M 52.203125 31.203125 
L 52.203125 0 
L 43.21875 0 
L 43.21875 8.296875 
Q 40.140625 3.328125 35.546875 0.953125 
Q 30.953125 -1.421875 24.3125 -1.421875 
Q 15.921875 -1.421875 10.953125 3.296875 
Q 6 8.015625 6 15.921875 
Q 6 25.140625 12.171875 29.828125 
Q 18.359375 34.515625 30.609375 34.515625 
L 43.21875 34.515625 
L 43.21875 35.40625 
Q 43.21875 41.609375 39.140625 45 
Q 35.0625 48.390625 27.6875 48.390625 
Q 23 48.390625 18.546875 47.265625 
Q 14.109375 46.140625 10.015625 43.890625 
L 10.015625 52.203125 
Q 14.9375 54.109375 19.578125 55.046875 
Q 24.21875 56 28.609375 56 
Q 40.484375 56 46.34375 49.84375 
Q 52.203125 43.703125 52.203125 31.203125 
z
" id="DejaVuSans-61"/>
      <path d="M 18.3125 70.21875 
L 18.3125 54.6875 
L 36.8125 54.6875 
L 36.8125 47.703125 
L 18.3125 47.703125 
L 18.3125 18.015625 
Q 18.3125 11.328125 20.140625 9.421875 
Q 21.96875 7.515625 27.59375 7.515625 
L 36.8125 7.515625 
L 36.8125 0 
L 27.59375 0 
Q 17.1875 0 13.234375 3.875 
Q 9.28125 7.765625 9.28125 18.015625 
L 9.28125 47.703125 
L 2.6875 47.703125 
L 2.6875 54.6875 
L 9.28125 54.6875 
L 9.28125 70.21875 
z
" id="DejaVuSans-74"/>
      <path d="M 52 44.1875 
Q 55.375 50.25 60.0625 53.125 
Q 64.75 56 71.09375 56 
Q 79.640625 56 84.28125 50.015625 
Q 88.921875 44.046875 88.921875 33.015625 
L 88.921875 0 
L 79.890625 0 
L 79.890625 32.71875 
Q 79.890625 40.578125 77.09375 44.375 
Q 74.3125 48.1875 68.609375 48.1875 
Q 61.625 48.1875 57.5625 43.546875 
Q 53.515625 38.921875 53.515625 30.90625 
L 53.515625 0 
L 44.484375 0 
L 44.484375 32.71875 
Q 44.484375 40.625 41.703125 44.40625 
Q 38.921875 48.1875 33.109375 48.1875 
Q 26.21875 48.1875 22.15625 43.53125 
Q 18.109375 38.875 18.109375 30.90625 
L 18.109375 0 
L 9.078125 0 
L 9.078125 54.6875 
L 18.109375 54.6875 
L 18.109375 46.1875 
Q 21.1875 51.21875 25.484375 53.609375 
Q 29.78125 56 35.6875 56 
Q 41.65625 56 45.828125 52.96875 
Q 50 49.953125 52 44.1875 
z
" id="DejaVuSans-6d"/>
      <path d="M 44.28125 53.078125 
L 44.28125 44.578125 
Q 40.484375 46.53125 36.375 47.5 
Q 32.28125 48.484375 27.875 48.484375 
Q 21.1875 48.484375 17.84375 46.4375 
Q 14.5 44.390625 14.5 40.28125 
Q 14.5 37.15625 16.890625 35.375 
Q 19.28125 33.59375 26.515625 31.984375 
L 29.59375 31.296875 
Q 39.15625 29.25 43.1875 25.515625 
Q 47.21875 21.78125 47.21875 15.09375 
Q 47.21875 7.46875 41.1875 3.015625 
Q 35.15625 -1.421875 24.609375 -1.421875 
Q 20.21875 -1.421875 15.453125 -0.5625 
Q 10.6875 0.296875 5.421875 2 
L 5.421875 11.28125 
Q 10.40625 8.6875 15.234375 7.390625 
Q 20.0625 6.109375 24.8125 6.109375 
Q 31.15625 6.109375 34.5625 8.28125 
Q 37.984375 10.453125 37.984375 14.40625 
Q 37.984375 18.0625 35.515625 20.015625 
Q 33.0625 21.96875 24.703125 23.78125 
L 21.578125 24.515625 
Q 13.234375 26.265625 9.515625 29.90625 
Q 5.8125 33.546875 5.8125 39.890625 
Q 5.8125 47.609375 11.28125 51.796875 
Q 16.75 56 26.8125 56 
Q 31.78125 56 36.171875 55.265625 
Q 40.578125 54.546875 44.28125 53.078125 
z
" id="DejaVuSans-73"/>
     </defs>
     <g transform="translate(145.850625 135.578125)scale(0.06 -0.06)">
      <use xlink:href="#DejaVuSans-4e"/>
      <use x="74.804688" xlink:href="#DejaVuSans-6f"/>
      <use x="135.986328" xlink:href="#DejaVuSans-6e"/>
      <use x="199.365234" xlink:href="#DejaVuSans-20"/>
      <use x="231.152344" xlink:href="#DejaVuSans-48"/>
      <use x="306.347656" xlink:href="#DejaVuSans-20"/>
      <use x="338.134766" xlink:href="#DejaVuSans-61"/>
      <use x="399.414062" xlink:href="#DejaVuSans-74"/>
      <use x="438.623047" xlink:href="#DejaVuSans-6f"/>
      <use x="499.804688" xlink:href="#DejaVuSans-6d"/>
      <use x="597.216797" xlink:href="#DejaVuSans-73"/>
     </g>
    </g>
   </g>
   <g id="matplotlib.axis_2">
    <g id="ytick_1">
     <g id="line2d_25">
      <defs>
       <path d="M 0 0 
L -3.5 0 
" id="m22f9292a5e" style="stroke:#000000;stroke-width:0.8;"/>
      </defs>
      <g>
       <use style="stroke:#000000;stroke-width:0.8;" x="32.06" xlink:href="#m22f9292a5e" y="118.78"/>
      </g>
     </g>
     <g id="text_14">
      <!-- 0.0 -->
      <defs>
       <path d="M 10.6875 12.40625 
L 21 12.40625 
L 21 0 
L 10.6875 0 
z
" id="DejaVuSans-2e"/>
      </defs>
      <g transform="translate(17.108438 120.679609)scale(0.05 -0.05)">
       <use xlink:href="#DejaVuSans-30"/>
       <use x="63.623047" xlink:href="#DejaVuSans-2e"/>
       <use x="95.410156" xlink:href="#DejaVuSans-30"/>
      </g>
     </g>
    </g>
    <g id="ytick_2">
     <g id="line2d_26">
      <g>
       <use style="stroke:#000000;stroke-width:0.8;" x="32.06" xlink:href="#m22f9292a5e" y="96.824"/>
      </g>
     </g>
     <g id="text_15">
      <!-- 0.2 -->
      <g transform="translate(17.108438 98.723609)scale(0.05 -0.05)">
       <use xlink:href="#DejaVuSans-30"/>
       <use x="63.623047" xlink:href="#DejaVuSans-2e"/>
       <use x="95.410156" xlink:href="#DejaVuSans-32"/>
      </g>
     </g>
    </g>
    <g id="ytick_3">
     <g id="line2d_27">
      <g>
       <use style="stroke:#000000;stroke-width:0.8;" x="32.06" xlink:href="#m22f9292a5e" y="74.868"/>
      </g>
     </g>
     <g id="text_16">
      <!-- 0.4 -->
      <g transform="translate(17.108438 76.767609)scale(0.05 -0.05)">
       <use xlink:href="#DejaVuSans-30"/>
       <use x="63.623047" xlink:href="#DejaVuSans-2e"/>
       <use x="95.410156" xlink:href="#DejaVuSans-34"/>
      </g>
     </g>
    </g>
    <g id="ytick_4">
     <g id="line2d_28">
      <g>
       <use style="stroke:#000000;stroke-width:0.8;" x="32.06" xlink:href="#m22f9292a5e" y="52.912"/>
      </g>
     </g>
     <g id="text_17">
      <!-- 0.6 -->
      <defs>
       <path d="M 33.015625 40.375 
Q 26.375 40.375 22.484375 35.828125 
Q 18.609375 31.296875 18.609375 23.390625 
Q 18.609375 15.53125 22.484375 10.953125 
Q 26.375 6.390625 33.015625 6.390625 
Q 39.65625 6.390625 43.53125 10.953125 
Q 47.40625 15.53125 47.40625 23.390625 
Q 47.40625 31.296875 43.53125 35.828125 
Q 39.65625 40.375 33.015625 40.375 
z
M 52.59375 71.296875 
L 52.59375 62.3125 
Q 48.875 64.0625 45.09375 64.984375 
Q 41.3125 65.921875 37.59375 65.921875 
Q 27.828125 65.921875 22.671875 59.328125 
Q 17.53125 52.734375 16.796875 39.40625 
Q 19.671875 43.65625 24.015625 45.921875 
Q 28.375 48.1875 33.59375 48.1875 
Q 44.578125 48.1875 50.953125 41.515625 
Q 57.328125 34.859375 57.328125 23.390625 
Q 57.328125 12.15625 50.6875 5.359375 
Q 44.046875 -1.421875 33.015625 -1.421875 
Q 20.359375 -1.421875 13.671875 8.265625 
Q 6.984375 17.96875 6.984375 36.375 
Q 6.984375 53.65625 15.1875 63.9375 
Q 23.390625 74.21875 37.203125 74.21875 
Q 40.921875 74.21875 44.703125 73.484375 
Q 48.484375 72.75 52.59375 71.296875 
z
" id="DejaVuSans-36"/>
      </defs>
      <g transform="translate(17.108438 54.811609)scale(0.05 -0.05)">
       <use xlink:href="#DejaVuSans-30"/>
       <use x="63.623047" xlink:href="#DejaVuSans-2e"/>
       <use x="95.410156" xlink:href="#DejaVuSans-36"/>
      </g>
     </g>
    </g>
    <g id="ytick_5">
     <g id="line2d_29">
      <g>
       <use style="stroke:#000000;stroke-width:0.8;" x="32.06" xlink:href="#m22f9292a5e" y="30.956"/>
      </g>
     </g>
     <g id="text_18">
      <!-- 0.8 -->
      <defs>
       <path d="M 31.78125 34.625 
Q 24.75 34.625 20.71875 30.859375 
Q 16.703125 27.09375 16.703125 20.515625 
Q 16.703125 13.921875 20.71875 10.15625 
Q 24.75 6.390625 31.78125 6.390625 
Q 38.8125 6.390625 42.859375 10.171875 
Q 46.921875 13.96875 46.921875 20.515625 
Q 46.921875 27.09375 42.890625 30.859375 
Q 38.875 34.625 31.78125 34.625 
z
M 21.921875 38.8125 
Q 15.578125 40.375 12.03125 44.71875 
Q 8.5 49.078125 8.5 55.328125 
Q 8.5 64.0625 14.71875 69.140625 
Q 20.953125 74.21875 31.78125 74.21875 
Q 42.671875 74.21875 48.875 69.140625 
Q 55.078125 64.0625 55.078125 55.328125 
Q 55.078125 49.078125 51.53125 44.71875 
Q 48 40.375 41.703125 38.8125 
Q 48.828125 37.15625 52.796875 32.3125 
Q 56.78125 27.484375 56.78125 20.515625 
Q 56.78125 9.90625 50.3125 4.234375 
Q 43.84375 -1.421875 31.78125 -1.421875 
Q 19.734375 -1.421875 13.25 4.234375 
Q 6.78125 9.90625 6.78125 20.515625 
Q 6.78125 27.484375 10.78125 32.3125 
Q 14.796875 37.15625 21.921875 38.8125 
z
M 18.3125 54.390625 
Q 18.3125 48.734375 21.84375 45.5625 
Q 25.390625 42.390625 31.78125 42.390625 
Q 38.140625 42.390625 41.71875 45.5625 
Q 45.3125 48.734375 45.3125 54.390625 
Q 45.3125 60.0625 41.71875 63.234375 
Q 38.140625 66.40625 31.78125 66.40625 
Q 25.390625 66.40625 21.84375 63.234375 
Q 18.3125 60.0625 18.3125 54.390625 
z
" id="DejaVuSans-38"/>
      </defs>
      <g transform="translate(17.108438 32.855609)scale(0.05 -0.05)">
       <use xlink:href="#DejaVuSans-30"/>
       <use x="63.623047" xlink:href="#DejaVuSans-2e"/>
       <use x="95.410156" xlink:href="#DejaVuSans-38"/>
      </g>
     </g>
    </g>
    <g id="ytick_6">
     <g id="line2d_30">
      <g>
       <use style="stroke:#000000;stroke-width:0.8;" x="32.06" xlink:href="#m22f9292a5e" y="9"/>
      </g>
     </g>
     <g id="text_19">
      <!-- 1.0 -->
      <g transform="translate(17.108438 10.899609)scale(0.05 -0.05)">
       <use xlink:href="#DejaVuSans-31"/>
       <use x="63.623047" xlink:href="#DejaVuSans-2e"/>
       <use x="95.410156" xlink:href="#DejaVuSans-30"/>
      </g>
     </g>
    </g>
    <g id="text_20">
     <!-- Accuracy -->
     <defs>
      <path d="M 34.1875 63.1875 
L 20.796875 26.90625 
L 47.609375 26.90625 
z
M 28.609375 72.90625 
L 39.796875 72.90625 
L 67.578125 0 
L 57.328125 0 
L 50.6875 18.703125 
L 17.828125 18.703125 
L 11.1875 0 
L 0.78125 0 
z
" id="DejaVuSans-41"/>
      <path d="M 48.78125 52.59375 
L 48.78125 44.1875 
Q 44.96875 46.296875 41.140625 47.34375 
Q 37.3125 48.390625 33.40625 48.390625 
Q 24.65625 48.390625 19.8125 42.84375 
Q 14.984375 37.3125 14.984375 27.296875 
Q 14.984375 17.28125 19.8125 11.734375 
Q 24.65625 6.203125 33.40625 6.203125 
Q 37.3125 6.203125 41.140625 7.25 
Q 44.96875 8.296875 48.78125 10.40625 
L 48.78125 2.09375 
Q 45.015625 0.34375 40.984375 -0.53125 
Q 36.96875 -1.421875 32.421875 -1.421875 
Q 20.0625 -1.421875 12.78125 6.34375 
Q 5.515625 14.109375 5.515625 27.296875 
Q 5.515625 40.671875 12.859375 48.328125 
Q 20.21875 56 33.015625 56 
Q 37.15625 56 41.109375 55.140625 
Q 45.0625 54.296875 48.78125 52.59375 
z
" id="DejaVuSans-63"/>
      <path d="M 8.5 21.578125 
L 8.5 54.6875 
L 17.484375 54.6875 
L 17.484375 21.921875 
Q 17.484375 14.15625 20.5 10.265625 
Q 23.53125 6.390625 29.59375 6.390625 
Q 36.859375 6.390625 41.078125 11.03125 
Q 45.3125 15.671875 45.3125 23.6875 
L 45.3125 54.6875 
L 54.296875 54.6875 
L 54.296875 0 
L 45.3125 0 
L 45.3125 8.40625 
Q 42.046875 3.421875 37.71875 1 
Q 33.40625 -1.421875 27.6875 -1.421875 
Q 18.265625 -1.421875 13.375 4.4375 
Q 8.5 10.296875 8.5 21.578125 
z
M 31.109375 56 
z
" id="DejaVuSans-75"/>
      <path d="M 41.109375 46.296875 
Q 39.59375 47.171875 37.8125 47.578125 
Q 36.03125 48 33.890625 48 
Q 26.265625 48 22.1875 43.046875 
Q 18.109375 38.09375 18.109375 28.8125 
L 18.109375 0 
L 9.078125 0 
L 9.078125 54.6875 
L 18.109375 54.6875 
L 18.109375 46.1875 
Q 20.953125 51.171875 25.484375 53.578125 
Q 30.03125 56 36.53125 56 
Q 37.453125 56 38.578125 55.875 
Q 39.703125 55.765625 41.0625 55.515625 
z
" id="DejaVuSans-72"/>
      <path d="M 32.171875 -5.078125 
Q 28.375 -14.84375 24.75 -17.8125 
Q 21.140625 -20.796875 15.09375 -20.796875 
L 7.90625 -20.796875 
L 7.90625 -13.28125 
L 13.1875 -13.28125 
Q 16.890625 -13.28125 18.9375 -11.515625 
Q 21 -9.765625 23.484375 -3.21875 
L 25.09375 0.875 
L 2.984375 54.6875 
L 12.5 54.6875 
L 29.59375 11.921875 
L 46.6875 54.6875 
L 56.203125 54.6875 
z
" id="DejaVuSans-79"/>
     </defs>
     <g transform="translate(11.860625 77.638906)rotate(-90)scale(0.06 -0.06)">
      <use xlink:href="#DejaVuSans-41"/>
      <use x="68.392578" xlink:href="#DejaVuSans-63"/>
      <use x="123.373047" xlink:href="#DejaVuSans-63"/>
      <use x="178.353516" xlink:href="#DejaVuSans-75"/>
      <use x="241.732422" xlink:href="#DejaVuSans-72"/>
      <use x="282.845703" xlink:href="#DejaVuSans-61"/>
      <use x="344.125" xlink:href="#DejaVuSans-63"/>
      <use x="399.105469" xlink:href="#DejaVuSans-79"/>
     </g>
    </g>
   </g>
   <g id="line2d_31">
    <path clip-path="url(#p3d7178a396)" d="M 43.165833 50.941174 
L 65.3775 64.83349 
L 87.589167 57.553713 
L 109.800833 69.802344 
L 132.0125 69.531912 
L 154.224167 66.182274 
L 176.435833 71.00537 
L 198.6475 80.864016 
L 220.859167 34.963626 
L 243.070833 66.012507 
L 265.2825 32.945004 
L 287.494167 53.671723 
" style="fill:none;stroke:#1f77b4;stroke-linecap:square;stroke-width:0.75;"/>
    <defs>
     <path d="M 0 1 
C 0.265203 1 0.51958 0.894634 0.707107 0.707107 
C 0.894634 0.51958 1 0.265203 1 0 
C 1 -0.265203 0.894634 -0.51958 0.707107 -0.707107 
C 0.51958 -0.894634 0.265203 -1 0 -1 
C -0.265203 -1 -0.51958 -0.894634 -0.707107 -0.707107 
C -0.894634 -0.51958 -1 -0.265203 -1 0 
C -1 0.265203 -0.894634 0.51958 -0.707107 0.707107 
C -0.51958 0.894634 -0.265203 1 0 1 
z
" id="mc15f4c8767" style="stroke:#1f77b4;"/>
    </defs>
    <g clip-path="url(#p3d7178a396)">
     <use style="fill:#1f77b4;stroke:#1f77b4;" x="43.165833" xlink:href="#mc15f4c8767" y="50.941174"/>
     <use style="fill:#1f77b4;stroke:#1f77b4;" x="65.3775" xlink:href="#mc15f4c8767" y="64.83349"/>
     <use style="fill:#1f77b4;stroke:#1f77b4;" x="87.589167" xlink:href="#mc15f4c8767" y="57.553713"/>
     <use style="fill:#1f77b4;stroke:#1f77b4;" x="109.800833" xlink:href="#mc15f4c8767" y="69.802344"/>
     <use style="fill:#1f77b4;stroke:#1f77b4;" x="132.0125" xlink:href="#mc15f4c8767" y="69.531912"/>
     <use style="fill:#1f77b4;stroke:#1f77b4;" x="154.224167" xlink:href="#mc15f4c8767" y="66.182274"/>
     <use style="fill:#1f77b4;stroke:#1f77b4;" x="176.435833" xlink:href="#mc15f4c8767" y="71.00537"/>
     <use style="fill:#1f77b4;stroke:#1f77b4;" x="198.6475" xlink:href="#mc15f4c8767" y="80.864016"/>
     <use style="fill:#1f77b4;stroke:#1f77b4;" x="220.859167" xlink:href="#mc15f4c8767" y="34.963626"/>
     <use style="fill:#1f77b4;stroke:#1f77b4;" x="243.070833" xlink:href="#mc15f4c8767" y="66.012507"/>
     <use style="fill:#1f77b4;stroke:#1f77b4;" x="265.2825" xlink:href="#mc15f4c8767" y="32.945004"/>
     <use style="fill:#1f77b4;stroke:#1f77b4;" x="287.494167" xlink:href="#mc15f4c8767" y="53.671723"/>
    </g>
   </g>
   <g id="line2d_32">
    <path clip-path="url(#p3d7178a396)" d="M 65.3775 46.387103 
L 87.589167 63.429964 
L 109.800833 77.722987 
L 132.0125 81.773746 
L 154.224167 74.829048 
L 176.435833 75.854573 
L 198.6475 94.232919 
L 220.859167 37.342411 
L 243.070833 67.503304 
L 265.2825 40.59156 
L 287.494167 58.946912 
" style="fill:none;stroke:#ff7f0e;stroke-linecap:square;stroke-width:0.75;"/>
    <defs>
     <path d="M -1 1 
L 1 1 
L 1 -1 
L -1 -1 
z
" id="m69ed398039" style="stroke:#ff7f0e;stroke-linejoin:miter;"/>
    </defs>
    <g clip-path="url(#p3d7178a396)">
     <use style="fill:#ff7f0e;stroke:#ff7f0e;stroke-linejoin:miter;" x="65.3775" xlink:href="#m69ed398039" y="46.387103"/>
     <use style="fill:#ff7f0e;stroke:#ff7f0e;stroke-linejoin:miter;" x="87.589167" xlink:href="#m69ed398039" y="63.429964"/>
     <use style="fill:#ff7f0e;stroke:#ff7f0e;stroke-linejoin:miter;" x="109.800833" xlink:href="#m69ed398039" y="77.722987"/>
     <use style="fill:#ff7f0e;stroke:#ff7f0e;stroke-linejoin:miter;" x="132.0125" xlink:href="#m69ed398039" y="81.773746"/>
     <use style="fill:#ff7f0e;stroke:#ff7f0e;stroke-linejoin:miter;" x="154.224167" xlink:href="#m69ed398039" y="74.829048"/>
     <use style="fill:#ff7f0e;stroke:#ff7f0e;stroke-linejoin:miter;" x="176.435833" xlink:href="#m69ed398039" y="75.854573"/>
     <use style="fill:#ff7f0e;stroke:#ff7f0e;stroke-linejoin:miter;" x="198.6475" xlink:href="#m69ed398039" y="94.232919"/>
     <use style="fill:#ff7f0e;stroke:#ff7f0e;stroke-linejoin:miter;" x="220.859167" xlink:href="#m69ed398039" y="37.342411"/>
     <use style="fill:#ff7f0e;stroke:#ff7f0e;stroke-linejoin:miter;" x="243.070833" xlink:href="#m69ed398039" y="67.503304"/>
     <use style="fill:#ff7f0e;stroke:#ff7f0e;stroke-linejoin:miter;" x="265.2825" xlink:href="#m69ed398039" y="40.59156"/>
     <use style="fill:#ff7f0e;stroke:#ff7f0e;stroke-linejoin:miter;" x="287.494167" xlink:href="#m69ed398039" y="58.946912"/>
    </g>
   </g>
   <g id="line2d_33">
    <path clip-path="url(#p3d7178a396)" d="M 43.165833 25.146701 
L 65.3775 43.298696 
L 87.589167 86.984018 
L 109.800833 72.705351 
L 132.0125 58.122272 
L 154.224167 53.656936 
L 176.435833 45.351953 
L 198.6475 62.464286 
L 220.859167 18.806851 
L 243.070833 49.730342 
L 265.2825 31.522177 
L 287.494167 44.043238 
" style="fill:none;stroke:#2ca02c;stroke-linecap:square;stroke-width:0.75;"/>
    <defs>
     <path d="M 0 -1 
L -1 1 
L 1 1 
z
" id="m158ff6aab6" style="stroke:#2ca02c;stroke-linejoin:miter;"/>
    </defs>
    <g clip-path="url(#p3d7178a396)">
     <use style="fill:#2ca02c;stroke:#2ca02c;stroke-linejoin:miter;" x="43.165833" xlink:href="#m158ff6aab6" y="25.146701"/>
     <use style="fill:#2ca02c;stroke:#2ca02c;stroke-linejoin:miter;" x="65.3775" xlink:href="#m158ff6aab6" y="43.298696"/>
     <use style="fill:#2ca02c;stroke:#2ca02c;stroke-linejoin:miter;" x="87.589167" xlink:href="#m158ff6aab6" y="86.984018"/>
     <use style="fill:#2ca02c;stroke:#2ca02c;stroke-linejoin:miter;" x="109.800833" xlink:href="#m158ff6aab6" y="72.705351"/>
     <use style="fill:#2ca02c;stroke:#2ca02c;stroke-linejoin:miter;" x="132.0125" xlink:href="#m158ff6aab6" y="58.122272"/>
     <use style="fill:#2ca02c;stroke:#2ca02c;stroke-linejoin:miter;" x="154.224167" xlink:href="#m158ff6aab6" y="53.656936"/>
     <use style="fill:#2ca02c;stroke:#2ca02c;stroke-linejoin:miter;" x="176.435833" xlink:href="#m158ff6aab6" y="45.351953"/>
     <use style="fill:#2ca02c;stroke:#2ca02c;stroke-linejoin:miter;" x="198.6475" xlink:href="#m158ff6aab6" y="62.464286"/>
     <use style="fill:#2ca02c;stroke:#2ca02c;stroke-linejoin:miter;" x="220.859167" xlink:href="#m158ff6aab6" y="18.806851"/>
     <use style="fill:#2ca02c;stroke:#2ca02c;stroke-linejoin:miter;" x="243.070833" xlink:href="#m158ff6aab6" y="49.730342"/>
     <use style="fill:#2ca02c;stroke:#2ca02c;stroke-linejoin:miter;" x="265.2825" xlink:href="#m158ff6aab6" y="31.522177"/>
     <use style="fill:#2ca02c;stroke:#2ca02c;stroke-linejoin:miter;" x="287.494167" xlink:href="#m158ff6aab6" y="44.043238"/>
    </g>
   </g>
   <g id="patch_3">
    <path d="M 32.06 118.78 
L 32.06 9 
" style="fill:none;stroke:#000000;stroke-linecap:square;stroke-linejoin:miter;stroke-width:0.8;"/>
   </g>
   <g id="patch_4">
    <path d="M 298.6 118.78 
L 298.6 9 
" style="fill:none;stroke:#000000;stroke-linecap:square;stroke-linejoin:miter;stroke-width:0.8;"/>
   </g>
   <g id="patch_5">
    <path d="M 32.06 118.78 
L 298.6 118.78 
" style="fill:none;stroke:#000000;stroke-linecap:square;stroke-linejoin:miter;stroke-width:0.8;"/>
   </g>
   <g id="patch_6">
    <path d="M 32.06 9 
L 298.6 9 
" style="fill:none;stroke:#000000;stroke-linecap:square;stroke-linejoin:miter;stroke-width:0.8;"/>
   </g>
  </g>
  <g id="axes_2">
   <g id="patch_7">
    <path clip-path="url(#p3d7178a396)" d="M 33.725875 118.78 
L 39.278792 118.78 
L 39.278792 14.227619 
L 33.725875 14.227619 
z
" style="fill:#1f77b4;fill-opacity:0.4;"/>
   </g>
   <g id="patch_8">
    <path clip-path="url(#p3d7178a396)" d="M 55.937542 118.78 
L 61.490458 118.78 
L 61.490458 76.291646 
L 55.937542 76.291646 
z
" style="fill:#1f77b4;fill-opacity:0.4;"/>
   </g>
   <g id="patch_9">
    <path clip-path="url(#p3d7178a396)" d="M 78.149208 118.78 
L 83.702125 118.78 
L 83.702125 90.544657 
L 78.149208 90.544657 
z
" style="fill:#1f77b4;fill-opacity:0.4;"/>
   </g>
   <g id="patch_10">
    <path clip-path="url(#p3d7178a396)" d="M 100.360875 118.78 
L 105.913792 118.78 
L 105.913792 111.032466 
L 100.360875 111.032466 
z
" style="fill:#1f77b4;fill-opacity:0.4;"/>
   </g>
   <g id="patch_11">
    <path clip-path="url(#p3d7178a396)" d="M 122.572542 118.78 
L 128.125458 118.78 
L 128.125458 113.463466 
L 122.572542 113.463466 
z
" style="fill:#1f77b4;fill-opacity:0.4;"/>
   </g>
   <g id="patch_12">
    <path clip-path="url(#p3d7178a396)" d="M 144.784208 118.78 
L 150.337125 118.78 
L 150.337125 114.279587 
L 144.784208 114.279587 
z
" style="fill:#1f77b4;fill-opacity:0.4;"/>
   </g>
   <g id="patch_13">
    <path clip-path="url(#p3d7178a396)" d="M 166.995875 118.78 
L 172.548792 118.78 
L 172.548792 115.029315 
L 166.995875 115.029315 
z
" style="fill:#1f77b4;fill-opacity:0.4;"/>
   </g>
   <g id="patch_14">
    <path clip-path="url(#p3d7178a396)" d="M 189.207542 118.78 
L 194.760458 118.78 
L 194.760458 118.525664 
L 189.207542 118.525664 
z
" style="fill:#1f77b4;fill-opacity:0.4;"/>
   </g>
   <g id="patch_15">
    <path clip-path="url(#p3d7178a396)" d="M 211.419208 118.78 
L 216.972125 118.78 
L 216.972125 108.863974 
L 211.419208 108.863974 
z
" style="fill:#1f77b4;fill-opacity:0.4;"/>
   </g>
   <g id="patch_16">
    <path clip-path="url(#p3d7178a396)" d="M 233.630875 118.78 
L 239.183792 118.78 
L 239.183792 114.791322 
L 233.630875 114.791322 
z
" style="fill:#1f77b4;fill-opacity:0.4;"/>
   </g>
   <g id="patch_17">
    <path clip-path="url(#p3d7178a396)" d="M 255.842542 118.78 
L 261.395458 118.78 
L 261.395458 114.991522 
L 255.842542 114.991522 
z
" style="fill:#1f77b4;fill-opacity:0.4;"/>
   </g>
   <g id="patch_18">
    <path clip-path="url(#p3d7178a396)" d="M 278.054208 118.78 
L 283.607125 118.78 
L 283.607125 117.304036 
L 278.054208 117.304036 
z
" style="fill:#1f77b4;fill-opacity:0.4;"/>
   </g>
   <g id="patch_19">
    <path clip-path="url(#p3d7178a396)" d="M 40.389375 118.78 
L 45.942292 118.78 
L 45.942292 118.78 
L 40.389375 118.78 
z
" style="fill:#ff7f0e;fill-opacity:0.4;"/>
   </g>
   <g id="patch_20">
    <path clip-path="url(#p3d7178a396)" d="M 62.601042 118.78 
L 68.153958 118.78 
L 68.153958 56.576037 
L 62.601042 56.576037 
z
" style="fill:#ff7f0e;fill-opacity:0.4;"/>
   </g>
   <g id="patch_21">
    <path clip-path="url(#p3d7178a396)" d="M 84.812708 118.78 
L 90.365625 118.78 
L 90.365625 77.221146 
L 84.812708 77.221146 
z
" style="fill:#ff7f0e;fill-opacity:0.4;"/>
   </g>
   <g id="patch_22">
    <path clip-path="url(#p3d7178a396)" d="M 107.024375 118.78 
L 112.577292 118.78 
L 112.577292 108.631088 
L 107.024375 108.631088 
z
" style="fill:#ff7f0e;fill-opacity:0.4;"/>
   </g>
   <g id="patch_23">
    <path clip-path="url(#p3d7178a396)" d="M 129.236042 118.78 
L 134.788958 118.78 
L 134.788958 110.904788 
L 129.236042 110.904788 
z
" style="fill:#ff7f0e;fill-opacity:0.4;"/>
   </g>
   <g id="patch_24">
    <path clip-path="url(#p3d7178a396)" d="M 151.447708 118.78 
L 157.000625 118.78 
L 157.000625 113.598294 
L 151.447708 113.598294 
z
" style="fill:#ff7f0e;fill-opacity:0.4;"/>
   </g>
   <g id="patch_25">
    <path clip-path="url(#p3d7178a396)" d="M 173.659375 118.78 
L 179.212292 118.78 
L 179.212292 114.051808 
L 173.659375 114.051808 
z
" style="fill:#ff7f0e;fill-opacity:0.4;"/>
   </g>
   <g id="patch_26">
    <path clip-path="url(#p3d7178a396)" d="M 195.871042 118.78 
L 201.423958 118.78 
L 201.423958 118.1222 
L 195.871042 118.1222 
z
" style="fill:#ff7f0e;fill-opacity:0.4;"/>
   </g>
   <g id="patch_27">
    <path clip-path="url(#p3d7178a396)" d="M 218.082708 118.78 
L 223.635625 118.78 
L 223.635625 107.40946 
L 218.082708 107.40946 
z
" style="fill:#ff7f0e;fill-opacity:0.4;"/>
   </g>
   <g id="patch_28">
    <path clip-path="url(#p3d7178a396)" d="M 240.294375 118.78 
L 245.847292 118.78 
L 245.847292 113.907787 
L 240.294375 113.907787 
z
" style="fill:#ff7f0e;fill-opacity:0.4;"/>
   </g>
   <g id="patch_29">
    <path clip-path="url(#p3d7178a396)" d="M 262.506042 118.78 
L 268.058958 118.78 
L 268.058958 114.595208 
L 262.506042 114.595208 
z
" style="fill:#ff7f0e;fill-opacity:0.4;"/>
   </g>
   <g id="patch_30">
    <path clip-path="url(#p3d7178a396)" d="M 284.717708 118.78 
L 290.270625 118.78 
L 290.270625 114.651387 
L 284.717708 114.651387 
z
" style="fill:#ff7f0e;fill-opacity:0.4;"/>
   </g>
   <g id="patch_31">
    <path clip-path="url(#p3d7178a396)" d="M 47.052875 118.78 
L 52.605792 118.78 
L 52.605792 74.09149 
L 47.052875 74.09149 
z
" style="fill:#2ca02c;fill-opacity:0.4;"/>
   </g>
   <g id="patch_32">
    <path clip-path="url(#p3d7178a396)" d="M 69.264542 118.78 
L 74.817458 118.78 
L 74.817458 73.317247 
L 69.264542 73.317247 
z
" style="fill:#2ca02c;fill-opacity:0.4;"/>
   </g>
   <g id="patch_33">
    <path clip-path="url(#p3d7178a396)" d="M 91.476208 118.78 
L 97.029125 118.78 
L 97.029125 112.562566 
L 91.476208 112.562566 
z
" style="fill:#2ca02c;fill-opacity:0.4;"/>
   </g>
   <g id="patch_34">
    <path clip-path="url(#p3d7178a396)" d="M 113.687875 118.78 
L 119.240792 118.78 
L 119.240792 112.85878 
L 113.687875 112.85878 
z
" style="fill:#2ca02c;fill-opacity:0.4;"/>
   </g>
   <g id="patch_35">
    <path clip-path="url(#p3d7178a396)" d="M 135.899542 118.78 
L 141.452458 118.78 
L 141.452458 116.748379 
L 135.899542 116.748379 
z
" style="fill:#2ca02c;fill-opacity:0.4;"/>
   </g>
   <g id="patch_36">
    <path clip-path="url(#p3d7178a396)" d="M 158.111208 118.78 
L 163.664125 118.78 
L 163.664125 115.920001 
L 158.111208 115.920001 
z
" style="fill:#2ca02c;fill-opacity:0.4;"/>
   </g>
   <g id="patch_37">
    <path clip-path="url(#p3d7178a396)" d="M 180.322875 118.78 
L 185.875792 118.78 
L 185.875792 116.457272 
L 180.322875 116.457272 
z
" style="fill:#2ca02c;fill-opacity:0.4;"/>
   </g>
   <g id="patch_38">
    <path clip-path="url(#p3d7178a396)" d="M 202.534542 118.78 
L 208.087458 118.78 
L 208.087458 118.6227 
L 202.534542 118.6227 
z
" style="fill:#2ca02c;fill-opacity:0.4;"/>
   </g>
   <g id="patch_39">
    <path clip-path="url(#p3d7178a396)" d="M 224.746208 118.78 
L 230.299125 118.78 
L 230.299125 110.478852 
L 224.746208 110.478852 
z
" style="fill:#2ca02c;fill-opacity:0.4;"/>
   </g>
   <g id="patch_40">
    <path clip-path="url(#p3d7178a396)" d="M 246.957875 118.78 
L 252.510792 118.78 
L 252.510792 116.150844 
L 246.957875 116.150844 
z
" style="fill:#2ca02c;fill-opacity:0.4;"/>
   </g>
   <g id="patch_41">
    <path clip-path="url(#p3d7178a396)" d="M 269.169542 118.78 
L 274.722458 118.78 
L 274.722458 116.086494 
L 269.169542 116.086494 
z
" style="fill:#2ca02c;fill-opacity:0.4;"/>
   </g>
   <g id="patch_42">
    <path clip-path="url(#p3d7178a396)" d="M 291.381208 118.78 
L 296.934125 118.78 
L 296.934125 118.104836 
L 291.381208 118.104836 
z
" style="fill:#2ca02c;fill-opacity:0.4;"/>
   </g>
   <g id="matplotlib.axis_3">
    <g id="ytick_7">
     <g id="line2d_34">
      <defs>
       <path d="M 0 0 
L 3.5 0 
" id="mb93bca1bcd" style="stroke:#000000;stroke-width:0.8;"/>
      </defs>
      <g>
       <use style="stroke:#000000;stroke-width:0.8;" x="298.6" xlink:href="#mb93bca1bcd" y="118.78"/>
      </g>
     </g>
     <g id="text_21">
      <!-- 0 -->
      <g transform="translate(305.6 120.679609)scale(0.05 -0.05)">
       <use xlink:href="#DejaVuSans-30"/>
      </g>
     </g>
    </g>
    <g id="ytick_8">
     <g id="line2d_35">
      <g>
       <use style="stroke:#000000;stroke-width:0.8;" x="298.6" xlink:href="#mb93bca1bcd" y="98.351434"/>
      </g>
     </g>
     <g id="text_22">
      <!-- 20000 -->
      <g transform="translate(305.6 100.251043)scale(0.05 -0.05)">
       <use xlink:href="#DejaVuSans-32"/>
       <use x="63.623047" xlink:href="#DejaVuSans-30"/>
       <use x="127.246094" xlink:href="#DejaVuSans-30"/>
       <use x="190.869141" xlink:href="#DejaVuSans-30"/>
       <use x="254.492188" xlink:href="#DejaVuSans-30"/>
      </g>
     </g>
    </g>
    <g id="ytick_9">
     <g id="line2d_36">
      <g>
       <use style="stroke:#000000;stroke-width:0.8;" x="298.6" xlink:href="#mb93bca1bcd" y="77.922867"/>
      </g>
     </g>
     <g id="text_23">
      <!-- 40000 -->
      <g transform="translate(305.6 79.822477)scale(0.05 -0.05)">
       <use xlink:href="#DejaVuSans-34"/>
       <use x="63.623047" xlink:href="#DejaVuSans-30"/>
       <use x="127.246094" xlink:href="#DejaVuSans-30"/>
       <use x="190.869141" xlink:href="#DejaVuSans-30"/>
       <use x="254.492188" xlink:href="#DejaVuSans-30"/>
      </g>
     </g>
    </g>
    <g id="ytick_10">
     <g id="line2d_37">
      <g>
       <use style="stroke:#000000;stroke-width:0.8;" x="298.6" xlink:href="#mb93bca1bcd" y="57.494301"/>
      </g>
     </g>
     <g id="text_24">
      <!-- 60000 -->
      <g transform="translate(305.6 59.39391)scale(0.05 -0.05)">
       <use xlink:href="#DejaVuSans-36"/>
       <use x="63.623047" xlink:href="#DejaVuSans-30"/>
       <use x="127.246094" xlink:href="#DejaVuSans-30"/>
       <use x="190.869141" xlink:href="#DejaVuSans-30"/>
       <use x="254.492188" xlink:href="#DejaVuSans-30"/>
      </g>
     </g>
    </g>
    <g id="ytick_11">
     <g id="line2d_38">
      <g>
       <use style="stroke:#000000;stroke-width:0.8;" x="298.6" xlink:href="#mb93bca1bcd" y="37.065735"/>
      </g>
     </g>
     <g id="text_25">
      <!-- 80000 -->
      <g transform="translate(305.6 38.965344)scale(0.05 -0.05)">
       <use xlink:href="#DejaVuSans-38"/>
       <use x="63.623047" xlink:href="#DejaVuSans-30"/>
       <use x="127.246094" xlink:href="#DejaVuSans-30"/>
       <use x="190.869141" xlink:href="#DejaVuSans-30"/>
       <use x="254.492188" xlink:href="#DejaVuSans-30"/>
      </g>
     </g>
    </g>
    <g id="ytick_12">
     <g id="line2d_39">
      <g>
       <use style="stroke:#000000;stroke-width:0.8;" x="298.6" xlink:href="#mb93bca1bcd" y="16.637168"/>
      </g>
     </g>
     <g id="text_26">
      <!-- 100000 -->
      <g transform="translate(305.6 18.536778)scale(0.05 -0.05)">
       <use xlink:href="#DejaVuSans-31"/>
       <use x="63.623047" xlink:href="#DejaVuSans-30"/>
       <use x="127.246094" xlink:href="#DejaVuSans-30"/>
       <use x="190.869141" xlink:href="#DejaVuSans-30"/>
       <use x="254.492188" xlink:href="#DejaVuSans-30"/>
       <use x="318.115234" xlink:href="#DejaVuSans-30"/>
      </g>
     </g>
    </g>
    <g id="text_27">
     <!-- Number of examples -->
     <defs>
      <path d="M 48.6875 27.296875 
Q 48.6875 37.203125 44.609375 42.84375 
Q 40.53125 48.484375 33.40625 48.484375 
Q 26.265625 48.484375 22.1875 42.84375 
Q 18.109375 37.203125 18.109375 27.296875 
Q 18.109375 17.390625 22.1875 11.75 
Q 26.265625 6.109375 33.40625 6.109375 
Q 40.53125 6.109375 44.609375 11.75 
Q 48.6875 17.390625 48.6875 27.296875 
z
M 18.109375 46.390625 
Q 20.953125 51.265625 25.265625 53.625 
Q 29.59375 56 35.59375 56 
Q 45.5625 56 51.78125 48.09375 
Q 58.015625 40.1875 58.015625 27.296875 
Q 58.015625 14.40625 51.78125 6.484375 
Q 45.5625 -1.421875 35.59375 -1.421875 
Q 29.59375 -1.421875 25.265625 0.953125 
Q 20.953125 3.328125 18.109375 8.203125 
L 18.109375 0 
L 9.078125 0 
L 9.078125 75.984375 
L 18.109375 75.984375 
z
" id="DejaVuSans-62"/>
      <path d="M 56.203125 29.59375 
L 56.203125 25.203125 
L 14.890625 25.203125 
Q 15.484375 15.921875 20.484375 11.0625 
Q 25.484375 6.203125 34.421875 6.203125 
Q 39.59375 6.203125 44.453125 7.46875 
Q 49.3125 8.734375 54.109375 11.28125 
L 54.109375 2.78125 
Q 49.265625 0.734375 44.1875 -0.34375 
Q 39.109375 -1.421875 33.890625 -1.421875 
Q 20.796875 -1.421875 13.15625 6.1875 
Q 5.515625 13.8125 5.515625 26.8125 
Q 5.515625 40.234375 12.765625 48.109375 
Q 20.015625 56 32.328125 56 
Q 43.359375 56 49.78125 48.890625 
Q 56.203125 41.796875 56.203125 29.59375 
z
M 47.21875 32.234375 
Q 47.125 39.59375 43.09375 43.984375 
Q 39.0625 48.390625 32.421875 48.390625 
Q 24.90625 48.390625 20.390625 44.140625 
Q 15.875 39.890625 15.1875 32.171875 
z
" id="DejaVuSans-65"/>
      <path d="M 37.109375 75.984375 
L 37.109375 68.5 
L 28.515625 68.5 
Q 23.6875 68.5 21.796875 66.546875 
Q 19.921875 64.59375 19.921875 59.515625 
L 19.921875 54.6875 
L 34.71875 54.6875 
L 34.71875 47.703125 
L 19.921875 47.703125 
L 19.921875 0 
L 10.890625 0 
L 10.890625 47.703125 
L 2.296875 47.703125 
L 2.296875 54.6875 
L 10.890625 54.6875 
L 10.890625 58.5 
Q 10.890625 67.625 15.140625 71.796875 
Q 19.390625 75.984375 28.609375 75.984375 
z
" id="DejaVuSans-66"/>
      <path d="M 54.890625 54.6875 
L 35.109375 28.078125 
L 55.90625 0 
L 45.3125 0 
L 29.390625 21.484375 
L 13.484375 0 
L 2.875 0 
L 24.125 28.609375 
L 4.6875 54.6875 
L 15.28125 54.6875 
L 29.78125 35.203125 
L 44.28125 54.6875 
z
" id="DejaVuSans-78"/>
      <path d="M 18.109375 8.203125 
L 18.109375 -20.796875 
L 9.078125 -20.796875 
L 9.078125 54.6875 
L 18.109375 54.6875 
L 18.109375 46.390625 
Q 20.953125 51.265625 25.265625 53.625 
Q 29.59375 56 35.59375 56 
Q 45.5625 56 51.78125 48.09375 
Q 58.015625 40.1875 58.015625 27.296875 
Q 58.015625 14.40625 51.78125 6.484375 
Q 45.5625 -1.421875 35.59375 -1.421875 
Q 29.59375 -1.421875 25.265625 0.953125 
Q 20.953125 3.328125 18.109375 8.203125 
z
M 48.6875 27.296875 
Q 48.6875 37.203125 44.609375 42.84375 
Q 40.53125 48.484375 33.40625 48.484375 
Q 26.265625 48.484375 22.1875 42.84375 
Q 18.109375 37.203125 18.109375 27.296875 
Q 18.109375 17.390625 22.1875 11.75 
Q 26.265625 6.109375 33.40625 6.109375 
Q 40.53125 6.109375 44.609375 11.75 
Q 48.6875 17.390625 48.6875 27.296875 
z
" id="DejaVuSans-70"/>
      <path d="M 9.421875 75.984375 
L 18.40625 75.984375 
L 18.40625 0 
L 9.421875 0 
z
" id="DejaVuSans-6c"/>
     </defs>
     <g transform="translate(333.246562 95.268594)rotate(-90)scale(0.06 -0.06)">
      <use xlink:href="#DejaVuSans-4e"/>
      <use x="74.804688" xlink:href="#DejaVuSans-75"/>
      <use x="138.183594" xlink:href="#DejaVuSans-6d"/>
      <use x="235.595703" xlink:href="#DejaVuSans-62"/>
      <use x="299.072266" xlink:href="#DejaVuSans-65"/>
      <use x="360.595703" xlink:href="#DejaVuSans-72"/>
      <use x="401.708984" xlink:href="#DejaVuSans-20"/>
      <use x="433.496094" xlink:href="#DejaVuSans-6f"/>
      <use x="494.677734" xlink:href="#DejaVuSans-66"/>
      <use x="529.882812" xlink:href="#DejaVuSans-20"/>
      <use x="561.669922" xlink:href="#DejaVuSans-65"/>
      <use x="623.177734" xlink:href="#DejaVuSans-78"/>
      <use x="682.357422" xlink:href="#DejaVuSans-61"/>
      <use x="743.636719" xlink:href="#DejaVuSans-6d"/>
      <use x="841.048828" xlink:href="#DejaVuSans-70"/>
      <use x="904.525391" xlink:href="#DejaVuSans-6c"/>
      <use x="932.308594" xlink:href="#DejaVuSans-65"/>
      <use x="993.832031" xlink:href="#DejaVuSans-73"/>
     </g>
    </g>
   </g>
   <g id="patch_43">
    <path d="M 32.06 118.78 
L 32.06 9 
" style="fill:none;stroke:#000000;stroke-linecap:square;stroke-linejoin:miter;stroke-width:0.8;"/>
   </g>
   <g id="patch_44">
    <path d="M 298.6 118.78 
L 298.6 9 
" style="fill:none;stroke:#000000;stroke-linecap:square;stroke-linejoin:miter;stroke-width:0.8;"/>
   </g>
   <g id="patch_45">
    <path d="M 32.06 118.78 
L 298.6 118.78 
" style="fill:none;stroke:#000000;stroke-linecap:square;stroke-linejoin:miter;stroke-width:0.8;"/>
   </g>
   <g id="patch_46">
    <path d="M 32.06 9 
L 298.6 9 
" style="fill:none;stroke:#000000;stroke-linecap:square;stroke-linejoin:miter;stroke-width:0.8;"/>
   </g>
   <g id="legend_1">
    <g id="patch_47">
     <path d="M 196.24 40.26 
L 294.4 40.26 
Q 295.6 40.26 295.6 39.06 
L 295.6 13.2 
Q 295.6 12 294.4 12 
L 196.24 12 
Q 195.04 12 195.04 13.2 
L 195.04 39.06 
Q 195.04 40.26 196.24 40.26 
z
" style="fill:#ffffff;opacity:0.8;stroke:#cccccc;stroke-linejoin:miter;"/>
    </g>
    <g id="line2d_40">
     <path d="M 197.44 16.86 
L 209.44 16.86 
" style="fill:none;stroke:#1f77b4;stroke-linecap:square;stroke-width:0.75;"/>
    </g>
    <g id="line2d_41">
     <g>
      <use style="fill:#1f77b4;stroke:#1f77b4;" x="203.44" xlink:href="#mc15f4c8767" y="16.86"/>
     </g>
    </g>
    <g id="text_28">
     <!-- Stacking on $\it{CMB}$ dataset -->
     <defs>
      <path d="M 53.515625 70.515625 
L 53.515625 60.890625 
Q 47.90625 63.578125 42.921875 64.890625 
Q 37.9375 66.21875 33.296875 66.21875 
Q 25.25 66.21875 20.875 63.09375 
Q 16.5 59.96875 16.5 54.203125 
Q 16.5 49.359375 19.40625 46.890625 
Q 22.3125 44.4375 30.421875 42.921875 
L 36.375 41.703125 
Q 47.40625 39.59375 52.65625 34.296875 
Q 57.90625 29 57.90625 20.125 
Q 57.90625 9.515625 50.796875 4.046875 
Q 43.703125 -1.421875 29.984375 -1.421875 
Q 24.8125 -1.421875 18.96875 -0.25 
Q 13.140625 0.921875 6.890625 3.21875 
L 6.890625 13.375 
Q 12.890625 10.015625 18.65625 8.296875 
Q 24.421875 6.59375 29.984375 6.59375 
Q 38.421875 6.59375 43.015625 9.90625 
Q 47.609375 13.234375 47.609375 19.390625 
Q 47.609375 24.75 44.3125 27.78125 
Q 41.015625 30.8125 33.5 32.328125 
L 27.484375 33.5 
Q 16.453125 35.6875 11.515625 40.375 
Q 6.59375 45.0625 6.59375 53.421875 
Q 6.59375 63.09375 13.40625 68.65625 
Q 20.21875 74.21875 32.171875 74.21875 
Q 37.3125 74.21875 42.625 73.28125 
Q 47.953125 72.359375 53.515625 70.515625 
z
" id="DejaVuSans-53"/>
      <path d="M 9.078125 75.984375 
L 18.109375 75.984375 
L 18.109375 31.109375 
L 44.921875 54.6875 
L 56.390625 54.6875 
L 27.390625 29.109375 
L 57.625 0 
L 45.90625 0 
L 18.109375 26.703125 
L 18.109375 0 
L 9.078125 0 
z
" id="DejaVuSans-6b"/>
      <path d="M 9.421875 54.6875 
L 18.40625 54.6875 
L 18.40625 0 
L 9.421875 0 
z
M 9.421875 75.984375 
L 18.40625 75.984375 
L 18.40625 64.59375 
L 9.421875 64.59375 
z
" id="DejaVuSans-69"/>
      <path d="M 45.40625 27.984375 
Q 45.40625 37.75 41.375 43.109375 
Q 37.359375 48.484375 30.078125 48.484375 
Q 22.859375 48.484375 18.828125 43.109375 
Q 14.796875 37.75 14.796875 27.984375 
Q 14.796875 18.265625 18.828125 12.890625 
Q 22.859375 7.515625 30.078125 7.515625 
Q 37.359375 7.515625 41.375 12.890625 
Q 45.40625 18.265625 45.40625 27.984375 
z
M 54.390625 6.78125 
Q 54.390625 -7.171875 48.1875 -13.984375 
Q 42 -20.796875 29.203125 -20.796875 
Q 24.46875 -20.796875 20.265625 -20.09375 
Q 16.0625 -19.390625 12.109375 -17.921875 
L 12.109375 -9.1875 
Q 16.0625 -11.328125 19.921875 -12.34375 
Q 23.78125 -13.375 27.78125 -13.375 
Q 36.625 -13.375 41.015625 -8.765625 
Q 45.40625 -4.15625 45.40625 5.171875 
L 45.40625 9.625 
Q 42.625 4.78125 38.28125 2.390625 
Q 33.9375 0 27.875 0 
Q 17.828125 0 11.671875 7.65625 
Q 5.515625 15.328125 5.515625 27.984375 
Q 5.515625 40.671875 11.671875 48.328125 
Q 17.828125 56 27.875 56 
Q 33.9375 56 38.28125 53.609375 
Q 42.625 51.21875 45.40625 46.390625 
L 45.40625 54.6875 
L 54.390625 54.6875 
z
" id="DejaVuSans-67"/>
      <path d="M 69.484375 67.28125 
L 67.484375 56.890625 
Q 62.796875 61.625 57.546875 63.921875 
Q 52.296875 66.21875 46.1875 66.21875 
Q 37.84375 66.21875 31.515625 62.203125 
Q 25.203125 58.203125 20.609375 50 
Q 17.671875 44.734375 16.125 38.84375 
Q 14.59375 32.953125 14.59375 27 
Q 14.59375 17.046875 19.75 11.8125 
Q 24.90625 6.59375 34.71875 6.59375 
Q 41.5 6.59375 47.75 8.765625 
Q 54 10.9375 59.90625 15.28125 
L 57.625 3.609375 
Q 51.8125 1.125 45.875 -0.140625 
Q 39.9375 -1.421875 33.984375 -1.421875 
Q 19.96875 -1.421875 12.078125 6.1875 
Q 4.203125 13.8125 4.203125 27.390625 
Q 4.203125 36.078125 7.203125 44.46875 
Q 10.203125 52.875 15.828125 59.8125 
Q 21.78125 67.1875 29.421875 70.703125 
Q 37.0625 74.21875 47.21875 74.21875 
Q 53.46875 74.21875 59.0625 72.484375 
Q 64.65625 70.75 69.484375 67.28125 
z
" id="DejaVuSans-Oblique-43"/>
      <path d="M 16.890625 72.90625 
L 31.6875 72.90625 
L 40.1875 23.78125 
L 68.40625 72.90625 
L 83.59375 72.90625 
L 69.390625 0 
L 59.8125 0 
L 72.21875 63.921875 
L 43.609375 14.015625 
L 33.984375 14.015625 
L 24.703125 64.109375 
L 12.3125 0 
L 2.6875 0 
z
" id="DejaVuSans-Oblique-4d"/>
      <path d="M 16.890625 72.90625 
L 42.09375 72.90625 
Q 52.34375 72.90625 57.421875 69.09375 
Q 62.5 65.28125 62.5 57.625 
Q 62.5 50.59375 58.125 45.484375 
Q 53.765625 40.375 46.6875 39.3125 
Q 52.734375 37.9375 55.765625 34.078125 
Q 58.796875 30.21875 58.796875 23.78125 
Q 58.796875 12.796875 50.65625 6.390625 
Q 42.53125 0 28.421875 0 
L 2.6875 0 
z
M 19.28125 34.8125 
L 14.109375 8.109375 
L 29.984375 8.109375 
Q 38.921875 8.109375 43.75 12.203125 
Q 48.578125 16.3125 48.578125 23.78125 
Q 48.578125 29.546875 45.375 32.171875 
Q 42.1875 34.8125 35.109375 34.8125 
z
M 25.09375 64.796875 
L 20.796875 42.828125 
L 35.5 42.828125 
Q 43.359375 42.828125 47.78125 46.234375 
Q 52.203125 49.65625 52.203125 55.71875 
Q 52.203125 60.453125 49.21875 62.625 
Q 46.234375 64.796875 39.703125 64.796875 
z
" id="DejaVuSans-Oblique-42"/>
      <path d="M 45.40625 46.390625 
L 45.40625 75.984375 
L 54.390625 75.984375 
L 54.390625 0 
L 45.40625 0 
L 45.40625 8.203125 
Q 42.578125 3.328125 38.25 0.953125 
Q 33.9375 -1.421875 27.875 -1.421875 
Q 17.96875 -1.421875 11.734375 6.484375 
Q 5.515625 14.40625 5.515625 27.296875 
Q 5.515625 40.1875 11.734375 48.09375 
Q 17.96875 56 27.875 56 
Q 33.9375 56 38.25 53.625 
Q 42.578125 51.265625 45.40625 46.390625 
z
M 14.796875 27.296875 
Q 14.796875 17.390625 18.875 11.75 
Q 22.953125 6.109375 30.078125 6.109375 
Q 37.203125 6.109375 41.296875 11.75 
Q 45.40625 17.390625 45.40625 27.296875 
Q 45.40625 37.203125 41.296875 42.84375 
Q 37.203125 48.484375 30.078125 48.484375 
Q 22.953125 48.484375 18.875 42.84375 
Q 14.796875 37.203125 14.796875 27.296875 
z
" id="DejaVuSans-64"/>
     </defs>
     <g transform="translate(214.24 18.96)scale(0.06 -0.06)">
      <use transform="translate(0 0.015625)" xlink:href="#DejaVuSans-53"/>
      <use transform="translate(63.476562 0.015625)" xlink:href="#DejaVuSans-74"/>
      <use transform="translate(102.685547 0.015625)" xlink:href="#DejaVuSans-61"/>
      <use transform="translate(163.964844 0.015625)" xlink:href="#DejaVuSans-63"/>
      <use transform="translate(218.945312 0.015625)" xlink:href="#DejaVuSans-6b"/>
      <use transform="translate(276.855469 0.015625)" xlink:href="#DejaVuSans-69"/>
      <use transform="translate(304.638672 0.015625)" xlink:href="#DejaVuSans-6e"/>
      <use transform="translate(368.017578 0.015625)" xlink:href="#DejaVuSans-67"/>
      <use transform="translate(431.494141 0.015625)" xlink:href="#DejaVuSans-20"/>
      <use transform="translate(463.28125 0.015625)" xlink:href="#DejaVuSans-6f"/>
      <use transform="translate(524.462891 0.015625)" xlink:href="#DejaVuSans-6e"/>
      <use transform="translate(587.841797 0.015625)" xlink:href="#DejaVuSans-20"/>
      <use transform="translate(619.628906 0.015625)" xlink:href="#DejaVuSans-Oblique-43"/>
      <use transform="translate(689.453125 0.015625)" xlink:href="#DejaVuSans-Oblique-4d"/>
      <use transform="translate(775.732422 0.015625)" xlink:href="#DejaVuSans-Oblique-42"/>
      <use transform="translate(844.335938 0.015625)" xlink:href="#DejaVuSans-20"/>
      <use transform="translate(876.123047 0.015625)" xlink:href="#DejaVuSans-64"/>
      <use transform="translate(939.599609 0.015625)" xlink:href="#DejaVuSans-61"/>
      <use transform="translate(1000.878906 0.015625)" xlink:href="#DejaVuSans-74"/>
      <use transform="translate(1040.087891 0.015625)" xlink:href="#DejaVuSans-61"/>
      <use transform="translate(1101.367188 0.015625)" xlink:href="#DejaVuSans-73"/>
      <use transform="translate(1153.466797 0.015625)" xlink:href="#DejaVuSans-65"/>
      <use transform="translate(1214.990234 0.015625)" xlink:href="#DejaVuSans-74"/>
     </g>
    </g>
    <g id="line2d_42">
     <path d="M 197.44 25.68 
L 209.44 25.68 
" style="fill:none;stroke:#ff7f0e;stroke-linecap:square;stroke-width:0.75;"/>
    </g>
    <g id="line2d_43">
     <g>
      <use style="fill:#ff7f0e;stroke:#ff7f0e;stroke-linejoin:miter;" x="203.44" xlink:href="#m69ed398039" y="25.68"/>
     </g>
    </g>
    <g id="text_29">
     <!-- Stacking on $\it{TAMC}$ dataset -->
     <defs>
      <path d="M 5.90625 72.90625 
L 67.578125 72.90625 
L 66.015625 64.59375 
L 39.984375 64.59375 
L 27.484375 0 
L 17.578125 0 
L 30.078125 64.59375 
L 4.296875 64.59375 
z
" id="DejaVuSans-Oblique-54"/>
      <path d="M 36.8125 72.90625 
L 48 72.90625 
L 61.53125 0 
L 51.21875 0 
L 48.1875 18.703125 
L 15.375 18.703125 
L 5.078125 0 
L -5.328125 0 
z
M 40.375 63.1875 
L 19.921875 26.90625 
L 46.6875 26.90625 
z
" id="DejaVuSans-Oblique-41"/>
     </defs>
     <g transform="translate(214.24 27.78)scale(0.06 -0.06)">
      <use transform="translate(0 0.015625)" xlink:href="#DejaVuSans-53"/>
      <use transform="translate(63.476562 0.015625)" xlink:href="#DejaVuSans-74"/>
      <use transform="translate(102.685547 0.015625)" xlink:href="#DejaVuSans-61"/>
      <use transform="translate(163.964844 0.015625)" xlink:href="#DejaVuSans-63"/>
      <use transform="translate(218.945312 0.015625)" xlink:href="#DejaVuSans-6b"/>
      <use transform="translate(276.855469 0.015625)" xlink:href="#DejaVuSans-69"/>
      <use transform="translate(304.638672 0.015625)" xlink:href="#DejaVuSans-6e"/>
      <use transform="translate(368.017578 0.015625)" xlink:href="#DejaVuSans-67"/>
      <use transform="translate(431.494141 0.015625)" xlink:href="#DejaVuSans-20"/>
      <use transform="translate(463.28125 0.015625)" xlink:href="#DejaVuSans-6f"/>
      <use transform="translate(524.462891 0.015625)" xlink:href="#DejaVuSans-6e"/>
      <use transform="translate(587.841797 0.015625)" xlink:href="#DejaVuSans-20"/>
      <use transform="translate(619.628906 0.015625)" xlink:href="#DejaVuSans-Oblique-54"/>
      <use transform="translate(680.712891 0.015625)" xlink:href="#DejaVuSans-Oblique-41"/>
      <use transform="translate(749.121094 0.015625)" xlink:href="#DejaVuSans-Oblique-4d"/>
      <use transform="translate(835.400391 0.015625)" xlink:href="#DejaVuSans-Oblique-43"/>
      <use transform="translate(905.224609 0.015625)" xlink:href="#DejaVuSans-20"/>
      <use transform="translate(937.011719 0.015625)" xlink:href="#DejaVuSans-64"/>
      <use transform="translate(1000.488281 0.015625)" xlink:href="#DejaVuSans-61"/>
      <use transform="translate(1061.767578 0.015625)" xlink:href="#DejaVuSans-74"/>
      <use transform="translate(1100.976562 0.015625)" xlink:href="#DejaVuSans-61"/>
      <use transform="translate(1162.255859 0.015625)" xlink:href="#DejaVuSans-73"/>
      <use transform="translate(1214.355469 0.015625)" xlink:href="#DejaVuSans-65"/>
      <use transform="translate(1275.878906 0.015625)" xlink:href="#DejaVuSans-74"/>
     </g>
    </g>
    <g id="line2d_44">
     <path d="M 197.44 34.5 
L 209.44 34.5 
" style="fill:none;stroke:#2ca02c;stroke-linecap:square;stroke-width:0.75;"/>
    </g>
    <g id="line2d_45">
     <g>
      <use style="fill:#2ca02c;stroke:#2ca02c;stroke-linejoin:miter;" x="203.44" xlink:href="#m158ff6aab6" y="34.5"/>
     </g>
    </g>
    <g id="text_30">
     <!-- Stacking on $\it{CL}$ dataset -->
     <defs>
      <path d="M 16.796875 72.90625 
L 26.703125 72.90625 
L 14.203125 8.203125 
L 49.703125 8.203125 
L 48.09375 0 
L 2.6875 0 
z
" id="DejaVuSans-Oblique-4c"/>
     </defs>
     <g transform="translate(214.24 36.6)scale(0.06 -0.06)">
      <use transform="translate(0 0.015625)" xlink:href="#DejaVuSans-53"/>
      <use transform="translate(63.476562 0.015625)" xlink:href="#DejaVuSans-74"/>
      <use transform="translate(102.685547 0.015625)" xlink:href="#DejaVuSans-61"/>
      <use transform="translate(163.964844 0.015625)" xlink:href="#DejaVuSans-63"/>
      <use transform="translate(218.945312 0.015625)" xlink:href="#DejaVuSans-6b"/>
      <use transform="translate(276.855469 0.015625)" xlink:href="#DejaVuSans-69"/>
      <use transform="translate(304.638672 0.015625)" xlink:href="#DejaVuSans-6e"/>
      <use transform="translate(368.017578 0.015625)" xlink:href="#DejaVuSans-67"/>
      <use transform="translate(431.494141 0.015625)" xlink:href="#DejaVuSans-20"/>
      <use transform="translate(463.28125 0.015625)" xlink:href="#DejaVuSans-6f"/>
      <use transform="translate(524.462891 0.015625)" xlink:href="#DejaVuSans-6e"/>
      <use transform="translate(587.841797 0.015625)" xlink:href="#DejaVuSans-20"/>
      <use transform="translate(619.628906 0.015625)" xlink:href="#DejaVuSans-Oblique-43"/>
      <use transform="translate(689.453125 0.015625)" xlink:href="#DejaVuSans-Oblique-4c"/>
      <use transform="translate(745.166016 0.015625)" xlink:href="#DejaVuSans-20"/>
      <use transform="translate(776.953125 0.015625)" xlink:href="#DejaVuSans-64"/>
      <use transform="translate(840.429688 0.015625)" xlink:href="#DejaVuSans-61"/>
      <use transform="translate(901.708984 0.015625)" xlink:href="#DejaVuSans-74"/>
      <use transform="translate(940.917969 0.015625)" xlink:href="#DejaVuSans-61"/>
      <use transform="translate(1002.197266 0.015625)" xlink:href="#DejaVuSans-73"/>
      <use transform="translate(1054.296875 0.015625)" xlink:href="#DejaVuSans-65"/>
      <use transform="translate(1115.820312 0.015625)" xlink:href="#DejaVuSans-74"/>
     </g>
    </g>
   </g>
  </g>
 </g>
 <defs>
  <clipPath id="p3d7178a396">
   <rect height="109.78" width="266.54" x="32.06" y="9"/>
  </clipPath>
 </defs>
</svg>
