<?xml version="1.0" encoding="utf-8" standalone="no"?>
<!DOCTYPE svg PUBLIC "-//W3C//DTD SVG 1.1//EN"
  "http://www.w3.org/Graphics/SVG/1.1/DTD/svg11.dtd">
<!-- Created with matplotlib (http://matplotlib.org/) -->
<svg height="144pt" version="1.1" viewBox="0 0 342 144" width="342pt" xmlns="http://www.w3.org/2000/svg" xmlns:xlink="http://www.w3.org/1999/xlink">
 <defs>
  <style type="text/css">
*{stroke-linecap:butt;stroke-linejoin:round;}
  </style>
 </defs>
 <g id="figure_1">
  <g id="patch_1">
   <path d="M 0 144 
L 342 144 
L 342 0 
L 0 0 
z
" style="fill:#ffffff;"/>
  </g>
  <g id="axes_1">
   <g id="patch_2">
    <path d="M 32.06 115.72 
L 301.84 115.72 
L 301.84 9 
L 32.06 9 
z
" style="fill:#ffffff;"/>
   </g>
   <g id="matplotlib.axis_1">
    <g id="xtick_1">
     <g id="line2d_1">
      <defs>
       <path d="M 0 0 
L 0 3.5 
" id="m03af728f6e" style="stroke:#000000;stroke-width:0.8;"/>
      </defs>
      <g>
       <use style="stroke:#000000;stroke-width:0.8;" x="36.147576" xlink:href="#m03af728f6e" y="115.72"/>
      </g>
     </g>
     <g id="text_1">
      <!-- &lt; 1.0 -->
      <defs>
       <path d="M 73.1875 49.21875 
L 22.796875 31.296875 
L 73.1875 13.484375 
L 73.1875 4.59375 
L 10.59375 27.296875 
L 10.59375 35.40625 
L 73.1875 58.109375 
z
" id="DejaVuSans-3c"/>
       <path id="DejaVuSans-20"/>
       <path d="M 12.40625 8.296875 
L 28.515625 8.296875 
L 28.515625 63.921875 
L 10.984375 60.40625 
L 10.984375 69.390625 
L 28.421875 72.90625 
L 38.28125 72.90625 
L 38.28125 8.296875 
L 54.390625 8.296875 
L 54.390625 0 
L 12.40625 0 
z
" id="DejaVuSans-31"/>
       <path d="M 10.6875 12.40625 
L 21 12.40625 
L 21 0 
L 10.6875 0 
z
" id="DejaVuSans-2e"/>
       <path d="M 31.78125 66.40625 
Q 24.171875 66.40625 20.328125 58.90625 
Q 16.5 51.421875 16.5 36.375 
Q 16.5 21.390625 20.328125 13.890625 
Q 24.171875 6.390625 31.78125 6.390625 
Q 39.453125 6.390625 43.28125 13.890625 
Q 47.125 21.390625 47.125 36.375 
Q 47.125 51.421875 43.28125 58.90625 
Q 39.453125 66.40625 31.78125 66.40625 
z
M 31.78125 74.21875 
Q 44.046875 74.21875 50.515625 64.515625 
Q 56.984375 54.828125 56.984375 36.375 
Q 56.984375 17.96875 50.515625 8.265625 
Q 44.046875 -1.421875 31.78125 -1.421875 
Q 19.53125 -1.421875 13.0625 8.265625 
Q 6.59375 17.96875 6.59375 36.375 
Q 6.59375 54.828125 13.0625 64.515625 
Q 19.53125 74.21875 31.78125 74.21875 
z
" id="DejaVuSans-30"/>
      </defs>
      <g transform="translate(29.282341 126.519219)scale(0.05 -0.05)">
       <use xlink:href="#DejaVuSans-3c"/>
       <use x="83.789062" xlink:href="#DejaVuSans-20"/>
       <use x="115.576172" xlink:href="#DejaVuSans-31"/>
       <use x="179.199219" xlink:href="#DejaVuSans-2e"/>
       <use x="210.986328" xlink:href="#DejaVuSans-30"/>
      </g>
     </g>
    </g>
    <g id="xtick_2">
     <g id="line2d_2">
      <g>
       <use style="stroke:#000000;stroke-width:0.8;" x="44.322727" xlink:href="#m03af728f6e" y="115.72"/>
      </g>
     </g>
    </g>
    <g id="xtick_3">
     <g id="line2d_3">
      <g>
       <use style="stroke:#000000;stroke-width:0.8;" x="52.497879" xlink:href="#m03af728f6e" y="115.72"/>
      </g>
     </g>
     <g id="text_2">
      <!-- 1.1 -->
      <g transform="translate(48.522098 126.519219)scale(0.05 -0.05)">
       <use xlink:href="#DejaVuSans-31"/>
       <use x="63.623047" xlink:href="#DejaVuSans-2e"/>
       <use x="95.410156" xlink:href="#DejaVuSans-31"/>
      </g>
     </g>
    </g>
    <g id="xtick_4">
     <g id="line2d_4">
      <g>
       <use style="stroke:#000000;stroke-width:0.8;" x="60.67303" xlink:href="#m03af728f6e" y="115.72"/>
      </g>
     </g>
    </g>
    <g id="xtick_5">
     <g id="line2d_5">
      <g>
       <use style="stroke:#000000;stroke-width:0.8;" x="68.848182" xlink:href="#m03af728f6e" y="115.72"/>
      </g>
     </g>
     <g id="text_3">
      <!-- 1.3 -->
      <defs>
       <path d="M 40.578125 39.3125 
Q 47.65625 37.796875 51.625 33 
Q 55.609375 28.21875 55.609375 21.1875 
Q 55.609375 10.40625 48.1875 4.484375 
Q 40.765625 -1.421875 27.09375 -1.421875 
Q 22.515625 -1.421875 17.65625 -0.515625 
Q 12.796875 0.390625 7.625 2.203125 
L 7.625 11.71875 
Q 11.71875 9.328125 16.59375 8.109375 
Q 21.484375 6.890625 26.8125 6.890625 
Q 36.078125 6.890625 40.9375 10.546875 
Q 45.796875 14.203125 45.796875 21.1875 
Q 45.796875 27.640625 41.28125 31.265625 
Q 36.765625 34.90625 28.71875 34.90625 
L 20.21875 34.90625 
L 20.21875 43.015625 
L 29.109375 43.015625 
Q 36.375 43.015625 40.234375 45.921875 
Q 44.09375 48.828125 44.09375 54.296875 
Q 44.09375 59.90625 40.109375 62.90625 
Q 36.140625 65.921875 28.71875 65.921875 
Q 24.65625 65.921875 20.015625 65.03125 
Q 15.375 64.15625 9.8125 62.3125 
L 9.8125 71.09375 
Q 15.4375 72.65625 20.34375 73.4375 
Q 25.25 74.21875 29.59375 74.21875 
Q 40.828125 74.21875 47.359375 69.109375 
Q 53.90625 64.015625 53.90625 55.328125 
Q 53.90625 49.265625 50.4375 45.09375 
Q 46.96875 40.921875 40.578125 39.3125 
z
" id="DejaVuSans-33"/>
      </defs>
      <g transform="translate(64.872401 126.519219)scale(0.05 -0.05)">
       <use xlink:href="#DejaVuSans-31"/>
       <use x="63.623047" xlink:href="#DejaVuSans-2e"/>
       <use x="95.410156" xlink:href="#DejaVuSans-33"/>
      </g>
     </g>
    </g>
    <g id="xtick_6">
     <g id="line2d_6">
      <g>
       <use style="stroke:#000000;stroke-width:0.8;" x="77.023333" xlink:href="#m03af728f6e" y="115.72"/>
      </g>
     </g>
    </g>
    <g id="xtick_7">
     <g id="line2d_7">
      <g>
       <use style="stroke:#000000;stroke-width:0.8;" x="85.198485" xlink:href="#m03af728f6e" y="115.72"/>
      </g>
     </g>
     <g id="text_4">
      <!-- 1.5 -->
      <defs>
       <path d="M 10.796875 72.90625 
L 49.515625 72.90625 
L 49.515625 64.59375 
L 19.828125 64.59375 
L 19.828125 46.734375 
Q 21.96875 47.46875 24.109375 47.828125 
Q 26.265625 48.1875 28.421875 48.1875 
Q 40.625 48.1875 47.75 41.5 
Q 54.890625 34.8125 54.890625 23.390625 
Q 54.890625 11.625 47.5625 5.09375 
Q 40.234375 -1.421875 26.90625 -1.421875 
Q 22.3125 -1.421875 17.546875 -0.640625 
Q 12.796875 0.140625 7.71875 1.703125 
L 7.71875 11.625 
Q 12.109375 9.234375 16.796875 8.0625 
Q 21.484375 6.890625 26.703125 6.890625 
Q 35.15625 6.890625 40.078125 11.328125 
Q 45.015625 15.765625 45.015625 23.390625 
Q 45.015625 31 40.078125 35.4375 
Q 35.15625 39.890625 26.703125 39.890625 
Q 22.75 39.890625 18.8125 39.015625 
Q 14.890625 38.140625 10.796875 36.28125 
z
" id="DejaVuSans-35"/>
      </defs>
      <g transform="translate(81.222704 126.519219)scale(0.05 -0.05)">
       <use xlink:href="#DejaVuSans-31"/>
       <use x="63.623047" xlink:href="#DejaVuSans-2e"/>
       <use x="95.410156" xlink:href="#DejaVuSans-35"/>
      </g>
     </g>
    </g>
    <g id="xtick_8">
     <g id="line2d_8">
      <g>
       <use style="stroke:#000000;stroke-width:0.8;" x="93.373636" xlink:href="#m03af728f6e" y="115.72"/>
      </g>
     </g>
    </g>
    <g id="xtick_9">
     <g id="line2d_9">
      <g>
       <use style="stroke:#000000;stroke-width:0.8;" x="101.548788" xlink:href="#m03af728f6e" y="115.72"/>
      </g>
     </g>
     <g id="text_5">
      <!-- 1.7 -->
      <defs>
       <path d="M 8.203125 72.90625 
L 55.078125 72.90625 
L 55.078125 68.703125 
L 28.609375 0 
L 18.3125 0 
L 43.21875 64.59375 
L 8.203125 64.59375 
z
" id="DejaVuSans-37"/>
      </defs>
      <g transform="translate(97.573007 126.519219)scale(0.05 -0.05)">
       <use xlink:href="#DejaVuSans-31"/>
       <use x="63.623047" xlink:href="#DejaVuSans-2e"/>
       <use x="95.410156" xlink:href="#DejaVuSans-37"/>
      </g>
     </g>
    </g>
    <g id="xtick_10">
     <g id="line2d_10">
      <g>
       <use style="stroke:#000000;stroke-width:0.8;" x="109.723939" xlink:href="#m03af728f6e" y="115.72"/>
      </g>
     </g>
    </g>
    <g id="xtick_11">
     <g id="line2d_11">
      <g>
       <use style="stroke:#000000;stroke-width:0.8;" x="117.899091" xlink:href="#m03af728f6e" y="115.72"/>
      </g>
     </g>
     <g id="text_6">
      <!-- 1.9 -->
      <defs>
       <path d="M 10.984375 1.515625 
L 10.984375 10.5 
Q 14.703125 8.734375 18.5 7.8125 
Q 22.3125 6.890625 25.984375 6.890625 
Q 35.75 6.890625 40.890625 13.453125 
Q 46.046875 20.015625 46.78125 33.40625 
Q 43.953125 29.203125 39.59375 26.953125 
Q 35.25 24.703125 29.984375 24.703125 
Q 19.046875 24.703125 12.671875 31.3125 
Q 6.296875 37.9375 6.296875 49.421875 
Q 6.296875 60.640625 12.9375 67.421875 
Q 19.578125 74.21875 30.609375 74.21875 
Q 43.265625 74.21875 49.921875 64.515625 
Q 56.59375 54.828125 56.59375 36.375 
Q 56.59375 19.140625 48.40625 8.859375 
Q 40.234375 -1.421875 26.421875 -1.421875 
Q 22.703125 -1.421875 18.890625 -0.6875 
Q 15.09375 0.046875 10.984375 1.515625 
z
M 30.609375 32.421875 
Q 37.25 32.421875 41.125 36.953125 
Q 45.015625 41.5 45.015625 49.421875 
Q 45.015625 57.28125 41.125 61.84375 
Q 37.25 66.40625 30.609375 66.40625 
Q 23.96875 66.40625 20.09375 61.84375 
Q 16.21875 57.28125 16.21875 49.421875 
Q 16.21875 41.5 20.09375 36.953125 
Q 23.96875 32.421875 30.609375 32.421875 
z
" id="DejaVuSans-39"/>
      </defs>
      <g transform="translate(113.92331 126.519219)scale(0.05 -0.05)">
       <use xlink:href="#DejaVuSans-31"/>
       <use x="63.623047" xlink:href="#DejaVuSans-2e"/>
       <use x="95.410156" xlink:href="#DejaVuSans-39"/>
      </g>
     </g>
    </g>
    <g id="xtick_12">
     <g id="line2d_12">
      <g>
       <use style="stroke:#000000;stroke-width:0.8;" x="126.074242" xlink:href="#m03af728f6e" y="115.72"/>
      </g>
     </g>
    </g>
    <g id="xtick_13">
     <g id="line2d_13">
      <g>
       <use style="stroke:#000000;stroke-width:0.8;" x="134.249394" xlink:href="#m03af728f6e" y="115.72"/>
      </g>
     </g>
     <g id="text_7">
      <!-- 2.1 -->
      <defs>
       <path d="M 19.1875 8.296875 
L 53.609375 8.296875 
L 53.609375 0 
L 7.328125 0 
L 7.328125 8.296875 
Q 12.9375 14.109375 22.625 23.890625 
Q 32.328125 33.6875 34.8125 36.53125 
Q 39.546875 41.84375 41.421875 45.53125 
Q 43.3125 49.21875 43.3125 52.78125 
Q 43.3125 58.59375 39.234375 62.25 
Q 35.15625 65.921875 28.609375 65.921875 
Q 23.96875 65.921875 18.8125 64.3125 
Q 13.671875 62.703125 7.8125 59.421875 
L 7.8125 69.390625 
Q 13.765625 71.78125 18.9375 73 
Q 24.125 74.21875 28.421875 74.21875 
Q 39.75 74.21875 46.484375 68.546875 
Q 53.21875 62.890625 53.21875 53.421875 
Q 53.21875 48.921875 51.53125 44.890625 
Q 49.859375 40.875 45.40625 35.40625 
Q 44.1875 33.984375 37.640625 27.21875 
Q 31.109375 20.453125 19.1875 8.296875 
z
" id="DejaVuSans-32"/>
      </defs>
      <g transform="translate(130.273613 126.519219)scale(0.05 -0.05)">
       <use xlink:href="#DejaVuSans-32"/>
       <use x="63.623047" xlink:href="#DejaVuSans-2e"/>
       <use x="95.410156" xlink:href="#DejaVuSans-31"/>
      </g>
     </g>
    </g>
    <g id="xtick_14">
     <g id="line2d_14">
      <g>
       <use style="stroke:#000000;stroke-width:0.8;" x="142.424545" xlink:href="#m03af728f6e" y="115.72"/>
      </g>
     </g>
    </g>
    <g id="xtick_15">
     <g id="line2d_15">
      <g>
       <use style="stroke:#000000;stroke-width:0.8;" x="150.599697" xlink:href="#m03af728f6e" y="115.72"/>
      </g>
     </g>
     <g id="text_8">
      <!-- 2.3 -->
      <g transform="translate(146.623916 126.519219)scale(0.05 -0.05)">
       <use xlink:href="#DejaVuSans-32"/>
       <use x="63.623047" xlink:href="#DejaVuSans-2e"/>
       <use x="95.410156" xlink:href="#DejaVuSans-33"/>
      </g>
     </g>
    </g>
    <g id="xtick_16">
     <g id="line2d_16">
      <g>
       <use style="stroke:#000000;stroke-width:0.8;" x="158.774848" xlink:href="#m03af728f6e" y="115.72"/>
      </g>
     </g>
    </g>
    <g id="xtick_17">
     <g id="line2d_17">
      <g>
       <use style="stroke:#000000;stroke-width:0.8;" x="166.95" xlink:href="#m03af728f6e" y="115.72"/>
      </g>
     </g>
     <g id="text_9">
      <!-- 2.5 -->
      <g transform="translate(162.974219 126.519219)scale(0.05 -0.05)">
       <use xlink:href="#DejaVuSans-32"/>
       <use x="63.623047" xlink:href="#DejaVuSans-2e"/>
       <use x="95.410156" xlink:href="#DejaVuSans-35"/>
      </g>
     </g>
    </g>
    <g id="xtick_18">
     <g id="line2d_18">
      <g>
       <use style="stroke:#000000;stroke-width:0.8;" x="175.125152" xlink:href="#m03af728f6e" y="115.72"/>
      </g>
     </g>
    </g>
    <g id="xtick_19">
     <g id="line2d_19">
      <g>
       <use style="stroke:#000000;stroke-width:0.8;" x="183.300303" xlink:href="#m03af728f6e" y="115.72"/>
      </g>
     </g>
     <g id="text_10">
      <!-- 2.7 -->
      <g transform="translate(179.324522 126.519219)scale(0.05 -0.05)">
       <use xlink:href="#DejaVuSans-32"/>
       <use x="63.623047" xlink:href="#DejaVuSans-2e"/>
       <use x="95.410156" xlink:href="#DejaVuSans-37"/>
      </g>
     </g>
    </g>
    <g id="xtick_20">
     <g id="line2d_20">
      <g>
       <use style="stroke:#000000;stroke-width:0.8;" x="191.475455" xlink:href="#m03af728f6e" y="115.72"/>
      </g>
     </g>
    </g>
    <g id="xtick_21">
     <g id="line2d_21">
      <g>
       <use style="stroke:#000000;stroke-width:0.8;" x="199.650606" xlink:href="#m03af728f6e" y="115.72"/>
      </g>
     </g>
     <g id="text_11">
      <!-- 2.9 -->
      <g transform="translate(195.674825 126.519219)scale(0.05 -0.05)">
       <use xlink:href="#DejaVuSans-32"/>
       <use x="63.623047" xlink:href="#DejaVuSans-2e"/>
       <use x="95.410156" xlink:href="#DejaVuSans-39"/>
      </g>
     </g>
    </g>
    <g id="xtick_22">
     <g id="line2d_22">
      <g>
       <use style="stroke:#000000;stroke-width:0.8;" x="207.825758" xlink:href="#m03af728f6e" y="115.72"/>
      </g>
     </g>
    </g>
    <g id="xtick_23">
     <g id="line2d_23">
      <g>
       <use style="stroke:#000000;stroke-width:0.8;" x="216.000909" xlink:href="#m03af728f6e" y="115.72"/>
      </g>
     </g>
     <g id="text_12">
      <!-- 3.1 -->
      <g transform="translate(212.025128 126.519219)scale(0.05 -0.05)">
       <use xlink:href="#DejaVuSans-33"/>
       <use x="63.623047" xlink:href="#DejaVuSans-2e"/>
       <use x="95.410156" xlink:href="#DejaVuSans-31"/>
      </g>
     </g>
    </g>
    <g id="xtick_24">
     <g id="line2d_24">
      <g>
       <use style="stroke:#000000;stroke-width:0.8;" x="224.176061" xlink:href="#m03af728f6e" y="115.72"/>
      </g>
     </g>
    </g>
    <g id="xtick_25">
     <g id="line2d_25">
      <g>
       <use style="stroke:#000000;stroke-width:0.8;" x="232.351212" xlink:href="#m03af728f6e" y="115.72"/>
      </g>
     </g>
     <g id="text_13">
      <!-- 3.3 -->
      <g transform="translate(228.375431 126.519219)scale(0.05 -0.05)">
       <use xlink:href="#DejaVuSans-33"/>
       <use x="63.623047" xlink:href="#DejaVuSans-2e"/>
       <use x="95.410156" xlink:href="#DejaVuSans-33"/>
      </g>
     </g>
    </g>
    <g id="xtick_26">
     <g id="line2d_26">
      <g>
       <use style="stroke:#000000;stroke-width:0.8;" x="240.526364" xlink:href="#m03af728f6e" y="115.72"/>
      </g>
     </g>
    </g>
    <g id="xtick_27">
     <g id="line2d_27">
      <g>
       <use style="stroke:#000000;stroke-width:0.8;" x="248.701515" xlink:href="#m03af728f6e" y="115.72"/>
      </g>
     </g>
     <g id="text_14">
      <!-- 3.5 -->
      <g transform="translate(244.725734 126.519219)scale(0.05 -0.05)">
       <use xlink:href="#DejaVuSans-33"/>
       <use x="63.623047" xlink:href="#DejaVuSans-2e"/>
       <use x="95.410156" xlink:href="#DejaVuSans-35"/>
      </g>
     </g>
    </g>
    <g id="xtick_28">
     <g id="line2d_28">
      <g>
       <use style="stroke:#000000;stroke-width:0.8;" x="256.876667" xlink:href="#m03af728f6e" y="115.72"/>
      </g>
     </g>
    </g>
    <g id="xtick_29">
     <g id="line2d_29">
      <g>
       <use style="stroke:#000000;stroke-width:0.8;" x="265.051818" xlink:href="#m03af728f6e" y="115.72"/>
      </g>
     </g>
     <g id="text_15">
      <!-- 3.7 -->
      <g transform="translate(261.076037 126.519219)scale(0.05 -0.05)">
       <use xlink:href="#DejaVuSans-33"/>
       <use x="63.623047" xlink:href="#DejaVuSans-2e"/>
       <use x="95.410156" xlink:href="#DejaVuSans-37"/>
      </g>
     </g>
    </g>
    <g id="xtick_30">
     <g id="line2d_30">
      <g>
       <use style="stroke:#000000;stroke-width:0.8;" x="273.22697" xlink:href="#m03af728f6e" y="115.72"/>
      </g>
     </g>
    </g>
    <g id="xtick_31">
     <g id="line2d_31">
      <g>
       <use style="stroke:#000000;stroke-width:0.8;" x="281.402121" xlink:href="#m03af728f6e" y="115.72"/>
      </g>
     </g>
     <g id="text_16">
      <!-- 3.9 -->
      <g transform="translate(277.42634 126.519219)scale(0.05 -0.05)">
       <use xlink:href="#DejaVuSans-33"/>
       <use x="63.623047" xlink:href="#DejaVuSans-2e"/>
       <use x="95.410156" xlink:href="#DejaVuSans-39"/>
      </g>
     </g>
    </g>
    <g id="xtick_32">
     <g id="line2d_32">
      <g>
       <use style="stroke:#000000;stroke-width:0.8;" x="289.577273" xlink:href="#m03af728f6e" y="115.72"/>
      </g>
     </g>
    </g>
    <g id="xtick_33">
     <g id="line2d_33">
      <g>
       <use style="stroke:#000000;stroke-width:0.8;" x="297.752424" xlink:href="#m03af728f6e" y="115.72"/>
      </g>
     </g>
     <g id="text_17">
      <!-- &gt; 4.0 -->
      <defs>
       <path d="M 10.59375 49.21875 
L 10.59375 58.109375 
L 73.1875 35.40625 
L 73.1875 27.296875 
L 10.59375 4.59375 
L 10.59375 13.484375 
L 60.890625 31.296875 
z
" id="DejaVuSans-3e"/>
       <path d="M 37.796875 64.3125 
L 12.890625 25.390625 
L 37.796875 25.390625 
z
M 35.203125 72.90625 
L 47.609375 72.90625 
L 47.609375 25.390625 
L 58.015625 25.390625 
L 58.015625 17.1875 
L 47.609375 17.1875 
L 47.609375 0 
L 37.796875 0 
L 37.796875 17.1875 
L 4.890625 17.1875 
L 4.890625 26.703125 
z
" id="DejaVuSans-34"/>
      </defs>
      <g transform="translate(290.88719 126.519219)scale(0.05 -0.05)">
       <use xlink:href="#DejaVuSans-3e"/>
       <use x="83.789062" xlink:href="#DejaVuSans-20"/>
       <use x="115.576172" xlink:href="#DejaVuSans-34"/>
       <use x="179.199219" xlink:href="#DejaVuSans-2e"/>
       <use x="210.986328" xlink:href="#DejaVuSans-30"/>
      </g>
     </g>
    </g>
    <g id="text_18">
     <!-- Resolution -->
     <defs>
      <path d="M 44.390625 34.1875 
Q 47.5625 33.109375 50.5625 29.59375 
Q 53.5625 26.078125 56.59375 19.921875 
L 66.609375 0 
L 56 0 
L 46.6875 18.703125 
Q 43.0625 26.03125 39.671875 28.421875 
Q 36.28125 30.8125 30.421875 30.8125 
L 19.671875 30.8125 
L 19.671875 0 
L 9.8125 0 
L 9.8125 72.90625 
L 32.078125 72.90625 
Q 44.578125 72.90625 50.734375 67.671875 
Q 56.890625 62.453125 56.890625 51.90625 
Q 56.890625 45.015625 53.6875 40.46875 
Q 50.484375 35.9375 44.390625 34.1875 
z
M 19.671875 64.796875 
L 19.671875 38.921875 
L 32.078125 38.921875 
Q 39.203125 38.921875 42.84375 42.21875 
Q 46.484375 45.515625 46.484375 51.90625 
Q 46.484375 58.296875 42.84375 61.546875 
Q 39.203125 64.796875 32.078125 64.796875 
z
" id="DejaVuSans-52"/>
      <path d="M 56.203125 29.59375 
L 56.203125 25.203125 
L 14.890625 25.203125 
Q 15.484375 15.921875 20.484375 11.0625 
Q 25.484375 6.203125 34.421875 6.203125 
Q 39.59375 6.203125 44.453125 7.46875 
Q 49.3125 8.734375 54.109375 11.28125 
L 54.109375 2.78125 
Q 49.265625 0.734375 44.1875 -0.34375 
Q 39.109375 -1.421875 33.890625 -1.421875 
Q 20.796875 -1.421875 13.15625 6.1875 
Q 5.515625 13.8125 5.515625 26.8125 
Q 5.515625 40.234375 12.765625 48.109375 
Q 20.015625 56 32.328125 56 
Q 43.359375 56 49.78125 48.890625 
Q 56.203125 41.796875 56.203125 29.59375 
z
M 47.21875 32.234375 
Q 47.125 39.59375 43.09375 43.984375 
Q 39.0625 48.390625 32.421875 48.390625 
Q 24.90625 48.390625 20.390625 44.140625 
Q 15.875 39.890625 15.1875 32.171875 
z
" id="DejaVuSans-65"/>
      <path d="M 44.28125 53.078125 
L 44.28125 44.578125 
Q 40.484375 46.53125 36.375 47.5 
Q 32.28125 48.484375 27.875 48.484375 
Q 21.1875 48.484375 17.84375 46.4375 
Q 14.5 44.390625 14.5 40.28125 
Q 14.5 37.15625 16.890625 35.375 
Q 19.28125 33.59375 26.515625 31.984375 
L 29.59375 31.296875 
Q 39.15625 29.25 43.1875 25.515625 
Q 47.21875 21.78125 47.21875 15.09375 
Q 47.21875 7.46875 41.1875 3.015625 
Q 35.15625 -1.421875 24.609375 -1.421875 
Q 20.21875 -1.421875 15.453125 -0.5625 
Q 10.6875 0.296875 5.421875 2 
L 5.421875 11.28125 
Q 10.40625 8.6875 15.234375 7.390625 
Q 20.0625 6.109375 24.8125 6.109375 
Q 31.15625 6.109375 34.5625 8.28125 
Q 37.984375 10.453125 37.984375 14.40625 
Q 37.984375 18.0625 35.515625 20.015625 
Q 33.0625 21.96875 24.703125 23.78125 
L 21.578125 24.515625 
Q 13.234375 26.265625 9.515625 29.90625 
Q 5.8125 33.546875 5.8125 39.890625 
Q 5.8125 47.609375 11.28125 51.796875 
Q 16.75 56 26.8125 56 
Q 31.78125 56 36.171875 55.265625 
Q 40.578125 54.546875 44.28125 53.078125 
z
" id="DejaVuSans-73"/>
      <path d="M 30.609375 48.390625 
Q 23.390625 48.390625 19.1875 42.75 
Q 14.984375 37.109375 14.984375 27.296875 
Q 14.984375 17.484375 19.15625 11.84375 
Q 23.34375 6.203125 30.609375 6.203125 
Q 37.796875 6.203125 41.984375 11.859375 
Q 46.1875 17.53125 46.1875 27.296875 
Q 46.1875 37.015625 41.984375 42.703125 
Q 37.796875 48.390625 30.609375 48.390625 
z
M 30.609375 56 
Q 42.328125 56 49.015625 48.375 
Q 55.71875 40.765625 55.71875 27.296875 
Q 55.71875 13.875 49.015625 6.21875 
Q 42.328125 -1.421875 30.609375 -1.421875 
Q 18.84375 -1.421875 12.171875 6.21875 
Q 5.515625 13.875 5.515625 27.296875 
Q 5.515625 40.765625 12.171875 48.375 
Q 18.84375 56 30.609375 56 
z
" id="DejaVuSans-6f"/>
      <path d="M 9.421875 75.984375 
L 18.40625 75.984375 
L 18.40625 0 
L 9.421875 0 
z
" id="DejaVuSans-6c"/>
      <path d="M 8.5 21.578125 
L 8.5 54.6875 
L 17.484375 54.6875 
L 17.484375 21.921875 
Q 17.484375 14.15625 20.5 10.265625 
Q 23.53125 6.390625 29.59375 6.390625 
Q 36.859375 6.390625 41.078125 11.03125 
Q 45.3125 15.671875 45.3125 23.6875 
L 45.3125 54.6875 
L 54.296875 54.6875 
L 54.296875 0 
L 45.3125 0 
L 45.3125 8.40625 
Q 42.046875 3.421875 37.71875 1 
Q 33.40625 -1.421875 27.6875 -1.421875 
Q 18.265625 -1.421875 13.375 4.4375 
Q 8.5 10.296875 8.5 21.578125 
z
M 31.109375 56 
z
" id="DejaVuSans-75"/>
      <path d="M 18.3125 70.21875 
L 18.3125 54.6875 
L 36.8125 54.6875 
L 36.8125 47.703125 
L 18.3125 47.703125 
L 18.3125 18.015625 
Q 18.3125 11.328125 20.140625 9.421875 
Q 21.96875 7.515625 27.59375 7.515625 
L 36.8125 7.515625 
L 36.8125 0 
L 27.59375 0 
Q 17.1875 0 13.234375 3.875 
Q 9.28125 7.765625 9.28125 18.015625 
L 9.28125 47.703125 
L 2.6875 47.703125 
L 2.6875 54.6875 
L 9.28125 54.6875 
L 9.28125 70.21875 
z
" id="DejaVuSans-74"/>
      <path d="M 9.421875 54.6875 
L 18.40625 54.6875 
L 18.40625 0 
L 9.421875 0 
z
M 9.421875 75.984375 
L 18.40625 75.984375 
L 18.40625 64.59375 
L 9.421875 64.59375 
z
" id="DejaVuSans-69"/>
      <path d="M 54.890625 33.015625 
L 54.890625 0 
L 45.90625 0 
L 45.90625 32.71875 
Q 45.90625 40.484375 42.875 44.328125 
Q 39.84375 48.1875 33.796875 48.1875 
Q 26.515625 48.1875 22.3125 43.546875 
Q 18.109375 38.921875 18.109375 30.90625 
L 18.109375 0 
L 9.078125 0 
L 9.078125 54.6875 
L 18.109375 54.6875 
L 18.109375 46.1875 
Q 21.34375 51.125 25.703125 53.5625 
Q 30.078125 56 35.796875 56 
Q 45.21875 56 50.046875 50.171875 
Q 54.890625 44.34375 54.890625 33.015625 
z
" id="DejaVuSans-6e"/>
     </defs>
     <g transform="translate(151.141875 136.118125)scale(0.06 -0.06)">
      <use xlink:href="#DejaVuSans-52"/>
      <use x="69.419922" xlink:href="#DejaVuSans-65"/>
      <use x="130.943359" xlink:href="#DejaVuSans-73"/>
      <use x="183.042969" xlink:href="#DejaVuSans-6f"/>
      <use x="244.224609" xlink:href="#DejaVuSans-6c"/>
      <use x="272.007812" xlink:href="#DejaVuSans-75"/>
      <use x="335.386719" xlink:href="#DejaVuSans-74"/>
      <use x="374.595703" xlink:href="#DejaVuSans-69"/>
      <use x="402.378906" xlink:href="#DejaVuSans-6f"/>
      <use x="463.560547" xlink:href="#DejaVuSans-6e"/>
     </g>
    </g>
   </g>
   <g id="matplotlib.axis_2">
    <g id="ytick_1">
     <g id="line2d_34">
      <defs>
       <path d="M 0 0 
L -3.5 0 
" id="mcc980e09ba" style="stroke:#000000;stroke-width:0.8;"/>
      </defs>
      <g>
       <use style="stroke:#000000;stroke-width:0.8;" x="32.06" xlink:href="#mcc980e09ba" y="115.72"/>
      </g>
     </g>
     <g id="text_19">
      <!-- 0.0 -->
      <g transform="translate(17.108438 117.619609)scale(0.05 -0.05)">
       <use xlink:href="#DejaVuSans-30"/>
       <use x="63.623047" xlink:href="#DejaVuSans-2e"/>
       <use x="95.410156" xlink:href="#DejaVuSans-30"/>
      </g>
     </g>
    </g>
    <g id="ytick_2">
     <g id="line2d_35">
      <g>
       <use style="stroke:#000000;stroke-width:0.8;" x="32.06" xlink:href="#mcc980e09ba" y="94.376"/>
      </g>
     </g>
     <g id="text_20">
      <!-- 0.2 -->
      <g transform="translate(17.108438 96.275609)scale(0.05 -0.05)">
       <use xlink:href="#DejaVuSans-30"/>
       <use x="63.623047" xlink:href="#DejaVuSans-2e"/>
       <use x="95.410156" xlink:href="#DejaVuSans-32"/>
      </g>
     </g>
    </g>
    <g id="ytick_3">
     <g id="line2d_36">
      <g>
       <use style="stroke:#000000;stroke-width:0.8;" x="32.06" xlink:href="#mcc980e09ba" y="73.032"/>
      </g>
     </g>
     <g id="text_21">
      <!-- 0.4 -->
      <g transform="translate(17.108438 74.931609)scale(0.05 -0.05)">
       <use xlink:href="#DejaVuSans-30"/>
       <use x="63.623047" xlink:href="#DejaVuSans-2e"/>
       <use x="95.410156" xlink:href="#DejaVuSans-34"/>
      </g>
     </g>
    </g>
    <g id="ytick_4">
     <g id="line2d_37">
      <g>
       <use style="stroke:#000000;stroke-width:0.8;" x="32.06" xlink:href="#mcc980e09ba" y="51.688"/>
      </g>
     </g>
     <g id="text_22">
      <!-- 0.6 -->
      <defs>
       <path d="M 33.015625 40.375 
Q 26.375 40.375 22.484375 35.828125 
Q 18.609375 31.296875 18.609375 23.390625 
Q 18.609375 15.53125 22.484375 10.953125 
Q 26.375 6.390625 33.015625 6.390625 
Q 39.65625 6.390625 43.53125 10.953125 
Q 47.40625 15.53125 47.40625 23.390625 
Q 47.40625 31.296875 43.53125 35.828125 
Q 39.65625 40.375 33.015625 40.375 
z
M 52.59375 71.296875 
L 52.59375 62.3125 
Q 48.875 64.0625 45.09375 64.984375 
Q 41.3125 65.921875 37.59375 65.921875 
Q 27.828125 65.921875 22.671875 59.328125 
Q 17.53125 52.734375 16.796875 39.40625 
Q 19.671875 43.65625 24.015625 45.921875 
Q 28.375 48.1875 33.59375 48.1875 
Q 44.578125 48.1875 50.953125 41.515625 
Q 57.328125 34.859375 57.328125 23.390625 
Q 57.328125 12.15625 50.6875 5.359375 
Q 44.046875 -1.421875 33.015625 -1.421875 
Q 20.359375 -1.421875 13.671875 8.265625 
Q 6.984375 17.96875 6.984375 36.375 
Q 6.984375 53.65625 15.1875 63.9375 
Q 23.390625 74.21875 37.203125 74.21875 
Q 40.921875 74.21875 44.703125 73.484375 
Q 48.484375 72.75 52.59375 71.296875 
z
" id="DejaVuSans-36"/>
      </defs>
      <g transform="translate(17.108438 53.587609)scale(0.05 -0.05)">
       <use xlink:href="#DejaVuSans-30"/>
       <use x="63.623047" xlink:href="#DejaVuSans-2e"/>
       <use x="95.410156" xlink:href="#DejaVuSans-36"/>
      </g>
     </g>
    </g>
    <g id="ytick_5">
     <g id="line2d_38">
      <g>
       <use style="stroke:#000000;stroke-width:0.8;" x="32.06" xlink:href="#mcc980e09ba" y="30.344"/>
      </g>
     </g>
     <g id="text_23">
      <!-- 0.8 -->
      <defs>
       <path d="M 31.78125 34.625 
Q 24.75 34.625 20.71875 30.859375 
Q 16.703125 27.09375 16.703125 20.515625 
Q 16.703125 13.921875 20.71875 10.15625 
Q 24.75 6.390625 31.78125 6.390625 
Q 38.8125 6.390625 42.859375 10.171875 
Q 46.921875 13.96875 46.921875 20.515625 
Q 46.921875 27.09375 42.890625 30.859375 
Q 38.875 34.625 31.78125 34.625 
z
M 21.921875 38.8125 
Q 15.578125 40.375 12.03125 44.71875 
Q 8.5 49.078125 8.5 55.328125 
Q 8.5 64.0625 14.71875 69.140625 
Q 20.953125 74.21875 31.78125 74.21875 
Q 42.671875 74.21875 48.875 69.140625 
Q 55.078125 64.0625 55.078125 55.328125 
Q 55.078125 49.078125 51.53125 44.71875 
Q 48 40.375 41.703125 38.8125 
Q 48.828125 37.15625 52.796875 32.3125 
Q 56.78125 27.484375 56.78125 20.515625 
Q 56.78125 9.90625 50.3125 4.234375 
Q 43.84375 -1.421875 31.78125 -1.421875 
Q 19.734375 -1.421875 13.25 4.234375 
Q 6.78125 9.90625 6.78125 20.515625 
Q 6.78125 27.484375 10.78125 32.3125 
Q 14.796875 37.15625 21.921875 38.8125 
z
M 18.3125 54.390625 
Q 18.3125 48.734375 21.84375 45.5625 
Q 25.390625 42.390625 31.78125 42.390625 
Q 38.140625 42.390625 41.71875 45.5625 
Q 45.3125 48.734375 45.3125 54.390625 
Q 45.3125 60.0625 41.71875 63.234375 
Q 38.140625 66.40625 31.78125 66.40625 
Q 25.390625 66.40625 21.84375 63.234375 
Q 18.3125 60.0625 18.3125 54.390625 
z
" id="DejaVuSans-38"/>
      </defs>
      <g transform="translate(17.108438 32.243609)scale(0.05 -0.05)">
       <use xlink:href="#DejaVuSans-30"/>
       <use x="63.623047" xlink:href="#DejaVuSans-2e"/>
       <use x="95.410156" xlink:href="#DejaVuSans-38"/>
      </g>
     </g>
    </g>
    <g id="ytick_6">
     <g id="line2d_39">
      <g>
       <use style="stroke:#000000;stroke-width:0.8;" x="32.06" xlink:href="#mcc980e09ba" y="9"/>
      </g>
     </g>
     <g id="text_24">
      <!-- 1.0 -->
      <g transform="translate(17.108438 10.899609)scale(0.05 -0.05)">
       <use xlink:href="#DejaVuSans-31"/>
       <use x="63.623047" xlink:href="#DejaVuSans-2e"/>
       <use x="95.410156" xlink:href="#DejaVuSans-30"/>
      </g>
     </g>
    </g>
    <g id="text_25">
     <!-- Accuracy -->
     <defs>
      <path d="M 34.1875 63.1875 
L 20.796875 26.90625 
L 47.609375 26.90625 
z
M 28.609375 72.90625 
L 39.796875 72.90625 
L 67.578125 0 
L 57.328125 0 
L 50.6875 18.703125 
L 17.828125 18.703125 
L 11.1875 0 
L 0.78125 0 
z
" id="DejaVuSans-41"/>
      <path d="M 48.78125 52.59375 
L 48.78125 44.1875 
Q 44.96875 46.296875 41.140625 47.34375 
Q 37.3125 48.390625 33.40625 48.390625 
Q 24.65625 48.390625 19.8125 42.84375 
Q 14.984375 37.3125 14.984375 27.296875 
Q 14.984375 17.28125 19.8125 11.734375 
Q 24.65625 6.203125 33.40625 6.203125 
Q 37.3125 6.203125 41.140625 7.25 
Q 44.96875 8.296875 48.78125 10.40625 
L 48.78125 2.09375 
Q 45.015625 0.34375 40.984375 -0.53125 
Q 36.96875 -1.421875 32.421875 -1.421875 
Q 20.0625 -1.421875 12.78125 6.34375 
Q 5.515625 14.109375 5.515625 27.296875 
Q 5.515625 40.671875 12.859375 48.328125 
Q 20.21875 56 33.015625 56 
Q 37.15625 56 41.109375 55.140625 
Q 45.0625 54.296875 48.78125 52.59375 
z
" id="DejaVuSans-63"/>
      <path d="M 41.109375 46.296875 
Q 39.59375 47.171875 37.8125 47.578125 
Q 36.03125 48 33.890625 48 
Q 26.265625 48 22.1875 43.046875 
Q 18.109375 38.09375 18.109375 28.8125 
L 18.109375 0 
L 9.078125 0 
L 9.078125 54.6875 
L 18.109375 54.6875 
L 18.109375 46.1875 
Q 20.953125 51.171875 25.484375 53.578125 
Q 30.03125 56 36.53125 56 
Q 37.453125 56 38.578125 55.875 
Q 39.703125 55.765625 41.0625 55.515625 
z
" id="DejaVuSans-72"/>
      <path d="M 34.28125 27.484375 
Q 23.390625 27.484375 19.1875 25 
Q 14.984375 22.515625 14.984375 16.5 
Q 14.984375 11.71875 18.140625 8.90625 
Q 21.296875 6.109375 26.703125 6.109375 
Q 34.1875 6.109375 38.703125 11.40625 
Q 43.21875 16.703125 43.21875 25.484375 
L 43.21875 27.484375 
z
M 52.203125 31.203125 
L 52.203125 0 
L 43.21875 0 
L 43.21875 8.296875 
Q 40.140625 3.328125 35.546875 0.953125 
Q 30.953125 -1.421875 24.3125 -1.421875 
Q 15.921875 -1.421875 10.953125 3.296875 
Q 6 8.015625 6 15.921875 
Q 6 25.140625 12.171875 29.828125 
Q 18.359375 34.515625 30.609375 34.515625 
L 43.21875 34.515625 
L 43.21875 35.40625 
Q 43.21875 41.609375 39.140625 45 
Q 35.0625 48.390625 27.6875 48.390625 
Q 23 48.390625 18.546875 47.265625 
Q 14.109375 46.140625 10.015625 43.890625 
L 10.015625 52.203125 
Q 14.9375 54.109375 19.578125 55.046875 
Q 24.21875 56 28.609375 56 
Q 40.484375 56 46.34375 49.84375 
Q 52.203125 43.703125 52.203125 31.203125 
z
" id="DejaVuSans-61"/>
      <path d="M 32.171875 -5.078125 
Q 28.375 -14.84375 24.75 -17.8125 
Q 21.140625 -20.796875 15.09375 -20.796875 
L 7.90625 -20.796875 
L 7.90625 -13.28125 
L 13.1875 -13.28125 
Q 16.890625 -13.28125 18.9375 -11.515625 
Q 21 -9.765625 23.484375 -3.21875 
L 25.09375 0.875 
L 2.984375 54.6875 
L 12.5 54.6875 
L 29.59375 11.921875 
L 46.6875 54.6875 
L 56.203125 54.6875 
z
" id="DejaVuSans-79"/>
     </defs>
     <g transform="translate(11.860625 76.108906)rotate(-90)scale(0.06 -0.06)">
      <use xlink:href="#DejaVuSans-41"/>
      <use x="68.392578" xlink:href="#DejaVuSans-63"/>
      <use x="123.373047" xlink:href="#DejaVuSans-63"/>
      <use x="178.353516" xlink:href="#DejaVuSans-75"/>
      <use x="241.732422" xlink:href="#DejaVuSans-72"/>
      <use x="282.845703" xlink:href="#DejaVuSans-61"/>
      <use x="344.125" xlink:href="#DejaVuSans-63"/>
      <use x="399.105469" xlink:href="#DejaVuSans-79"/>
     </g>
    </g>
   </g>
   <g id="line2d_40">
    <path clip-path="url(#p20ac29adcd)" d="M 36.147576 37.541395 
L 44.322727 36.614879 
L 52.497879 43.852252 
L 60.67303 40.543914 
L 68.848182 41.459411 
L 77.023333 42.367059 
L 85.198485 46.855802 
L 93.373636 47.65148 
L 101.548788 49.570465 
L 109.723939 52.272549 
L 117.899091 52.721387 
L 126.074242 53.171634 
L 134.249394 53.361304 
L 142.424545 56.742301 
L 150.599697 58.963308 
L 158.774848 58.329598 
L 166.95 59.122081 
L 175.125152 59.620069 
L 183.300303 60.921455 
L 191.475455 58.582239 
L 199.650606 57.625576 
L 207.825758 58.836434 
L 216.000909 57.08124 
L 224.176061 64.414145 
L 232.351212 61.683742 
L 240.526364 60.556581 
L 248.701515 61.898009 
L 256.876667 70.392688 
L 265.051818 61.109375 
L 273.22697 71.318248 
L 281.402121 76.260504 
L 289.577273 88.051852 
" style="fill:none;stroke:#1f77b4;stroke-linecap:square;stroke-width:0.75;"/>
    <defs>
     <path d="M 0 1 
C 0.265203 1 0.51958 0.894634 0.707107 0.707107 
C 0.894634 0.51958 1 0.265203 1 0 
C 1 -0.265203 0.894634 -0.51958 0.707107 -0.707107 
C 0.51958 -0.894634 0.265203 -1 0 -1 
C -0.265203 -1 -0.51958 -0.894634 -0.707107 -0.707107 
C -0.894634 -0.51958 -1 -0.265203 -1 0 
C -1 0.265203 -0.894634 0.51958 -0.707107 0.707107 
C -0.51958 0.894634 -0.265203 1 0 1 
z
" id="m847789b071" style="stroke:#1f77b4;"/>
    </defs>
    <g clip-path="url(#p20ac29adcd)">
     <use style="fill:#1f77b4;stroke:#1f77b4;" x="36.147576" xlink:href="#m847789b071" y="37.541395"/>
     <use style="fill:#1f77b4;stroke:#1f77b4;" x="44.322727" xlink:href="#m847789b071" y="36.614879"/>
     <use style="fill:#1f77b4;stroke:#1f77b4;" x="52.497879" xlink:href="#m847789b071" y="43.852252"/>
     <use style="fill:#1f77b4;stroke:#1f77b4;" x="60.67303" xlink:href="#m847789b071" y="40.543914"/>
     <use style="fill:#1f77b4;stroke:#1f77b4;" x="68.848182" xlink:href="#m847789b071" y="41.459411"/>
     <use style="fill:#1f77b4;stroke:#1f77b4;" x="77.023333" xlink:href="#m847789b071" y="42.367059"/>
     <use style="fill:#1f77b4;stroke:#1f77b4;" x="85.198485" xlink:href="#m847789b071" y="46.855802"/>
     <use style="fill:#1f77b4;stroke:#1f77b4;" x="93.373636" xlink:href="#m847789b071" y="47.65148"/>
     <use style="fill:#1f77b4;stroke:#1f77b4;" x="101.548788" xlink:href="#m847789b071" y="49.570465"/>
     <use style="fill:#1f77b4;stroke:#1f77b4;" x="109.723939" xlink:href="#m847789b071" y="52.272549"/>
     <use style="fill:#1f77b4;stroke:#1f77b4;" x="117.899091" xlink:href="#m847789b071" y="52.721387"/>
     <use style="fill:#1f77b4;stroke:#1f77b4;" x="126.074242" xlink:href="#m847789b071" y="53.171634"/>
     <use style="fill:#1f77b4;stroke:#1f77b4;" x="134.249394" xlink:href="#m847789b071" y="53.361304"/>
     <use style="fill:#1f77b4;stroke:#1f77b4;" x="142.424545" xlink:href="#m847789b071" y="56.742301"/>
     <use style="fill:#1f77b4;stroke:#1f77b4;" x="150.599697" xlink:href="#m847789b071" y="58.963308"/>
     <use style="fill:#1f77b4;stroke:#1f77b4;" x="158.774848" xlink:href="#m847789b071" y="58.329598"/>
     <use style="fill:#1f77b4;stroke:#1f77b4;" x="166.95" xlink:href="#m847789b071" y="59.122081"/>
     <use style="fill:#1f77b4;stroke:#1f77b4;" x="175.125152" xlink:href="#m847789b071" y="59.620069"/>
     <use style="fill:#1f77b4;stroke:#1f77b4;" x="183.300303" xlink:href="#m847789b071" y="60.921455"/>
     <use style="fill:#1f77b4;stroke:#1f77b4;" x="191.475455" xlink:href="#m847789b071" y="58.582239"/>
     <use style="fill:#1f77b4;stroke:#1f77b4;" x="199.650606" xlink:href="#m847789b071" y="57.625576"/>
     <use style="fill:#1f77b4;stroke:#1f77b4;" x="207.825758" xlink:href="#m847789b071" y="58.836434"/>
     <use style="fill:#1f77b4;stroke:#1f77b4;" x="216.000909" xlink:href="#m847789b071" y="57.08124"/>
     <use style="fill:#1f77b4;stroke:#1f77b4;" x="224.176061" xlink:href="#m847789b071" y="64.414145"/>
     <use style="fill:#1f77b4;stroke:#1f77b4;" x="232.351212" xlink:href="#m847789b071" y="61.683742"/>
     <use style="fill:#1f77b4;stroke:#1f77b4;" x="240.526364" xlink:href="#m847789b071" y="60.556581"/>
     <use style="fill:#1f77b4;stroke:#1f77b4;" x="248.701515" xlink:href="#m847789b071" y="61.898009"/>
     <use style="fill:#1f77b4;stroke:#1f77b4;" x="256.876667" xlink:href="#m847789b071" y="70.392688"/>
     <use style="fill:#1f77b4;stroke:#1f77b4;" x="265.051818" xlink:href="#m847789b071" y="61.109375"/>
     <use style="fill:#1f77b4;stroke:#1f77b4;" x="273.22697" xlink:href="#m847789b071" y="71.318248"/>
     <use style="fill:#1f77b4;stroke:#1f77b4;" x="281.402121" xlink:href="#m847789b071" y="76.260504"/>
     <use style="fill:#1f77b4;stroke:#1f77b4;" x="289.577273" xlink:href="#m847789b071" y="88.051852"/>
    </g>
   </g>
   <g id="line2d_41">
    <path clip-path="url(#p20ac29adcd)" d="M 36.147576 46.080678 
L 44.322727 56.251836 
L 52.497879 50.249079 
L 60.67303 48.448715 
L 68.848182 46.127326 
L 77.023333 48.121078 
L 85.198485 50.555983 
L 93.373636 48.883568 
L 101.548788 49.454274 
L 109.723939 50.565237 
L 117.899091 52.070552 
L 126.074242 51.423355 
L 134.249394 52.719058 
L 142.424545 53.506249 
L 150.599697 58.663772 
L 158.774848 59.531507 
L 166.95 59.709888 
L 175.125152 62.311681 
L 183.300303 63.831517 
L 191.475455 65.748073 
L 199.650606 63.25119 
L 207.825758 66.430494 
L 216.000909 61.763666 
L 224.176061 64.076918 
L 232.351212 66.593854 
L 240.526364 77.70628 
L 248.701515 61.841942 
L 256.876667 75.452963 
L 265.051818 66.933714 
L 273.22697 69.708982 
L 281.402121 76.544304 
L 289.577273 51.688 
L 297.752424 59.92008 
" style="fill:none;stroke:#ff7f0e;stroke-linecap:square;stroke-width:0.75;"/>
    <defs>
     <path d="M -1 1 
L 1 1 
L 1 -1 
L -1 -1 
z
" id="m03d9bd02c6" style="stroke:#ff7f0e;stroke-linejoin:miter;"/>
    </defs>
    <g clip-path="url(#p20ac29adcd)">
     <use style="fill:#ff7f0e;stroke:#ff7f0e;stroke-linejoin:miter;" x="36.147576" xlink:href="#m03d9bd02c6" y="46.080678"/>
     <use style="fill:#ff7f0e;stroke:#ff7f0e;stroke-linejoin:miter;" x="44.322727" xlink:href="#m03d9bd02c6" y="56.251836"/>
     <use style="fill:#ff7f0e;stroke:#ff7f0e;stroke-linejoin:miter;" x="52.497879" xlink:href="#m03d9bd02c6" y="50.249079"/>
     <use style="fill:#ff7f0e;stroke:#ff7f0e;stroke-linejoin:miter;" x="60.67303" xlink:href="#m03d9bd02c6" y="48.448715"/>
     <use style="fill:#ff7f0e;stroke:#ff7f0e;stroke-linejoin:miter;" x="68.848182" xlink:href="#m03d9bd02c6" y="46.127326"/>
     <use style="fill:#ff7f0e;stroke:#ff7f0e;stroke-linejoin:miter;" x="77.023333" xlink:href="#m03d9bd02c6" y="48.121078"/>
     <use style="fill:#ff7f0e;stroke:#ff7f0e;stroke-linejoin:miter;" x="85.198485" xlink:href="#m03d9bd02c6" y="50.555983"/>
     <use style="fill:#ff7f0e;stroke:#ff7f0e;stroke-linejoin:miter;" x="93.373636" xlink:href="#m03d9bd02c6" y="48.883568"/>
     <use style="fill:#ff7f0e;stroke:#ff7f0e;stroke-linejoin:miter;" x="101.548788" xlink:href="#m03d9bd02c6" y="49.454274"/>
     <use style="fill:#ff7f0e;stroke:#ff7f0e;stroke-linejoin:miter;" x="109.723939" xlink:href="#m03d9bd02c6" y="50.565237"/>
     <use style="fill:#ff7f0e;stroke:#ff7f0e;stroke-linejoin:miter;" x="117.899091" xlink:href="#m03d9bd02c6" y="52.070552"/>
     <use style="fill:#ff7f0e;stroke:#ff7f0e;stroke-linejoin:miter;" x="126.074242" xlink:href="#m03d9bd02c6" y="51.423355"/>
     <use style="fill:#ff7f0e;stroke:#ff7f0e;stroke-linejoin:miter;" x="134.249394" xlink:href="#m03d9bd02c6" y="52.719058"/>
     <use style="fill:#ff7f0e;stroke:#ff7f0e;stroke-linejoin:miter;" x="142.424545" xlink:href="#m03d9bd02c6" y="53.506249"/>
     <use style="fill:#ff7f0e;stroke:#ff7f0e;stroke-linejoin:miter;" x="150.599697" xlink:href="#m03d9bd02c6" y="58.663772"/>
     <use style="fill:#ff7f0e;stroke:#ff7f0e;stroke-linejoin:miter;" x="158.774848" xlink:href="#m03d9bd02c6" y="59.531507"/>
     <use style="fill:#ff7f0e;stroke:#ff7f0e;stroke-linejoin:miter;" x="166.95" xlink:href="#m03d9bd02c6" y="59.709888"/>
     <use style="fill:#ff7f0e;stroke:#ff7f0e;stroke-linejoin:miter;" x="175.125152" xlink:href="#m03d9bd02c6" y="62.311681"/>
     <use style="fill:#ff7f0e;stroke:#ff7f0e;stroke-linejoin:miter;" x="183.300303" xlink:href="#m03d9bd02c6" y="63.831517"/>
     <use style="fill:#ff7f0e;stroke:#ff7f0e;stroke-linejoin:miter;" x="191.475455" xlink:href="#m03d9bd02c6" y="65.748073"/>
     <use style="fill:#ff7f0e;stroke:#ff7f0e;stroke-linejoin:miter;" x="199.650606" xlink:href="#m03d9bd02c6" y="63.25119"/>
     <use style="fill:#ff7f0e;stroke:#ff7f0e;stroke-linejoin:miter;" x="207.825758" xlink:href="#m03d9bd02c6" y="66.430494"/>
     <use style="fill:#ff7f0e;stroke:#ff7f0e;stroke-linejoin:miter;" x="216.000909" xlink:href="#m03d9bd02c6" y="61.763666"/>
     <use style="fill:#ff7f0e;stroke:#ff7f0e;stroke-linejoin:miter;" x="224.176061" xlink:href="#m03d9bd02c6" y="64.076918"/>
     <use style="fill:#ff7f0e;stroke:#ff7f0e;stroke-linejoin:miter;" x="232.351212" xlink:href="#m03d9bd02c6" y="66.593854"/>
     <use style="fill:#ff7f0e;stroke:#ff7f0e;stroke-linejoin:miter;" x="240.526364" xlink:href="#m03d9bd02c6" y="77.70628"/>
     <use style="fill:#ff7f0e;stroke:#ff7f0e;stroke-linejoin:miter;" x="248.701515" xlink:href="#m03d9bd02c6" y="61.841942"/>
     <use style="fill:#ff7f0e;stroke:#ff7f0e;stroke-linejoin:miter;" x="256.876667" xlink:href="#m03d9bd02c6" y="75.452963"/>
     <use style="fill:#ff7f0e;stroke:#ff7f0e;stroke-linejoin:miter;" x="265.051818" xlink:href="#m03d9bd02c6" y="66.933714"/>
     <use style="fill:#ff7f0e;stroke:#ff7f0e;stroke-linejoin:miter;" x="273.22697" xlink:href="#m03d9bd02c6" y="69.708982"/>
     <use style="fill:#ff7f0e;stroke:#ff7f0e;stroke-linejoin:miter;" x="281.402121" xlink:href="#m03d9bd02c6" y="76.544304"/>
     <use style="fill:#ff7f0e;stroke:#ff7f0e;stroke-linejoin:miter;" x="289.577273" xlink:href="#m03d9bd02c6" y="51.688"/>
     <use style="fill:#ff7f0e;stroke:#ff7f0e;stroke-linejoin:miter;" x="297.752424" xlink:href="#m03d9bd02c6" y="59.92008"/>
    </g>
   </g>
   <g id="line2d_42">
    <path clip-path="url(#p20ac29adcd)" d="M 44.322727 28.814463 
L 52.497879 33.139048 
L 60.67303 35.082424 
L 68.848182 36.634151 
L 77.023333 36.695307 
L 85.198485 36.864049 
L 93.373636 35.175027 
L 101.548788 36.266162 
L 109.723939 36.1149 
L 117.899091 37.143781 
L 126.074242 37.780099 
L 134.249394 38.409877 
L 142.424545 40.13261 
L 150.599697 42.319215 
L 158.774848 43.655516 
L 166.95 44.997908 
" style="fill:none;stroke:#2ca02c;stroke-linecap:square;stroke-width:0.75;"/>
    <defs>
     <path d="M 0 -1 
L -1 1 
L 1 1 
z
" id="me30819ac8d" style="stroke:#2ca02c;stroke-linejoin:miter;"/>
    </defs>
    <g clip-path="url(#p20ac29adcd)">
     <use style="fill:#2ca02c;stroke:#2ca02c;stroke-linejoin:miter;" x="44.322727" xlink:href="#me30819ac8d" y="28.814463"/>
     <use style="fill:#2ca02c;stroke:#2ca02c;stroke-linejoin:miter;" x="52.497879" xlink:href="#me30819ac8d" y="33.139048"/>
     <use style="fill:#2ca02c;stroke:#2ca02c;stroke-linejoin:miter;" x="60.67303" xlink:href="#me30819ac8d" y="35.082424"/>
     <use style="fill:#2ca02c;stroke:#2ca02c;stroke-linejoin:miter;" x="68.848182" xlink:href="#me30819ac8d" y="36.634151"/>
     <use style="fill:#2ca02c;stroke:#2ca02c;stroke-linejoin:miter;" x="77.023333" xlink:href="#me30819ac8d" y="36.695307"/>
     <use style="fill:#2ca02c;stroke:#2ca02c;stroke-linejoin:miter;" x="85.198485" xlink:href="#me30819ac8d" y="36.864049"/>
     <use style="fill:#2ca02c;stroke:#2ca02c;stroke-linejoin:miter;" x="93.373636" xlink:href="#me30819ac8d" y="35.175027"/>
     <use style="fill:#2ca02c;stroke:#2ca02c;stroke-linejoin:miter;" x="101.548788" xlink:href="#me30819ac8d" y="36.266162"/>
     <use style="fill:#2ca02c;stroke:#2ca02c;stroke-linejoin:miter;" x="109.723939" xlink:href="#me30819ac8d" y="36.1149"/>
     <use style="fill:#2ca02c;stroke:#2ca02c;stroke-linejoin:miter;" x="117.899091" xlink:href="#me30819ac8d" y="37.143781"/>
     <use style="fill:#2ca02c;stroke:#2ca02c;stroke-linejoin:miter;" x="126.074242" xlink:href="#me30819ac8d" y="37.780099"/>
     <use style="fill:#2ca02c;stroke:#2ca02c;stroke-linejoin:miter;" x="134.249394" xlink:href="#me30819ac8d" y="38.409877"/>
     <use style="fill:#2ca02c;stroke:#2ca02c;stroke-linejoin:miter;" x="142.424545" xlink:href="#me30819ac8d" y="40.13261"/>
     <use style="fill:#2ca02c;stroke:#2ca02c;stroke-linejoin:miter;" x="150.599697" xlink:href="#me30819ac8d" y="42.319215"/>
     <use style="fill:#2ca02c;stroke:#2ca02c;stroke-linejoin:miter;" x="158.774848" xlink:href="#me30819ac8d" y="43.655516"/>
     <use style="fill:#2ca02c;stroke:#2ca02c;stroke-linejoin:miter;" x="166.95" xlink:href="#me30819ac8d" y="44.997908"/>
    </g>
   </g>
   <g id="patch_3">
    <path d="M 32.06 115.72 
L 32.06 9 
" style="fill:none;stroke:#000000;stroke-linecap:square;stroke-linejoin:miter;stroke-width:0.8;"/>
   </g>
   <g id="patch_4">
    <path d="M 301.84 115.72 
L 301.84 9 
" style="fill:none;stroke:#000000;stroke-linecap:square;stroke-linejoin:miter;stroke-width:0.8;"/>
   </g>
   <g id="patch_5">
    <path d="M 32.06 115.72 
L 301.84 115.72 
" style="fill:none;stroke:#000000;stroke-linecap:square;stroke-linejoin:miter;stroke-width:0.8;"/>
   </g>
   <g id="patch_6">
    <path d="M 32.06 9 
L 301.84 9 
" style="fill:none;stroke:#000000;stroke-linecap:square;stroke-linejoin:miter;stroke-width:0.8;"/>
   </g>
  </g>
  <g id="axes_2">
   <g id="patch_7">
    <path clip-path="url(#p20ac29adcd)" d="M 32.673136 115.72 
L 34.716924 115.72 
L 34.716924 114.962886 
L 32.673136 114.962886 
z
" style="fill:#1f77b4;fill-opacity:0.4;"/>
   </g>
   <g id="patch_8">
    <path clip-path="url(#p20ac29adcd)" d="M 40.848288 115.72 
L 42.892076 115.72 
L 42.892076 114.086924 
L 40.848288 114.086924 
z
" style="fill:#1f77b4;fill-opacity:0.4;"/>
   </g>
   <g id="patch_9">
    <path clip-path="url(#p20ac29adcd)" d="M 49.023439 115.72 
L 51.067227 115.72 
L 51.067227 111.811181 
L 49.023439 111.811181 
z
" style="fill:#1f77b4;fill-opacity:0.4;"/>
   </g>
   <g id="patch_10">
    <path clip-path="url(#p20ac29adcd)" d="M 57.198591 115.72 
L 59.242379 115.72 
L 59.242379 109.15248 
L 57.198591 109.15248 
z
" style="fill:#1f77b4;fill-opacity:0.4;"/>
   </g>
   <g id="patch_11">
    <path clip-path="url(#p20ac29adcd)" d="M 65.373742 115.72 
L 67.41753 115.72 
L 67.41753 104.807881 
L 65.373742 104.807881 
z
" style="fill:#1f77b4;fill-opacity:0.4;"/>
   </g>
   <g id="patch_12">
    <path clip-path="url(#p20ac29adcd)" d="M 73.548894 115.72 
L 75.592682 115.72 
L 75.592682 95.066646 
L 73.548894 95.066646 
z
" style="fill:#1f77b4;fill-opacity:0.4;"/>
   </g>
   <g id="patch_13">
    <path clip-path="url(#p20ac29adcd)" d="M 81.724045 115.72 
L 83.767833 115.72 
L 83.767833 80.800337 
L 81.724045 80.800337 
z
" style="fill:#1f77b4;fill-opacity:0.4;"/>
   </g>
   <g id="patch_14">
    <path clip-path="url(#p20ac29adcd)" d="M 89.899197 115.72 
L 91.942985 115.72 
L 91.942985 72.683376 
L 89.899197 72.683376 
z
" style="fill:#1f77b4;fill-opacity:0.4;"/>
   </g>
   <g id="patch_15">
    <path clip-path="url(#p20ac29adcd)" d="M 98.074348 115.72 
L 100.118136 115.72 
L 100.118136 55.555882 
L 98.074348 55.555882 
z
" style="fill:#1f77b4;fill-opacity:0.4;"/>
   </g>
   <g id="patch_16">
    <path clip-path="url(#p20ac29adcd)" d="M 106.2495 115.72 
L 108.293288 115.72 
L 108.293288 33.106584 
L 106.2495 33.106584 
z
" style="fill:#1f77b4;fill-opacity:0.4;"/>
   </g>
   <g id="patch_17">
    <path clip-path="url(#p20ac29adcd)" d="M 114.424652 115.72 
L 116.468439 115.72 
L 116.468439 24.166481 
L 114.424652 24.166481 
z
" style="fill:#1f77b4;fill-opacity:0.4;"/>
   </g>
   <g id="patch_18">
    <path clip-path="url(#p20ac29adcd)" d="M 122.599803 115.72 
L 124.643591 115.72 
L 124.643591 14.081905 
L 122.599803 14.081905 
z
" style="fill:#1f77b4;fill-opacity:0.4;"/>
   </g>
   <g id="patch_19">
    <path clip-path="url(#p20ac29adcd)" d="M 130.774955 115.72 
L 132.818742 115.72 
L 132.818742 38.067439 
L 130.774955 38.067439 
z
" style="fill:#1f77b4;fill-opacity:0.4;"/>
   </g>
   <g id="patch_20">
    <path clip-path="url(#p20ac29adcd)" d="M 138.950106 115.72 
L 140.993894 115.72 
L 140.993894 43.596129 
L 138.950106 43.596129 
z
" style="fill:#1f77b4;fill-opacity:0.4;"/>
   </g>
   <g id="patch_21">
    <path clip-path="url(#p20ac29adcd)" d="M 147.125258 115.72 
L 149.169045 115.72 
L 149.169045 50.995593 
L 147.125258 50.995593 
z
" style="fill:#1f77b4;fill-opacity:0.4;"/>
   </g>
   <g id="patch_22">
    <path clip-path="url(#p20ac29adcd)" d="M 155.300409 115.72 
L 157.344197 115.72 
L 157.344197 63.620022 
L 155.300409 63.620022 
z
" style="fill:#1f77b4;fill-opacity:0.4;"/>
   </g>
   <g id="patch_23">
    <path clip-path="url(#p20ac29adcd)" d="M 163.475561 115.72 
L 165.519348 115.72 
L 165.519348 63.853318 
L 163.475561 63.853318 
z
" style="fill:#1f77b4;fill-opacity:0.4;"/>
   </g>
   <g id="patch_24">
    <path clip-path="url(#p20ac29adcd)" d="M 171.650712 115.72 
L 173.6945 115.72 
L 173.6945 76.372103 
L 171.650712 76.372103 
z
" style="fill:#1f77b4;fill-opacity:0.4;"/>
   </g>
   <g id="patch_25">
    <path clip-path="url(#p20ac29adcd)" d="M 179.825864 115.72 
L 181.869652 115.72 
L 181.869652 80.615461 
L 179.825864 80.615461 
z
" style="fill:#1f77b4;fill-opacity:0.4;"/>
   </g>
   <g id="patch_26">
    <path clip-path="url(#p20ac29adcd)" d="M 188.001015 115.72 
L 190.044803 115.72 
L 190.044803 82.332172 
L 188.001015 82.332172 
z
" style="fill:#1f77b4;fill-opacity:0.4;"/>
   </g>
   <g id="patch_27">
    <path clip-path="url(#p20ac29adcd)" d="M 196.176167 115.72 
L 198.219955 115.72 
L 198.219955 94.089441 
L 196.176167 94.089441 
z
" style="fill:#1f77b4;fill-opacity:0.4;"/>
   </g>
   <g id="patch_28">
    <path clip-path="url(#p20ac29adcd)" d="M 204.351318 115.72 
L 206.395106 115.72 
L 206.395106 94.388765 
L 204.351318 94.388765 
z
" style="fill:#1f77b4;fill-opacity:0.4;"/>
   </g>
   <g id="patch_29">
    <path clip-path="url(#p20ac29adcd)" d="M 212.52647 115.72 
L 214.570258 115.72 
L 214.570258 104.640611 
L 212.52647 104.640611 
z
" style="fill:#1f77b4;fill-opacity:0.4;"/>
   </g>
   <g id="patch_30">
    <path clip-path="url(#p20ac29adcd)" d="M 220.701621 115.72 
L 222.745409 115.72 
L 222.745409 105.886327 
L 220.701621 105.886327 
z
" style="fill:#1f77b4;fill-opacity:0.4;"/>
   </g>
   <g id="patch_31">
    <path clip-path="url(#p20ac29adcd)" d="M 228.876773 115.72 
L 230.920561 115.72 
L 230.920561 108.426179 
L 228.876773 108.426179 
z
" style="fill:#1f77b4;fill-opacity:0.4;"/>
   </g>
   <g id="patch_32">
    <path clip-path="url(#p20ac29adcd)" d="M 237.051924 115.72 
L 239.095712 115.72 
L 239.095712 111.291766 
L 237.051924 111.291766 
z
" style="fill:#1f77b4;fill-opacity:0.4;"/>
   </g>
   <g id="patch_33">
    <path clip-path="url(#p20ac29adcd)" d="M 245.227076 115.72 
L 247.270864 115.72 
L 247.270864 111.652715 
L 245.227076 111.652715 
z
" style="fill:#1f77b4;fill-opacity:0.4;"/>
   </g>
   <g id="patch_34">
    <path clip-path="url(#p20ac29adcd)" d="M 253.402227 115.72 
L 255.446015 115.72 
L 255.446015 114.082522 
L 253.402227 114.082522 
z
" style="fill:#1f77b4;fill-opacity:0.4;"/>
   </g>
   <g id="patch_35">
    <path clip-path="url(#p20ac29adcd)" d="M 261.577379 115.72 
L 263.621167 115.72 
L 263.621167 114.593133 
L 261.577379 114.593133 
z
" style="fill:#1f77b4;fill-opacity:0.4;"/>
   </g>
   <g id="patch_36">
    <path clip-path="url(#p20ac29adcd)" d="M 269.75253 115.72 
L 271.796318 115.72 
L 271.796318 115.11695 
L 269.75253 115.11695 
z
" style="fill:#1f77b4;fill-opacity:0.4;"/>
   </g>
   <g id="patch_37">
    <path clip-path="url(#p20ac29adcd)" d="M 277.927682 115.72 
L 279.97147 115.72 
L 279.97147 115.196183 
L 277.927682 115.196183 
z
" style="fill:#1f77b4;fill-opacity:0.4;"/>
   </g>
   <g id="patch_38">
    <path clip-path="url(#p20ac29adcd)" d="M 286.102833 115.72 
L 288.146621 115.72 
L 288.146621 115.601151 
L 286.102833 115.601151 
z
" style="fill:#1f77b4;fill-opacity:0.4;"/>
   </g>
   <g id="patch_39">
    <path clip-path="url(#p20ac29adcd)" d="M 294.277985 115.72 
L 296.321773 115.72 
L 296.321773 115.72 
L 294.277985 115.72 
z
" style="fill:#1f77b4;fill-opacity:0.4;"/>
   </g>
   <g id="patch_40">
    <path clip-path="url(#p20ac29adcd)" d="M 35.125682 115.72 
L 37.16947 115.72 
L 37.16947 114.68117 
L 35.125682 114.68117 
z
" style="fill:#ff7f0e;fill-opacity:0.4;"/>
   </g>
   <g id="patch_41">
    <path clip-path="url(#p20ac29adcd)" d="M 43.300833 115.72 
L 45.344621 115.72 
L 45.344621 113.681956 
L 43.300833 113.681956 
z
" style="fill:#ff7f0e;fill-opacity:0.4;"/>
   </g>
   <g id="patch_42">
    <path clip-path="url(#p20ac29adcd)" d="M 51.475985 115.72 
L 53.519773 115.72 
L 53.519773 111.802377 
L 51.475985 111.802377 
z
" style="fill:#ff7f0e;fill-opacity:0.4;"/>
   </g>
   <g id="patch_43">
    <path clip-path="url(#p20ac29adcd)" d="M 59.651136 115.72 
L 61.694924 115.72 
L 61.694924 109.861173 
L 59.651136 109.861173 
z
" style="fill:#ff7f0e;fill-opacity:0.4;"/>
   </g>
   <g id="patch_44">
    <path clip-path="url(#p20ac29adcd)" d="M 67.826288 115.72 
L 69.870076 115.72 
L 69.870076 107.356536 
L 67.826288 107.356536 
z
" style="fill:#ff7f0e;fill-opacity:0.4;"/>
   </g>
   <g id="patch_45">
    <path clip-path="url(#p20ac29adcd)" d="M 76.001439 115.72 
L 78.045227 115.72 
L 78.045227 101.022313 
L 76.001439 101.022313 
z
" style="fill:#ff7f0e;fill-opacity:0.4;"/>
   </g>
   <g id="patch_46">
    <path clip-path="url(#p20ac29adcd)" d="M 84.176591 115.72 
L 86.220379 115.72 
L 86.220379 89.991344 
L 84.176591 89.991344 
z
" style="fill:#ff7f0e;fill-opacity:0.4;"/>
   </g>
   <g id="patch_47">
    <path clip-path="url(#p20ac29adcd)" d="M 92.351742 115.72 
L 94.39553 115.72 
L 94.39553 84.731165 
L 92.351742 84.731165 
z
" style="fill:#ff7f0e;fill-opacity:0.4;"/>
   </g>
   <g id="patch_48">
    <path clip-path="url(#p20ac29adcd)" d="M 100.526894 115.72 
L 102.570682 115.72 
L 102.570682 73.532927 
L 100.526894 73.532927 
z
" style="fill:#ff7f0e;fill-opacity:0.4;"/>
   </g>
   <g id="patch_49">
    <path clip-path="url(#p20ac29adcd)" d="M 108.702045 115.72 
L 110.745833 115.72 
L 110.745833 58.566729 
L 108.702045 58.566729 
z
" style="fill:#ff7f0e;fill-opacity:0.4;"/>
   </g>
   <g id="patch_50">
    <path clip-path="url(#p20ac29adcd)" d="M 116.877197 115.72 
L 118.920985 115.72 
L 118.920985 52.602259 
L 116.877197 52.602259 
z
" style="fill:#ff7f0e;fill-opacity:0.4;"/>
   </g>
   <g id="patch_51">
    <path clip-path="url(#p20ac29adcd)" d="M 125.052348 115.72 
L 127.096136 115.72 
L 127.096136 45.427287 
L 125.052348 45.427287 
z
" style="fill:#ff7f0e;fill-opacity:0.4;"/>
   </g>
   <g id="patch_52">
    <path clip-path="url(#p20ac29adcd)" d="M 133.2275 115.72 
L 135.271288 115.72 
L 135.271288 64.50919 
L 133.2275 64.50919 
z
" style="fill:#ff7f0e;fill-opacity:0.4;"/>
   </g>
   <g id="patch_53">
    <path clip-path="url(#p20ac29adcd)" d="M 141.402652 115.72 
L 143.446439 115.72 
L 143.446439 66.269919 
L 141.402652 66.269919 
z
" style="fill:#ff7f0e;fill-opacity:0.4;"/>
   </g>
   <g id="patch_54">
    <path clip-path="url(#p20ac29adcd)" d="M 149.577803 115.72 
L 151.621591 115.72 
L 151.621591 71.301203 
L 149.577803 71.301203 
z
" style="fill:#ff7f0e;fill-opacity:0.4;"/>
   </g>
   <g id="patch_55">
    <path clip-path="url(#p20ac29adcd)" d="M 157.752955 115.72 
L 159.796742 115.72 
L 159.796742 78.766695 
L 157.752955 78.766695 
z
" style="fill:#ff7f0e;fill-opacity:0.4;"/>
   </g>
   <g id="patch_56">
    <path clip-path="url(#p20ac29adcd)" d="M 165.928106 115.72 
L 167.971894 115.72 
L 167.971894 80.267717 
L 165.928106 80.267717 
z
" style="fill:#ff7f0e;fill-opacity:0.4;"/>
   </g>
   <g id="patch_57">
    <path clip-path="url(#p20ac29adcd)" d="M 174.103258 115.72 
L 176.147045 115.72 
L 176.147045 86.55352 
L 174.103258 86.55352 
z
" style="fill:#ff7f0e;fill-opacity:0.4;"/>
   </g>
   <g id="patch_58">
    <path clip-path="url(#p20ac29adcd)" d="M 182.278409 115.72 
L 184.322197 115.72 
L 184.322197 88.904094 
L 182.278409 88.904094 
z
" style="fill:#ff7f0e;fill-opacity:0.4;"/>
   </g>
   <g id="patch_59">
    <path clip-path="url(#p20ac29adcd)" d="M 190.453561 115.72 
L 192.497348 115.72 
L 192.497348 88.336259 
L 190.453561 88.336259 
z
" style="fill:#ff7f0e;fill-opacity:0.4;"/>
   </g>
   <g id="patch_60">
    <path clip-path="url(#p20ac29adcd)" d="M 198.628712 115.72 
L 200.6725 115.72 
L 200.6725 98.852214 
L 198.628712 98.852214 
z
" style="fill:#ff7f0e;fill-opacity:0.4;"/>
   </g>
   <g id="patch_61">
    <path clip-path="url(#p20ac29adcd)" d="M 206.803864 115.72 
L 208.847652 115.72 
L 208.847652 97.716544 
L 206.803864 97.716544 
z
" style="fill:#ff7f0e;fill-opacity:0.4;"/>
   </g>
   <g id="patch_62">
    <path clip-path="url(#p20ac29adcd)" d="M 214.979015 115.72 
L 217.022803 115.72 
L 217.022803 105.873122 
L 214.979015 105.873122 
z
" style="fill:#ff7f0e;fill-opacity:0.4;"/>
   </g>
   <g id="patch_63">
    <path clip-path="url(#p20ac29adcd)" d="M 223.154167 115.72 
L 225.197955 115.72 
L 225.197955 105.322894 
L 223.154167 105.322894 
z
" style="fill:#ff7f0e;fill-opacity:0.4;"/>
   </g>
   <g id="patch_64">
    <path clip-path="url(#p20ac29adcd)" d="M 231.329318 115.72 
L 233.373106 115.72 
L 233.373106 108.729905 
L 231.329318 108.729905 
z
" style="fill:#ff7f0e;fill-opacity:0.4;"/>
   </g>
   <g id="patch_65">
    <path clip-path="url(#p20ac29adcd)" d="M 239.50447 115.72 
L 241.548258 115.72 
L 241.548258 110.715127 
L 239.50447 110.715127 
z
" style="fill:#ff7f0e;fill-opacity:0.4;"/>
   </g>
   <g id="patch_66">
    <path clip-path="url(#p20ac29adcd)" d="M 247.679621 115.72 
L 249.723409 115.72 
L 249.723409 109.825959 
L 247.679621 109.825959 
z
" style="fill:#ff7f0e;fill-opacity:0.4;"/>
   </g>
   <g id="patch_67">
    <path clip-path="url(#p20ac29adcd)" d="M 255.854773 115.72 
L 257.898561 115.72 
L 257.898561 113.818412 
L 255.854773 113.818412 
z
" style="fill:#ff7f0e;fill-opacity:0.4;"/>
   </g>
   <g id="patch_68">
    <path clip-path="url(#p20ac29adcd)" d="M 264.029924 115.72 
L 266.073712 115.72 
L 266.073712 114.333426 
L 264.029924 114.333426 
z
" style="fill:#ff7f0e;fill-opacity:0.4;"/>
   </g>
   <g id="patch_69">
    <path clip-path="url(#p20ac29adcd)" d="M 272.205076 115.72 
L 274.248864 115.72 
L 274.248864 114.984896 
L 272.205076 114.984896 
z
" style="fill:#ff7f0e;fill-opacity:0.4;"/>
   </g>
   <g id="patch_70">
    <path clip-path="url(#p20ac29adcd)" d="M 280.380227 115.72 
L 282.424015 115.72 
L 282.424015 115.024512 
L 280.380227 115.024512 
z
" style="fill:#ff7f0e;fill-opacity:0.4;"/>
   </g>
   <g id="patch_71">
    <path clip-path="url(#p20ac29adcd)" d="M 288.555379 115.72 
L 290.599167 115.72 
L 290.599167 114.289407 
L 288.555379 114.289407 
z
" style="fill:#ff7f0e;fill-opacity:0.4;"/>
   </g>
   <g id="patch_72">
    <path clip-path="url(#p20ac29adcd)" d="M 296.73053 115.72 
L 298.774318 115.72 
L 298.774318 109.077649 
L 296.73053 109.077649 
z
" style="fill:#ff7f0e;fill-opacity:0.4;"/>
   </g>
   <g id="patch_73">
    <path clip-path="url(#p20ac29adcd)" d="M 37.578227 115.72 
L 39.622015 115.72 
L 39.622015 115.72 
L 37.578227 115.72 
z
" style="fill:#2ca02c;fill-opacity:0.4;"/>
   </g>
   <g id="patch_74">
    <path clip-path="url(#p20ac29adcd)" d="M 45.753379 115.72 
L 47.797167 115.72 
L 47.797167 114.36864 
L 45.753379 114.36864 
z
" style="fill:#2ca02c;fill-opacity:0.4;"/>
   </g>
   <g id="patch_75">
    <path clip-path="url(#p20ac29adcd)" d="M 53.92853 115.72 
L 55.972318 115.72 
L 55.972318 111.282962 
L 53.92853 111.282962 
z
" style="fill:#2ca02c;fill-opacity:0.4;"/>
   </g>
   <g id="patch_76">
    <path clip-path="url(#p20ac29adcd)" d="M 62.103682 115.72 
L 64.14747 115.72 
L 64.14747 109.038033 
L 62.103682 109.038033 
z
" style="fill:#2ca02c;fill-opacity:0.4;"/>
   </g>
   <g id="patch_77">
    <path clip-path="url(#p20ac29adcd)" d="M 70.278833 115.72 
L 72.322621 115.72 
L 72.322621 105.996373 
L 70.278833 105.996373 
z
" style="fill:#2ca02c;fill-opacity:0.4;"/>
   </g>
   <g id="patch_78">
    <path clip-path="url(#p20ac29adcd)" d="M 78.453985 115.72 
L 80.497773 115.72 
L 80.497773 99.063501 
L 78.453985 99.063501 
z
" style="fill:#2ca02c;fill-opacity:0.4;"/>
   </g>
   <g id="patch_79">
    <path clip-path="url(#p20ac29adcd)" d="M 86.629136 115.72 
L 88.672924 115.72 
L 88.672924 88.543144 
L 86.629136 88.543144 
z
" style="fill:#2ca02c;fill-opacity:0.4;"/>
   </g>
   <g id="patch_80">
    <path clip-path="url(#p20ac29adcd)" d="M 94.804288 115.72 
L 96.848076 115.72 
L 96.848076 81.997633 
L 94.804288 81.997633 
z
" style="fill:#2ca02c;fill-opacity:0.4;"/>
   </g>
   <g id="patch_81">
    <path clip-path="url(#p20ac29adcd)" d="M 102.979439 115.72 
L 105.023227 115.72 
L 105.023227 73.044325 
L 102.979439 73.044325 
z
" style="fill:#2ca02c;fill-opacity:0.4;"/>
   </g>
   <g id="patch_82">
    <path clip-path="url(#p20ac29adcd)" d="M 111.154591 115.72 
L 113.198379 115.72 
L 113.198379 58.201378 
L 111.154591 58.201378 
z
" style="fill:#2ca02c;fill-opacity:0.4;"/>
   </g>
   <g id="patch_83">
    <path clip-path="url(#p20ac29adcd)" d="M 119.329742 115.72 
L 121.37353 115.72 
L 121.37353 50.973584 
L 119.329742 50.973584 
z
" style="fill:#2ca02c;fill-opacity:0.4;"/>
   </g>
   <g id="patch_84">
    <path clip-path="url(#p20ac29adcd)" d="M 127.504894 115.72 
L 129.548682 115.72 
L 129.548682 43.133937 
L 127.504894 43.133937 
z
" style="fill:#2ca02c;fill-opacity:0.4;"/>
   </g>
   <g id="patch_85">
    <path clip-path="url(#p20ac29adcd)" d="M 135.680045 115.72 
L 137.723833 115.72 
L 137.723833 64.095419 
L 135.680045 64.095419 
z
" style="fill:#2ca02c;fill-opacity:0.4;"/>
   </g>
   <g id="patch_86">
    <path clip-path="url(#p20ac29adcd)" d="M 143.855197 115.72 
L 145.898985 115.72 
L 145.898985 66.318339 
L 143.855197 66.318339 
z
" style="fill:#2ca02c;fill-opacity:0.4;"/>
   </g>
   <g id="patch_87">
    <path clip-path="url(#p20ac29adcd)" d="M 152.030348 115.72 
L 154.074136 115.72 
L 154.074136 69.94104 
L 152.030348 69.94104 
z
" style="fill:#2ca02c;fill-opacity:0.4;"/>
   </g>
   <g id="patch_88">
    <path clip-path="url(#p20ac29adcd)" d="M 160.2055 115.72 
L 162.249288 115.72 
L 162.249288 81.086456 
L 160.2055 81.086456 
z
" style="fill:#2ca02c;fill-opacity:0.4;"/>
   </g>
   <g id="patch_89">
    <path clip-path="url(#p20ac29adcd)" d="M 168.380652 115.72 
L 170.424439 115.72 
L 170.424439 100.229985 
L 168.380652 100.229985 
z
" style="fill:#2ca02c;fill-opacity:0.4;"/>
   </g>
   <g id="patch_90">
    <path clip-path="url(#p20ac29adcd)" d="M 299.183076 115.72 
L 301.226864 115.72 
L 301.226864 115.72 
L 299.183076 115.72 
z
" style="fill:#2ca02c;fill-opacity:0.4;"/>
   </g>
   <g id="matplotlib.axis_3">
    <g id="ytick_7">
     <g id="line2d_43">
      <defs>
       <path d="M 0 0 
L 3.5 0 
" id="mae507bfe7e" style="stroke:#000000;stroke-width:0.8;"/>
      </defs>
      <g>
       <use style="stroke:#000000;stroke-width:0.8;" x="301.84" xlink:href="#mae507bfe7e" y="115.72"/>
      </g>
     </g>
     <g id="text_26">
      <!-- 0 -->
      <g transform="translate(308.84 117.619609)scale(0.05 -0.05)">
       <use xlink:href="#DejaVuSans-30"/>
      </g>
     </g>
    </g>
    <g id="ytick_8">
     <g id="line2d_44">
      <g>
       <use style="stroke:#000000;stroke-width:0.8;" x="301.84" xlink:href="#mae507bfe7e" y="93.710885"/>
      </g>
     </g>
     <g id="text_27">
      <!-- 5000 -->
      <g transform="translate(308.84 95.610494)scale(0.05 -0.05)">
       <use xlink:href="#DejaVuSans-35"/>
       <use x="63.623047" xlink:href="#DejaVuSans-30"/>
       <use x="127.246094" xlink:href="#DejaVuSans-30"/>
       <use x="190.869141" xlink:href="#DejaVuSans-30"/>
      </g>
     </g>
    </g>
    <g id="ytick_9">
     <g id="line2d_45">
      <g>
       <use style="stroke:#000000;stroke-width:0.8;" x="301.84" xlink:href="#mae507bfe7e" y="71.701769"/>
      </g>
     </g>
     <g id="text_28">
      <!-- 10000 -->
      <g transform="translate(308.84 73.601378)scale(0.05 -0.05)">
       <use xlink:href="#DejaVuSans-31"/>
       <use x="63.623047" xlink:href="#DejaVuSans-30"/>
       <use x="127.246094" xlink:href="#DejaVuSans-30"/>
       <use x="190.869141" xlink:href="#DejaVuSans-30"/>
       <use x="254.492188" xlink:href="#DejaVuSans-30"/>
      </g>
     </g>
    </g>
    <g id="ytick_10">
     <g id="line2d_46">
      <g>
       <use style="stroke:#000000;stroke-width:0.8;" x="301.84" xlink:href="#mae507bfe7e" y="49.692654"/>
      </g>
     </g>
     <g id="text_29">
      <!-- 15000 -->
      <g transform="translate(308.84 51.592263)scale(0.05 -0.05)">
       <use xlink:href="#DejaVuSans-31"/>
       <use x="63.623047" xlink:href="#DejaVuSans-35"/>
       <use x="127.246094" xlink:href="#DejaVuSans-30"/>
       <use x="190.869141" xlink:href="#DejaVuSans-30"/>
       <use x="254.492188" xlink:href="#DejaVuSans-30"/>
      </g>
     </g>
    </g>
    <g id="ytick_11">
     <g id="line2d_47">
      <g>
       <use style="stroke:#000000;stroke-width:0.8;" x="301.84" xlink:href="#mae507bfe7e" y="27.683538"/>
      </g>
     </g>
     <g id="text_30">
      <!-- 20000 -->
      <g transform="translate(308.84 29.583147)scale(0.05 -0.05)">
       <use xlink:href="#DejaVuSans-32"/>
       <use x="63.623047" xlink:href="#DejaVuSans-30"/>
       <use x="127.246094" xlink:href="#DejaVuSans-30"/>
       <use x="190.869141" xlink:href="#DejaVuSans-30"/>
       <use x="254.492188" xlink:href="#DejaVuSans-30"/>
      </g>
     </g>
    </g>
    <g id="text_31">
     <!-- Number of examples -->
     <defs>
      <path d="M 9.8125 72.90625 
L 23.09375 72.90625 
L 55.421875 11.921875 
L 55.421875 72.90625 
L 64.984375 72.90625 
L 64.984375 0 
L 51.703125 0 
L 19.390625 60.984375 
L 19.390625 0 
L 9.8125 0 
z
" id="DejaVuSans-4e"/>
      <path d="M 52 44.1875 
Q 55.375 50.25 60.0625 53.125 
Q 64.75 56 71.09375 56 
Q 79.640625 56 84.28125 50.015625 
Q 88.921875 44.046875 88.921875 33.015625 
L 88.921875 0 
L 79.890625 0 
L 79.890625 32.71875 
Q 79.890625 40.578125 77.09375 44.375 
Q 74.3125 48.1875 68.609375 48.1875 
Q 61.625 48.1875 57.5625 43.546875 
Q 53.515625 38.921875 53.515625 30.90625 
L 53.515625 0 
L 44.484375 0 
L 44.484375 32.71875 
Q 44.484375 40.625 41.703125 44.40625 
Q 38.921875 48.1875 33.109375 48.1875 
Q 26.21875 48.1875 22.15625 43.53125 
Q 18.109375 38.875 18.109375 30.90625 
L 18.109375 0 
L 9.078125 0 
L 9.078125 54.6875 
L 18.109375 54.6875 
L 18.109375 46.1875 
Q 21.1875 51.21875 25.484375 53.609375 
Q 29.78125 56 35.6875 56 
Q 41.65625 56 45.828125 52.96875 
Q 50 49.953125 52 44.1875 
z
" id="DejaVuSans-6d"/>
      <path d="M 48.6875 27.296875 
Q 48.6875 37.203125 44.609375 42.84375 
Q 40.53125 48.484375 33.40625 48.484375 
Q 26.265625 48.484375 22.1875 42.84375 
Q 18.109375 37.203125 18.109375 27.296875 
Q 18.109375 17.390625 22.1875 11.75 
Q 26.265625 6.109375 33.40625 6.109375 
Q 40.53125 6.109375 44.609375 11.75 
Q 48.6875 17.390625 48.6875 27.296875 
z
M 18.109375 46.390625 
Q 20.953125 51.265625 25.265625 53.625 
Q 29.59375 56 35.59375 56 
Q 45.5625 56 51.78125 48.09375 
Q 58.015625 40.1875 58.015625 27.296875 
Q 58.015625 14.40625 51.78125 6.484375 
Q 45.5625 -1.421875 35.59375 -1.421875 
Q 29.59375 -1.421875 25.265625 0.953125 
Q 20.953125 3.328125 18.109375 8.203125 
L 18.109375 0 
L 9.078125 0 
L 9.078125 75.984375 
L 18.109375 75.984375 
z
" id="DejaVuSans-62"/>
      <path d="M 37.109375 75.984375 
L 37.109375 68.5 
L 28.515625 68.5 
Q 23.6875 68.5 21.796875 66.546875 
Q 19.921875 64.59375 19.921875 59.515625 
L 19.921875 54.6875 
L 34.71875 54.6875 
L 34.71875 47.703125 
L 19.921875 47.703125 
L 19.921875 0 
L 10.890625 0 
L 10.890625 47.703125 
L 2.296875 47.703125 
L 2.296875 54.6875 
L 10.890625 54.6875 
L 10.890625 58.5 
Q 10.890625 67.625 15.140625 71.796875 
Q 19.390625 75.984375 28.609375 75.984375 
z
" id="DejaVuSans-66"/>
      <path d="M 54.890625 54.6875 
L 35.109375 28.078125 
L 55.90625 0 
L 45.3125 0 
L 29.390625 21.484375 
L 13.484375 0 
L 2.875 0 
L 24.125 28.609375 
L 4.6875 54.6875 
L 15.28125 54.6875 
L 29.78125 35.203125 
L 44.28125 54.6875 
z
" id="DejaVuSans-78"/>
      <path d="M 18.109375 8.203125 
L 18.109375 -20.796875 
L 9.078125 -20.796875 
L 9.078125 54.6875 
L 18.109375 54.6875 
L 18.109375 46.390625 
Q 20.953125 51.265625 25.265625 53.625 
Q 29.59375 56 35.59375 56 
Q 45.5625 56 51.78125 48.09375 
Q 58.015625 40.1875 58.015625 27.296875 
Q 58.015625 14.40625 51.78125 6.484375 
Q 45.5625 -1.421875 35.59375 -1.421875 
Q 29.59375 -1.421875 25.265625 0.953125 
Q 20.953125 3.328125 18.109375 8.203125 
z
M 48.6875 27.296875 
Q 48.6875 37.203125 44.609375 42.84375 
Q 40.53125 48.484375 33.40625 48.484375 
Q 26.265625 48.484375 22.1875 42.84375 
Q 18.109375 37.203125 18.109375 27.296875 
Q 18.109375 17.390625 22.1875 11.75 
Q 26.265625 6.109375 33.40625 6.109375 
Q 40.53125 6.109375 44.609375 11.75 
Q 48.6875 17.390625 48.6875 27.296875 
z
" id="DejaVuSans-70"/>
     </defs>
     <g transform="translate(333.305313 93.738594)rotate(-90)scale(0.06 -0.06)">
      <use xlink:href="#DejaVuSans-4e"/>
      <use x="74.804688" xlink:href="#DejaVuSans-75"/>
      <use x="138.183594" xlink:href="#DejaVuSans-6d"/>
      <use x="235.595703" xlink:href="#DejaVuSans-62"/>
      <use x="299.072266" xlink:href="#DejaVuSans-65"/>
      <use x="360.595703" xlink:href="#DejaVuSans-72"/>
      <use x="401.708984" xlink:href="#DejaVuSans-20"/>
      <use x="433.496094" xlink:href="#DejaVuSans-6f"/>
      <use x="494.677734" xlink:href="#DejaVuSans-66"/>
      <use x="529.882812" xlink:href="#DejaVuSans-20"/>
      <use x="561.669922" xlink:href="#DejaVuSans-65"/>
      <use x="623.177734" xlink:href="#DejaVuSans-78"/>
      <use x="682.357422" xlink:href="#DejaVuSans-61"/>
      <use x="743.636719" xlink:href="#DejaVuSans-6d"/>
      <use x="841.048828" xlink:href="#DejaVuSans-70"/>
      <use x="904.525391" xlink:href="#DejaVuSans-6c"/>
      <use x="932.308594" xlink:href="#DejaVuSans-65"/>
      <use x="993.832031" xlink:href="#DejaVuSans-73"/>
     </g>
    </g>
   </g>
   <g id="patch_91">
    <path d="M 32.06 115.72 
L 32.06 9 
" style="fill:none;stroke:#000000;stroke-linecap:square;stroke-linejoin:miter;stroke-width:0.8;"/>
   </g>
   <g id="patch_92">
    <path d="M 301.84 115.72 
L 301.84 9 
" style="fill:none;stroke:#000000;stroke-linecap:square;stroke-linejoin:miter;stroke-width:0.8;"/>
   </g>
   <g id="patch_93">
    <path d="M 32.06 115.72 
L 301.84 115.72 
" style="fill:none;stroke:#000000;stroke-linecap:square;stroke-linejoin:miter;stroke-width:0.8;"/>
   </g>
   <g id="patch_94">
    <path d="M 32.06 9 
L 301.84 9 
" style="fill:none;stroke:#000000;stroke-linecap:square;stroke-linejoin:miter;stroke-width:0.8;"/>
   </g>
   <g id="legend_1">
    <g id="patch_95">
     <path d="M 199.48 40.26 
L 297.64 40.26 
Q 298.84 40.26 298.84 39.06 
L 298.84 13.2 
Q 298.84 12 297.64 12 
L 199.48 12 
Q 198.28 12 198.28 13.2 
L 198.28 39.06 
Q 198.28 40.26 199.48 40.26 
z
" style="fill:#ffffff;opacity:0.8;stroke:#cccccc;stroke-linejoin:miter;"/>
    </g>
    <g id="line2d_48">
     <path d="M 200.68 16.86 
L 212.68 16.86 
" style="fill:none;stroke:#1f77b4;stroke-linecap:square;stroke-width:0.75;"/>
    </g>
    <g id="line2d_49">
     <g>
      <use style="fill:#1f77b4;stroke:#1f77b4;" x="206.68" xlink:href="#m847789b071" y="16.86"/>
     </g>
    </g>
    <g id="text_32">
     <!-- Stacking on $\it{CMB}$ dataset -->
     <defs>
      <path d="M 53.515625 70.515625 
L 53.515625 60.890625 
Q 47.90625 63.578125 42.921875 64.890625 
Q 37.9375 66.21875 33.296875 66.21875 
Q 25.25 66.21875 20.875 63.09375 
Q 16.5 59.96875 16.5 54.203125 
Q 16.5 49.359375 19.40625 46.890625 
Q 22.3125 44.4375 30.421875 42.921875 
L 36.375 41.703125 
Q 47.40625 39.59375 52.65625 34.296875 
Q 57.90625 29 57.90625 20.125 
Q 57.90625 9.515625 50.796875 4.046875 
Q 43.703125 -1.421875 29.984375 -1.421875 
Q 24.8125 -1.421875 18.96875 -0.25 
Q 13.140625 0.921875 6.890625 3.21875 
L 6.890625 13.375 
Q 12.890625 10.015625 18.65625 8.296875 
Q 24.421875 6.59375 29.984375 6.59375 
Q 38.421875 6.59375 43.015625 9.90625 
Q 47.609375 13.234375 47.609375 19.390625 
Q 47.609375 24.75 44.3125 27.78125 
Q 41.015625 30.8125 33.5 32.328125 
L 27.484375 33.5 
Q 16.453125 35.6875 11.515625 40.375 
Q 6.59375 45.0625 6.59375 53.421875 
Q 6.59375 63.09375 13.40625 68.65625 
Q 20.21875 74.21875 32.171875 74.21875 
Q 37.3125 74.21875 42.625 73.28125 
Q 47.953125 72.359375 53.515625 70.515625 
z
" id="DejaVuSans-53"/>
      <path d="M 9.078125 75.984375 
L 18.109375 75.984375 
L 18.109375 31.109375 
L 44.921875 54.6875 
L 56.390625 54.6875 
L 27.390625 29.109375 
L 57.625 0 
L 45.90625 0 
L 18.109375 26.703125 
L 18.109375 0 
L 9.078125 0 
z
" id="DejaVuSans-6b"/>
      <path d="M 45.40625 27.984375 
Q 45.40625 37.75 41.375 43.109375 
Q 37.359375 48.484375 30.078125 48.484375 
Q 22.859375 48.484375 18.828125 43.109375 
Q 14.796875 37.75 14.796875 27.984375 
Q 14.796875 18.265625 18.828125 12.890625 
Q 22.859375 7.515625 30.078125 7.515625 
Q 37.359375 7.515625 41.375 12.890625 
Q 45.40625 18.265625 45.40625 27.984375 
z
M 54.390625 6.78125 
Q 54.390625 -7.171875 48.1875 -13.984375 
Q 42 -20.796875 29.203125 -20.796875 
Q 24.46875 -20.796875 20.265625 -20.09375 
Q 16.0625 -19.390625 12.109375 -17.921875 
L 12.109375 -9.1875 
Q 16.0625 -11.328125 19.921875 -12.34375 
Q 23.78125 -13.375 27.78125 -13.375 
Q 36.625 -13.375 41.015625 -8.765625 
Q 45.40625 -4.15625 45.40625 5.171875 
L 45.40625 9.625 
Q 42.625 4.78125 38.28125 2.390625 
Q 33.9375 0 27.875 0 
Q 17.828125 0 11.671875 7.65625 
Q 5.515625 15.328125 5.515625 27.984375 
Q 5.515625 40.671875 11.671875 48.328125 
Q 17.828125 56 27.875 56 
Q 33.9375 56 38.28125 53.609375 
Q 42.625 51.21875 45.40625 46.390625 
L 45.40625 54.6875 
L 54.390625 54.6875 
z
" id="DejaVuSans-67"/>
      <path d="M 69.484375 67.28125 
L 67.484375 56.890625 
Q 62.796875 61.625 57.546875 63.921875 
Q 52.296875 66.21875 46.1875 66.21875 
Q 37.84375 66.21875 31.515625 62.203125 
Q 25.203125 58.203125 20.609375 50 
Q 17.671875 44.734375 16.125 38.84375 
Q 14.59375 32.953125 14.59375 27 
Q 14.59375 17.046875 19.75 11.8125 
Q 24.90625 6.59375 34.71875 6.59375 
Q 41.5 6.59375 47.75 8.765625 
Q 54 10.9375 59.90625 15.28125 
L 57.625 3.609375 
Q 51.8125 1.125 45.875 -0.140625 
Q 39.9375 -1.421875 33.984375 -1.421875 
Q 19.96875 -1.421875 12.078125 6.1875 
Q 4.203125 13.8125 4.203125 27.390625 
Q 4.203125 36.078125 7.203125 44.46875 
Q 10.203125 52.875 15.828125 59.8125 
Q 21.78125 67.1875 29.421875 70.703125 
Q 37.0625 74.21875 47.21875 74.21875 
Q 53.46875 74.21875 59.0625 72.484375 
Q 64.65625 70.75 69.484375 67.28125 
z
" id="DejaVuSans-Oblique-43"/>
      <path d="M 16.890625 72.90625 
L 31.6875 72.90625 
L 40.1875 23.78125 
L 68.40625 72.90625 
L 83.59375 72.90625 
L 69.390625 0 
L 59.8125 0 
L 72.21875 63.921875 
L 43.609375 14.015625 
L 33.984375 14.015625 
L 24.703125 64.109375 
L 12.3125 0 
L 2.6875 0 
z
" id="DejaVuSans-Oblique-4d"/>
      <path d="M 16.890625 72.90625 
L 42.09375 72.90625 
Q 52.34375 72.90625 57.421875 69.09375 
Q 62.5 65.28125 62.5 57.625 
Q 62.5 50.59375 58.125 45.484375 
Q 53.765625 40.375 46.6875 39.3125 
Q 52.734375 37.9375 55.765625 34.078125 
Q 58.796875 30.21875 58.796875 23.78125 
Q 58.796875 12.796875 50.65625 6.390625 
Q 42.53125 0 28.421875 0 
L 2.6875 0 
z
M 19.28125 34.8125 
L 14.109375 8.109375 
L 29.984375 8.109375 
Q 38.921875 8.109375 43.75 12.203125 
Q 48.578125 16.3125 48.578125 23.78125 
Q 48.578125 29.546875 45.375 32.171875 
Q 42.1875 34.8125 35.109375 34.8125 
z
M 25.09375 64.796875 
L 20.796875 42.828125 
L 35.5 42.828125 
Q 43.359375 42.828125 47.78125 46.234375 
Q 52.203125 49.65625 52.203125 55.71875 
Q 52.203125 60.453125 49.21875 62.625 
Q 46.234375 64.796875 39.703125 64.796875 
z
" id="DejaVuSans-Oblique-42"/>
      <path d="M 45.40625 46.390625 
L 45.40625 75.984375 
L 54.390625 75.984375 
L 54.390625 0 
L 45.40625 0 
L 45.40625 8.203125 
Q 42.578125 3.328125 38.25 0.953125 
Q 33.9375 -1.421875 27.875 -1.421875 
Q 17.96875 -1.421875 11.734375 6.484375 
Q 5.515625 14.40625 5.515625 27.296875 
Q 5.515625 40.1875 11.734375 48.09375 
Q 17.96875 56 27.875 56 
Q 33.9375 56 38.25 53.625 
Q 42.578125 51.265625 45.40625 46.390625 
z
M 14.796875 27.296875 
Q 14.796875 17.390625 18.875 11.75 
Q 22.953125 6.109375 30.078125 6.109375 
Q 37.203125 6.109375 41.296875 11.75 
Q 45.40625 17.390625 45.40625 27.296875 
Q 45.40625 37.203125 41.296875 42.84375 
Q 37.203125 48.484375 30.078125 48.484375 
Q 22.953125 48.484375 18.875 42.84375 
Q 14.796875 37.203125 14.796875 27.296875 
z
" id="DejaVuSans-64"/>
     </defs>
     <g transform="translate(217.48 18.96)scale(0.06 -0.06)">
      <use transform="translate(0 0.015625)" xlink:href="#DejaVuSans-53"/>
      <use transform="translate(63.476562 0.015625)" xlink:href="#DejaVuSans-74"/>
      <use transform="translate(102.685547 0.015625)" xlink:href="#DejaVuSans-61"/>
      <use transform="translate(163.964844 0.015625)" xlink:href="#DejaVuSans-63"/>
      <use transform="translate(218.945312 0.015625)" xlink:href="#DejaVuSans-6b"/>
      <use transform="translate(276.855469 0.015625)" xlink:href="#DejaVuSans-69"/>
      <use transform="translate(304.638672 0.015625)" xlink:href="#DejaVuSans-6e"/>
      <use transform="translate(368.017578 0.015625)" xlink:href="#DejaVuSans-67"/>
      <use transform="translate(431.494141 0.015625)" xlink:href="#DejaVuSans-20"/>
      <use transform="translate(463.28125 0.015625)" xlink:href="#DejaVuSans-6f"/>
      <use transform="translate(524.462891 0.015625)" xlink:href="#DejaVuSans-6e"/>
      <use transform="translate(587.841797 0.015625)" xlink:href="#DejaVuSans-20"/>
      <use transform="translate(619.628906 0.015625)" xlink:href="#DejaVuSans-Oblique-43"/>
      <use transform="translate(689.453125 0.015625)" xlink:href="#DejaVuSans-Oblique-4d"/>
      <use transform="translate(775.732422 0.015625)" xlink:href="#DejaVuSans-Oblique-42"/>
      <use transform="translate(844.335938 0.015625)" xlink:href="#DejaVuSans-20"/>
      <use transform="translate(876.123047 0.015625)" xlink:href="#DejaVuSans-64"/>
      <use transform="translate(939.599609 0.015625)" xlink:href="#DejaVuSans-61"/>
      <use transform="translate(1000.878906 0.015625)" xlink:href="#DejaVuSans-74"/>
      <use transform="translate(1040.087891 0.015625)" xlink:href="#DejaVuSans-61"/>
      <use transform="translate(1101.367188 0.015625)" xlink:href="#DejaVuSans-73"/>
      <use transform="translate(1153.466797 0.015625)" xlink:href="#DejaVuSans-65"/>
      <use transform="translate(1214.990234 0.015625)" xlink:href="#DejaVuSans-74"/>
     </g>
    </g>
    <g id="line2d_50">
     <path d="M 200.68 25.68 
L 212.68 25.68 
" style="fill:none;stroke:#ff7f0e;stroke-linecap:square;stroke-width:0.75;"/>
    </g>
    <g id="line2d_51">
     <g>
      <use style="fill:#ff7f0e;stroke:#ff7f0e;stroke-linejoin:miter;" x="206.68" xlink:href="#m03d9bd02c6" y="25.68"/>
     </g>
    </g>
    <g id="text_33">
     <!-- Stacking on $\it{TAMC}$ dataset -->
     <defs>
      <path d="M 5.90625 72.90625 
L 67.578125 72.90625 
L 66.015625 64.59375 
L 39.984375 64.59375 
L 27.484375 0 
L 17.578125 0 
L 30.078125 64.59375 
L 4.296875 64.59375 
z
" id="DejaVuSans-Oblique-54"/>
      <path d="M 36.8125 72.90625 
L 48 72.90625 
L 61.53125 0 
L 51.21875 0 
L 48.1875 18.703125 
L 15.375 18.703125 
L 5.078125 0 
L -5.328125 0 
z
M 40.375 63.1875 
L 19.921875 26.90625 
L 46.6875 26.90625 
z
" id="DejaVuSans-Oblique-41"/>
     </defs>
     <g transform="translate(217.48 27.78)scale(0.06 -0.06)">
      <use transform="translate(0 0.015625)" xlink:href="#DejaVuSans-53"/>
      <use transform="translate(63.476562 0.015625)" xlink:href="#DejaVuSans-74"/>
      <use transform="translate(102.685547 0.015625)" xlink:href="#DejaVuSans-61"/>
      <use transform="translate(163.964844 0.015625)" xlink:href="#DejaVuSans-63"/>
      <use transform="translate(218.945312 0.015625)" xlink:href="#DejaVuSans-6b"/>
      <use transform="translate(276.855469 0.015625)" xlink:href="#DejaVuSans-69"/>
      <use transform="translate(304.638672 0.015625)" xlink:href="#DejaVuSans-6e"/>
      <use transform="translate(368.017578 0.015625)" xlink:href="#DejaVuSans-67"/>
      <use transform="translate(431.494141 0.015625)" xlink:href="#DejaVuSans-20"/>
      <use transform="translate(463.28125 0.015625)" xlink:href="#DejaVuSans-6f"/>
      <use transform="translate(524.462891 0.015625)" xlink:href="#DejaVuSans-6e"/>
      <use transform="translate(587.841797 0.015625)" xlink:href="#DejaVuSans-20"/>
      <use transform="translate(619.628906 0.015625)" xlink:href="#DejaVuSans-Oblique-54"/>
      <use transform="translate(680.712891 0.015625)" xlink:href="#DejaVuSans-Oblique-41"/>
      <use transform="translate(749.121094 0.015625)" xlink:href="#DejaVuSans-Oblique-4d"/>
      <use transform="translate(835.400391 0.015625)" xlink:href="#DejaVuSans-Oblique-43"/>
      <use transform="translate(905.224609 0.015625)" xlink:href="#DejaVuSans-20"/>
      <use transform="translate(937.011719 0.015625)" xlink:href="#DejaVuSans-64"/>
      <use transform="translate(1000.488281 0.015625)" xlink:href="#DejaVuSans-61"/>
      <use transform="translate(1061.767578 0.015625)" xlink:href="#DejaVuSans-74"/>
      <use transform="translate(1100.976562 0.015625)" xlink:href="#DejaVuSans-61"/>
      <use transform="translate(1162.255859 0.015625)" xlink:href="#DejaVuSans-73"/>
      <use transform="translate(1214.355469 0.015625)" xlink:href="#DejaVuSans-65"/>
      <use transform="translate(1275.878906 0.015625)" xlink:href="#DejaVuSans-74"/>
     </g>
    </g>
    <g id="line2d_52">
     <path d="M 200.68 34.5 
L 212.68 34.5 
" style="fill:none;stroke:#2ca02c;stroke-linecap:square;stroke-width:0.75;"/>
    </g>
    <g id="line2d_53">
     <g>
      <use style="fill:#2ca02c;stroke:#2ca02c;stroke-linejoin:miter;" x="206.68" xlink:href="#me30819ac8d" y="34.5"/>
     </g>
    </g>
    <g id="text_34">
     <!-- Stacking on $\it{CL}$ dataset -->
     <defs>
      <path d="M 16.796875 72.90625 
L 26.703125 72.90625 
L 14.203125 8.203125 
L 49.703125 8.203125 
L 48.09375 0 
L 2.6875 0 
z
" id="DejaVuSans-Oblique-4c"/>
     </defs>
     <g transform="translate(217.48 36.6)scale(0.06 -0.06)">
      <use transform="translate(0 0.015625)" xlink:href="#DejaVuSans-53"/>
      <use transform="translate(63.476562 0.015625)" xlink:href="#DejaVuSans-74"/>
      <use transform="translate(102.685547 0.015625)" xlink:href="#DejaVuSans-61"/>
      <use transform="translate(163.964844 0.015625)" xlink:href="#DejaVuSans-63"/>
      <use transform="translate(218.945312 0.015625)" xlink:href="#DejaVuSans-6b"/>
      <use transform="translate(276.855469 0.015625)" xlink:href="#DejaVuSans-69"/>
      <use transform="translate(304.638672 0.015625)" xlink:href="#DejaVuSans-6e"/>
      <use transform="translate(368.017578 0.015625)" xlink:href="#DejaVuSans-67"/>
      <use transform="translate(431.494141 0.015625)" xlink:href="#DejaVuSans-20"/>
      <use transform="translate(463.28125 0.015625)" xlink:href="#DejaVuSans-6f"/>
      <use transform="translate(524.462891 0.015625)" xlink:href="#DejaVuSans-6e"/>
      <use transform="translate(587.841797 0.015625)" xlink:href="#DejaVuSans-20"/>
      <use transform="translate(619.628906 0.015625)" xlink:href="#DejaVuSans-Oblique-43"/>
      <use transform="translate(689.453125 0.015625)" xlink:href="#DejaVuSans-Oblique-4c"/>
      <use transform="translate(745.166016 0.015625)" xlink:href="#DejaVuSans-20"/>
      <use transform="translate(776.953125 0.015625)" xlink:href="#DejaVuSans-64"/>
      <use transform="translate(840.429688 0.015625)" xlink:href="#DejaVuSans-61"/>
      <use transform="translate(901.708984 0.015625)" xlink:href="#DejaVuSans-74"/>
      <use transform="translate(940.917969 0.015625)" xlink:href="#DejaVuSans-61"/>
      <use transform="translate(1002.197266 0.015625)" xlink:href="#DejaVuSans-73"/>
      <use transform="translate(1054.296875 0.015625)" xlink:href="#DejaVuSans-65"/>
      <use transform="translate(1115.820312 0.015625)" xlink:href="#DejaVuSans-74"/>
     </g>
    </g>
   </g>
  </g>
 </g>
 <defs>
  <clipPath id="p20ac29adcd">
   <rect height="106.72" width="269.78" x="32.06" y="9"/>
  </clipPath>
 </defs>
</svg>
