<?xml version="1.0" encoding="utf-8" standalone="no"?>
<!DOCTYPE svg PUBLIC "-//W3C//DTD SVG 1.1//EN"
  "http://www.w3.org/Graphics/SVG/1.1/DTD/svg11.dtd">
<!-- Created with matplotlib (http://matplotlib.org/) -->
<svg height="432pt" version="1.1" viewBox="0 0 1152 432" width="1152pt" xmlns="http://www.w3.org/2000/svg" xmlns:xlink="http://www.w3.org/1999/xlink">
 <defs>
  <style type="text/css">
*{stroke-linecap:butt;stroke-linejoin:round;}
  </style>
 </defs>
 <g id="figure_1">
  <g id="patch_1">
   <path d="M 0 432 
L 1152 432 
L 1152 0 
L 0 0 
z
" style="fill:#ffffff;"/>
  </g>
  <g id="axes_1">
   <g id="patch_2">
    <path d="M 47.72 390.04 
L 1088.53 390.04 
L 1088.53 14.76 
L 47.72 14.76 
z
" style="fill:#ffffff;"/>
   </g>
   <g id="matplotlib.axis_1">
    <g id="xtick_1">
     <g id="line2d_1">
      <defs>
       <path d="M 0 0 
L 0 3.5 
" id="mfa987b1311" style="stroke:#000000;stroke-width:0.8;"/>
      </defs>
      <g>
       <use style="stroke:#000000;stroke-width:0.8;" x="63.489848" xlink:href="#mfa987b1311" y="390.04"/>
      </g>
     </g>
     <g id="text_1">
      <!-- &lt; 1.0 -->
      <defs>
       <path d="M 73.1875 49.21875 
L 22.796875 31.296875 
L 73.1875 13.484375 
L 73.1875 4.59375 
L 10.59375 27.296875 
L 10.59375 35.40625 
L 73.1875 58.109375 
z
" id="DejaVuSans-3c"/>
       <path id="DejaVuSans-20"/>
       <path d="M 12.40625 8.296875 
L 28.515625 8.296875 
L 28.515625 63.921875 
L 10.984375 60.40625 
L 10.984375 69.390625 
L 28.421875 72.90625 
L 38.28125 72.90625 
L 38.28125 8.296875 
L 54.390625 8.296875 
L 54.390625 0 
L 12.40625 0 
z
" id="DejaVuSans-31"/>
       <path d="M 10.6875 12.40625 
L 21 12.40625 
L 21 0 
L 10.6875 0 
z
" id="DejaVuSans-2e"/>
       <path d="M 31.78125 66.40625 
Q 24.171875 66.40625 20.328125 58.90625 
Q 16.5 51.421875 16.5 36.375 
Q 16.5 21.390625 20.328125 13.890625 
Q 24.171875 6.390625 31.78125 6.390625 
Q 39.453125 6.390625 43.28125 13.890625 
Q 47.125 21.390625 47.125 36.375 
Q 47.125 51.421875 43.28125 58.90625 
Q 39.453125 66.40625 31.78125 66.40625 
z
M 31.78125 74.21875 
Q 44.046875 74.21875 50.515625 64.515625 
Q 56.984375 54.828125 56.984375 36.375 
Q 56.984375 17.96875 50.515625 8.265625 
Q 44.046875 -1.421875 31.78125 -1.421875 
Q 19.53125 -1.421875 13.0625 8.265625 
Q 6.59375 17.96875 6.59375 36.375 
Q 6.59375 54.828125 13.0625 64.515625 
Q 19.53125 74.21875 31.78125 74.21875 
z
" id="DejaVuSans-30"/>
      </defs>
      <g transform="translate(49.75938 404.638438)scale(0.1 -0.1)">
       <use xlink:href="#DejaVuSans-3c"/>
       <use x="83.789062" xlink:href="#DejaVuSans-20"/>
       <use x="115.576172" xlink:href="#DejaVuSans-31"/>
       <use x="179.199219" xlink:href="#DejaVuSans-2e"/>
       <use x="210.986328" xlink:href="#DejaVuSans-30"/>
      </g>
     </g>
    </g>
    <g id="xtick_2">
     <g id="line2d_2">
      <g>
       <use style="stroke:#000000;stroke-width:0.8;" x="95.029545" xlink:href="#mfa987b1311" y="390.04"/>
      </g>
     </g>
     <g id="text_2">
      <!-- 1.0 -->
      <g transform="translate(87.077983 404.638438)scale(0.1 -0.1)">
       <use xlink:href="#DejaVuSans-31"/>
       <use x="63.623047" xlink:href="#DejaVuSans-2e"/>
       <use x="95.410156" xlink:href="#DejaVuSans-30"/>
      </g>
     </g>
    </g>
    <g id="xtick_3">
     <g id="line2d_3">
      <g>
       <use style="stroke:#000000;stroke-width:0.8;" x="126.569242" xlink:href="#mfa987b1311" y="390.04"/>
      </g>
     </g>
     <g id="text_3">
      <!-- 1.1 -->
      <g transform="translate(118.61768 404.638438)scale(0.1 -0.1)">
       <use xlink:href="#DejaVuSans-31"/>
       <use x="63.623047" xlink:href="#DejaVuSans-2e"/>
       <use x="95.410156" xlink:href="#DejaVuSans-31"/>
      </g>
     </g>
    </g>
    <g id="xtick_4">
     <g id="line2d_4">
      <g>
       <use style="stroke:#000000;stroke-width:0.8;" x="158.108939" xlink:href="#mfa987b1311" y="390.04"/>
      </g>
     </g>
     <g id="text_4">
      <!-- 1.2 -->
      <defs>
       <path d="M 19.1875 8.296875 
L 53.609375 8.296875 
L 53.609375 0 
L 7.328125 0 
L 7.328125 8.296875 
Q 12.9375 14.109375 22.625 23.890625 
Q 32.328125 33.6875 34.8125 36.53125 
Q 39.546875 41.84375 41.421875 45.53125 
Q 43.3125 49.21875 43.3125 52.78125 
Q 43.3125 58.59375 39.234375 62.25 
Q 35.15625 65.921875 28.609375 65.921875 
Q 23.96875 65.921875 18.8125 64.3125 
Q 13.671875 62.703125 7.8125 59.421875 
L 7.8125 69.390625 
Q 13.765625 71.78125 18.9375 73 
Q 24.125 74.21875 28.421875 74.21875 
Q 39.75 74.21875 46.484375 68.546875 
Q 53.21875 62.890625 53.21875 53.421875 
Q 53.21875 48.921875 51.53125 44.890625 
Q 49.859375 40.875 45.40625 35.40625 
Q 44.1875 33.984375 37.640625 27.21875 
Q 31.109375 20.453125 19.1875 8.296875 
z
" id="DejaVuSans-32"/>
      </defs>
      <g transform="translate(150.157377 404.638438)scale(0.1 -0.1)">
       <use xlink:href="#DejaVuSans-31"/>
       <use x="63.623047" xlink:href="#DejaVuSans-2e"/>
       <use x="95.410156" xlink:href="#DejaVuSans-32"/>
      </g>
     </g>
    </g>
    <g id="xtick_5">
     <g id="line2d_5">
      <g>
       <use style="stroke:#000000;stroke-width:0.8;" x="189.648636" xlink:href="#mfa987b1311" y="390.04"/>
      </g>
     </g>
     <g id="text_5">
      <!-- 1.3 -->
      <defs>
       <path d="M 40.578125 39.3125 
Q 47.65625 37.796875 51.625 33 
Q 55.609375 28.21875 55.609375 21.1875 
Q 55.609375 10.40625 48.1875 4.484375 
Q 40.765625 -1.421875 27.09375 -1.421875 
Q 22.515625 -1.421875 17.65625 -0.515625 
Q 12.796875 0.390625 7.625 2.203125 
L 7.625 11.71875 
Q 11.71875 9.328125 16.59375 8.109375 
Q 21.484375 6.890625 26.8125 6.890625 
Q 36.078125 6.890625 40.9375 10.546875 
Q 45.796875 14.203125 45.796875 21.1875 
Q 45.796875 27.640625 41.28125 31.265625 
Q 36.765625 34.90625 28.71875 34.90625 
L 20.21875 34.90625 
L 20.21875 43.015625 
L 29.109375 43.015625 
Q 36.375 43.015625 40.234375 45.921875 
Q 44.09375 48.828125 44.09375 54.296875 
Q 44.09375 59.90625 40.109375 62.90625 
Q 36.140625 65.921875 28.71875 65.921875 
Q 24.65625 65.921875 20.015625 65.03125 
Q 15.375 64.15625 9.8125 62.3125 
L 9.8125 71.09375 
Q 15.4375 72.65625 20.34375 73.4375 
Q 25.25 74.21875 29.59375 74.21875 
Q 40.828125 74.21875 47.359375 69.109375 
Q 53.90625 64.015625 53.90625 55.328125 
Q 53.90625 49.265625 50.4375 45.09375 
Q 46.96875 40.921875 40.578125 39.3125 
z
" id="DejaVuSans-33"/>
      </defs>
      <g transform="translate(181.697074 404.638438)scale(0.1 -0.1)">
       <use xlink:href="#DejaVuSans-31"/>
       <use x="63.623047" xlink:href="#DejaVuSans-2e"/>
       <use x="95.410156" xlink:href="#DejaVuSans-33"/>
      </g>
     </g>
    </g>
    <g id="xtick_6">
     <g id="line2d_6">
      <g>
       <use style="stroke:#000000;stroke-width:0.8;" x="221.188333" xlink:href="#mfa987b1311" y="390.04"/>
      </g>
     </g>
     <g id="text_6">
      <!-- 1.4 -->
      <defs>
       <path d="M 37.796875 64.3125 
L 12.890625 25.390625 
L 37.796875 25.390625 
z
M 35.203125 72.90625 
L 47.609375 72.90625 
L 47.609375 25.390625 
L 58.015625 25.390625 
L 58.015625 17.1875 
L 47.609375 17.1875 
L 47.609375 0 
L 37.796875 0 
L 37.796875 17.1875 
L 4.890625 17.1875 
L 4.890625 26.703125 
z
" id="DejaVuSans-34"/>
      </defs>
      <g transform="translate(213.236771 404.638438)scale(0.1 -0.1)">
       <use xlink:href="#DejaVuSans-31"/>
       <use x="63.623047" xlink:href="#DejaVuSans-2e"/>
       <use x="95.410156" xlink:href="#DejaVuSans-34"/>
      </g>
     </g>
    </g>
    <g id="xtick_7">
     <g id="line2d_7">
      <g>
       <use style="stroke:#000000;stroke-width:0.8;" x="252.72803" xlink:href="#mfa987b1311" y="390.04"/>
      </g>
     </g>
     <g id="text_7">
      <!-- 1.5 -->
      <defs>
       <path d="M 10.796875 72.90625 
L 49.515625 72.90625 
L 49.515625 64.59375 
L 19.828125 64.59375 
L 19.828125 46.734375 
Q 21.96875 47.46875 24.109375 47.828125 
Q 26.265625 48.1875 28.421875 48.1875 
Q 40.625 48.1875 47.75 41.5 
Q 54.890625 34.8125 54.890625 23.390625 
Q 54.890625 11.625 47.5625 5.09375 
Q 40.234375 -1.421875 26.90625 -1.421875 
Q 22.3125 -1.421875 17.546875 -0.640625 
Q 12.796875 0.140625 7.71875 1.703125 
L 7.71875 11.625 
Q 12.109375 9.234375 16.796875 8.0625 
Q 21.484375 6.890625 26.703125 6.890625 
Q 35.15625 6.890625 40.078125 11.328125 
Q 45.015625 15.765625 45.015625 23.390625 
Q 45.015625 31 40.078125 35.4375 
Q 35.15625 39.890625 26.703125 39.890625 
Q 22.75 39.890625 18.8125 39.015625 
Q 14.890625 38.140625 10.796875 36.28125 
z
" id="DejaVuSans-35"/>
      </defs>
      <g transform="translate(244.776468 404.638438)scale(0.1 -0.1)">
       <use xlink:href="#DejaVuSans-31"/>
       <use x="63.623047" xlink:href="#DejaVuSans-2e"/>
       <use x="95.410156" xlink:href="#DejaVuSans-35"/>
      </g>
     </g>
    </g>
    <g id="xtick_8">
     <g id="line2d_8">
      <g>
       <use style="stroke:#000000;stroke-width:0.8;" x="284.267727" xlink:href="#mfa987b1311" y="390.04"/>
      </g>
     </g>
     <g id="text_8">
      <!-- 1.6 -->
      <defs>
       <path d="M 33.015625 40.375 
Q 26.375 40.375 22.484375 35.828125 
Q 18.609375 31.296875 18.609375 23.390625 
Q 18.609375 15.53125 22.484375 10.953125 
Q 26.375 6.390625 33.015625 6.390625 
Q 39.65625 6.390625 43.53125 10.953125 
Q 47.40625 15.53125 47.40625 23.390625 
Q 47.40625 31.296875 43.53125 35.828125 
Q 39.65625 40.375 33.015625 40.375 
z
M 52.59375 71.296875 
L 52.59375 62.3125 
Q 48.875 64.0625 45.09375 64.984375 
Q 41.3125 65.921875 37.59375 65.921875 
Q 27.828125 65.921875 22.671875 59.328125 
Q 17.53125 52.734375 16.796875 39.40625 
Q 19.671875 43.65625 24.015625 45.921875 
Q 28.375 48.1875 33.59375 48.1875 
Q 44.578125 48.1875 50.953125 41.515625 
Q 57.328125 34.859375 57.328125 23.390625 
Q 57.328125 12.15625 50.6875 5.359375 
Q 44.046875 -1.421875 33.015625 -1.421875 
Q 20.359375 -1.421875 13.671875 8.265625 
Q 6.984375 17.96875 6.984375 36.375 
Q 6.984375 53.65625 15.1875 63.9375 
Q 23.390625 74.21875 37.203125 74.21875 
Q 40.921875 74.21875 44.703125 73.484375 
Q 48.484375 72.75 52.59375 71.296875 
z
" id="DejaVuSans-36"/>
      </defs>
      <g transform="translate(276.316165 404.638438)scale(0.1 -0.1)">
       <use xlink:href="#DejaVuSans-31"/>
       <use x="63.623047" xlink:href="#DejaVuSans-2e"/>
       <use x="95.410156" xlink:href="#DejaVuSans-36"/>
      </g>
     </g>
    </g>
    <g id="xtick_9">
     <g id="line2d_9">
      <g>
       <use style="stroke:#000000;stroke-width:0.8;" x="315.807424" xlink:href="#mfa987b1311" y="390.04"/>
      </g>
     </g>
     <g id="text_9">
      <!-- 1.7 -->
      <defs>
       <path d="M 8.203125 72.90625 
L 55.078125 72.90625 
L 55.078125 68.703125 
L 28.609375 0 
L 18.3125 0 
L 43.21875 64.59375 
L 8.203125 64.59375 
z
" id="DejaVuSans-37"/>
      </defs>
      <g transform="translate(307.855862 404.638438)scale(0.1 -0.1)">
       <use xlink:href="#DejaVuSans-31"/>
       <use x="63.623047" xlink:href="#DejaVuSans-2e"/>
       <use x="95.410156" xlink:href="#DejaVuSans-37"/>
      </g>
     </g>
    </g>
    <g id="xtick_10">
     <g id="line2d_10">
      <g>
       <use style="stroke:#000000;stroke-width:0.8;" x="347.347121" xlink:href="#mfa987b1311" y="390.04"/>
      </g>
     </g>
     <g id="text_10">
      <!-- 1.8 -->
      <defs>
       <path d="M 31.78125 34.625 
Q 24.75 34.625 20.71875 30.859375 
Q 16.703125 27.09375 16.703125 20.515625 
Q 16.703125 13.921875 20.71875 10.15625 
Q 24.75 6.390625 31.78125 6.390625 
Q 38.8125 6.390625 42.859375 10.171875 
Q 46.921875 13.96875 46.921875 20.515625 
Q 46.921875 27.09375 42.890625 30.859375 
Q 38.875 34.625 31.78125 34.625 
z
M 21.921875 38.8125 
Q 15.578125 40.375 12.03125 44.71875 
Q 8.5 49.078125 8.5 55.328125 
Q 8.5 64.0625 14.71875 69.140625 
Q 20.953125 74.21875 31.78125 74.21875 
Q 42.671875 74.21875 48.875 69.140625 
Q 55.078125 64.0625 55.078125 55.328125 
Q 55.078125 49.078125 51.53125 44.71875 
Q 48 40.375 41.703125 38.8125 
Q 48.828125 37.15625 52.796875 32.3125 
Q 56.78125 27.484375 56.78125 20.515625 
Q 56.78125 9.90625 50.3125 4.234375 
Q 43.84375 -1.421875 31.78125 -1.421875 
Q 19.734375 -1.421875 13.25 4.234375 
Q 6.78125 9.90625 6.78125 20.515625 
Q 6.78125 27.484375 10.78125 32.3125 
Q 14.796875 37.15625 21.921875 38.8125 
z
M 18.3125 54.390625 
Q 18.3125 48.734375 21.84375 45.5625 
Q 25.390625 42.390625 31.78125 42.390625 
Q 38.140625 42.390625 41.71875 45.5625 
Q 45.3125 48.734375 45.3125 54.390625 
Q 45.3125 60.0625 41.71875 63.234375 
Q 38.140625 66.40625 31.78125 66.40625 
Q 25.390625 66.40625 21.84375 63.234375 
Q 18.3125 60.0625 18.3125 54.390625 
z
" id="DejaVuSans-38"/>
      </defs>
      <g transform="translate(339.395559 404.638438)scale(0.1 -0.1)">
       <use xlink:href="#DejaVuSans-31"/>
       <use x="63.623047" xlink:href="#DejaVuSans-2e"/>
       <use x="95.410156" xlink:href="#DejaVuSans-38"/>
      </g>
     </g>
    </g>
    <g id="xtick_11">
     <g id="line2d_11">
      <g>
       <use style="stroke:#000000;stroke-width:0.8;" x="378.886818" xlink:href="#mfa987b1311" y="390.04"/>
      </g>
     </g>
     <g id="text_11">
      <!-- 1.9 -->
      <defs>
       <path d="M 10.984375 1.515625 
L 10.984375 10.5 
Q 14.703125 8.734375 18.5 7.8125 
Q 22.3125 6.890625 25.984375 6.890625 
Q 35.75 6.890625 40.890625 13.453125 
Q 46.046875 20.015625 46.78125 33.40625 
Q 43.953125 29.203125 39.59375 26.953125 
Q 35.25 24.703125 29.984375 24.703125 
Q 19.046875 24.703125 12.671875 31.3125 
Q 6.296875 37.9375 6.296875 49.421875 
Q 6.296875 60.640625 12.9375 67.421875 
Q 19.578125 74.21875 30.609375 74.21875 
Q 43.265625 74.21875 49.921875 64.515625 
Q 56.59375 54.828125 56.59375 36.375 
Q 56.59375 19.140625 48.40625 8.859375 
Q 40.234375 -1.421875 26.421875 -1.421875 
Q 22.703125 -1.421875 18.890625 -0.6875 
Q 15.09375 0.046875 10.984375 1.515625 
z
M 30.609375 32.421875 
Q 37.25 32.421875 41.125 36.953125 
Q 45.015625 41.5 45.015625 49.421875 
Q 45.015625 57.28125 41.125 61.84375 
Q 37.25 66.40625 30.609375 66.40625 
Q 23.96875 66.40625 20.09375 61.84375 
Q 16.21875 57.28125 16.21875 49.421875 
Q 16.21875 41.5 20.09375 36.953125 
Q 23.96875 32.421875 30.609375 32.421875 
z
" id="DejaVuSans-39"/>
      </defs>
      <g transform="translate(370.935256 404.638438)scale(0.1 -0.1)">
       <use xlink:href="#DejaVuSans-31"/>
       <use x="63.623047" xlink:href="#DejaVuSans-2e"/>
       <use x="95.410156" xlink:href="#DejaVuSans-39"/>
      </g>
     </g>
    </g>
    <g id="xtick_12">
     <g id="line2d_12">
      <g>
       <use style="stroke:#000000;stroke-width:0.8;" x="410.426515" xlink:href="#mfa987b1311" y="390.04"/>
      </g>
     </g>
     <g id="text_12">
      <!-- 2.0 -->
      <g transform="translate(402.474953 404.638438)scale(0.1 -0.1)">
       <use xlink:href="#DejaVuSans-32"/>
       <use x="63.623047" xlink:href="#DejaVuSans-2e"/>
       <use x="95.410156" xlink:href="#DejaVuSans-30"/>
      </g>
     </g>
    </g>
    <g id="xtick_13">
     <g id="line2d_13">
      <g>
       <use style="stroke:#000000;stroke-width:0.8;" x="441.966212" xlink:href="#mfa987b1311" y="390.04"/>
      </g>
     </g>
     <g id="text_13">
      <!-- 2.1 -->
      <g transform="translate(434.01465 404.638438)scale(0.1 -0.1)">
       <use xlink:href="#DejaVuSans-32"/>
       <use x="63.623047" xlink:href="#DejaVuSans-2e"/>
       <use x="95.410156" xlink:href="#DejaVuSans-31"/>
      </g>
     </g>
    </g>
    <g id="xtick_14">
     <g id="line2d_14">
      <g>
       <use style="stroke:#000000;stroke-width:0.8;" x="473.505909" xlink:href="#mfa987b1311" y="390.04"/>
      </g>
     </g>
     <g id="text_14">
      <!-- 2.2 -->
      <g transform="translate(465.554347 404.638438)scale(0.1 -0.1)">
       <use xlink:href="#DejaVuSans-32"/>
       <use x="63.623047" xlink:href="#DejaVuSans-2e"/>
       <use x="95.410156" xlink:href="#DejaVuSans-32"/>
      </g>
     </g>
    </g>
    <g id="xtick_15">
     <g id="line2d_15">
      <g>
       <use style="stroke:#000000;stroke-width:0.8;" x="505.045606" xlink:href="#mfa987b1311" y="390.04"/>
      </g>
     </g>
     <g id="text_15">
      <!-- 2.3 -->
      <g transform="translate(497.094044 404.638438)scale(0.1 -0.1)">
       <use xlink:href="#DejaVuSans-32"/>
       <use x="63.623047" xlink:href="#DejaVuSans-2e"/>
       <use x="95.410156" xlink:href="#DejaVuSans-33"/>
      </g>
     </g>
    </g>
    <g id="xtick_16">
     <g id="line2d_16">
      <g>
       <use style="stroke:#000000;stroke-width:0.8;" x="536.585303" xlink:href="#mfa987b1311" y="390.04"/>
      </g>
     </g>
     <g id="text_16">
      <!-- 2.4 -->
      <g transform="translate(528.633741 404.638438)scale(0.1 -0.1)">
       <use xlink:href="#DejaVuSans-32"/>
       <use x="63.623047" xlink:href="#DejaVuSans-2e"/>
       <use x="95.410156" xlink:href="#DejaVuSans-34"/>
      </g>
     </g>
    </g>
    <g id="xtick_17">
     <g id="line2d_17">
      <g>
       <use style="stroke:#000000;stroke-width:0.8;" x="568.125" xlink:href="#mfa987b1311" y="390.04"/>
      </g>
     </g>
     <g id="text_17">
      <!-- 2.5 -->
      <g transform="translate(560.173437 404.638438)scale(0.1 -0.1)">
       <use xlink:href="#DejaVuSans-32"/>
       <use x="63.623047" xlink:href="#DejaVuSans-2e"/>
       <use x="95.410156" xlink:href="#DejaVuSans-35"/>
      </g>
     </g>
    </g>
    <g id="xtick_18">
     <g id="line2d_18">
      <g>
       <use style="stroke:#000000;stroke-width:0.8;" x="599.664697" xlink:href="#mfa987b1311" y="390.04"/>
      </g>
     </g>
     <g id="text_18">
      <!-- 2.6 -->
      <g transform="translate(591.713134 404.638438)scale(0.1 -0.1)">
       <use xlink:href="#DejaVuSans-32"/>
       <use x="63.623047" xlink:href="#DejaVuSans-2e"/>
       <use x="95.410156" xlink:href="#DejaVuSans-36"/>
      </g>
     </g>
    </g>
    <g id="xtick_19">
     <g id="line2d_19">
      <g>
       <use style="stroke:#000000;stroke-width:0.8;" x="631.204394" xlink:href="#mfa987b1311" y="390.04"/>
      </g>
     </g>
     <g id="text_19">
      <!-- 2.7 -->
      <g transform="translate(623.252831 404.638438)scale(0.1 -0.1)">
       <use xlink:href="#DejaVuSans-32"/>
       <use x="63.623047" xlink:href="#DejaVuSans-2e"/>
       <use x="95.410156" xlink:href="#DejaVuSans-37"/>
      </g>
     </g>
    </g>
    <g id="xtick_20">
     <g id="line2d_20">
      <g>
       <use style="stroke:#000000;stroke-width:0.8;" x="662.744091" xlink:href="#mfa987b1311" y="390.04"/>
      </g>
     </g>
     <g id="text_20">
      <!-- 2.8 -->
      <g transform="translate(654.792528 404.638438)scale(0.1 -0.1)">
       <use xlink:href="#DejaVuSans-32"/>
       <use x="63.623047" xlink:href="#DejaVuSans-2e"/>
       <use x="95.410156" xlink:href="#DejaVuSans-38"/>
      </g>
     </g>
    </g>
    <g id="xtick_21">
     <g id="line2d_21">
      <g>
       <use style="stroke:#000000;stroke-width:0.8;" x="694.283788" xlink:href="#mfa987b1311" y="390.04"/>
      </g>
     </g>
     <g id="text_21">
      <!-- 2.9 -->
      <g transform="translate(686.332225 404.638438)scale(0.1 -0.1)">
       <use xlink:href="#DejaVuSans-32"/>
       <use x="63.623047" xlink:href="#DejaVuSans-2e"/>
       <use x="95.410156" xlink:href="#DejaVuSans-39"/>
      </g>
     </g>
    </g>
    <g id="xtick_22">
     <g id="line2d_22">
      <g>
       <use style="stroke:#000000;stroke-width:0.8;" x="725.823485" xlink:href="#mfa987b1311" y="390.04"/>
      </g>
     </g>
     <g id="text_22">
      <!-- 3.0 -->
      <g transform="translate(717.871922 404.638438)scale(0.1 -0.1)">
       <use xlink:href="#DejaVuSans-33"/>
       <use x="63.623047" xlink:href="#DejaVuSans-2e"/>
       <use x="95.410156" xlink:href="#DejaVuSans-30"/>
      </g>
     </g>
    </g>
    <g id="xtick_23">
     <g id="line2d_23">
      <g>
       <use style="stroke:#000000;stroke-width:0.8;" x="757.363182" xlink:href="#mfa987b1311" y="390.04"/>
      </g>
     </g>
     <g id="text_23">
      <!-- 3.1 -->
      <g transform="translate(749.411619 404.638438)scale(0.1 -0.1)">
       <use xlink:href="#DejaVuSans-33"/>
       <use x="63.623047" xlink:href="#DejaVuSans-2e"/>
       <use x="95.410156" xlink:href="#DejaVuSans-31"/>
      </g>
     </g>
    </g>
    <g id="xtick_24">
     <g id="line2d_24">
      <g>
       <use style="stroke:#000000;stroke-width:0.8;" x="788.902879" xlink:href="#mfa987b1311" y="390.04"/>
      </g>
     </g>
     <g id="text_24">
      <!-- 3.2 -->
      <g transform="translate(780.951316 404.638438)scale(0.1 -0.1)">
       <use xlink:href="#DejaVuSans-33"/>
       <use x="63.623047" xlink:href="#DejaVuSans-2e"/>
       <use x="95.410156" xlink:href="#DejaVuSans-32"/>
      </g>
     </g>
    </g>
    <g id="xtick_25">
     <g id="line2d_25">
      <g>
       <use style="stroke:#000000;stroke-width:0.8;" x="820.442576" xlink:href="#mfa987b1311" y="390.04"/>
      </g>
     </g>
     <g id="text_25">
      <!-- 3.3 -->
      <g transform="translate(812.491013 404.638438)scale(0.1 -0.1)">
       <use xlink:href="#DejaVuSans-33"/>
       <use x="63.623047" xlink:href="#DejaVuSans-2e"/>
       <use x="95.410156" xlink:href="#DejaVuSans-33"/>
      </g>
     </g>
    </g>
    <g id="xtick_26">
     <g id="line2d_26">
      <g>
       <use style="stroke:#000000;stroke-width:0.8;" x="851.982273" xlink:href="#mfa987b1311" y="390.04"/>
      </g>
     </g>
     <g id="text_26">
      <!-- 3.4 -->
      <g transform="translate(844.03071 404.638438)scale(0.1 -0.1)">
       <use xlink:href="#DejaVuSans-33"/>
       <use x="63.623047" xlink:href="#DejaVuSans-2e"/>
       <use x="95.410156" xlink:href="#DejaVuSans-34"/>
      </g>
     </g>
    </g>
    <g id="xtick_27">
     <g id="line2d_27">
      <g>
       <use style="stroke:#000000;stroke-width:0.8;" x="883.52197" xlink:href="#mfa987b1311" y="390.04"/>
      </g>
     </g>
     <g id="text_27">
      <!-- 3.5 -->
      <g transform="translate(875.570407 404.638438)scale(0.1 -0.1)">
       <use xlink:href="#DejaVuSans-33"/>
       <use x="63.623047" xlink:href="#DejaVuSans-2e"/>
       <use x="95.410156" xlink:href="#DejaVuSans-35"/>
      </g>
     </g>
    </g>
    <g id="xtick_28">
     <g id="line2d_28">
      <g>
       <use style="stroke:#000000;stroke-width:0.8;" x="915.061667" xlink:href="#mfa987b1311" y="390.04"/>
      </g>
     </g>
     <g id="text_28">
      <!-- 3.6 -->
      <g transform="translate(907.110104 404.638438)scale(0.1 -0.1)">
       <use xlink:href="#DejaVuSans-33"/>
       <use x="63.623047" xlink:href="#DejaVuSans-2e"/>
       <use x="95.410156" xlink:href="#DejaVuSans-36"/>
      </g>
     </g>
    </g>
    <g id="xtick_29">
     <g id="line2d_29">
      <g>
       <use style="stroke:#000000;stroke-width:0.8;" x="946.601364" xlink:href="#mfa987b1311" y="390.04"/>
      </g>
     </g>
     <g id="text_29">
      <!-- 3.7 -->
      <g transform="translate(938.649801 404.638438)scale(0.1 -0.1)">
       <use xlink:href="#DejaVuSans-33"/>
       <use x="63.623047" xlink:href="#DejaVuSans-2e"/>
       <use x="95.410156" xlink:href="#DejaVuSans-37"/>
      </g>
     </g>
    </g>
    <g id="xtick_30">
     <g id="line2d_30">
      <g>
       <use style="stroke:#000000;stroke-width:0.8;" x="978.141061" xlink:href="#mfa987b1311" y="390.04"/>
      </g>
     </g>
     <g id="text_30">
      <!-- 3.8 -->
      <g transform="translate(970.189498 404.638438)scale(0.1 -0.1)">
       <use xlink:href="#DejaVuSans-33"/>
       <use x="63.623047" xlink:href="#DejaVuSans-2e"/>
       <use x="95.410156" xlink:href="#DejaVuSans-38"/>
      </g>
     </g>
    </g>
    <g id="xtick_31">
     <g id="line2d_31">
      <g>
       <use style="stroke:#000000;stroke-width:0.8;" x="1009.680758" xlink:href="#mfa987b1311" y="390.04"/>
      </g>
     </g>
     <g id="text_31">
      <!-- 3.9 -->
      <g transform="translate(1001.729195 404.638438)scale(0.1 -0.1)">
       <use xlink:href="#DejaVuSans-33"/>
       <use x="63.623047" xlink:href="#DejaVuSans-2e"/>
       <use x="95.410156" xlink:href="#DejaVuSans-39"/>
      </g>
     </g>
    </g>
    <g id="xtick_32">
     <g id="line2d_32">
      <g>
       <use style="stroke:#000000;stroke-width:0.8;" x="1041.220455" xlink:href="#mfa987b1311" y="390.04"/>
      </g>
     </g>
     <g id="text_32">
      <!-- 4.0 -->
      <g transform="translate(1033.268892 404.638438)scale(0.1 -0.1)">
       <use xlink:href="#DejaVuSans-34"/>
       <use x="63.623047" xlink:href="#DejaVuSans-2e"/>
       <use x="95.410156" xlink:href="#DejaVuSans-30"/>
      </g>
     </g>
    </g>
    <g id="xtick_33">
     <g id="line2d_33">
      <g>
       <use style="stroke:#000000;stroke-width:0.8;" x="1072.760152" xlink:href="#mfa987b1311" y="390.04"/>
      </g>
     </g>
     <g id="text_33">
      <!-- &gt; 4.0 -->
      <defs>
       <path d="M 10.59375 49.21875 
L 10.59375 58.109375 
L 73.1875 35.40625 
L 73.1875 27.296875 
L 10.59375 4.59375 
L 10.59375 13.484375 
L 60.890625 31.296875 
z
" id="DejaVuSans-3e"/>
      </defs>
      <g transform="translate(1059.029683 404.638438)scale(0.1 -0.1)">
       <use xlink:href="#DejaVuSans-3e"/>
       <use x="83.789062" xlink:href="#DejaVuSans-20"/>
       <use x="115.576172" xlink:href="#DejaVuSans-34"/>
       <use x="179.199219" xlink:href="#DejaVuSans-2e"/>
       <use x="210.986328" xlink:href="#DejaVuSans-30"/>
      </g>
     </g>
    </g>
    <g id="text_34">
     <!-- Resolution -->
     <defs>
      <path d="M 44.390625 34.1875 
Q 47.5625 33.109375 50.5625 29.59375 
Q 53.5625 26.078125 56.59375 19.921875 
L 66.609375 0 
L 56 0 
L 46.6875 18.703125 
Q 43.0625 26.03125 39.671875 28.421875 
Q 36.28125 30.8125 30.421875 30.8125 
L 19.671875 30.8125 
L 19.671875 0 
L 9.8125 0 
L 9.8125 72.90625 
L 32.078125 72.90625 
Q 44.578125 72.90625 50.734375 67.671875 
Q 56.890625 62.453125 56.890625 51.90625 
Q 56.890625 45.015625 53.6875 40.46875 
Q 50.484375 35.9375 44.390625 34.1875 
z
M 19.671875 64.796875 
L 19.671875 38.921875 
L 32.078125 38.921875 
Q 39.203125 38.921875 42.84375 42.21875 
Q 46.484375 45.515625 46.484375 51.90625 
Q 46.484375 58.296875 42.84375 61.546875 
Q 39.203125 64.796875 32.078125 64.796875 
z
" id="DejaVuSans-52"/>
      <path d="M 56.203125 29.59375 
L 56.203125 25.203125 
L 14.890625 25.203125 
Q 15.484375 15.921875 20.484375 11.0625 
Q 25.484375 6.203125 34.421875 6.203125 
Q 39.59375 6.203125 44.453125 7.46875 
Q 49.3125 8.734375 54.109375 11.28125 
L 54.109375 2.78125 
Q 49.265625 0.734375 44.1875 -0.34375 
Q 39.109375 -1.421875 33.890625 -1.421875 
Q 20.796875 -1.421875 13.15625 6.1875 
Q 5.515625 13.8125 5.515625 26.8125 
Q 5.515625 40.234375 12.765625 48.109375 
Q 20.015625 56 32.328125 56 
Q 43.359375 56 49.78125 48.890625 
Q 56.203125 41.796875 56.203125 29.59375 
z
M 47.21875 32.234375 
Q 47.125 39.59375 43.09375 43.984375 
Q 39.0625 48.390625 32.421875 48.390625 
Q 24.90625 48.390625 20.390625 44.140625 
Q 15.875 39.890625 15.1875 32.171875 
z
" id="DejaVuSans-65"/>
      <path d="M 44.28125 53.078125 
L 44.28125 44.578125 
Q 40.484375 46.53125 36.375 47.5 
Q 32.28125 48.484375 27.875 48.484375 
Q 21.1875 48.484375 17.84375 46.4375 
Q 14.5 44.390625 14.5 40.28125 
Q 14.5 37.15625 16.890625 35.375 
Q 19.28125 33.59375 26.515625 31.984375 
L 29.59375 31.296875 
Q 39.15625 29.25 43.1875 25.515625 
Q 47.21875 21.78125 47.21875 15.09375 
Q 47.21875 7.46875 41.1875 3.015625 
Q 35.15625 -1.421875 24.609375 -1.421875 
Q 20.21875 -1.421875 15.453125 -0.5625 
Q 10.6875 0.296875 5.421875 2 
L 5.421875 11.28125 
Q 10.40625 8.6875 15.234375 7.390625 
Q 20.0625 6.109375 24.8125 6.109375 
Q 31.15625 6.109375 34.5625 8.28125 
Q 37.984375 10.453125 37.984375 14.40625 
Q 37.984375 18.0625 35.515625 20.015625 
Q 33.0625 21.96875 24.703125 23.78125 
L 21.578125 24.515625 
Q 13.234375 26.265625 9.515625 29.90625 
Q 5.8125 33.546875 5.8125 39.890625 
Q 5.8125 47.609375 11.28125 51.796875 
Q 16.75 56 26.8125 56 
Q 31.78125 56 36.171875 55.265625 
Q 40.578125 54.546875 44.28125 53.078125 
z
" id="DejaVuSans-73"/>
      <path d="M 30.609375 48.390625 
Q 23.390625 48.390625 19.1875 42.75 
Q 14.984375 37.109375 14.984375 27.296875 
Q 14.984375 17.484375 19.15625 11.84375 
Q 23.34375 6.203125 30.609375 6.203125 
Q 37.796875 6.203125 41.984375 11.859375 
Q 46.1875 17.53125 46.1875 27.296875 
Q 46.1875 37.015625 41.984375 42.703125 
Q 37.796875 48.390625 30.609375 48.390625 
z
M 30.609375 56 
Q 42.328125 56 49.015625 48.375 
Q 55.71875 40.765625 55.71875 27.296875 
Q 55.71875 13.875 49.015625 6.21875 
Q 42.328125 -1.421875 30.609375 -1.421875 
Q 18.84375 -1.421875 12.171875 6.21875 
Q 5.515625 13.875 5.515625 27.296875 
Q 5.515625 40.765625 12.171875 48.375 
Q 18.84375 56 30.609375 56 
z
" id="DejaVuSans-6f"/>
      <path d="M 9.421875 75.984375 
L 18.40625 75.984375 
L 18.40625 0 
L 9.421875 0 
z
" id="DejaVuSans-6c"/>
      <path d="M 8.5 21.578125 
L 8.5 54.6875 
L 17.484375 54.6875 
L 17.484375 21.921875 
Q 17.484375 14.15625 20.5 10.265625 
Q 23.53125 6.390625 29.59375 6.390625 
Q 36.859375 6.390625 41.078125 11.03125 
Q 45.3125 15.671875 45.3125 23.6875 
L 45.3125 54.6875 
L 54.296875 54.6875 
L 54.296875 0 
L 45.3125 0 
L 45.3125 8.40625 
Q 42.046875 3.421875 37.71875 1 
Q 33.40625 -1.421875 27.6875 -1.421875 
Q 18.265625 -1.421875 13.375 4.4375 
Q 8.5 10.296875 8.5 21.578125 
z
M 31.109375 56 
z
" id="DejaVuSans-75"/>
      <path d="M 18.3125 70.21875 
L 18.3125 54.6875 
L 36.8125 54.6875 
L 36.8125 47.703125 
L 18.3125 47.703125 
L 18.3125 18.015625 
Q 18.3125 11.328125 20.140625 9.421875 
Q 21.96875 7.515625 27.59375 7.515625 
L 36.8125 7.515625 
L 36.8125 0 
L 27.59375 0 
Q 17.1875 0 13.234375 3.875 
Q 9.28125 7.765625 9.28125 18.015625 
L 9.28125 47.703125 
L 2.6875 47.703125 
L 2.6875 54.6875 
L 9.28125 54.6875 
L 9.28125 70.21875 
z
" id="DejaVuSans-74"/>
      <path d="M 9.421875 54.6875 
L 18.40625 54.6875 
L 18.40625 0 
L 9.421875 0 
z
M 9.421875 75.984375 
L 18.40625 75.984375 
L 18.40625 64.59375 
L 9.421875 64.59375 
z
" id="DejaVuSans-69"/>
      <path d="M 54.890625 33.015625 
L 54.890625 0 
L 45.90625 0 
L 45.90625 32.71875 
Q 45.90625 40.484375 42.875 44.328125 
Q 39.84375 48.1875 33.796875 48.1875 
Q 26.515625 48.1875 22.3125 43.546875 
Q 18.109375 38.921875 18.109375 30.90625 
L 18.109375 0 
L 9.078125 0 
L 9.078125 54.6875 
L 18.109375 54.6875 
L 18.109375 46.1875 
Q 21.34375 51.125 25.703125 53.5625 
Q 30.078125 56 35.796875 56 
Q 45.21875 56 50.046875 50.171875 
Q 54.890625 44.34375 54.890625 33.015625 
z
" id="DejaVuSans-6e"/>
     </defs>
     <g transform="translate(541.778125 418.316562)scale(0.1 -0.1)">
      <use xlink:href="#DejaVuSans-52"/>
      <use x="69.419922" xlink:href="#DejaVuSans-65"/>
      <use x="130.943359" xlink:href="#DejaVuSans-73"/>
      <use x="183.042969" xlink:href="#DejaVuSans-6f"/>
      <use x="244.224609" xlink:href="#DejaVuSans-6c"/>
      <use x="272.007812" xlink:href="#DejaVuSans-75"/>
      <use x="335.386719" xlink:href="#DejaVuSans-74"/>
      <use x="374.595703" xlink:href="#DejaVuSans-69"/>
      <use x="402.378906" xlink:href="#DejaVuSans-6f"/>
      <use x="463.560547" xlink:href="#DejaVuSans-6e"/>
     </g>
    </g>
   </g>
   <g id="matplotlib.axis_2">
    <g id="ytick_1">
     <g id="line2d_34">
      <defs>
       <path d="M 0 0 
L -3.5 0 
" id="m5a132a3116" style="stroke:#000000;stroke-width:0.8;"/>
      </defs>
      <g>
       <use style="stroke:#000000;stroke-width:0.8;" x="47.72" xlink:href="#m5a132a3116" y="390.04"/>
      </g>
     </g>
     <g id="text_35">
      <!-- 0.0 -->
      <g transform="translate(24.816875 393.839219)scale(0.1 -0.1)">
       <use xlink:href="#DejaVuSans-30"/>
       <use x="63.623047" xlink:href="#DejaVuSans-2e"/>
       <use x="95.410156" xlink:href="#DejaVuSans-30"/>
      </g>
     </g>
    </g>
    <g id="ytick_2">
     <g id="line2d_35">
      <g>
       <use style="stroke:#000000;stroke-width:0.8;" x="47.72" xlink:href="#m5a132a3116" y="314.984"/>
      </g>
     </g>
     <g id="text_36">
      <!-- 0.2 -->
      <g transform="translate(24.816875 318.783219)scale(0.1 -0.1)">
       <use xlink:href="#DejaVuSans-30"/>
       <use x="63.623047" xlink:href="#DejaVuSans-2e"/>
       <use x="95.410156" xlink:href="#DejaVuSans-32"/>
      </g>
     </g>
    </g>
    <g id="ytick_3">
     <g id="line2d_36">
      <g>
       <use style="stroke:#000000;stroke-width:0.8;" x="47.72" xlink:href="#m5a132a3116" y="239.928"/>
      </g>
     </g>
     <g id="text_37">
      <!-- 0.4 -->
      <g transform="translate(24.816875 243.727219)scale(0.1 -0.1)">
       <use xlink:href="#DejaVuSans-30"/>
       <use x="63.623047" xlink:href="#DejaVuSans-2e"/>
       <use x="95.410156" xlink:href="#DejaVuSans-34"/>
      </g>
     </g>
    </g>
    <g id="ytick_4">
     <g id="line2d_37">
      <g>
       <use style="stroke:#000000;stroke-width:0.8;" x="47.72" xlink:href="#m5a132a3116" y="164.872"/>
      </g>
     </g>
     <g id="text_38">
      <!-- 0.6 -->
      <g transform="translate(24.816875 168.671219)scale(0.1 -0.1)">
       <use xlink:href="#DejaVuSans-30"/>
       <use x="63.623047" xlink:href="#DejaVuSans-2e"/>
       <use x="95.410156" xlink:href="#DejaVuSans-36"/>
      </g>
     </g>
    </g>
    <g id="ytick_5">
     <g id="line2d_38">
      <g>
       <use style="stroke:#000000;stroke-width:0.8;" x="47.72" xlink:href="#m5a132a3116" y="89.816"/>
      </g>
     </g>
     <g id="text_39">
      <!-- 0.8 -->
      <g transform="translate(24.816875 93.615219)scale(0.1 -0.1)">
       <use xlink:href="#DejaVuSans-30"/>
       <use x="63.623047" xlink:href="#DejaVuSans-2e"/>
       <use x="95.410156" xlink:href="#DejaVuSans-38"/>
      </g>
     </g>
    </g>
    <g id="ytick_6">
     <g id="line2d_39">
      <g>
       <use style="stroke:#000000;stroke-width:0.8;" x="47.72" xlink:href="#m5a132a3116" y="14.76"/>
      </g>
     </g>
     <g id="text_40">
      <!-- 1.0 -->
      <g transform="translate(24.816875 18.559219)scale(0.1 -0.1)">
       <use xlink:href="#DejaVuSans-31"/>
       <use x="63.623047" xlink:href="#DejaVuSans-2e"/>
       <use x="95.410156" xlink:href="#DejaVuSans-30"/>
      </g>
     </g>
    </g>
    <g id="text_41">
     <!-- Accuracy -->
     <defs>
      <path d="M 34.1875 63.1875 
L 20.796875 26.90625 
L 47.609375 26.90625 
z
M 28.609375 72.90625 
L 39.796875 72.90625 
L 67.578125 0 
L 57.328125 0 
L 50.6875 18.703125 
L 17.828125 18.703125 
L 11.1875 0 
L 0.78125 0 
z
" id="DejaVuSans-41"/>
      <path d="M 48.78125 52.59375 
L 48.78125 44.1875 
Q 44.96875 46.296875 41.140625 47.34375 
Q 37.3125 48.390625 33.40625 48.390625 
Q 24.65625 48.390625 19.8125 42.84375 
Q 14.984375 37.3125 14.984375 27.296875 
Q 14.984375 17.28125 19.8125 11.734375 
Q 24.65625 6.203125 33.40625 6.203125 
Q 37.3125 6.203125 41.140625 7.25 
Q 44.96875 8.296875 48.78125 10.40625 
L 48.78125 2.09375 
Q 45.015625 0.34375 40.984375 -0.53125 
Q 36.96875 -1.421875 32.421875 -1.421875 
Q 20.0625 -1.421875 12.78125 6.34375 
Q 5.515625 14.109375 5.515625 27.296875 
Q 5.515625 40.671875 12.859375 48.328125 
Q 20.21875 56 33.015625 56 
Q 37.15625 56 41.109375 55.140625 
Q 45.0625 54.296875 48.78125 52.59375 
z
" id="DejaVuSans-63"/>
      <path d="M 41.109375 46.296875 
Q 39.59375 47.171875 37.8125 47.578125 
Q 36.03125 48 33.890625 48 
Q 26.265625 48 22.1875 43.046875 
Q 18.109375 38.09375 18.109375 28.8125 
L 18.109375 0 
L 9.078125 0 
L 9.078125 54.6875 
L 18.109375 54.6875 
L 18.109375 46.1875 
Q 20.953125 51.171875 25.484375 53.578125 
Q 30.03125 56 36.53125 56 
Q 37.453125 56 38.578125 55.875 
Q 39.703125 55.765625 41.0625 55.515625 
z
" id="DejaVuSans-72"/>
      <path d="M 34.28125 27.484375 
Q 23.390625 27.484375 19.1875 25 
Q 14.984375 22.515625 14.984375 16.5 
Q 14.984375 11.71875 18.140625 8.90625 
Q 21.296875 6.109375 26.703125 6.109375 
Q 34.1875 6.109375 38.703125 11.40625 
Q 43.21875 16.703125 43.21875 25.484375 
L 43.21875 27.484375 
z
M 52.203125 31.203125 
L 52.203125 0 
L 43.21875 0 
L 43.21875 8.296875 
Q 40.140625 3.328125 35.546875 0.953125 
Q 30.953125 -1.421875 24.3125 -1.421875 
Q 15.921875 -1.421875 10.953125 3.296875 
Q 6 8.015625 6 15.921875 
Q 6 25.140625 12.171875 29.828125 
Q 18.359375 34.515625 30.609375 34.515625 
L 43.21875 34.515625 
L 43.21875 35.40625 
Q 43.21875 41.609375 39.140625 45 
Q 35.0625 48.390625 27.6875 48.390625 
Q 23 48.390625 18.546875 47.265625 
Q 14.109375 46.140625 10.015625 43.890625 
L 10.015625 52.203125 
Q 14.9375 54.109375 19.578125 55.046875 
Q 24.21875 56 28.609375 56 
Q 40.484375 56 46.34375 49.84375 
Q 52.203125 43.703125 52.203125 31.203125 
z
" id="DejaVuSans-61"/>
      <path d="M 32.171875 -5.078125 
Q 28.375 -14.84375 24.75 -17.8125 
Q 21.140625 -20.796875 15.09375 -20.796875 
L 7.90625 -20.796875 
L 7.90625 -13.28125 
L 13.1875 -13.28125 
Q 16.890625 -13.28125 18.9375 -11.515625 
Q 21 -9.765625 23.484375 -3.21875 
L 25.09375 0.875 
L 2.984375 54.6875 
L 12.5 54.6875 
L 29.59375 11.921875 
L 46.6875 54.6875 
L 56.203125 54.6875 
z
" id="DejaVuSans-79"/>
     </defs>
     <g transform="translate(18.737187 225.314844)rotate(-90)scale(0.1 -0.1)">
      <use xlink:href="#DejaVuSans-41"/>
      <use x="68.392578" xlink:href="#DejaVuSans-63"/>
      <use x="123.373047" xlink:href="#DejaVuSans-63"/>
      <use x="178.353516" xlink:href="#DejaVuSans-75"/>
      <use x="241.732422" xlink:href="#DejaVuSans-72"/>
      <use x="282.845703" xlink:href="#DejaVuSans-61"/>
      <use x="344.125" xlink:href="#DejaVuSans-63"/>
      <use x="399.105469" xlink:href="#DejaVuSans-79"/>
     </g>
    </g>
   </g>
   <g id="line2d_40">
    <path clip-path="url(#p6968ece65f)" d="M 63.489848 115.125581 
L 95.029545 111.867493 
L 126.569242 137.317658 
L 158.108939 125.683914 
L 189.648636 128.903251 
L 221.188333 132.094987 
L 252.72803 147.879617 
L 284.267727 150.677611 
L 315.807424 157.425707 
L 347.347121 166.927562 
L 378.886818 168.505895 
L 410.426515 170.089188 
L 441.966212 170.756159 
L 473.505909 182.645407 
L 505.045606 190.45556 
L 536.585303 188.227124 
L 568.125 191.013884 
L 599.664697 192.765056 
L 631.204394 197.341367 
L 662.744091 189.115533 
L 694.283788 185.751437 
L 725.823485 190.00941 
L 757.363182 183.837282 
L 788.902879 209.623384 
L 820.442576 200.021943 
L 851.982273 196.05829 
L 883.52197 200.775411 
L 915.061667 230.646882 
L 946.601364 198.002188 
L 978.141061 233.901606 
L 1009.680758 251.281008 
L 1041.220455 292.745185 
" style="fill:none;stroke:#1f77b4;stroke-linecap:square;stroke-width:1.5;"/>
    <defs>
     <path d="M 0 3 
C 0.795609 3 1.55874 2.683901 2.12132 2.12132 
C 2.683901 1.55874 3 0.795609 3 0 
C 3 -0.795609 2.683901 -1.55874 2.12132 -2.12132 
C 1.55874 -2.683901 0.795609 -3 0 -3 
C -0.795609 -3 -1.55874 -2.683901 -2.12132 -2.12132 
C -2.683901 -1.55874 -3 -0.795609 -3 0 
C -3 0.795609 -2.683901 1.55874 -2.12132 2.12132 
C -1.55874 2.683901 -0.795609 3 0 3 
z
" id="mb439eb02a6" style="stroke:#1f77b4;"/>
    </defs>
    <g clip-path="url(#p6968ece65f)">
     <use style="fill:#1f77b4;stroke:#1f77b4;" x="63.489848" xlink:href="#mb439eb02a6" y="115.125581"/>
     <use style="fill:#1f77b4;stroke:#1f77b4;" x="95.029545" xlink:href="#mb439eb02a6" y="111.867493"/>
     <use style="fill:#1f77b4;stroke:#1f77b4;" x="126.569242" xlink:href="#mb439eb02a6" y="137.317658"/>
     <use style="fill:#1f77b4;stroke:#1f77b4;" x="158.108939" xlink:href="#mb439eb02a6" y="125.683914"/>
     <use style="fill:#1f77b4;stroke:#1f77b4;" x="189.648636" xlink:href="#mb439eb02a6" y="128.903251"/>
     <use style="fill:#1f77b4;stroke:#1f77b4;" x="221.188333" xlink:href="#mb439eb02a6" y="132.094987"/>
     <use style="fill:#1f77b4;stroke:#1f77b4;" x="252.72803" xlink:href="#mb439eb02a6" y="147.879617"/>
     <use style="fill:#1f77b4;stroke:#1f77b4;" x="284.267727" xlink:href="#mb439eb02a6" y="150.677611"/>
     <use style="fill:#1f77b4;stroke:#1f77b4;" x="315.807424" xlink:href="#mb439eb02a6" y="157.425707"/>
     <use style="fill:#1f77b4;stroke:#1f77b4;" x="347.347121" xlink:href="#mb439eb02a6" y="166.927562"/>
     <use style="fill:#1f77b4;stroke:#1f77b4;" x="378.886818" xlink:href="#mb439eb02a6" y="168.505895"/>
     <use style="fill:#1f77b4;stroke:#1f77b4;" x="410.426515" xlink:href="#mb439eb02a6" y="170.089188"/>
     <use style="fill:#1f77b4;stroke:#1f77b4;" x="441.966212" xlink:href="#mb439eb02a6" y="170.756159"/>
     <use style="fill:#1f77b4;stroke:#1f77b4;" x="473.505909" xlink:href="#mb439eb02a6" y="182.645407"/>
     <use style="fill:#1f77b4;stroke:#1f77b4;" x="505.045606" xlink:href="#mb439eb02a6" y="190.45556"/>
     <use style="fill:#1f77b4;stroke:#1f77b4;" x="536.585303" xlink:href="#mb439eb02a6" y="188.227124"/>
     <use style="fill:#1f77b4;stroke:#1f77b4;" x="568.125" xlink:href="#mb439eb02a6" y="191.013884"/>
     <use style="fill:#1f77b4;stroke:#1f77b4;" x="599.664697" xlink:href="#mb439eb02a6" y="192.765056"/>
     <use style="fill:#1f77b4;stroke:#1f77b4;" x="631.204394" xlink:href="#mb439eb02a6" y="197.341367"/>
     <use style="fill:#1f77b4;stroke:#1f77b4;" x="662.744091" xlink:href="#mb439eb02a6" y="189.115533"/>
     <use style="fill:#1f77b4;stroke:#1f77b4;" x="694.283788" xlink:href="#mb439eb02a6" y="185.751437"/>
     <use style="fill:#1f77b4;stroke:#1f77b4;" x="725.823485" xlink:href="#mb439eb02a6" y="190.00941"/>
     <use style="fill:#1f77b4;stroke:#1f77b4;" x="757.363182" xlink:href="#mb439eb02a6" y="183.837282"/>
     <use style="fill:#1f77b4;stroke:#1f77b4;" x="788.902879" xlink:href="#mb439eb02a6" y="209.623384"/>
     <use style="fill:#1f77b4;stroke:#1f77b4;" x="820.442576" xlink:href="#mb439eb02a6" y="200.021943"/>
     <use style="fill:#1f77b4;stroke:#1f77b4;" x="851.982273" xlink:href="#mb439eb02a6" y="196.05829"/>
     <use style="fill:#1f77b4;stroke:#1f77b4;" x="883.52197" xlink:href="#mb439eb02a6" y="200.775411"/>
     <use style="fill:#1f77b4;stroke:#1f77b4;" x="915.061667" xlink:href="#mb439eb02a6" y="230.646882"/>
     <use style="fill:#1f77b4;stroke:#1f77b4;" x="946.601364" xlink:href="#mb439eb02a6" y="198.002188"/>
     <use style="fill:#1f77b4;stroke:#1f77b4;" x="978.141061" xlink:href="#mb439eb02a6" y="233.901606"/>
     <use style="fill:#1f77b4;stroke:#1f77b4;" x="1009.680758" xlink:href="#mb439eb02a6" y="251.281008"/>
     <use style="fill:#1f77b4;stroke:#1f77b4;" x="1041.220455" xlink:href="#mb439eb02a6" y="292.745185"/>
    </g>
   </g>
   <g id="line2d_41">
    <path clip-path="url(#p6968ece65f)" d="M 63.489848 145.153898 
L 95.029545 180.920691 
L 126.569242 159.812045 
L 158.108939 153.481082 
L 189.648636 145.317937 
L 221.188333 152.328949 
L 252.72803 160.891271 
L 284.267727 155.010239 
L 315.807424 157.01712 
L 347.347121 160.923814 
L 378.886818 166.21724 
L 410.426515 163.941379 
L 441.966212 168.497707 
L 473.505909 171.265857 
L 505.045606 189.402244 
L 536.585303 192.453627 
L 568.125 193.080904 
L 599.664697 202.230088 
L 631.204394 207.574576 
L 662.744091 214.31413 
L 694.283788 205.533862 
L 725.823485 216.713858 
L 757.363182 200.302995 
L 788.902879 208.437528 
L 820.442576 217.288312 
L 851.982273 256.365066 
L 883.52197 200.578252 
L 915.061667 248.441296 
L 946.601364 218.483429 
L 978.141061 228.242635 
L 1009.680758 252.278987 
L 1041.220455 164.872 
L 1072.760152 193.82004 
" style="fill:none;stroke:#ff7f0e;stroke-linecap:square;stroke-width:1.5;"/>
    <defs>
     <path d="M -3 3 
L 3 3 
L 3 -3 
L -3 -3 
z
" id="m97d0d709bc" style="stroke:#ff7f0e;stroke-linejoin:miter;"/>
    </defs>
    <g clip-path="url(#p6968ece65f)">
     <use style="fill:#ff7f0e;stroke:#ff7f0e;stroke-linejoin:miter;" x="63.489848" xlink:href="#m97d0d709bc" y="145.153898"/>
     <use style="fill:#ff7f0e;stroke:#ff7f0e;stroke-linejoin:miter;" x="95.029545" xlink:href="#m97d0d709bc" y="180.920691"/>
     <use style="fill:#ff7f0e;stroke:#ff7f0e;stroke-linejoin:miter;" x="126.569242" xlink:href="#m97d0d709bc" y="159.812045"/>
     <use style="fill:#ff7f0e;stroke:#ff7f0e;stroke-linejoin:miter;" x="158.108939" xlink:href="#m97d0d709bc" y="153.481082"/>
     <use style="fill:#ff7f0e;stroke:#ff7f0e;stroke-linejoin:miter;" x="189.648636" xlink:href="#m97d0d709bc" y="145.317937"/>
     <use style="fill:#ff7f0e;stroke:#ff7f0e;stroke-linejoin:miter;" x="221.188333" xlink:href="#m97d0d709bc" y="152.328949"/>
     <use style="fill:#ff7f0e;stroke:#ff7f0e;stroke-linejoin:miter;" x="252.72803" xlink:href="#m97d0d709bc" y="160.891271"/>
     <use style="fill:#ff7f0e;stroke:#ff7f0e;stroke-linejoin:miter;" x="284.267727" xlink:href="#m97d0d709bc" y="155.010239"/>
     <use style="fill:#ff7f0e;stroke:#ff7f0e;stroke-linejoin:miter;" x="315.807424" xlink:href="#m97d0d709bc" y="157.01712"/>
     <use style="fill:#ff7f0e;stroke:#ff7f0e;stroke-linejoin:miter;" x="347.347121" xlink:href="#m97d0d709bc" y="160.923814"/>
     <use style="fill:#ff7f0e;stroke:#ff7f0e;stroke-linejoin:miter;" x="378.886818" xlink:href="#m97d0d709bc" y="166.21724"/>
     <use style="fill:#ff7f0e;stroke:#ff7f0e;stroke-linejoin:miter;" x="410.426515" xlink:href="#m97d0d709bc" y="163.941379"/>
     <use style="fill:#ff7f0e;stroke:#ff7f0e;stroke-linejoin:miter;" x="441.966212" xlink:href="#m97d0d709bc" y="168.497707"/>
     <use style="fill:#ff7f0e;stroke:#ff7f0e;stroke-linejoin:miter;" x="473.505909" xlink:href="#m97d0d709bc" y="171.265857"/>
     <use style="fill:#ff7f0e;stroke:#ff7f0e;stroke-linejoin:miter;" x="505.045606" xlink:href="#m97d0d709bc" y="189.402244"/>
     <use style="fill:#ff7f0e;stroke:#ff7f0e;stroke-linejoin:miter;" x="536.585303" xlink:href="#m97d0d709bc" y="192.453627"/>
     <use style="fill:#ff7f0e;stroke:#ff7f0e;stroke-linejoin:miter;" x="568.125" xlink:href="#m97d0d709bc" y="193.080904"/>
     <use style="fill:#ff7f0e;stroke:#ff7f0e;stroke-linejoin:miter;" x="599.664697" xlink:href="#m97d0d709bc" y="202.230088"/>
     <use style="fill:#ff7f0e;stroke:#ff7f0e;stroke-linejoin:miter;" x="631.204394" xlink:href="#m97d0d709bc" y="207.574576"/>
     <use style="fill:#ff7f0e;stroke:#ff7f0e;stroke-linejoin:miter;" x="662.744091" xlink:href="#m97d0d709bc" y="214.31413"/>
     <use style="fill:#ff7f0e;stroke:#ff7f0e;stroke-linejoin:miter;" x="694.283788" xlink:href="#m97d0d709bc" y="205.533862"/>
     <use style="fill:#ff7f0e;stroke:#ff7f0e;stroke-linejoin:miter;" x="725.823485" xlink:href="#m97d0d709bc" y="216.713858"/>
     <use style="fill:#ff7f0e;stroke:#ff7f0e;stroke-linejoin:miter;" x="757.363182" xlink:href="#m97d0d709bc" y="200.302995"/>
     <use style="fill:#ff7f0e;stroke:#ff7f0e;stroke-linejoin:miter;" x="788.902879" xlink:href="#m97d0d709bc" y="208.437528"/>
     <use style="fill:#ff7f0e;stroke:#ff7f0e;stroke-linejoin:miter;" x="820.442576" xlink:href="#m97d0d709bc" y="217.288312"/>
     <use style="fill:#ff7f0e;stroke:#ff7f0e;stroke-linejoin:miter;" x="851.982273" xlink:href="#m97d0d709bc" y="256.365066"/>
     <use style="fill:#ff7f0e;stroke:#ff7f0e;stroke-linejoin:miter;" x="883.52197" xlink:href="#m97d0d709bc" y="200.578252"/>
     <use style="fill:#ff7f0e;stroke:#ff7f0e;stroke-linejoin:miter;" x="915.061667" xlink:href="#m97d0d709bc" y="248.441296"/>
     <use style="fill:#ff7f0e;stroke:#ff7f0e;stroke-linejoin:miter;" x="946.601364" xlink:href="#m97d0d709bc" y="218.483429"/>
     <use style="fill:#ff7f0e;stroke:#ff7f0e;stroke-linejoin:miter;" x="978.141061" xlink:href="#m97d0d709bc" y="228.242635"/>
     <use style="fill:#ff7f0e;stroke:#ff7f0e;stroke-linejoin:miter;" x="1009.680758" xlink:href="#m97d0d709bc" y="252.278987"/>
     <use style="fill:#ff7f0e;stroke:#ff7f0e;stroke-linejoin:miter;" x="1041.220455" xlink:href="#m97d0d709bc" y="164.872"/>
     <use style="fill:#ff7f0e;stroke:#ff7f0e;stroke-linejoin:miter;" x="1072.760152" xlink:href="#m97d0d709bc" y="193.82004"/>
    </g>
   </g>
   <g id="line2d_42">
    <path clip-path="url(#p6968ece65f)" d="M 95.029545 84.437394 
L 126.569242 99.644762 
L 158.108939 106.47863 
L 189.648636 111.935265 
L 221.188333 112.150317 
L 252.72803 112.743699 
L 284.267727 106.804266 
L 315.807424 110.641234 
L 347.347121 110.109323 
L 378.886818 113.727375 
L 410.426515 115.964982 
L 441.966212 118.179591 
L 473.505909 124.237566 
L 505.045606 131.926746 
L 536.585303 136.625836 
L 568.125 141.346348 
" style="fill:none;stroke:#2ca02c;stroke-linecap:square;stroke-width:1.5;"/>
    <defs>
     <path d="M 0 -3 
L -3 3 
L 3 3 
z
" id="mab2b397d38" style="stroke:#2ca02c;stroke-linejoin:miter;"/>
    </defs>
    <g clip-path="url(#p6968ece65f)">
     <use style="fill:#2ca02c;stroke:#2ca02c;stroke-linejoin:miter;" x="95.029545" xlink:href="#mab2b397d38" y="84.437394"/>
     <use style="fill:#2ca02c;stroke:#2ca02c;stroke-linejoin:miter;" x="126.569242" xlink:href="#mab2b397d38" y="99.644762"/>
     <use style="fill:#2ca02c;stroke:#2ca02c;stroke-linejoin:miter;" x="158.108939" xlink:href="#mab2b397d38" y="106.47863"/>
     <use style="fill:#2ca02c;stroke:#2ca02c;stroke-linejoin:miter;" x="189.648636" xlink:href="#mab2b397d38" y="111.935265"/>
     <use style="fill:#2ca02c;stroke:#2ca02c;stroke-linejoin:miter;" x="221.188333" xlink:href="#mab2b397d38" y="112.150317"/>
     <use style="fill:#2ca02c;stroke:#2ca02c;stroke-linejoin:miter;" x="252.72803" xlink:href="#mab2b397d38" y="112.743699"/>
     <use style="fill:#2ca02c;stroke:#2ca02c;stroke-linejoin:miter;" x="284.267727" xlink:href="#mab2b397d38" y="106.804266"/>
     <use style="fill:#2ca02c;stroke:#2ca02c;stroke-linejoin:miter;" x="315.807424" xlink:href="#mab2b397d38" y="110.641234"/>
     <use style="fill:#2ca02c;stroke:#2ca02c;stroke-linejoin:miter;" x="347.347121" xlink:href="#mab2b397d38" y="110.109323"/>
     <use style="fill:#2ca02c;stroke:#2ca02c;stroke-linejoin:miter;" x="378.886818" xlink:href="#mab2b397d38" y="113.727375"/>
     <use style="fill:#2ca02c;stroke:#2ca02c;stroke-linejoin:miter;" x="410.426515" xlink:href="#mab2b397d38" y="115.964982"/>
     <use style="fill:#2ca02c;stroke:#2ca02c;stroke-linejoin:miter;" x="441.966212" xlink:href="#mab2b397d38" y="118.179591"/>
     <use style="fill:#2ca02c;stroke:#2ca02c;stroke-linejoin:miter;" x="473.505909" xlink:href="#mab2b397d38" y="124.237566"/>
     <use style="fill:#2ca02c;stroke:#2ca02c;stroke-linejoin:miter;" x="505.045606" xlink:href="#mab2b397d38" y="131.926746"/>
     <use style="fill:#2ca02c;stroke:#2ca02c;stroke-linejoin:miter;" x="536.585303" xlink:href="#mab2b397d38" y="136.625836"/>
     <use style="fill:#2ca02c;stroke:#2ca02c;stroke-linejoin:miter;" x="568.125" xlink:href="#mab2b397d38" y="141.346348"/>
    </g>
   </g>
   <g id="patch_3">
    <path d="M 47.72 390.04 
L 47.72 14.76 
" style="fill:none;stroke:#000000;stroke-linecap:square;stroke-linejoin:miter;stroke-width:0.8;"/>
   </g>
   <g id="patch_4">
    <path d="M 1088.53 390.04 
L 1088.53 14.76 
" style="fill:none;stroke:#000000;stroke-linecap:square;stroke-linejoin:miter;stroke-width:0.8;"/>
   </g>
   <g id="patch_5">
    <path d="M 47.72 390.04 
L 1088.53 390.04 
" style="fill:none;stroke:#000000;stroke-linecap:square;stroke-linejoin:miter;stroke-width:0.8;"/>
   </g>
   <g id="patch_6">
    <path d="M 47.72 14.76 
L 1088.53 14.76 
" style="fill:none;stroke:#000000;stroke-linecap:square;stroke-linejoin:miter;stroke-width:0.8;"/>
   </g>
  </g>
  <g id="axes_2">
   <g id="patch_7">
    <path clip-path="url(#p6968ece65f)" d="M 50.085477 390.04 
L 57.970402 390.04 
L 57.970402 387.377616 
L 50.085477 387.377616 
z
" style="fill:#1f77b4;fill-opacity:0.4;"/>
   </g>
   <g id="patch_8">
    <path clip-path="url(#p6968ece65f)" d="M 81.625174 390.04 
L 89.510098 390.04 
L 89.510098 384.2973 
L 81.625174 384.2973 
z
" style="fill:#1f77b4;fill-opacity:0.4;"/>
   </g>
   <g id="patch_9">
    <path clip-path="url(#p6968ece65f)" d="M 113.164871 390.04 
L 121.049795 390.04 
L 121.049795 376.294671 
L 113.164871 376.294671 
z
" style="fill:#1f77b4;fill-opacity:0.4;"/>
   </g>
   <g id="patch_10">
    <path clip-path="url(#p6968ece65f)" d="M 144.704568 390.04 
L 152.589492 390.04 
L 152.589492 366.94537 
L 144.704568 366.94537 
z
" style="fill:#1f77b4;fill-opacity:0.4;"/>
   </g>
   <g id="patch_11">
    <path clip-path="url(#p6968ece65f)" d="M 176.244265 390.04 
L 184.129189 390.04 
L 184.129189 351.667622 
L 176.244265 351.667622 
z
" style="fill:#1f77b4;fill-opacity:0.4;"/>
   </g>
   <g id="patch_12">
    <path clip-path="url(#p6968ece65f)" d="M 207.783962 390.04 
L 215.668886 390.04 
L 215.668886 317.412651 
L 207.783962 317.412651 
z
" style="fill:#1f77b4;fill-opacity:0.4;"/>
   </g>
   <g id="patch_13">
    <path clip-path="url(#p6968ece65f)" d="M 239.323659 390.04 
L 247.208583 390.04 
L 247.208583 267.245294 
L 239.323659 267.245294 
z
" style="fill:#1f77b4;fill-opacity:0.4;"/>
   </g>
   <g id="patch_14">
    <path clip-path="url(#p6968ece65f)" d="M 270.863356 390.04 
L 278.74828 390.04 
L 278.74828 238.702065 
L 270.863356 238.702065 
z
" style="fill:#1f77b4;fill-opacity:0.4;"/>
   </g>
   <g id="patch_15">
    <path clip-path="url(#p6968ece65f)" d="M 302.403053 390.04 
L 310.287977 390.04 
L 310.287977 178.473375 
L 302.403053 178.473375 
z
" style="fill:#1f77b4;fill-opacity:0.4;"/>
   </g>
   <g id="patch_16">
    <path clip-path="url(#p6968ece65f)" d="M 333.94275 390.04 
L 341.827674 390.04 
L 341.827674 99.530604 
L 333.94275 99.530604 
z
" style="fill:#1f77b4;fill-opacity:0.4;"/>
   </g>
   <g id="patch_17">
    <path clip-path="url(#p6968ece65f)" d="M 365.482447 390.04 
L 373.367371 390.04 
L 373.367371 68.092807 
L 365.482447 68.092807 
z
" style="fill:#1f77b4;fill-opacity:0.4;"/>
   </g>
   <g id="patch_18">
    <path clip-path="url(#p6968ece65f)" d="M 397.022144 390.04 
L 404.907068 390.04 
L 404.907068 32.630476 
L 397.022144 32.630476 
z
" style="fill:#1f77b4;fill-opacity:0.4;"/>
   </g>
   <g id="patch_19">
    <path clip-path="url(#p6968ece65f)" d="M 428.561841 390.04 
L 436.446765 390.04 
L 436.446765 116.975409 
L 428.561841 116.975409 
z
" style="fill:#1f77b4;fill-opacity:0.4;"/>
   </g>
   <g id="patch_20">
    <path clip-path="url(#p6968ece65f)" d="M 460.101538 390.04 
L 467.986462 390.04 
L 467.986462 136.417001 
L 460.101538 136.417001 
z
" style="fill:#1f77b4;fill-opacity:0.4;"/>
   </g>
   <g id="patch_21">
    <path clip-path="url(#p6968ece65f)" d="M 491.641235 390.04 
L 499.526159 390.04 
L 499.526159 162.437157 
L 491.641235 162.437157 
z
" style="fill:#1f77b4;fill-opacity:0.4;"/>
   </g>
   <g id="patch_22">
    <path clip-path="url(#p6968ece65f)" d="M 523.180932 390.04 
L 531.065856 390.04 
L 531.065856 206.830856 
L 523.180932 206.830856 
z
" style="fill:#1f77b4;fill-opacity:0.4;"/>
   </g>
   <g id="patch_23">
    <path clip-path="url(#p6968ece65f)" d="M 554.720629 390.04 
L 562.605553 390.04 
L 562.605553 207.651242 
L 554.720629 207.651242 
z
" style="fill:#1f77b4;fill-opacity:0.4;"/>
   </g>
   <g id="patch_24">
    <path clip-path="url(#p6968ece65f)" d="M 586.260326 390.04 
L 594.14525 390.04 
L 594.14525 251.673446 
L 586.260326 251.673446 
z
" style="fill:#1f77b4;fill-opacity:0.4;"/>
   </g>
   <g id="patch_25">
    <path clip-path="url(#p6968ece65f)" d="M 617.800023 390.04 
L 625.684947 390.04 
L 625.684947 266.595177 
L 617.800023 266.595177 
z
" style="fill:#1f77b4;fill-opacity:0.4;"/>
   </g>
   <g id="patch_26">
    <path clip-path="url(#p6968ece65f)" d="M 649.33972 390.04 
L 657.224644 390.04 
L 657.224644 272.631978 
L 649.33972 272.631978 
z
" style="fill:#1f77b4;fill-opacity:0.4;"/>
   </g>
   <g id="patch_27">
    <path clip-path="url(#p6968ece65f)" d="M 680.879417 390.04 
L 688.764341 390.04 
L 688.764341 313.976319 
L 680.879417 313.976319 
z
" style="fill:#1f77b4;fill-opacity:0.4;"/>
   </g>
   <g id="patch_28">
    <path clip-path="url(#p6968ece65f)" d="M 712.419114 390.04 
L 720.304038 390.04 
L 720.304038 315.028889 
L 712.419114 315.028889 
z
" style="fill:#1f77b4;fill-opacity:0.4;"/>
   </g>
   <g id="patch_29">
    <path clip-path="url(#p6968ece65f)" d="M 743.958811 390.04 
L 751.843735 390.04 
L 751.843735 351.079421 
L 743.958811 351.079421 
z
" style="fill:#1f77b4;fill-opacity:0.4;"/>
   </g>
   <g id="patch_30">
    <path clip-path="url(#p6968ece65f)" d="M 775.498508 390.04 
L 783.383432 390.04 
L 783.383432 355.459971 
L 775.498508 355.459971 
z
" style="fill:#1f77b4;fill-opacity:0.4;"/>
   </g>
   <g id="patch_31">
    <path clip-path="url(#p6968ece65f)" d="M 807.038205 390.04 
L 814.923129 390.04 
L 814.923129 364.391339 
L 807.038205 364.391339 
z
" style="fill:#1f77b4;fill-opacity:0.4;"/>
   </g>
   <g id="patch_32">
    <path clip-path="url(#p6968ece65f)" d="M 838.577902 390.04 
L 846.462826 390.04 
L 846.462826 374.468152 
L 838.577902 374.468152 
z
" style="fill:#1f77b4;fill-opacity:0.4;"/>
   </g>
   <g id="patch_33">
    <path clip-path="url(#p6968ece65f)" d="M 870.117598 390.04 
L 878.002523 390.04 
L 878.002523 375.737427 
L 870.117598 375.737427 
z
" style="fill:#1f77b4;fill-opacity:0.4;"/>
   </g>
   <g id="patch_34">
    <path clip-path="url(#p6968ece65f)" d="M 901.657295 390.04 
L 909.54222 390.04 
L 909.54222 384.281821 
L 901.657295 384.281821 
z
" style="fill:#1f77b4;fill-opacity:0.4;"/>
   </g>
   <g id="patch_35">
    <path clip-path="url(#p6968ece65f)" d="M 933.196992 390.04 
L 941.081917 390.04 
L 941.081917 386.077382 
L 933.196992 386.077382 
z
" style="fill:#1f77b4;fill-opacity:0.4;"/>
   </g>
   <g id="patch_36">
    <path clip-path="url(#p6968ece65f)" d="M 964.736689 390.04 
L 972.621614 390.04 
L 972.621614 387.91938 
L 964.736689 387.91938 
z
" style="fill:#1f77b4;fill-opacity:0.4;"/>
   </g>
   <g id="patch_37">
    <path clip-path="url(#p6968ece65f)" d="M 996.276386 390.04 
L 1004.161311 390.04 
L 1004.161311 388.198002 
L 996.276386 388.198002 
z
" style="fill:#1f77b4;fill-opacity:0.4;"/>
   </g>
   <g id="patch_38">
    <path clip-path="url(#p6968ece65f)" d="M 1027.816083 390.04 
L 1035.701008 390.04 
L 1035.701008 389.622068 
L 1027.816083 389.622068 
z
" style="fill:#1f77b4;fill-opacity:0.4;"/>
   </g>
   <g id="patch_39">
    <path clip-path="url(#p6968ece65f)" d="M 1059.35578 390.04 
L 1067.240705 390.04 
L 1067.240705 390.04 
L 1059.35578 390.04 
z
" style="fill:#1f77b4;fill-opacity:0.4;"/>
   </g>
   <g id="patch_40">
    <path clip-path="url(#p6968ece65f)" d="M 59.547386 390.04 
L 67.432311 390.04 
L 67.432311 386.386962 
L 59.547386 386.386962 
z
" style="fill:#ff7f0e;fill-opacity:0.4;"/>
   </g>
   <g id="patch_41">
    <path clip-path="url(#p6968ece65f)" d="M 91.087083 390.04 
L 98.972008 390.04 
L 98.972008 382.873235 
L 91.087083 382.873235 
z
" style="fill:#ff7f0e;fill-opacity:0.4;"/>
   </g>
   <g id="patch_42">
    <path clip-path="url(#p6968ece65f)" d="M 122.62678 390.04 
L 130.511705 390.04 
L 130.511705 376.263713 
L 122.62678 376.263713 
z
" style="fill:#ff7f0e;fill-opacity:0.4;"/>
   </g>
   <g id="patch_43">
    <path clip-path="url(#p6968ece65f)" d="M 154.166477 390.04 
L 162.051402 390.04 
L 162.051402 369.437485 
L 154.166477 369.437485 
z
" style="fill:#ff7f0e;fill-opacity:0.4;"/>
   </g>
   <g id="patch_44">
    <path clip-path="url(#p6968ece65f)" d="M 185.706174 390.04 
L 193.591098 390.04 
L 193.591098 360.629948 
L 185.706174 360.629948 
z
" style="fill:#ff7f0e;fill-opacity:0.4;"/>
   </g>
   <g id="patch_45">
    <path clip-path="url(#p6968ece65f)" d="M 217.245871 390.04 
L 225.130795 390.04 
L 225.130795 338.355704 
L 217.245871 338.355704 
z
" style="fill:#ff7f0e;fill-opacity:0.4;"/>
   </g>
   <g id="patch_46">
    <path clip-path="url(#p6968ece65f)" d="M 248.785568 390.04 
L 256.670492 390.04 
L 256.670492 299.565393 
L 248.785568 299.565393 
z
" style="fill:#ff7f0e;fill-opacity:0.4;"/>
   </g>
   <g id="patch_47">
    <path clip-path="url(#p6968ece65f)" d="M 280.325265 390.04 
L 288.210189 390.04 
L 288.210189 281.068019 
L 280.325265 281.068019 
z
" style="fill:#ff7f0e;fill-opacity:0.4;"/>
   </g>
   <g id="patch_48">
    <path clip-path="url(#p6968ece65f)" d="M 311.864962 390.04 
L 319.749886 390.04 
L 319.749886 241.689507 
L 311.864962 241.689507 
z
" style="fill:#ff7f0e;fill-opacity:0.4;"/>
   </g>
   <g id="patch_49">
    <path clip-path="url(#p6968ece65f)" d="M 343.404659 390.04 
L 351.289583 390.04 
L 351.289583 189.060994 
L 343.404659 189.060994 
z
" style="fill:#ff7f0e;fill-opacity:0.4;"/>
   </g>
   <g id="patch_50">
    <path clip-path="url(#p6968ece65f)" d="M 374.944356 390.04 
L 382.82928 390.04 
L 382.82928 168.086983 
L 374.944356 168.086983 
z
" style="fill:#ff7f0e;fill-opacity:0.4;"/>
   </g>
   <g id="patch_51">
    <path clip-path="url(#p6968ece65f)" d="M 406.484053 390.04 
L 414.368977 390.04 
L 414.368977 142.856254 
L 406.484053 142.856254 
z
" style="fill:#ff7f0e;fill-opacity:0.4;"/>
   </g>
   <g id="patch_52">
    <path clip-path="url(#p6968ece65f)" d="M 438.02375 390.04 
L 445.908674 390.04 
L 445.908674 209.957609 
L 438.02375 209.957609 
z
" style="fill:#ff7f0e;fill-opacity:0.4;"/>
   </g>
   <g id="patch_53">
    <path clip-path="url(#p6968ece65f)" d="M 469.563447 390.04 
L 477.448371 390.04 
L 477.448371 216.149199 
L 469.563447 216.149199 
z
" style="fill:#ff7f0e;fill-opacity:0.4;"/>
   </g>
   <g id="patch_54">
    <path clip-path="url(#p6968ece65f)" d="M 501.103144 390.04 
L 508.988068 390.04 
L 508.988068 233.841667 
L 501.103144 233.841667 
z
" style="fill:#ff7f0e;fill-opacity:0.4;"/>
   </g>
   <g id="patch_55">
    <path clip-path="url(#p6968ece65f)" d="M 532.642841 390.04 
L 540.527765 390.04 
L 540.527765 260.094008 
L 532.642841 260.094008 
z
" style="fill:#ff7f0e;fill-opacity:0.4;"/>
   </g>
   <g id="patch_56">
    <path clip-path="url(#p6968ece65f)" d="M 564.182538 390.04 
L 572.067462 390.04 
L 572.067462 265.372338 
L 564.182538 265.372338 
z
" style="fill:#ff7f0e;fill-opacity:0.4;"/>
   </g>
   <g id="patch_57">
    <path clip-path="url(#p6968ece65f)" d="M 595.722235 390.04 
L 603.607159 390.04 
L 603.607159 287.476314 
L 595.722235 287.476314 
z
" style="fill:#ff7f0e;fill-opacity:0.4;"/>
   </g>
   <g id="patch_58">
    <path clip-path="url(#p6968ece65f)" d="M 627.261932 390.04 
L 635.146856 390.04 
L 635.146856 295.742087 
L 627.261932 295.742087 
z
" style="fill:#ff7f0e;fill-opacity:0.4;"/>
   </g>
   <g id="patch_59">
    <path clip-path="url(#p6968ece65f)" d="M 658.801629 390.04 
L 666.686553 390.04 
L 666.686553 293.745299 
L 658.801629 293.745299 
z
" style="fill:#ff7f0e;fill-opacity:0.4;"/>
   </g>
   <g id="patch_60">
    <path clip-path="url(#p6968ece65f)" d="M 690.341326 390.04 
L 698.22625 390.04 
L 698.22625 330.724569 
L 690.341326 330.724569 
z
" style="fill:#ff7f0e;fill-opacity:0.4;"/>
   </g>
   <g id="patch_61">
    <path clip-path="url(#p6968ece65f)" d="M 721.881023 390.04 
L 729.765947 390.04 
L 729.765947 326.730994 
L 721.881023 326.730994 
z
" style="fill:#ff7f0e;fill-opacity:0.4;"/>
   </g>
   <g id="patch_62">
    <path clip-path="url(#p6968ece65f)" d="M 753.42072 390.04 
L 761.305644 390.04 
L 761.305644 355.413534 
L 753.42072 355.413534 
z
" style="fill:#ff7f0e;fill-opacity:0.4;"/>
   </g>
   <g id="patch_63">
    <path clip-path="url(#p6968ece65f)" d="M 784.960417 390.04 
L 792.845341 390.04 
L 792.845341 353.478662 
L 784.960417 353.478662 
z
" style="fill:#ff7f0e;fill-opacity:0.4;"/>
   </g>
   <g id="patch_64">
    <path clip-path="url(#p6968ece65f)" d="M 816.500114 390.04 
L 824.385038 390.04 
L 824.385038 365.459388 
L 816.500114 365.459388 
z
" style="fill:#ff7f0e;fill-opacity:0.4;"/>
   </g>
   <g id="patch_65">
    <path clip-path="url(#p6968ece65f)" d="M 848.039811 390.04 
L 855.924735 390.04 
L 855.924735 372.440406 
L 848.039811 372.440406 
z
" style="fill:#ff7f0e;fill-opacity:0.4;"/>
   </g>
   <g id="patch_66">
    <path clip-path="url(#p6968ece65f)" d="M 879.579508 390.04 
L 887.464432 390.04 
L 887.464432 369.313653 
L 879.579508 369.313653 
z
" style="fill:#ff7f0e;fill-opacity:0.4;"/>
   </g>
   <g id="patch_67">
    <path clip-path="url(#p6968ece65f)" d="M 911.119205 390.04 
L 919.004129 390.04 
L 919.004129 383.353083 
L 911.119205 383.353083 
z
" style="fill:#ff7f0e;fill-opacity:0.4;"/>
   </g>
   <g id="patch_68">
    <path clip-path="url(#p6968ece65f)" d="M 942.658902 390.04 
L 950.543826 390.04 
L 950.543826 385.164123 
L 942.658902 385.164123 
z
" style="fill:#ff7f0e;fill-opacity:0.4;"/>
   </g>
   <g id="patch_69">
    <path clip-path="url(#p6968ece65f)" d="M 974.198598 390.04 
L 982.083523 390.04 
L 982.083523 387.455011 
L 974.198598 387.455011 
z
" style="fill:#ff7f0e;fill-opacity:0.4;"/>
   </g>
   <g id="patch_70">
    <path clip-path="url(#p6968ece65f)" d="M 1005.738295 390.04 
L 1013.62322 390.04 
L 1013.62322 387.594322 
L 1005.738295 387.594322 
z
" style="fill:#ff7f0e;fill-opacity:0.4;"/>
   </g>
   <g id="patch_71">
    <path clip-path="url(#p6968ece65f)" d="M 1037.277992 390.04 
L 1045.162917 390.04 
L 1045.162917 385.009333 
L 1037.277992 385.009333 
z
" style="fill:#ff7f0e;fill-opacity:0.4;"/>
   </g>
   <g id="patch_72">
    <path clip-path="url(#p6968ece65f)" d="M 1068.817689 390.04 
L 1076.702614 390.04 
L 1076.702614 366.682227 
L 1068.817689 366.682227 
z
" style="fill:#ff7f0e;fill-opacity:0.4;"/>
   </g>
   <g id="patch_73">
    <path clip-path="url(#p6968ece65f)" d="M 69.009295 390.04 
L 76.89422 390.04 
L 76.89422 390.04 
L 69.009295 390.04 
z
" style="fill:#2ca02c;fill-opacity:0.4;"/>
   </g>
   <g id="patch_74">
    <path clip-path="url(#p6968ece65f)" d="M 100.548992 390.04 
L 108.433917 390.04 
L 108.433917 385.287955 
L 100.548992 385.287955 
z
" style="fill:#2ca02c;fill-opacity:0.4;"/>
   </g>
   <g id="patch_75">
    <path clip-path="url(#p6968ece65f)" d="M 132.088689 390.04 
L 139.973614 390.04 
L 139.973614 374.437194 
L 132.088689 374.437194 
z
" style="fill:#2ca02c;fill-opacity:0.4;"/>
   </g>
   <g id="patch_76">
    <path clip-path="url(#p6968ece65f)" d="M 163.628386 390.04 
L 171.513311 390.04 
L 171.513311 366.542917 
L 163.628386 366.542917 
z
" style="fill:#2ca02c;fill-opacity:0.4;"/>
   </g>
   <g id="patch_77">
    <path clip-path="url(#p6968ece65f)" d="M 195.168083 390.04 
L 203.053008 390.04 
L 203.053008 355.846945 
L 195.168083 355.846945 
z
" style="fill:#2ca02c;fill-opacity:0.4;"/>
   </g>
   <g id="patch_78">
    <path clip-path="url(#p6968ece65f)" d="M 226.70778 390.04 
L 234.592705 390.04 
L 234.592705 331.46756 
L 226.70778 331.46756 
z
" style="fill:#2ca02c;fill-opacity:0.4;"/>
   </g>
   <g id="patch_79">
    <path clip-path="url(#p6968ece65f)" d="M 258.247477 390.04 
L 266.132402 390.04 
L 266.132402 294.472811 
L 258.247477 294.472811 
z
" style="fill:#2ca02c;fill-opacity:0.4;"/>
   </g>
   <g id="patch_80">
    <path clip-path="url(#p6968ece65f)" d="M 289.787174 390.04 
L 297.672098 390.04 
L 297.672098 271.455575 
L 289.787174 271.455575 
z
" style="fill:#2ca02c;fill-opacity:0.4;"/>
   </g>
   <g id="patch_81">
    <path clip-path="url(#p6968ece65f)" d="M 321.326871 390.04 
L 329.211795 390.04 
L 329.211795 239.971341 
L 321.326871 239.971341 
z
" style="fill:#2ca02c;fill-opacity:0.4;"/>
   </g>
   <g id="patch_82">
    <path clip-path="url(#p6968ece65f)" d="M 352.866568 390.04 
L 360.751492 390.04 
L 360.751492 187.776239 
L 352.866568 187.776239 
z
" style="fill:#2ca02c;fill-opacity:0.4;"/>
   </g>
   <g id="patch_83">
    <path clip-path="url(#p6968ece65f)" d="M 384.406265 390.04 
L 392.291189 390.04 
L 392.291189 162.359762 
L 384.406265 162.359762 
z
" style="fill:#2ca02c;fill-opacity:0.4;"/>
   </g>
   <g id="patch_84">
    <path clip-path="url(#p6968ece65f)" d="M 415.945962 390.04 
L 423.830886 390.04 
L 423.830886 134.791709 
L 415.945962 134.791709 
z
" style="fill:#2ca02c;fill-opacity:0.4;"/>
   </g>
   <g id="patch_85">
    <path clip-path="url(#p6968ece65f)" d="M 447.485659 390.04 
L 455.370583 390.04 
L 455.370583 208.502586 
L 447.485659 208.502586 
z
" style="fill:#2ca02c;fill-opacity:0.4;"/>
   </g>
   <g id="patch_86">
    <path clip-path="url(#p6968ece65f)" d="M 479.025356 390.04 
L 486.91028 390.04 
L 486.91028 216.319468 
L 479.025356 216.319468 
z
" style="fill:#2ca02c;fill-opacity:0.4;"/>
   </g>
   <g id="patch_87">
    <path clip-path="url(#p6968ece65f)" d="M 510.565053 390.04 
L 518.449977 390.04 
L 518.449977 229.058664 
L 510.565053 229.058664 
z
" style="fill:#2ca02c;fill-opacity:0.4;"/>
   </g>
   <g id="patch_88">
    <path clip-path="url(#p6968ece65f)" d="M 542.10475 390.04 
L 549.989674 390.04 
L 549.989674 268.251428 
L 542.10475 268.251428 
z
" style="fill:#2ca02c;fill-opacity:0.4;"/>
   </g>
   <g id="patch_89">
    <path clip-path="url(#p6968ece65f)" d="M 573.644447 390.04 
L 581.529371 390.04 
L 581.529371 335.569488 
L 573.644447 335.569488 
z
" style="fill:#2ca02c;fill-opacity:0.4;"/>
   </g>
   <g id="patch_90">
    <path clip-path="url(#p6968ece65f)" d="M 1078.279598 390.04 
L 1086.164523 390.04 
L 1086.164523 390.04 
L 1078.279598 390.04 
z
" style="fill:#2ca02c;fill-opacity:0.4;"/>
   </g>
   <g id="matplotlib.axis_3">
    <g id="ytick_7">
     <g id="line2d_43">
      <defs>
       <path d="M 0 0 
L 3.5 0 
" id="m02588d221a" style="stroke:#000000;stroke-width:0.8;"/>
      </defs>
      <g>
       <use style="stroke:#000000;stroke-width:0.8;" x="1088.53" xlink:href="#m02588d221a" y="390.04"/>
      </g>
     </g>
     <g id="text_42">
      <!-- 0 -->
      <g transform="translate(1095.53 393.839219)scale(0.1 -0.1)">
       <use xlink:href="#DejaVuSans-30"/>
      </g>
     </g>
    </g>
    <g id="ytick_8">
     <g id="line2d_44">
      <g>
       <use style="stroke:#000000;stroke-width:0.8;" x="1088.53" xlink:href="#m02588d221a" y="312.645127"/>
      </g>
     </g>
     <g id="text_43">
      <!-- 5000 -->
      <g transform="translate(1095.53 316.444346)scale(0.1 -0.1)">
       <use xlink:href="#DejaVuSans-35"/>
       <use x="63.623047" xlink:href="#DejaVuSans-30"/>
       <use x="127.246094" xlink:href="#DejaVuSans-30"/>
       <use x="190.869141" xlink:href="#DejaVuSans-30"/>
      </g>
     </g>
    </g>
    <g id="ytick_9">
     <g id="line2d_45">
      <g>
       <use style="stroke:#000000;stroke-width:0.8;" x="1088.53" xlink:href="#m02588d221a" y="235.250254"/>
      </g>
     </g>
     <g id="text_44">
      <!-- 10000 -->
      <g transform="translate(1095.53 239.049473)scale(0.1 -0.1)">
       <use xlink:href="#DejaVuSans-31"/>
       <use x="63.623047" xlink:href="#DejaVuSans-30"/>
       <use x="127.246094" xlink:href="#DejaVuSans-30"/>
       <use x="190.869141" xlink:href="#DejaVuSans-30"/>
       <use x="254.492188" xlink:href="#DejaVuSans-30"/>
      </g>
     </g>
    </g>
    <g id="ytick_10">
     <g id="line2d_46">
      <g>
       <use style="stroke:#000000;stroke-width:0.8;" x="1088.53" xlink:href="#m02588d221a" y="157.855381"/>
      </g>
     </g>
     <g id="text_45">
      <!-- 15000 -->
      <g transform="translate(1095.53 161.6546)scale(0.1 -0.1)">
       <use xlink:href="#DejaVuSans-31"/>
       <use x="63.623047" xlink:href="#DejaVuSans-35"/>
       <use x="127.246094" xlink:href="#DejaVuSans-30"/>
       <use x="190.869141" xlink:href="#DejaVuSans-30"/>
       <use x="254.492188" xlink:href="#DejaVuSans-30"/>
      </g>
     </g>
    </g>
    <g id="ytick_11">
     <g id="line2d_47">
      <g>
       <use style="stroke:#000000;stroke-width:0.8;" x="1088.53" xlink:href="#m02588d221a" y="80.460508"/>
      </g>
     </g>
     <g id="text_46">
      <!-- 20000 -->
      <g transform="translate(1095.53 84.259726)scale(0.1 -0.1)">
       <use xlink:href="#DejaVuSans-32"/>
       <use x="63.623047" xlink:href="#DejaVuSans-30"/>
       <use x="127.246094" xlink:href="#DejaVuSans-30"/>
       <use x="190.869141" xlink:href="#DejaVuSans-30"/>
       <use x="254.492188" xlink:href="#DejaVuSans-30"/>
      </g>
     </g>
    </g>
    <g id="text_47">
     <!-- Number of examples -->
     <defs>
      <path d="M 9.8125 72.90625 
L 23.09375 72.90625 
L 55.421875 11.921875 
L 55.421875 72.90625 
L 64.984375 72.90625 
L 64.984375 0 
L 51.703125 0 
L 19.390625 60.984375 
L 19.390625 0 
L 9.8125 0 
z
" id="DejaVuSans-4e"/>
      <path d="M 52 44.1875 
Q 55.375 50.25 60.0625 53.125 
Q 64.75 56 71.09375 56 
Q 79.640625 56 84.28125 50.015625 
Q 88.921875 44.046875 88.921875 33.015625 
L 88.921875 0 
L 79.890625 0 
L 79.890625 32.71875 
Q 79.890625 40.578125 77.09375 44.375 
Q 74.3125 48.1875 68.609375 48.1875 
Q 61.625 48.1875 57.5625 43.546875 
Q 53.515625 38.921875 53.515625 30.90625 
L 53.515625 0 
L 44.484375 0 
L 44.484375 32.71875 
Q 44.484375 40.625 41.703125 44.40625 
Q 38.921875 48.1875 33.109375 48.1875 
Q 26.21875 48.1875 22.15625 43.53125 
Q 18.109375 38.875 18.109375 30.90625 
L 18.109375 0 
L 9.078125 0 
L 9.078125 54.6875 
L 18.109375 54.6875 
L 18.109375 46.1875 
Q 21.1875 51.21875 25.484375 53.609375 
Q 29.78125 56 35.6875 56 
Q 41.65625 56 45.828125 52.96875 
Q 50 49.953125 52 44.1875 
z
" id="DejaVuSans-6d"/>
      <path d="M 48.6875 27.296875 
Q 48.6875 37.203125 44.609375 42.84375 
Q 40.53125 48.484375 33.40625 48.484375 
Q 26.265625 48.484375 22.1875 42.84375 
Q 18.109375 37.203125 18.109375 27.296875 
Q 18.109375 17.390625 22.1875 11.75 
Q 26.265625 6.109375 33.40625 6.109375 
Q 40.53125 6.109375 44.609375 11.75 
Q 48.6875 17.390625 48.6875 27.296875 
z
M 18.109375 46.390625 
Q 20.953125 51.265625 25.265625 53.625 
Q 29.59375 56 35.59375 56 
Q 45.5625 56 51.78125 48.09375 
Q 58.015625 40.1875 58.015625 27.296875 
Q 58.015625 14.40625 51.78125 6.484375 
Q 45.5625 -1.421875 35.59375 -1.421875 
Q 29.59375 -1.421875 25.265625 0.953125 
Q 20.953125 3.328125 18.109375 8.203125 
L 18.109375 0 
L 9.078125 0 
L 9.078125 75.984375 
L 18.109375 75.984375 
z
" id="DejaVuSans-62"/>
      <path d="M 37.109375 75.984375 
L 37.109375 68.5 
L 28.515625 68.5 
Q 23.6875 68.5 21.796875 66.546875 
Q 19.921875 64.59375 19.921875 59.515625 
L 19.921875 54.6875 
L 34.71875 54.6875 
L 34.71875 47.703125 
L 19.921875 47.703125 
L 19.921875 0 
L 10.890625 0 
L 10.890625 47.703125 
L 2.296875 47.703125 
L 2.296875 54.6875 
L 10.890625 54.6875 
L 10.890625 58.5 
Q 10.890625 67.625 15.140625 71.796875 
Q 19.390625 75.984375 28.609375 75.984375 
z
" id="DejaVuSans-66"/>
      <path d="M 54.890625 54.6875 
L 35.109375 28.078125 
L 55.90625 0 
L 45.3125 0 
L 29.390625 21.484375 
L 13.484375 0 
L 2.875 0 
L 24.125 28.609375 
L 4.6875 54.6875 
L 15.28125 54.6875 
L 29.78125 35.203125 
L 44.28125 54.6875 
z
" id="DejaVuSans-78"/>
      <path d="M 18.109375 8.203125 
L 18.109375 -20.796875 
L 9.078125 -20.796875 
L 9.078125 54.6875 
L 18.109375 54.6875 
L 18.109375 46.390625 
Q 20.953125 51.265625 25.265625 53.625 
Q 29.59375 56 35.59375 56 
Q 45.5625 56 51.78125 48.09375 
Q 58.015625 40.1875 58.015625 27.296875 
Q 58.015625 14.40625 51.78125 6.484375 
Q 45.5625 -1.421875 35.59375 -1.421875 
Q 29.59375 -1.421875 25.265625 0.953125 
Q 20.953125 3.328125 18.109375 8.203125 
z
M 48.6875 27.296875 
Q 48.6875 37.203125 44.609375 42.84375 
Q 40.53125 48.484375 33.40625 48.484375 
Q 26.265625 48.484375 22.1875 42.84375 
Q 18.109375 37.203125 18.109375 27.296875 
Q 18.109375 17.390625 22.1875 11.75 
Q 26.265625 6.109375 33.40625 6.109375 
Q 40.53125 6.109375 44.609375 11.75 
Q 48.6875 17.390625 48.6875 27.296875 
z
" id="DejaVuSans-70"/>
     </defs>
     <g transform="translate(1138.940938 254.697656)rotate(-90)scale(0.1 -0.1)">
      <use xlink:href="#DejaVuSans-4e"/>
      <use x="74.804688" xlink:href="#DejaVuSans-75"/>
      <use x="138.183594" xlink:href="#DejaVuSans-6d"/>
      <use x="235.595703" xlink:href="#DejaVuSans-62"/>
      <use x="299.072266" xlink:href="#DejaVuSans-65"/>
      <use x="360.595703" xlink:href="#DejaVuSans-72"/>
      <use x="401.708984" xlink:href="#DejaVuSans-20"/>
      <use x="433.496094" xlink:href="#DejaVuSans-6f"/>
      <use x="494.677734" xlink:href="#DejaVuSans-66"/>
      <use x="529.882812" xlink:href="#DejaVuSans-20"/>
      <use x="561.669922" xlink:href="#DejaVuSans-65"/>
      <use x="623.177734" xlink:href="#DejaVuSans-78"/>
      <use x="682.357422" xlink:href="#DejaVuSans-61"/>
      <use x="743.636719" xlink:href="#DejaVuSans-6d"/>
      <use x="841.048828" xlink:href="#DejaVuSans-70"/>
      <use x="904.525391" xlink:href="#DejaVuSans-6c"/>
      <use x="932.308594" xlink:href="#DejaVuSans-65"/>
      <use x="993.832031" xlink:href="#DejaVuSans-73"/>
     </g>
    </g>
   </g>
   <g id="patch_91">
    <path d="M 47.72 390.04 
L 47.72 14.76 
" style="fill:none;stroke:#000000;stroke-linecap:square;stroke-linejoin:miter;stroke-width:0.8;"/>
   </g>
   <g id="patch_92">
    <path d="M 1088.53 390.04 
L 1088.53 14.76 
" style="fill:none;stroke:#000000;stroke-linecap:square;stroke-linejoin:miter;stroke-width:0.8;"/>
   </g>
   <g id="patch_93">
    <path d="M 47.72 390.04 
L 1088.53 390.04 
" style="fill:none;stroke:#000000;stroke-linecap:square;stroke-linejoin:miter;stroke-width:0.8;"/>
   </g>
   <g id="patch_94">
    <path d="M 47.72 14.76 
L 1088.53 14.76 
" style="fill:none;stroke:#000000;stroke-linecap:square;stroke-linejoin:miter;stroke-width:0.8;"/>
   </g>
   <g id="legend_1">
    <g id="patch_95">
     <path d="M 917.93 66.86 
L 1081.53 66.86 
Q 1083.53 66.86 1083.53 64.86 
L 1083.53 21.76 
Q 1083.53 19.76 1081.53 19.76 
L 917.93 19.76 
Q 915.93 19.76 915.93 21.76 
L 915.93 64.86 
Q 915.93 66.86 917.93 66.86 
z
" style="fill:#ffffff;opacity:0.8;stroke:#cccccc;stroke-linejoin:miter;"/>
    </g>
    <g id="line2d_48">
     <path d="M 919.93 27.86 
L 939.93 27.86 
" style="fill:none;stroke:#1f77b4;stroke-linecap:square;stroke-width:1.5;"/>
    </g>
    <g id="line2d_49">
     <g>
      <use style="fill:#1f77b4;stroke:#1f77b4;" x="929.93" xlink:href="#mb439eb02a6" y="27.86"/>
     </g>
    </g>
    <g id="text_48">
     <!-- Stacking on $\it{CMB}$ dataset -->
     <defs>
      <path d="M 53.515625 70.515625 
L 53.515625 60.890625 
Q 47.90625 63.578125 42.921875 64.890625 
Q 37.9375 66.21875 33.296875 66.21875 
Q 25.25 66.21875 20.875 63.09375 
Q 16.5 59.96875 16.5 54.203125 
Q 16.5 49.359375 19.40625 46.890625 
Q 22.3125 44.4375 30.421875 42.921875 
L 36.375 41.703125 
Q 47.40625 39.59375 52.65625 34.296875 
Q 57.90625 29 57.90625 20.125 
Q 57.90625 9.515625 50.796875 4.046875 
Q 43.703125 -1.421875 29.984375 -1.421875 
Q 24.8125 -1.421875 18.96875 -0.25 
Q 13.140625 0.921875 6.890625 3.21875 
L 6.890625 13.375 
Q 12.890625 10.015625 18.65625 8.296875 
Q 24.421875 6.59375 29.984375 6.59375 
Q 38.421875 6.59375 43.015625 9.90625 
Q 47.609375 13.234375 47.609375 19.390625 
Q 47.609375 24.75 44.3125 27.78125 
Q 41.015625 30.8125 33.5 32.328125 
L 27.484375 33.5 
Q 16.453125 35.6875 11.515625 40.375 
Q 6.59375 45.0625 6.59375 53.421875 
Q 6.59375 63.09375 13.40625 68.65625 
Q 20.21875 74.21875 32.171875 74.21875 
Q 37.3125 74.21875 42.625 73.28125 
Q 47.953125 72.359375 53.515625 70.515625 
z
" id="DejaVuSans-53"/>
      <path d="M 9.078125 75.984375 
L 18.109375 75.984375 
L 18.109375 31.109375 
L 44.921875 54.6875 
L 56.390625 54.6875 
L 27.390625 29.109375 
L 57.625 0 
L 45.90625 0 
L 18.109375 26.703125 
L 18.109375 0 
L 9.078125 0 
z
" id="DejaVuSans-6b"/>
      <path d="M 45.40625 27.984375 
Q 45.40625 37.75 41.375 43.109375 
Q 37.359375 48.484375 30.078125 48.484375 
Q 22.859375 48.484375 18.828125 43.109375 
Q 14.796875 37.75 14.796875 27.984375 
Q 14.796875 18.265625 18.828125 12.890625 
Q 22.859375 7.515625 30.078125 7.515625 
Q 37.359375 7.515625 41.375 12.890625 
Q 45.40625 18.265625 45.40625 27.984375 
z
M 54.390625 6.78125 
Q 54.390625 -7.171875 48.1875 -13.984375 
Q 42 -20.796875 29.203125 -20.796875 
Q 24.46875 -20.796875 20.265625 -20.09375 
Q 16.0625 -19.390625 12.109375 -17.921875 
L 12.109375 -9.1875 
Q 16.0625 -11.328125 19.921875 -12.34375 
Q 23.78125 -13.375 27.78125 -13.375 
Q 36.625 -13.375 41.015625 -8.765625 
Q 45.40625 -4.15625 45.40625 5.171875 
L 45.40625 9.625 
Q 42.625 4.78125 38.28125 2.390625 
Q 33.9375 0 27.875 0 
Q 17.828125 0 11.671875 7.65625 
Q 5.515625 15.328125 5.515625 27.984375 
Q 5.515625 40.671875 11.671875 48.328125 
Q 17.828125 56 27.875 56 
Q 33.9375 56 38.28125 53.609375 
Q 42.625 51.21875 45.40625 46.390625 
L 45.40625 54.6875 
L 54.390625 54.6875 
z
" id="DejaVuSans-67"/>
      <path d="M 69.484375 67.28125 
L 67.484375 56.890625 
Q 62.796875 61.625 57.546875 63.921875 
Q 52.296875 66.21875 46.1875 66.21875 
Q 37.84375 66.21875 31.515625 62.203125 
Q 25.203125 58.203125 20.609375 50 
Q 17.671875 44.734375 16.125 38.84375 
Q 14.59375 32.953125 14.59375 27 
Q 14.59375 17.046875 19.75 11.8125 
Q 24.90625 6.59375 34.71875 6.59375 
Q 41.5 6.59375 47.75 8.765625 
Q 54 10.9375 59.90625 15.28125 
L 57.625 3.609375 
Q 51.8125 1.125 45.875 -0.140625 
Q 39.9375 -1.421875 33.984375 -1.421875 
Q 19.96875 -1.421875 12.078125 6.1875 
Q 4.203125 13.8125 4.203125 27.390625 
Q 4.203125 36.078125 7.203125 44.46875 
Q 10.203125 52.875 15.828125 59.8125 
Q 21.78125 67.1875 29.421875 70.703125 
Q 37.0625 74.21875 47.21875 74.21875 
Q 53.46875 74.21875 59.0625 72.484375 
Q 64.65625 70.75 69.484375 67.28125 
z
" id="DejaVuSans-Oblique-43"/>
      <path d="M 16.890625 72.90625 
L 31.6875 72.90625 
L 40.1875 23.78125 
L 68.40625 72.90625 
L 83.59375 72.90625 
L 69.390625 0 
L 59.8125 0 
L 72.21875 63.921875 
L 43.609375 14.015625 
L 33.984375 14.015625 
L 24.703125 64.109375 
L 12.3125 0 
L 2.6875 0 
z
" id="DejaVuSans-Oblique-4d"/>
      <path d="M 16.890625 72.90625 
L 42.09375 72.90625 
Q 52.34375 72.90625 57.421875 69.09375 
Q 62.5 65.28125 62.5 57.625 
Q 62.5 50.59375 58.125 45.484375 
Q 53.765625 40.375 46.6875 39.3125 
Q 52.734375 37.9375 55.765625 34.078125 
Q 58.796875 30.21875 58.796875 23.78125 
Q 58.796875 12.796875 50.65625 6.390625 
Q 42.53125 0 28.421875 0 
L 2.6875 0 
z
M 19.28125 34.8125 
L 14.109375 8.109375 
L 29.984375 8.109375 
Q 38.921875 8.109375 43.75 12.203125 
Q 48.578125 16.3125 48.578125 23.78125 
Q 48.578125 29.546875 45.375 32.171875 
Q 42.1875 34.8125 35.109375 34.8125 
z
M 25.09375 64.796875 
L 20.796875 42.828125 
L 35.5 42.828125 
Q 43.359375 42.828125 47.78125 46.234375 
Q 52.203125 49.65625 52.203125 55.71875 
Q 52.203125 60.453125 49.21875 62.625 
Q 46.234375 64.796875 39.703125 64.796875 
z
" id="DejaVuSans-Oblique-42"/>
      <path d="M 45.40625 46.390625 
L 45.40625 75.984375 
L 54.390625 75.984375 
L 54.390625 0 
L 45.40625 0 
L 45.40625 8.203125 
Q 42.578125 3.328125 38.25 0.953125 
Q 33.9375 -1.421875 27.875 -1.421875 
Q 17.96875 -1.421875 11.734375 6.484375 
Q 5.515625 14.40625 5.515625 27.296875 
Q 5.515625 40.1875 11.734375 48.09375 
Q 17.96875 56 27.875 56 
Q 33.9375 56 38.25 53.625 
Q 42.578125 51.265625 45.40625 46.390625 
z
M 14.796875 27.296875 
Q 14.796875 17.390625 18.875 11.75 
Q 22.953125 6.109375 30.078125 6.109375 
Q 37.203125 6.109375 41.296875 11.75 
Q 45.40625 17.390625 45.40625 27.296875 
Q 45.40625 37.203125 41.296875 42.84375 
Q 37.203125 48.484375 30.078125 48.484375 
Q 22.953125 48.484375 18.875 42.84375 
Q 14.796875 37.203125 14.796875 27.296875 
z
" id="DejaVuSans-64"/>
     </defs>
     <g transform="translate(947.93 31.36)scale(0.1 -0.1)">
      <use transform="translate(0 0.015625)" xlink:href="#DejaVuSans-53"/>
      <use transform="translate(63.476562 0.015625)" xlink:href="#DejaVuSans-74"/>
      <use transform="translate(102.685547 0.015625)" xlink:href="#DejaVuSans-61"/>
      <use transform="translate(163.964844 0.015625)" xlink:href="#DejaVuSans-63"/>
      <use transform="translate(218.945312 0.015625)" xlink:href="#DejaVuSans-6b"/>
      <use transform="translate(276.855469 0.015625)" xlink:href="#DejaVuSans-69"/>
      <use transform="translate(304.638672 0.015625)" xlink:href="#DejaVuSans-6e"/>
      <use transform="translate(368.017578 0.015625)" xlink:href="#DejaVuSans-67"/>
      <use transform="translate(431.494141 0.015625)" xlink:href="#DejaVuSans-20"/>
      <use transform="translate(463.28125 0.015625)" xlink:href="#DejaVuSans-6f"/>
      <use transform="translate(524.462891 0.015625)" xlink:href="#DejaVuSans-6e"/>
      <use transform="translate(587.841797 0.015625)" xlink:href="#DejaVuSans-20"/>
      <use transform="translate(619.628906 0.015625)" xlink:href="#DejaVuSans-Oblique-43"/>
      <use transform="translate(689.453125 0.015625)" xlink:href="#DejaVuSans-Oblique-4d"/>
      <use transform="translate(775.732422 0.015625)" xlink:href="#DejaVuSans-Oblique-42"/>
      <use transform="translate(844.335938 0.015625)" xlink:href="#DejaVuSans-20"/>
      <use transform="translate(876.123047 0.015625)" xlink:href="#DejaVuSans-64"/>
      <use transform="translate(939.599609 0.015625)" xlink:href="#DejaVuSans-61"/>
      <use transform="translate(1000.878906 0.015625)" xlink:href="#DejaVuSans-74"/>
      <use transform="translate(1040.087891 0.015625)" xlink:href="#DejaVuSans-61"/>
      <use transform="translate(1101.367188 0.015625)" xlink:href="#DejaVuSans-73"/>
      <use transform="translate(1153.466797 0.015625)" xlink:href="#DejaVuSans-65"/>
      <use transform="translate(1214.990234 0.015625)" xlink:href="#DejaVuSans-74"/>
     </g>
    </g>
    <g id="line2d_50">
     <path d="M 919.93 42.56 
L 939.93 42.56 
" style="fill:none;stroke:#ff7f0e;stroke-linecap:square;stroke-width:1.5;"/>
    </g>
    <g id="line2d_51">
     <g>
      <use style="fill:#ff7f0e;stroke:#ff7f0e;stroke-linejoin:miter;" x="929.93" xlink:href="#m97d0d709bc" y="42.56"/>
     </g>
    </g>
    <g id="text_49">
     <!-- Stacking on $\it{TAMC}$ dataset -->
     <defs>
      <path d="M 5.90625 72.90625 
L 67.578125 72.90625 
L 66.015625 64.59375 
L 39.984375 64.59375 
L 27.484375 0 
L 17.578125 0 
L 30.078125 64.59375 
L 4.296875 64.59375 
z
" id="DejaVuSans-Oblique-54"/>
      <path d="M 36.8125 72.90625 
L 48 72.90625 
L 61.53125 0 
L 51.21875 0 
L 48.1875 18.703125 
L 15.375 18.703125 
L 5.078125 0 
L -5.328125 0 
z
M 40.375 63.1875 
L 19.921875 26.90625 
L 46.6875 26.90625 
z
" id="DejaVuSans-Oblique-41"/>
     </defs>
     <g transform="translate(947.93 46.06)scale(0.1 -0.1)">
      <use transform="translate(0 0.015625)" xlink:href="#DejaVuSans-53"/>
      <use transform="translate(63.476562 0.015625)" xlink:href="#DejaVuSans-74"/>
      <use transform="translate(102.685547 0.015625)" xlink:href="#DejaVuSans-61"/>
      <use transform="translate(163.964844 0.015625)" xlink:href="#DejaVuSans-63"/>
      <use transform="translate(218.945312 0.015625)" xlink:href="#DejaVuSans-6b"/>
      <use transform="translate(276.855469 0.015625)" xlink:href="#DejaVuSans-69"/>
      <use transform="translate(304.638672 0.015625)" xlink:href="#DejaVuSans-6e"/>
      <use transform="translate(368.017578 0.015625)" xlink:href="#DejaVuSans-67"/>
      <use transform="translate(431.494141 0.015625)" xlink:href="#DejaVuSans-20"/>
      <use transform="translate(463.28125 0.015625)" xlink:href="#DejaVuSans-6f"/>
      <use transform="translate(524.462891 0.015625)" xlink:href="#DejaVuSans-6e"/>
      <use transform="translate(587.841797 0.015625)" xlink:href="#DejaVuSans-20"/>
      <use transform="translate(619.628906 0.015625)" xlink:href="#DejaVuSans-Oblique-54"/>
      <use transform="translate(680.712891 0.015625)" xlink:href="#DejaVuSans-Oblique-41"/>
      <use transform="translate(749.121094 0.015625)" xlink:href="#DejaVuSans-Oblique-4d"/>
      <use transform="translate(835.400391 0.015625)" xlink:href="#DejaVuSans-Oblique-43"/>
      <use transform="translate(905.224609 0.015625)" xlink:href="#DejaVuSans-20"/>
      <use transform="translate(937.011719 0.015625)" xlink:href="#DejaVuSans-64"/>
      <use transform="translate(1000.488281 0.015625)" xlink:href="#DejaVuSans-61"/>
      <use transform="translate(1061.767578 0.015625)" xlink:href="#DejaVuSans-74"/>
      <use transform="translate(1100.976562 0.015625)" xlink:href="#DejaVuSans-61"/>
      <use transform="translate(1162.255859 0.015625)" xlink:href="#DejaVuSans-73"/>
      <use transform="translate(1214.355469 0.015625)" xlink:href="#DejaVuSans-65"/>
      <use transform="translate(1275.878906 0.015625)" xlink:href="#DejaVuSans-74"/>
     </g>
    </g>
    <g id="line2d_52">
     <path d="M 919.93 57.26 
L 939.93 57.26 
" style="fill:none;stroke:#2ca02c;stroke-linecap:square;stroke-width:1.5;"/>
    </g>
    <g id="line2d_53">
     <g>
      <use style="fill:#2ca02c;stroke:#2ca02c;stroke-linejoin:miter;" x="929.93" xlink:href="#mab2b397d38" y="57.26"/>
     </g>
    </g>
    <g id="text_50">
     <!-- Stacking on $\it{CL}$ dataset -->
     <defs>
      <path d="M 16.796875 72.90625 
L 26.703125 72.90625 
L 14.203125 8.203125 
L 49.703125 8.203125 
L 48.09375 0 
L 2.6875 0 
z
" id="DejaVuSans-Oblique-4c"/>
     </defs>
     <g transform="translate(947.93 60.76)scale(0.1 -0.1)">
      <use transform="translate(0 0.015625)" xlink:href="#DejaVuSans-53"/>
      <use transform="translate(63.476562 0.015625)" xlink:href="#DejaVuSans-74"/>
      <use transform="translate(102.685547 0.015625)" xlink:href="#DejaVuSans-61"/>
      <use transform="translate(163.964844 0.015625)" xlink:href="#DejaVuSans-63"/>
      <use transform="translate(218.945312 0.015625)" xlink:href="#DejaVuSans-6b"/>
      <use transform="translate(276.855469 0.015625)" xlink:href="#DejaVuSans-69"/>
      <use transform="translate(304.638672 0.015625)" xlink:href="#DejaVuSans-6e"/>
      <use transform="translate(368.017578 0.015625)" xlink:href="#DejaVuSans-67"/>
      <use transform="translate(431.494141 0.015625)" xlink:href="#DejaVuSans-20"/>
      <use transform="translate(463.28125 0.015625)" xlink:href="#DejaVuSans-6f"/>
      <use transform="translate(524.462891 0.015625)" xlink:href="#DejaVuSans-6e"/>
      <use transform="translate(587.841797 0.015625)" xlink:href="#DejaVuSans-20"/>
      <use transform="translate(619.628906 0.015625)" xlink:href="#DejaVuSans-Oblique-43"/>
      <use transform="translate(689.453125 0.015625)" xlink:href="#DejaVuSans-Oblique-4c"/>
      <use transform="translate(745.166016 0.015625)" xlink:href="#DejaVuSans-20"/>
      <use transform="translate(776.953125 0.015625)" xlink:href="#DejaVuSans-64"/>
      <use transform="translate(840.429688 0.015625)" xlink:href="#DejaVuSans-61"/>
      <use transform="translate(901.708984 0.015625)" xlink:href="#DejaVuSans-74"/>
      <use transform="translate(940.917969 0.015625)" xlink:href="#DejaVuSans-61"/>
      <use transform="translate(1002.197266 0.015625)" xlink:href="#DejaVuSans-73"/>
      <use transform="translate(1054.296875 0.015625)" xlink:href="#DejaVuSans-65"/>
      <use transform="translate(1115.820312 0.015625)" xlink:href="#DejaVuSans-74"/>
     </g>
    </g>
   </g>
  </g>
 </g>
 <defs>
  <clipPath id="p6968ece65f">
   <rect height="375.28" width="1040.81" x="47.72" y="14.76"/>
  </clipPath>
 </defs>
</svg>
